G04 #@! TF.FileFunction,Legend,Top*
%FSLAX46Y46*%
G04 Gerber Fmt 4.6, Leading zero omitted, Abs format (unit mm)*
G04 Created by KiCad (PCBNEW 4.0.2-stable) date 7/14/2016 7:04:17 PM*
%MOMM*%
G01*
G04 APERTURE LIST*
%ADD10C,0.100000*%
%ADD11C,0.200000*%
%ADD12C,0.381000*%
%ADD13C,0.150000*%
%ADD14C,2.686000*%
%ADD15C,1.800000*%
%ADD16C,2.200000*%
%ADD17R,1.700000X1.250000*%
%ADD18C,2.178000*%
%ADD19C,2.279600*%
%ADD20C,1.924000*%
%ADD21R,1.924000X1.924000*%
%ADD22C,1.500000*%
G04 APERTURE END LIST*
D10*
D11*
X376987144Y-155718571D02*
X376272858Y-155718571D01*
X376272858Y-154218571D01*
X377487144Y-154932857D02*
X377987144Y-154932857D01*
X378201430Y-155718571D02*
X377487144Y-155718571D01*
X377487144Y-154218571D01*
X378201430Y-154218571D01*
X378844287Y-155718571D02*
X378844287Y-154218571D01*
X379201430Y-154218571D01*
X379415715Y-154290000D01*
X379558573Y-154432857D01*
X379630001Y-154575714D01*
X379701430Y-154861429D01*
X379701430Y-155075714D01*
X379630001Y-155361429D01*
X379558573Y-155504286D01*
X379415715Y-155647143D01*
X379201430Y-155718571D01*
X378844287Y-155718571D01*
X380987144Y-154218571D02*
X380701430Y-154218571D01*
X380558573Y-154290000D01*
X380487144Y-154361429D01*
X380344287Y-154575714D01*
X380272858Y-154861429D01*
X380272858Y-155432857D01*
X380344287Y-155575714D01*
X380415715Y-155647143D01*
X380558573Y-155718571D01*
X380844287Y-155718571D01*
X380987144Y-155647143D01*
X381058573Y-155575714D01*
X381130001Y-155432857D01*
X381130001Y-155075714D01*
X381058573Y-154932857D01*
X380987144Y-154861429D01*
X380844287Y-154790000D01*
X380558573Y-154790000D01*
X380415715Y-154861429D01*
X380344287Y-154932857D01*
X380272858Y-155075714D01*
X381701429Y-154361429D02*
X381772858Y-154290000D01*
X381915715Y-154218571D01*
X382272858Y-154218571D01*
X382415715Y-154290000D01*
X382487144Y-154361429D01*
X382558572Y-154504286D01*
X382558572Y-154647143D01*
X382487144Y-154861429D01*
X381630001Y-155718571D01*
X382558572Y-155718571D01*
X357937144Y-155718571D02*
X357222858Y-155718571D01*
X357222858Y-154218571D01*
X358437144Y-154932857D02*
X358937144Y-154932857D01*
X359151430Y-155718571D02*
X358437144Y-155718571D01*
X358437144Y-154218571D01*
X359151430Y-154218571D01*
X359794287Y-155718571D02*
X359794287Y-154218571D01*
X360151430Y-154218571D01*
X360365715Y-154290000D01*
X360508573Y-154432857D01*
X360580001Y-154575714D01*
X360651430Y-154861429D01*
X360651430Y-155075714D01*
X360580001Y-155361429D01*
X360508573Y-155504286D01*
X360365715Y-155647143D01*
X360151430Y-155718571D01*
X359794287Y-155718571D01*
X361937144Y-154218571D02*
X361651430Y-154218571D01*
X361508573Y-154290000D01*
X361437144Y-154361429D01*
X361294287Y-154575714D01*
X361222858Y-154861429D01*
X361222858Y-155432857D01*
X361294287Y-155575714D01*
X361365715Y-155647143D01*
X361508573Y-155718571D01*
X361794287Y-155718571D01*
X361937144Y-155647143D01*
X362008573Y-155575714D01*
X362080001Y-155432857D01*
X362080001Y-155075714D01*
X362008573Y-154932857D01*
X361937144Y-154861429D01*
X361794287Y-154790000D01*
X361508573Y-154790000D01*
X361365715Y-154861429D01*
X361294287Y-154932857D01*
X361222858Y-155075714D01*
X362580001Y-154218571D02*
X363508572Y-154218571D01*
X363008572Y-154790000D01*
X363222858Y-154790000D01*
X363365715Y-154861429D01*
X363437144Y-154932857D01*
X363508572Y-155075714D01*
X363508572Y-155432857D01*
X363437144Y-155575714D01*
X363365715Y-155647143D01*
X363222858Y-155718571D01*
X362794286Y-155718571D01*
X362651429Y-155647143D01*
X362580001Y-155575714D01*
X338887144Y-155718571D02*
X338172858Y-155718571D01*
X338172858Y-154218571D01*
X339387144Y-154932857D02*
X339887144Y-154932857D01*
X340101430Y-155718571D02*
X339387144Y-155718571D01*
X339387144Y-154218571D01*
X340101430Y-154218571D01*
X340744287Y-155718571D02*
X340744287Y-154218571D01*
X341101430Y-154218571D01*
X341315715Y-154290000D01*
X341458573Y-154432857D01*
X341530001Y-154575714D01*
X341601430Y-154861429D01*
X341601430Y-155075714D01*
X341530001Y-155361429D01*
X341458573Y-155504286D01*
X341315715Y-155647143D01*
X341101430Y-155718571D01*
X340744287Y-155718571D01*
X342887144Y-154218571D02*
X342601430Y-154218571D01*
X342458573Y-154290000D01*
X342387144Y-154361429D01*
X342244287Y-154575714D01*
X342172858Y-154861429D01*
X342172858Y-155432857D01*
X342244287Y-155575714D01*
X342315715Y-155647143D01*
X342458573Y-155718571D01*
X342744287Y-155718571D01*
X342887144Y-155647143D01*
X342958573Y-155575714D01*
X343030001Y-155432857D01*
X343030001Y-155075714D01*
X342958573Y-154932857D01*
X342887144Y-154861429D01*
X342744287Y-154790000D01*
X342458573Y-154790000D01*
X342315715Y-154861429D01*
X342244287Y-154932857D01*
X342172858Y-155075714D01*
X344315715Y-154718571D02*
X344315715Y-155718571D01*
X343958572Y-154147143D02*
X343601429Y-155218571D01*
X344530001Y-155218571D01*
X307927144Y-155718571D02*
X307212858Y-155718571D01*
X307212858Y-154218571D01*
X308427144Y-154932857D02*
X308927144Y-154932857D01*
X309141430Y-155718571D02*
X308427144Y-155718571D01*
X308427144Y-154218571D01*
X309141430Y-154218571D01*
X309784287Y-155718571D02*
X309784287Y-154218571D01*
X310141430Y-154218571D01*
X310355715Y-154290000D01*
X310498573Y-154432857D01*
X310570001Y-154575714D01*
X310641430Y-154861429D01*
X310641430Y-155075714D01*
X310570001Y-155361429D01*
X310498573Y-155504286D01*
X310355715Y-155647143D01*
X310141430Y-155718571D01*
X309784287Y-155718571D01*
X311927144Y-154218571D02*
X311641430Y-154218571D01*
X311498573Y-154290000D01*
X311427144Y-154361429D01*
X311284287Y-154575714D01*
X311212858Y-154861429D01*
X311212858Y-155432857D01*
X311284287Y-155575714D01*
X311355715Y-155647143D01*
X311498573Y-155718571D01*
X311784287Y-155718571D01*
X311927144Y-155647143D01*
X311998573Y-155575714D01*
X312070001Y-155432857D01*
X312070001Y-155075714D01*
X311998573Y-154932857D01*
X311927144Y-154861429D01*
X311784287Y-154790000D01*
X311498573Y-154790000D01*
X311355715Y-154861429D01*
X311284287Y-154932857D01*
X311212858Y-155075714D01*
X313427144Y-154218571D02*
X312712858Y-154218571D01*
X312641429Y-154932857D01*
X312712858Y-154861429D01*
X312855715Y-154790000D01*
X313212858Y-154790000D01*
X313355715Y-154861429D01*
X313427144Y-154932857D01*
X313498572Y-155075714D01*
X313498572Y-155432857D01*
X313427144Y-155575714D01*
X313355715Y-155647143D01*
X313212858Y-155718571D01*
X312855715Y-155718571D01*
X312712858Y-155647143D01*
X312641429Y-155575714D01*
X284117144Y-155718571D02*
X283402858Y-155718571D01*
X283402858Y-154218571D01*
X284617144Y-154932857D02*
X285117144Y-154932857D01*
X285331430Y-155718571D02*
X284617144Y-155718571D01*
X284617144Y-154218571D01*
X285331430Y-154218571D01*
X285974287Y-155718571D02*
X285974287Y-154218571D01*
X286331430Y-154218571D01*
X286545715Y-154290000D01*
X286688573Y-154432857D01*
X286760001Y-154575714D01*
X286831430Y-154861429D01*
X286831430Y-155075714D01*
X286760001Y-155361429D01*
X286688573Y-155504286D01*
X286545715Y-155647143D01*
X286331430Y-155718571D01*
X285974287Y-155718571D01*
X288117144Y-154218571D02*
X287831430Y-154218571D01*
X287688573Y-154290000D01*
X287617144Y-154361429D01*
X287474287Y-154575714D01*
X287402858Y-154861429D01*
X287402858Y-155432857D01*
X287474287Y-155575714D01*
X287545715Y-155647143D01*
X287688573Y-155718571D01*
X287974287Y-155718571D01*
X288117144Y-155647143D01*
X288188573Y-155575714D01*
X288260001Y-155432857D01*
X288260001Y-155075714D01*
X288188573Y-154932857D01*
X288117144Y-154861429D01*
X287974287Y-154790000D01*
X287688573Y-154790000D01*
X287545715Y-154861429D01*
X287474287Y-154932857D01*
X287402858Y-155075714D01*
X289545715Y-154218571D02*
X289260001Y-154218571D01*
X289117144Y-154290000D01*
X289045715Y-154361429D01*
X288902858Y-154575714D01*
X288831429Y-154861429D01*
X288831429Y-155432857D01*
X288902858Y-155575714D01*
X288974286Y-155647143D01*
X289117144Y-155718571D01*
X289402858Y-155718571D01*
X289545715Y-155647143D01*
X289617144Y-155575714D01*
X289688572Y-155432857D01*
X289688572Y-155075714D01*
X289617144Y-154932857D01*
X289545715Y-154861429D01*
X289402858Y-154790000D01*
X289117144Y-154790000D01*
X288974286Y-154861429D01*
X288902858Y-154932857D01*
X288831429Y-155075714D01*
X260307144Y-155718571D02*
X259592858Y-155718571D01*
X259592858Y-154218571D01*
X260807144Y-154932857D02*
X261307144Y-154932857D01*
X261521430Y-155718571D02*
X260807144Y-155718571D01*
X260807144Y-154218571D01*
X261521430Y-154218571D01*
X262164287Y-155718571D02*
X262164287Y-154218571D01*
X262521430Y-154218571D01*
X262735715Y-154290000D01*
X262878573Y-154432857D01*
X262950001Y-154575714D01*
X263021430Y-154861429D01*
X263021430Y-155075714D01*
X262950001Y-155361429D01*
X262878573Y-155504286D01*
X262735715Y-155647143D01*
X262521430Y-155718571D01*
X262164287Y-155718571D01*
X264307144Y-154218571D02*
X264021430Y-154218571D01*
X263878573Y-154290000D01*
X263807144Y-154361429D01*
X263664287Y-154575714D01*
X263592858Y-154861429D01*
X263592858Y-155432857D01*
X263664287Y-155575714D01*
X263735715Y-155647143D01*
X263878573Y-155718571D01*
X264164287Y-155718571D01*
X264307144Y-155647143D01*
X264378573Y-155575714D01*
X264450001Y-155432857D01*
X264450001Y-155075714D01*
X264378573Y-154932857D01*
X264307144Y-154861429D01*
X264164287Y-154790000D01*
X263878573Y-154790000D01*
X263735715Y-154861429D01*
X263664287Y-154932857D01*
X263592858Y-155075714D01*
X264950001Y-154218571D02*
X265950001Y-154218571D01*
X265307144Y-155718571D01*
X188867144Y-155718571D02*
X188152858Y-155718571D01*
X188152858Y-154218571D01*
X189367144Y-154932857D02*
X189867144Y-154932857D01*
X190081430Y-155718571D02*
X189367144Y-155718571D01*
X189367144Y-154218571D01*
X190081430Y-154218571D01*
X190724287Y-155718571D02*
X190724287Y-154218571D01*
X191081430Y-154218571D01*
X191295715Y-154290000D01*
X191438573Y-154432857D01*
X191510001Y-154575714D01*
X191581430Y-154861429D01*
X191581430Y-155075714D01*
X191510001Y-155361429D01*
X191438573Y-155504286D01*
X191295715Y-155647143D01*
X191081430Y-155718571D01*
X190724287Y-155718571D01*
X192867144Y-154218571D02*
X192581430Y-154218571D01*
X192438573Y-154290000D01*
X192367144Y-154361429D01*
X192224287Y-154575714D01*
X192152858Y-154861429D01*
X192152858Y-155432857D01*
X192224287Y-155575714D01*
X192295715Y-155647143D01*
X192438573Y-155718571D01*
X192724287Y-155718571D01*
X192867144Y-155647143D01*
X192938573Y-155575714D01*
X193010001Y-155432857D01*
X193010001Y-155075714D01*
X192938573Y-154932857D01*
X192867144Y-154861429D01*
X192724287Y-154790000D01*
X192438573Y-154790000D01*
X192295715Y-154861429D01*
X192224287Y-154932857D01*
X192152858Y-155075714D01*
X193867144Y-154861429D02*
X193724286Y-154790000D01*
X193652858Y-154718571D01*
X193581429Y-154575714D01*
X193581429Y-154504286D01*
X193652858Y-154361429D01*
X193724286Y-154290000D01*
X193867144Y-154218571D01*
X194152858Y-154218571D01*
X194295715Y-154290000D01*
X194367144Y-154361429D01*
X194438572Y-154504286D01*
X194438572Y-154575714D01*
X194367144Y-154718571D01*
X194295715Y-154790000D01*
X194152858Y-154861429D01*
X193867144Y-154861429D01*
X193724286Y-154932857D01*
X193652858Y-155004286D01*
X193581429Y-155147143D01*
X193581429Y-155432857D01*
X193652858Y-155575714D01*
X193724286Y-155647143D01*
X193867144Y-155718571D01*
X194152858Y-155718571D01*
X194295715Y-155647143D01*
X194367144Y-155575714D01*
X194438572Y-155432857D01*
X194438572Y-155147143D01*
X194367144Y-155004286D01*
X194295715Y-154932857D01*
X194152858Y-154861429D01*
X117427144Y-155718571D02*
X116712858Y-155718571D01*
X116712858Y-154218571D01*
X117927144Y-154932857D02*
X118427144Y-154932857D01*
X118641430Y-155718571D02*
X117927144Y-155718571D01*
X117927144Y-154218571D01*
X118641430Y-154218571D01*
X119284287Y-155718571D02*
X119284287Y-154218571D01*
X119641430Y-154218571D01*
X119855715Y-154290000D01*
X119998573Y-154432857D01*
X120070001Y-154575714D01*
X120141430Y-154861429D01*
X120141430Y-155075714D01*
X120070001Y-155361429D01*
X119998573Y-155504286D01*
X119855715Y-155647143D01*
X119641430Y-155718571D01*
X119284287Y-155718571D01*
X121427144Y-154218571D02*
X121141430Y-154218571D01*
X120998573Y-154290000D01*
X120927144Y-154361429D01*
X120784287Y-154575714D01*
X120712858Y-154861429D01*
X120712858Y-155432857D01*
X120784287Y-155575714D01*
X120855715Y-155647143D01*
X120998573Y-155718571D01*
X121284287Y-155718571D01*
X121427144Y-155647143D01*
X121498573Y-155575714D01*
X121570001Y-155432857D01*
X121570001Y-155075714D01*
X121498573Y-154932857D01*
X121427144Y-154861429D01*
X121284287Y-154790000D01*
X120998573Y-154790000D01*
X120855715Y-154861429D01*
X120784287Y-154932857D01*
X120712858Y-155075714D01*
X122284286Y-155718571D02*
X122570001Y-155718571D01*
X122712858Y-155647143D01*
X122784286Y-155575714D01*
X122927144Y-155361429D01*
X122998572Y-155075714D01*
X122998572Y-154504286D01*
X122927144Y-154361429D01*
X122855715Y-154290000D01*
X122712858Y-154218571D01*
X122427144Y-154218571D01*
X122284286Y-154290000D01*
X122212858Y-154361429D01*
X122141429Y-154504286D01*
X122141429Y-154861429D01*
X122212858Y-155004286D01*
X122284286Y-155075714D01*
X122427144Y-155147143D01*
X122712858Y-155147143D01*
X122855715Y-155075714D01*
X122927144Y-155004286D01*
X122998572Y-154861429D01*
X93617144Y-155718571D02*
X92902858Y-155718571D01*
X92902858Y-154218571D01*
X94117144Y-154932857D02*
X94617144Y-154932857D01*
X94831430Y-155718571D02*
X94117144Y-155718571D01*
X94117144Y-154218571D01*
X94831430Y-154218571D01*
X95474287Y-155718571D02*
X95474287Y-154218571D01*
X95831430Y-154218571D01*
X96045715Y-154290000D01*
X96188573Y-154432857D01*
X96260001Y-154575714D01*
X96331430Y-154861429D01*
X96331430Y-155075714D01*
X96260001Y-155361429D01*
X96188573Y-155504286D01*
X96045715Y-155647143D01*
X95831430Y-155718571D01*
X95474287Y-155718571D01*
X96831430Y-154218571D02*
X97831430Y-154218571D01*
X97188573Y-155718571D01*
X98688572Y-154218571D02*
X98831429Y-154218571D01*
X98974286Y-154290000D01*
X99045715Y-154361429D01*
X99117144Y-154504286D01*
X99188572Y-154790000D01*
X99188572Y-155147143D01*
X99117144Y-155432857D01*
X99045715Y-155575714D01*
X98974286Y-155647143D01*
X98831429Y-155718571D01*
X98688572Y-155718571D01*
X98545715Y-155647143D01*
X98474286Y-155575714D01*
X98402858Y-155432857D01*
X98331429Y-155147143D01*
X98331429Y-154790000D01*
X98402858Y-154504286D01*
X98474286Y-154361429D01*
X98545715Y-154290000D01*
X98688572Y-154218571D01*
X69797144Y-155718571D02*
X69082858Y-155718571D01*
X69082858Y-154218571D01*
X70297144Y-154932857D02*
X70797144Y-154932857D01*
X71011430Y-155718571D02*
X70297144Y-155718571D01*
X70297144Y-154218571D01*
X71011430Y-154218571D01*
X71654287Y-155718571D02*
X71654287Y-154218571D01*
X72011430Y-154218571D01*
X72225715Y-154290000D01*
X72368573Y-154432857D01*
X72440001Y-154575714D01*
X72511430Y-154861429D01*
X72511430Y-155075714D01*
X72440001Y-155361429D01*
X72368573Y-155504286D01*
X72225715Y-155647143D01*
X72011430Y-155718571D01*
X71654287Y-155718571D01*
X73011430Y-154218571D02*
X74011430Y-154218571D01*
X73368573Y-155718571D01*
X75368572Y-155718571D02*
X74511429Y-155718571D01*
X74940001Y-155718571D02*
X74940001Y-154218571D01*
X74797144Y-154432857D01*
X74654286Y-154575714D01*
X74511429Y-154647143D01*
X376987144Y-136668571D02*
X376272858Y-136668571D01*
X376272858Y-135168571D01*
X377487144Y-135882857D02*
X377987144Y-135882857D01*
X378201430Y-136668571D02*
X377487144Y-136668571D01*
X377487144Y-135168571D01*
X378201430Y-135168571D01*
X378844287Y-136668571D02*
X378844287Y-135168571D01*
X379201430Y-135168571D01*
X379415715Y-135240000D01*
X379558573Y-135382857D01*
X379630001Y-135525714D01*
X379701430Y-135811429D01*
X379701430Y-136025714D01*
X379630001Y-136311429D01*
X379558573Y-136454286D01*
X379415715Y-136597143D01*
X379201430Y-136668571D01*
X378844287Y-136668571D01*
X380987144Y-135168571D02*
X380701430Y-135168571D01*
X380558573Y-135240000D01*
X380487144Y-135311429D01*
X380344287Y-135525714D01*
X380272858Y-135811429D01*
X380272858Y-136382857D01*
X380344287Y-136525714D01*
X380415715Y-136597143D01*
X380558573Y-136668571D01*
X380844287Y-136668571D01*
X380987144Y-136597143D01*
X381058573Y-136525714D01*
X381130001Y-136382857D01*
X381130001Y-136025714D01*
X381058573Y-135882857D01*
X380987144Y-135811429D01*
X380844287Y-135740000D01*
X380558573Y-135740000D01*
X380415715Y-135811429D01*
X380344287Y-135882857D01*
X380272858Y-136025714D01*
X382558572Y-136668571D02*
X381701429Y-136668571D01*
X382130001Y-136668571D02*
X382130001Y-135168571D01*
X381987144Y-135382857D01*
X381844286Y-135525714D01*
X381701429Y-135597143D01*
X357937144Y-136668571D02*
X357222858Y-136668571D01*
X357222858Y-135168571D01*
X358437144Y-135882857D02*
X358937144Y-135882857D01*
X359151430Y-136668571D02*
X358437144Y-136668571D01*
X358437144Y-135168571D01*
X359151430Y-135168571D01*
X359794287Y-136668571D02*
X359794287Y-135168571D01*
X360151430Y-135168571D01*
X360365715Y-135240000D01*
X360508573Y-135382857D01*
X360580001Y-135525714D01*
X360651430Y-135811429D01*
X360651430Y-136025714D01*
X360580001Y-136311429D01*
X360508573Y-136454286D01*
X360365715Y-136597143D01*
X360151430Y-136668571D01*
X359794287Y-136668571D01*
X361937144Y-135168571D02*
X361651430Y-135168571D01*
X361508573Y-135240000D01*
X361437144Y-135311429D01*
X361294287Y-135525714D01*
X361222858Y-135811429D01*
X361222858Y-136382857D01*
X361294287Y-136525714D01*
X361365715Y-136597143D01*
X361508573Y-136668571D01*
X361794287Y-136668571D01*
X361937144Y-136597143D01*
X362008573Y-136525714D01*
X362080001Y-136382857D01*
X362080001Y-136025714D01*
X362008573Y-135882857D01*
X361937144Y-135811429D01*
X361794287Y-135740000D01*
X361508573Y-135740000D01*
X361365715Y-135811429D01*
X361294287Y-135882857D01*
X361222858Y-136025714D01*
X363008572Y-135168571D02*
X363151429Y-135168571D01*
X363294286Y-135240000D01*
X363365715Y-135311429D01*
X363437144Y-135454286D01*
X363508572Y-135740000D01*
X363508572Y-136097143D01*
X363437144Y-136382857D01*
X363365715Y-136525714D01*
X363294286Y-136597143D01*
X363151429Y-136668571D01*
X363008572Y-136668571D01*
X362865715Y-136597143D01*
X362794286Y-136525714D01*
X362722858Y-136382857D01*
X362651429Y-136097143D01*
X362651429Y-135740000D01*
X362722858Y-135454286D01*
X362794286Y-135311429D01*
X362865715Y-135240000D01*
X363008572Y-135168571D01*
X317447144Y-136668571D02*
X316732858Y-136668571D01*
X316732858Y-135168571D01*
X317947144Y-135882857D02*
X318447144Y-135882857D01*
X318661430Y-136668571D02*
X317947144Y-136668571D01*
X317947144Y-135168571D01*
X318661430Y-135168571D01*
X319304287Y-136668571D02*
X319304287Y-135168571D01*
X319661430Y-135168571D01*
X319875715Y-135240000D01*
X320018573Y-135382857D01*
X320090001Y-135525714D01*
X320161430Y-135811429D01*
X320161430Y-136025714D01*
X320090001Y-136311429D01*
X320018573Y-136454286D01*
X319875715Y-136597143D01*
X319661430Y-136668571D01*
X319304287Y-136668571D01*
X321518573Y-135168571D02*
X320804287Y-135168571D01*
X320732858Y-135882857D01*
X320804287Y-135811429D01*
X320947144Y-135740000D01*
X321304287Y-135740000D01*
X321447144Y-135811429D01*
X321518573Y-135882857D01*
X321590001Y-136025714D01*
X321590001Y-136382857D01*
X321518573Y-136525714D01*
X321447144Y-136597143D01*
X321304287Y-136668571D01*
X320947144Y-136668571D01*
X320804287Y-136597143D01*
X320732858Y-136525714D01*
X322304286Y-136668571D02*
X322590001Y-136668571D01*
X322732858Y-136597143D01*
X322804286Y-136525714D01*
X322947144Y-136311429D01*
X323018572Y-136025714D01*
X323018572Y-135454286D01*
X322947144Y-135311429D01*
X322875715Y-135240000D01*
X322732858Y-135168571D01*
X322447144Y-135168571D01*
X322304286Y-135240000D01*
X322232858Y-135311429D01*
X322161429Y-135454286D01*
X322161429Y-135811429D01*
X322232858Y-135954286D01*
X322304286Y-136025714D01*
X322447144Y-136097143D01*
X322732858Y-136097143D01*
X322875715Y-136025714D01*
X322947144Y-135954286D01*
X323018572Y-135811429D01*
X281727144Y-136658571D02*
X281012858Y-136658571D01*
X281012858Y-135158571D01*
X282227144Y-135872857D02*
X282727144Y-135872857D01*
X282941430Y-136658571D02*
X282227144Y-136658571D01*
X282227144Y-135158571D01*
X282941430Y-135158571D01*
X283584287Y-136658571D02*
X283584287Y-135158571D01*
X283941430Y-135158571D01*
X284155715Y-135230000D01*
X284298573Y-135372857D01*
X284370001Y-135515714D01*
X284441430Y-135801429D01*
X284441430Y-136015714D01*
X284370001Y-136301429D01*
X284298573Y-136444286D01*
X284155715Y-136587143D01*
X283941430Y-136658571D01*
X283584287Y-136658571D01*
X285798573Y-135158571D02*
X285084287Y-135158571D01*
X285012858Y-135872857D01*
X285084287Y-135801429D01*
X285227144Y-135730000D01*
X285584287Y-135730000D01*
X285727144Y-135801429D01*
X285798573Y-135872857D01*
X285870001Y-136015714D01*
X285870001Y-136372857D01*
X285798573Y-136515714D01*
X285727144Y-136587143D01*
X285584287Y-136658571D01*
X285227144Y-136658571D01*
X285084287Y-136587143D01*
X285012858Y-136515714D01*
X286727144Y-135801429D02*
X286584286Y-135730000D01*
X286512858Y-135658571D01*
X286441429Y-135515714D01*
X286441429Y-135444286D01*
X286512858Y-135301429D01*
X286584286Y-135230000D01*
X286727144Y-135158571D01*
X287012858Y-135158571D01*
X287155715Y-135230000D01*
X287227144Y-135301429D01*
X287298572Y-135444286D01*
X287298572Y-135515714D01*
X287227144Y-135658571D01*
X287155715Y-135730000D01*
X287012858Y-135801429D01*
X286727144Y-135801429D01*
X286584286Y-135872857D01*
X286512858Y-135944286D01*
X286441429Y-136087143D01*
X286441429Y-136372857D01*
X286512858Y-136515714D01*
X286584286Y-136587143D01*
X286727144Y-136658571D01*
X287012858Y-136658571D01*
X287155715Y-136587143D01*
X287227144Y-136515714D01*
X287298572Y-136372857D01*
X287298572Y-136087143D01*
X287227144Y-135944286D01*
X287155715Y-135872857D01*
X287012858Y-135801429D01*
X262677144Y-136658571D02*
X261962858Y-136658571D01*
X261962858Y-135158571D01*
X263177144Y-135872857D02*
X263677144Y-135872857D01*
X263891430Y-136658571D02*
X263177144Y-136658571D01*
X263177144Y-135158571D01*
X263891430Y-135158571D01*
X264534287Y-136658571D02*
X264534287Y-135158571D01*
X264891430Y-135158571D01*
X265105715Y-135230000D01*
X265248573Y-135372857D01*
X265320001Y-135515714D01*
X265391430Y-135801429D01*
X265391430Y-136015714D01*
X265320001Y-136301429D01*
X265248573Y-136444286D01*
X265105715Y-136587143D01*
X264891430Y-136658571D01*
X264534287Y-136658571D01*
X266748573Y-135158571D02*
X266034287Y-135158571D01*
X265962858Y-135872857D01*
X266034287Y-135801429D01*
X266177144Y-135730000D01*
X266534287Y-135730000D01*
X266677144Y-135801429D01*
X266748573Y-135872857D01*
X266820001Y-136015714D01*
X266820001Y-136372857D01*
X266748573Y-136515714D01*
X266677144Y-136587143D01*
X266534287Y-136658571D01*
X266177144Y-136658571D01*
X266034287Y-136587143D01*
X265962858Y-136515714D01*
X267320001Y-135158571D02*
X268320001Y-135158571D01*
X267677144Y-136658571D01*
X243627144Y-136658571D02*
X242912858Y-136658571D01*
X242912858Y-135158571D01*
X244127144Y-135872857D02*
X244627144Y-135872857D01*
X244841430Y-136658571D02*
X244127144Y-136658571D01*
X244127144Y-135158571D01*
X244841430Y-135158571D01*
X245484287Y-136658571D02*
X245484287Y-135158571D01*
X245841430Y-135158571D01*
X246055715Y-135230000D01*
X246198573Y-135372857D01*
X246270001Y-135515714D01*
X246341430Y-135801429D01*
X246341430Y-136015714D01*
X246270001Y-136301429D01*
X246198573Y-136444286D01*
X246055715Y-136587143D01*
X245841430Y-136658571D01*
X245484287Y-136658571D01*
X247698573Y-135158571D02*
X246984287Y-135158571D01*
X246912858Y-135872857D01*
X246984287Y-135801429D01*
X247127144Y-135730000D01*
X247484287Y-135730000D01*
X247627144Y-135801429D01*
X247698573Y-135872857D01*
X247770001Y-136015714D01*
X247770001Y-136372857D01*
X247698573Y-136515714D01*
X247627144Y-136587143D01*
X247484287Y-136658571D01*
X247127144Y-136658571D01*
X246984287Y-136587143D01*
X246912858Y-136515714D01*
X249055715Y-135158571D02*
X248770001Y-135158571D01*
X248627144Y-135230000D01*
X248555715Y-135301429D01*
X248412858Y-135515714D01*
X248341429Y-135801429D01*
X248341429Y-136372857D01*
X248412858Y-136515714D01*
X248484286Y-136587143D01*
X248627144Y-136658571D01*
X248912858Y-136658571D01*
X249055715Y-136587143D01*
X249127144Y-136515714D01*
X249198572Y-136372857D01*
X249198572Y-136015714D01*
X249127144Y-135872857D01*
X249055715Y-135801429D01*
X248912858Y-135730000D01*
X248627144Y-135730000D01*
X248484286Y-135801429D01*
X248412858Y-135872857D01*
X248341429Y-136015714D01*
X224567144Y-136658571D02*
X223852858Y-136658571D01*
X223852858Y-135158571D01*
X225067144Y-135872857D02*
X225567144Y-135872857D01*
X225781430Y-136658571D02*
X225067144Y-136658571D01*
X225067144Y-135158571D01*
X225781430Y-135158571D01*
X226424287Y-136658571D02*
X226424287Y-135158571D01*
X226781430Y-135158571D01*
X226995715Y-135230000D01*
X227138573Y-135372857D01*
X227210001Y-135515714D01*
X227281430Y-135801429D01*
X227281430Y-136015714D01*
X227210001Y-136301429D01*
X227138573Y-136444286D01*
X226995715Y-136587143D01*
X226781430Y-136658571D01*
X226424287Y-136658571D01*
X228638573Y-135158571D02*
X227924287Y-135158571D01*
X227852858Y-135872857D01*
X227924287Y-135801429D01*
X228067144Y-135730000D01*
X228424287Y-135730000D01*
X228567144Y-135801429D01*
X228638573Y-135872857D01*
X228710001Y-136015714D01*
X228710001Y-136372857D01*
X228638573Y-136515714D01*
X228567144Y-136587143D01*
X228424287Y-136658571D01*
X228067144Y-136658571D01*
X227924287Y-136587143D01*
X227852858Y-136515714D01*
X230067144Y-135158571D02*
X229352858Y-135158571D01*
X229281429Y-135872857D01*
X229352858Y-135801429D01*
X229495715Y-135730000D01*
X229852858Y-135730000D01*
X229995715Y-135801429D01*
X230067144Y-135872857D01*
X230138572Y-136015714D01*
X230138572Y-136372857D01*
X230067144Y-136515714D01*
X229995715Y-136587143D01*
X229852858Y-136658571D01*
X229495715Y-136658571D01*
X229352858Y-136587143D01*
X229281429Y-136515714D01*
X205527144Y-136658571D02*
X204812858Y-136658571D01*
X204812858Y-135158571D01*
X206027144Y-135872857D02*
X206527144Y-135872857D01*
X206741430Y-136658571D02*
X206027144Y-136658571D01*
X206027144Y-135158571D01*
X206741430Y-135158571D01*
X207384287Y-136658571D02*
X207384287Y-135158571D01*
X207741430Y-135158571D01*
X207955715Y-135230000D01*
X208098573Y-135372857D01*
X208170001Y-135515714D01*
X208241430Y-135801429D01*
X208241430Y-136015714D01*
X208170001Y-136301429D01*
X208098573Y-136444286D01*
X207955715Y-136587143D01*
X207741430Y-136658571D01*
X207384287Y-136658571D01*
X209598573Y-135158571D02*
X208884287Y-135158571D01*
X208812858Y-135872857D01*
X208884287Y-135801429D01*
X209027144Y-135730000D01*
X209384287Y-135730000D01*
X209527144Y-135801429D01*
X209598573Y-135872857D01*
X209670001Y-136015714D01*
X209670001Y-136372857D01*
X209598573Y-136515714D01*
X209527144Y-136587143D01*
X209384287Y-136658571D01*
X209027144Y-136658571D01*
X208884287Y-136587143D01*
X208812858Y-136515714D01*
X210955715Y-135658571D02*
X210955715Y-136658571D01*
X210598572Y-135087143D02*
X210241429Y-136158571D01*
X211170001Y-136158571D01*
X186477144Y-136658571D02*
X185762858Y-136658571D01*
X185762858Y-135158571D01*
X186977144Y-135872857D02*
X187477144Y-135872857D01*
X187691430Y-136658571D02*
X186977144Y-136658571D01*
X186977144Y-135158571D01*
X187691430Y-135158571D01*
X188334287Y-136658571D02*
X188334287Y-135158571D01*
X188691430Y-135158571D01*
X188905715Y-135230000D01*
X189048573Y-135372857D01*
X189120001Y-135515714D01*
X189191430Y-135801429D01*
X189191430Y-136015714D01*
X189120001Y-136301429D01*
X189048573Y-136444286D01*
X188905715Y-136587143D01*
X188691430Y-136658571D01*
X188334287Y-136658571D01*
X190548573Y-135158571D02*
X189834287Y-135158571D01*
X189762858Y-135872857D01*
X189834287Y-135801429D01*
X189977144Y-135730000D01*
X190334287Y-135730000D01*
X190477144Y-135801429D01*
X190548573Y-135872857D01*
X190620001Y-136015714D01*
X190620001Y-136372857D01*
X190548573Y-136515714D01*
X190477144Y-136587143D01*
X190334287Y-136658571D01*
X189977144Y-136658571D01*
X189834287Y-136587143D01*
X189762858Y-136515714D01*
X191120001Y-135158571D02*
X192048572Y-135158571D01*
X191548572Y-135730000D01*
X191762858Y-135730000D01*
X191905715Y-135801429D01*
X191977144Y-135872857D01*
X192048572Y-136015714D01*
X192048572Y-136372857D01*
X191977144Y-136515714D01*
X191905715Y-136587143D01*
X191762858Y-136658571D01*
X191334286Y-136658571D01*
X191191429Y-136587143D01*
X191120001Y-136515714D01*
X148377144Y-136658571D02*
X147662858Y-136658571D01*
X147662858Y-135158571D01*
X148877144Y-135872857D02*
X149377144Y-135872857D01*
X149591430Y-136658571D02*
X148877144Y-136658571D01*
X148877144Y-135158571D01*
X149591430Y-135158571D01*
X150234287Y-136658571D02*
X150234287Y-135158571D01*
X150591430Y-135158571D01*
X150805715Y-135230000D01*
X150948573Y-135372857D01*
X151020001Y-135515714D01*
X151091430Y-135801429D01*
X151091430Y-136015714D01*
X151020001Y-136301429D01*
X150948573Y-136444286D01*
X150805715Y-136587143D01*
X150591430Y-136658571D01*
X150234287Y-136658571D01*
X152448573Y-135158571D02*
X151734287Y-135158571D01*
X151662858Y-135872857D01*
X151734287Y-135801429D01*
X151877144Y-135730000D01*
X152234287Y-135730000D01*
X152377144Y-135801429D01*
X152448573Y-135872857D01*
X152520001Y-136015714D01*
X152520001Y-136372857D01*
X152448573Y-136515714D01*
X152377144Y-136587143D01*
X152234287Y-136658571D01*
X151877144Y-136658571D01*
X151734287Y-136587143D01*
X151662858Y-136515714D01*
X153948572Y-136658571D02*
X153091429Y-136658571D01*
X153520001Y-136658571D02*
X153520001Y-135158571D01*
X153377144Y-135372857D01*
X153234286Y-135515714D01*
X153091429Y-135587143D01*
X167427144Y-136658571D02*
X166712858Y-136658571D01*
X166712858Y-135158571D01*
X167927144Y-135872857D02*
X168427144Y-135872857D01*
X168641430Y-136658571D02*
X167927144Y-136658571D01*
X167927144Y-135158571D01*
X168641430Y-135158571D01*
X169284287Y-136658571D02*
X169284287Y-135158571D01*
X169641430Y-135158571D01*
X169855715Y-135230000D01*
X169998573Y-135372857D01*
X170070001Y-135515714D01*
X170141430Y-135801429D01*
X170141430Y-136015714D01*
X170070001Y-136301429D01*
X169998573Y-136444286D01*
X169855715Y-136587143D01*
X169641430Y-136658571D01*
X169284287Y-136658571D01*
X171498573Y-135158571D02*
X170784287Y-135158571D01*
X170712858Y-135872857D01*
X170784287Y-135801429D01*
X170927144Y-135730000D01*
X171284287Y-135730000D01*
X171427144Y-135801429D01*
X171498573Y-135872857D01*
X171570001Y-136015714D01*
X171570001Y-136372857D01*
X171498573Y-136515714D01*
X171427144Y-136587143D01*
X171284287Y-136658571D01*
X170927144Y-136658571D01*
X170784287Y-136587143D01*
X170712858Y-136515714D01*
X172141429Y-135301429D02*
X172212858Y-135230000D01*
X172355715Y-135158571D01*
X172712858Y-135158571D01*
X172855715Y-135230000D01*
X172927144Y-135301429D01*
X172998572Y-135444286D01*
X172998572Y-135587143D01*
X172927144Y-135801429D01*
X172070001Y-136658571D01*
X172998572Y-136658571D01*
X129327144Y-136658571D02*
X128612858Y-136658571D01*
X128612858Y-135158571D01*
X129827144Y-135872857D02*
X130327144Y-135872857D01*
X130541430Y-136658571D02*
X129827144Y-136658571D01*
X129827144Y-135158571D01*
X130541430Y-135158571D01*
X131184287Y-136658571D02*
X131184287Y-135158571D01*
X131541430Y-135158571D01*
X131755715Y-135230000D01*
X131898573Y-135372857D01*
X131970001Y-135515714D01*
X132041430Y-135801429D01*
X132041430Y-136015714D01*
X131970001Y-136301429D01*
X131898573Y-136444286D01*
X131755715Y-136587143D01*
X131541430Y-136658571D01*
X131184287Y-136658571D01*
X133398573Y-135158571D02*
X132684287Y-135158571D01*
X132612858Y-135872857D01*
X132684287Y-135801429D01*
X132827144Y-135730000D01*
X133184287Y-135730000D01*
X133327144Y-135801429D01*
X133398573Y-135872857D01*
X133470001Y-136015714D01*
X133470001Y-136372857D01*
X133398573Y-136515714D01*
X133327144Y-136587143D01*
X133184287Y-136658571D01*
X132827144Y-136658571D01*
X132684287Y-136587143D01*
X132612858Y-136515714D01*
X134398572Y-135158571D02*
X134541429Y-135158571D01*
X134684286Y-135230000D01*
X134755715Y-135301429D01*
X134827144Y-135444286D01*
X134898572Y-135730000D01*
X134898572Y-136087143D01*
X134827144Y-136372857D01*
X134755715Y-136515714D01*
X134684286Y-136587143D01*
X134541429Y-136658571D01*
X134398572Y-136658571D01*
X134255715Y-136587143D01*
X134184286Y-136515714D01*
X134112858Y-136372857D01*
X134041429Y-136087143D01*
X134041429Y-135730000D01*
X134112858Y-135444286D01*
X134184286Y-135301429D01*
X134255715Y-135230000D01*
X134398572Y-135158571D01*
X110287144Y-136668571D02*
X109572858Y-136668571D01*
X109572858Y-135168571D01*
X110787144Y-135882857D02*
X111287144Y-135882857D01*
X111501430Y-136668571D02*
X110787144Y-136668571D01*
X110787144Y-135168571D01*
X111501430Y-135168571D01*
X112144287Y-136668571D02*
X112144287Y-135168571D01*
X112501430Y-135168571D01*
X112715715Y-135240000D01*
X112858573Y-135382857D01*
X112930001Y-135525714D01*
X113001430Y-135811429D01*
X113001430Y-136025714D01*
X112930001Y-136311429D01*
X112858573Y-136454286D01*
X112715715Y-136597143D01*
X112501430Y-136668571D01*
X112144287Y-136668571D01*
X114287144Y-135668571D02*
X114287144Y-136668571D01*
X113930001Y-135097143D02*
X113572858Y-136168571D01*
X114501430Y-136168571D01*
X115144286Y-136668571D02*
X115430001Y-136668571D01*
X115572858Y-136597143D01*
X115644286Y-136525714D01*
X115787144Y-136311429D01*
X115858572Y-136025714D01*
X115858572Y-135454286D01*
X115787144Y-135311429D01*
X115715715Y-135240000D01*
X115572858Y-135168571D01*
X115287144Y-135168571D01*
X115144286Y-135240000D01*
X115072858Y-135311429D01*
X115001429Y-135454286D01*
X115001429Y-135811429D01*
X115072858Y-135954286D01*
X115144286Y-136025714D01*
X115287144Y-136097143D01*
X115572858Y-136097143D01*
X115715715Y-136025714D01*
X115787144Y-135954286D01*
X115858572Y-135811429D01*
X79327144Y-136668571D02*
X78612858Y-136668571D01*
X78612858Y-135168571D01*
X79827144Y-135882857D02*
X80327144Y-135882857D01*
X80541430Y-136668571D02*
X79827144Y-136668571D01*
X79827144Y-135168571D01*
X80541430Y-135168571D01*
X81184287Y-136668571D02*
X81184287Y-135168571D01*
X81541430Y-135168571D01*
X81755715Y-135240000D01*
X81898573Y-135382857D01*
X81970001Y-135525714D01*
X82041430Y-135811429D01*
X82041430Y-136025714D01*
X81970001Y-136311429D01*
X81898573Y-136454286D01*
X81755715Y-136597143D01*
X81541430Y-136668571D01*
X81184287Y-136668571D01*
X83327144Y-135668571D02*
X83327144Y-136668571D01*
X82970001Y-135097143D02*
X82612858Y-136168571D01*
X83541430Y-136168571D01*
X84327144Y-135811429D02*
X84184286Y-135740000D01*
X84112858Y-135668571D01*
X84041429Y-135525714D01*
X84041429Y-135454286D01*
X84112858Y-135311429D01*
X84184286Y-135240000D01*
X84327144Y-135168571D01*
X84612858Y-135168571D01*
X84755715Y-135240000D01*
X84827144Y-135311429D01*
X84898572Y-135454286D01*
X84898572Y-135525714D01*
X84827144Y-135668571D01*
X84755715Y-135740000D01*
X84612858Y-135811429D01*
X84327144Y-135811429D01*
X84184286Y-135882857D01*
X84112858Y-135954286D01*
X84041429Y-136097143D01*
X84041429Y-136382857D01*
X84112858Y-136525714D01*
X84184286Y-136597143D01*
X84327144Y-136668571D01*
X84612858Y-136668571D01*
X84755715Y-136597143D01*
X84827144Y-136525714D01*
X84898572Y-136382857D01*
X84898572Y-136097143D01*
X84827144Y-135954286D01*
X84755715Y-135882857D01*
X84612858Y-135811429D01*
X376987144Y-117618571D02*
X376272858Y-117618571D01*
X376272858Y-116118571D01*
X377487144Y-116832857D02*
X377987144Y-116832857D01*
X378201430Y-117618571D02*
X377487144Y-117618571D01*
X377487144Y-116118571D01*
X378201430Y-116118571D01*
X378844287Y-117618571D02*
X378844287Y-116118571D01*
X379201430Y-116118571D01*
X379415715Y-116190000D01*
X379558573Y-116332857D01*
X379630001Y-116475714D01*
X379701430Y-116761429D01*
X379701430Y-116975714D01*
X379630001Y-117261429D01*
X379558573Y-117404286D01*
X379415715Y-117547143D01*
X379201430Y-117618571D01*
X378844287Y-117618571D01*
X380201430Y-116118571D02*
X381130001Y-116118571D01*
X380630001Y-116690000D01*
X380844287Y-116690000D01*
X380987144Y-116761429D01*
X381058573Y-116832857D01*
X381130001Y-116975714D01*
X381130001Y-117332857D01*
X381058573Y-117475714D01*
X380987144Y-117547143D01*
X380844287Y-117618571D01*
X380415715Y-117618571D01*
X380272858Y-117547143D01*
X380201430Y-117475714D01*
X381630001Y-116118571D02*
X382558572Y-116118571D01*
X382058572Y-116690000D01*
X382272858Y-116690000D01*
X382415715Y-116761429D01*
X382487144Y-116832857D01*
X382558572Y-116975714D01*
X382558572Y-117332857D01*
X382487144Y-117475714D01*
X382415715Y-117547143D01*
X382272858Y-117618571D01*
X381844286Y-117618571D01*
X381701429Y-117547143D01*
X381630001Y-117475714D01*
X357937144Y-117618571D02*
X357222858Y-117618571D01*
X357222858Y-116118571D01*
X358437144Y-116832857D02*
X358937144Y-116832857D01*
X359151430Y-117618571D02*
X358437144Y-117618571D01*
X358437144Y-116118571D01*
X359151430Y-116118571D01*
X359794287Y-117618571D02*
X359794287Y-116118571D01*
X360151430Y-116118571D01*
X360365715Y-116190000D01*
X360508573Y-116332857D01*
X360580001Y-116475714D01*
X360651430Y-116761429D01*
X360651430Y-116975714D01*
X360580001Y-117261429D01*
X360508573Y-117404286D01*
X360365715Y-117547143D01*
X360151430Y-117618571D01*
X359794287Y-117618571D01*
X361151430Y-116118571D02*
X362080001Y-116118571D01*
X361580001Y-116690000D01*
X361794287Y-116690000D01*
X361937144Y-116761429D01*
X362008573Y-116832857D01*
X362080001Y-116975714D01*
X362080001Y-117332857D01*
X362008573Y-117475714D01*
X361937144Y-117547143D01*
X361794287Y-117618571D01*
X361365715Y-117618571D01*
X361222858Y-117547143D01*
X361151430Y-117475714D01*
X363365715Y-116618571D02*
X363365715Y-117618571D01*
X363008572Y-116047143D02*
X362651429Y-117118571D01*
X363580001Y-117118571D01*
X322217144Y-117618571D02*
X321502858Y-117618571D01*
X321502858Y-116118571D01*
X322717144Y-116832857D02*
X323217144Y-116832857D01*
X323431430Y-117618571D02*
X322717144Y-117618571D01*
X322717144Y-116118571D01*
X323431430Y-116118571D01*
X324074287Y-117618571D02*
X324074287Y-116118571D01*
X324431430Y-116118571D01*
X324645715Y-116190000D01*
X324788573Y-116332857D01*
X324860001Y-116475714D01*
X324931430Y-116761429D01*
X324931430Y-116975714D01*
X324860001Y-117261429D01*
X324788573Y-117404286D01*
X324645715Y-117547143D01*
X324431430Y-117618571D01*
X324074287Y-117618571D01*
X325431430Y-116118571D02*
X326360001Y-116118571D01*
X325860001Y-116690000D01*
X326074287Y-116690000D01*
X326217144Y-116761429D01*
X326288573Y-116832857D01*
X326360001Y-116975714D01*
X326360001Y-117332857D01*
X326288573Y-117475714D01*
X326217144Y-117547143D01*
X326074287Y-117618571D01*
X325645715Y-117618571D01*
X325502858Y-117547143D01*
X325431430Y-117475714D01*
X327717144Y-116118571D02*
X327002858Y-116118571D01*
X326931429Y-116832857D01*
X327002858Y-116761429D01*
X327145715Y-116690000D01*
X327502858Y-116690000D01*
X327645715Y-116761429D01*
X327717144Y-116832857D01*
X327788572Y-116975714D01*
X327788572Y-117332857D01*
X327717144Y-117475714D01*
X327645715Y-117547143D01*
X327502858Y-117618571D01*
X327145715Y-117618571D01*
X327002858Y-117547143D01*
X326931429Y-117475714D01*
X291257144Y-117618571D02*
X290542858Y-117618571D01*
X290542858Y-116118571D01*
X291757144Y-116832857D02*
X292257144Y-116832857D01*
X292471430Y-117618571D02*
X291757144Y-117618571D01*
X291757144Y-116118571D01*
X292471430Y-116118571D01*
X293114287Y-117618571D02*
X293114287Y-116118571D01*
X293471430Y-116118571D01*
X293685715Y-116190000D01*
X293828573Y-116332857D01*
X293900001Y-116475714D01*
X293971430Y-116761429D01*
X293971430Y-116975714D01*
X293900001Y-117261429D01*
X293828573Y-117404286D01*
X293685715Y-117547143D01*
X293471430Y-117618571D01*
X293114287Y-117618571D01*
X294471430Y-116118571D02*
X295400001Y-116118571D01*
X294900001Y-116690000D01*
X295114287Y-116690000D01*
X295257144Y-116761429D01*
X295328573Y-116832857D01*
X295400001Y-116975714D01*
X295400001Y-117332857D01*
X295328573Y-117475714D01*
X295257144Y-117547143D01*
X295114287Y-117618571D01*
X294685715Y-117618571D01*
X294542858Y-117547143D01*
X294471430Y-117475714D01*
X296685715Y-116118571D02*
X296400001Y-116118571D01*
X296257144Y-116190000D01*
X296185715Y-116261429D01*
X296042858Y-116475714D01*
X295971429Y-116761429D01*
X295971429Y-117332857D01*
X296042858Y-117475714D01*
X296114286Y-117547143D01*
X296257144Y-117618571D01*
X296542858Y-117618571D01*
X296685715Y-117547143D01*
X296757144Y-117475714D01*
X296828572Y-117332857D01*
X296828572Y-116975714D01*
X296757144Y-116832857D01*
X296685715Y-116761429D01*
X296542858Y-116690000D01*
X296257144Y-116690000D01*
X296114286Y-116761429D01*
X296042858Y-116832857D01*
X295971429Y-116975714D01*
X272207144Y-117618571D02*
X271492858Y-117618571D01*
X271492858Y-116118571D01*
X272707144Y-116832857D02*
X273207144Y-116832857D01*
X273421430Y-117618571D02*
X272707144Y-117618571D01*
X272707144Y-116118571D01*
X273421430Y-116118571D01*
X274064287Y-117618571D02*
X274064287Y-116118571D01*
X274421430Y-116118571D01*
X274635715Y-116190000D01*
X274778573Y-116332857D01*
X274850001Y-116475714D01*
X274921430Y-116761429D01*
X274921430Y-116975714D01*
X274850001Y-117261429D01*
X274778573Y-117404286D01*
X274635715Y-117547143D01*
X274421430Y-117618571D01*
X274064287Y-117618571D01*
X275421430Y-116118571D02*
X276350001Y-116118571D01*
X275850001Y-116690000D01*
X276064287Y-116690000D01*
X276207144Y-116761429D01*
X276278573Y-116832857D01*
X276350001Y-116975714D01*
X276350001Y-117332857D01*
X276278573Y-117475714D01*
X276207144Y-117547143D01*
X276064287Y-117618571D01*
X275635715Y-117618571D01*
X275492858Y-117547143D01*
X275421430Y-117475714D01*
X276850001Y-116118571D02*
X277850001Y-116118571D01*
X277207144Y-117618571D01*
X253157144Y-117618571D02*
X252442858Y-117618571D01*
X252442858Y-116118571D01*
X253657144Y-116832857D02*
X254157144Y-116832857D01*
X254371430Y-117618571D02*
X253657144Y-117618571D01*
X253657144Y-116118571D01*
X254371430Y-116118571D01*
X255014287Y-117618571D02*
X255014287Y-116118571D01*
X255371430Y-116118571D01*
X255585715Y-116190000D01*
X255728573Y-116332857D01*
X255800001Y-116475714D01*
X255871430Y-116761429D01*
X255871430Y-116975714D01*
X255800001Y-117261429D01*
X255728573Y-117404286D01*
X255585715Y-117547143D01*
X255371430Y-117618571D01*
X255014287Y-117618571D01*
X256371430Y-116118571D02*
X257300001Y-116118571D01*
X256800001Y-116690000D01*
X257014287Y-116690000D01*
X257157144Y-116761429D01*
X257228573Y-116832857D01*
X257300001Y-116975714D01*
X257300001Y-117332857D01*
X257228573Y-117475714D01*
X257157144Y-117547143D01*
X257014287Y-117618571D01*
X256585715Y-117618571D01*
X256442858Y-117547143D01*
X256371430Y-117475714D01*
X258157144Y-116761429D02*
X258014286Y-116690000D01*
X257942858Y-116618571D01*
X257871429Y-116475714D01*
X257871429Y-116404286D01*
X257942858Y-116261429D01*
X258014286Y-116190000D01*
X258157144Y-116118571D01*
X258442858Y-116118571D01*
X258585715Y-116190000D01*
X258657144Y-116261429D01*
X258728572Y-116404286D01*
X258728572Y-116475714D01*
X258657144Y-116618571D01*
X258585715Y-116690000D01*
X258442858Y-116761429D01*
X258157144Y-116761429D01*
X258014286Y-116832857D01*
X257942858Y-116904286D01*
X257871429Y-117047143D01*
X257871429Y-117332857D01*
X257942858Y-117475714D01*
X258014286Y-117547143D01*
X258157144Y-117618571D01*
X258442858Y-117618571D01*
X258585715Y-117547143D01*
X258657144Y-117475714D01*
X258728572Y-117332857D01*
X258728572Y-117047143D01*
X258657144Y-116904286D01*
X258585715Y-116832857D01*
X258442858Y-116761429D01*
X215057144Y-117618571D02*
X214342858Y-117618571D01*
X214342858Y-116118571D01*
X215557144Y-116832857D02*
X216057144Y-116832857D01*
X216271430Y-117618571D02*
X215557144Y-117618571D01*
X215557144Y-116118571D01*
X216271430Y-116118571D01*
X216914287Y-117618571D02*
X216914287Y-116118571D01*
X217271430Y-116118571D01*
X217485715Y-116190000D01*
X217628573Y-116332857D01*
X217700001Y-116475714D01*
X217771430Y-116761429D01*
X217771430Y-116975714D01*
X217700001Y-117261429D01*
X217628573Y-117404286D01*
X217485715Y-117547143D01*
X217271430Y-117618571D01*
X216914287Y-117618571D01*
X219057144Y-116618571D02*
X219057144Y-117618571D01*
X218700001Y-116047143D02*
X218342858Y-117118571D01*
X219271430Y-117118571D01*
X220128572Y-116118571D02*
X220271429Y-116118571D01*
X220414286Y-116190000D01*
X220485715Y-116261429D01*
X220557144Y-116404286D01*
X220628572Y-116690000D01*
X220628572Y-117047143D01*
X220557144Y-117332857D01*
X220485715Y-117475714D01*
X220414286Y-117547143D01*
X220271429Y-117618571D01*
X220128572Y-117618571D01*
X219985715Y-117547143D01*
X219914286Y-117475714D01*
X219842858Y-117332857D01*
X219771429Y-117047143D01*
X219771429Y-116690000D01*
X219842858Y-116404286D01*
X219914286Y-116261429D01*
X219985715Y-116190000D01*
X220128572Y-116118571D01*
X234107144Y-117618571D02*
X233392858Y-117618571D01*
X233392858Y-116118571D01*
X234607144Y-116832857D02*
X235107144Y-116832857D01*
X235321430Y-117618571D02*
X234607144Y-117618571D01*
X234607144Y-116118571D01*
X235321430Y-116118571D01*
X235964287Y-117618571D02*
X235964287Y-116118571D01*
X236321430Y-116118571D01*
X236535715Y-116190000D01*
X236678573Y-116332857D01*
X236750001Y-116475714D01*
X236821430Y-116761429D01*
X236821430Y-116975714D01*
X236750001Y-117261429D01*
X236678573Y-117404286D01*
X236535715Y-117547143D01*
X236321430Y-117618571D01*
X235964287Y-117618571D01*
X237321430Y-116118571D02*
X238250001Y-116118571D01*
X237750001Y-116690000D01*
X237964287Y-116690000D01*
X238107144Y-116761429D01*
X238178573Y-116832857D01*
X238250001Y-116975714D01*
X238250001Y-117332857D01*
X238178573Y-117475714D01*
X238107144Y-117547143D01*
X237964287Y-117618571D01*
X237535715Y-117618571D01*
X237392858Y-117547143D01*
X237321430Y-117475714D01*
X238964286Y-117618571D02*
X239250001Y-117618571D01*
X239392858Y-117547143D01*
X239464286Y-117475714D01*
X239607144Y-117261429D01*
X239678572Y-116975714D01*
X239678572Y-116404286D01*
X239607144Y-116261429D01*
X239535715Y-116190000D01*
X239392858Y-116118571D01*
X239107144Y-116118571D01*
X238964286Y-116190000D01*
X238892858Y-116261429D01*
X238821429Y-116404286D01*
X238821429Y-116761429D01*
X238892858Y-116904286D01*
X238964286Y-116975714D01*
X239107144Y-117047143D01*
X239392858Y-117047143D01*
X239535715Y-116975714D01*
X239607144Y-116904286D01*
X239678572Y-116761429D01*
X196007144Y-117618571D02*
X195292858Y-117618571D01*
X195292858Y-116118571D01*
X196507144Y-116832857D02*
X197007144Y-116832857D01*
X197221430Y-117618571D02*
X196507144Y-117618571D01*
X196507144Y-116118571D01*
X197221430Y-116118571D01*
X197864287Y-117618571D02*
X197864287Y-116118571D01*
X198221430Y-116118571D01*
X198435715Y-116190000D01*
X198578573Y-116332857D01*
X198650001Y-116475714D01*
X198721430Y-116761429D01*
X198721430Y-116975714D01*
X198650001Y-117261429D01*
X198578573Y-117404286D01*
X198435715Y-117547143D01*
X198221430Y-117618571D01*
X197864287Y-117618571D01*
X200007144Y-116618571D02*
X200007144Y-117618571D01*
X199650001Y-116047143D02*
X199292858Y-117118571D01*
X200221430Y-117118571D01*
X201578572Y-117618571D02*
X200721429Y-117618571D01*
X201150001Y-117618571D02*
X201150001Y-116118571D01*
X201007144Y-116332857D01*
X200864286Y-116475714D01*
X200721429Y-116547143D01*
X176957144Y-117618571D02*
X176242858Y-117618571D01*
X176242858Y-116118571D01*
X177457144Y-116832857D02*
X177957144Y-116832857D01*
X178171430Y-117618571D02*
X177457144Y-117618571D01*
X177457144Y-116118571D01*
X178171430Y-116118571D01*
X178814287Y-117618571D02*
X178814287Y-116118571D01*
X179171430Y-116118571D01*
X179385715Y-116190000D01*
X179528573Y-116332857D01*
X179600001Y-116475714D01*
X179671430Y-116761429D01*
X179671430Y-116975714D01*
X179600001Y-117261429D01*
X179528573Y-117404286D01*
X179385715Y-117547143D01*
X179171430Y-117618571D01*
X178814287Y-117618571D01*
X180957144Y-116618571D02*
X180957144Y-117618571D01*
X180600001Y-116047143D02*
X180242858Y-117118571D01*
X181171430Y-117118571D01*
X181671429Y-116261429D02*
X181742858Y-116190000D01*
X181885715Y-116118571D01*
X182242858Y-116118571D01*
X182385715Y-116190000D01*
X182457144Y-116261429D01*
X182528572Y-116404286D01*
X182528572Y-116547143D01*
X182457144Y-116761429D01*
X181600001Y-117618571D01*
X182528572Y-117618571D01*
X157907144Y-117618571D02*
X157192858Y-117618571D01*
X157192858Y-116118571D01*
X158407144Y-116832857D02*
X158907144Y-116832857D01*
X159121430Y-117618571D02*
X158407144Y-117618571D01*
X158407144Y-116118571D01*
X159121430Y-116118571D01*
X159764287Y-117618571D02*
X159764287Y-116118571D01*
X160121430Y-116118571D01*
X160335715Y-116190000D01*
X160478573Y-116332857D01*
X160550001Y-116475714D01*
X160621430Y-116761429D01*
X160621430Y-116975714D01*
X160550001Y-117261429D01*
X160478573Y-117404286D01*
X160335715Y-117547143D01*
X160121430Y-117618571D01*
X159764287Y-117618571D01*
X161907144Y-116618571D02*
X161907144Y-117618571D01*
X161550001Y-116047143D02*
X161192858Y-117118571D01*
X162121430Y-117118571D01*
X162550001Y-116118571D02*
X163478572Y-116118571D01*
X162978572Y-116690000D01*
X163192858Y-116690000D01*
X163335715Y-116761429D01*
X163407144Y-116832857D01*
X163478572Y-116975714D01*
X163478572Y-117332857D01*
X163407144Y-117475714D01*
X163335715Y-117547143D01*
X163192858Y-117618571D01*
X162764286Y-117618571D01*
X162621429Y-117547143D01*
X162550001Y-117475714D01*
X138857144Y-117618571D02*
X138142858Y-117618571D01*
X138142858Y-116118571D01*
X139357144Y-116832857D02*
X139857144Y-116832857D01*
X140071430Y-117618571D02*
X139357144Y-117618571D01*
X139357144Y-116118571D01*
X140071430Y-116118571D01*
X140714287Y-117618571D02*
X140714287Y-116118571D01*
X141071430Y-116118571D01*
X141285715Y-116190000D01*
X141428573Y-116332857D01*
X141500001Y-116475714D01*
X141571430Y-116761429D01*
X141571430Y-116975714D01*
X141500001Y-117261429D01*
X141428573Y-117404286D01*
X141285715Y-117547143D01*
X141071430Y-117618571D01*
X140714287Y-117618571D01*
X142857144Y-116618571D02*
X142857144Y-117618571D01*
X142500001Y-116047143D02*
X142142858Y-117118571D01*
X143071430Y-117118571D01*
X144285715Y-116618571D02*
X144285715Y-117618571D01*
X143928572Y-116047143D02*
X143571429Y-117118571D01*
X144500001Y-117118571D01*
X119807144Y-117618571D02*
X119092858Y-117618571D01*
X119092858Y-116118571D01*
X120307144Y-116832857D02*
X120807144Y-116832857D01*
X121021430Y-117618571D02*
X120307144Y-117618571D01*
X120307144Y-116118571D01*
X121021430Y-116118571D01*
X121664287Y-117618571D02*
X121664287Y-116118571D01*
X122021430Y-116118571D01*
X122235715Y-116190000D01*
X122378573Y-116332857D01*
X122450001Y-116475714D01*
X122521430Y-116761429D01*
X122521430Y-116975714D01*
X122450001Y-117261429D01*
X122378573Y-117404286D01*
X122235715Y-117547143D01*
X122021430Y-117618571D01*
X121664287Y-117618571D01*
X123807144Y-116618571D02*
X123807144Y-117618571D01*
X123450001Y-116047143D02*
X123092858Y-117118571D01*
X124021430Y-117118571D01*
X125307144Y-116118571D02*
X124592858Y-116118571D01*
X124521429Y-116832857D01*
X124592858Y-116761429D01*
X124735715Y-116690000D01*
X125092858Y-116690000D01*
X125235715Y-116761429D01*
X125307144Y-116832857D01*
X125378572Y-116975714D01*
X125378572Y-117332857D01*
X125307144Y-117475714D01*
X125235715Y-117547143D01*
X125092858Y-117618571D01*
X124735715Y-117618571D01*
X124592858Y-117547143D01*
X124521429Y-117475714D01*
X100757144Y-117618571D02*
X100042858Y-117618571D01*
X100042858Y-116118571D01*
X101257144Y-116832857D02*
X101757144Y-116832857D01*
X101971430Y-117618571D02*
X101257144Y-117618571D01*
X101257144Y-116118571D01*
X101971430Y-116118571D01*
X102614287Y-117618571D02*
X102614287Y-116118571D01*
X102971430Y-116118571D01*
X103185715Y-116190000D01*
X103328573Y-116332857D01*
X103400001Y-116475714D01*
X103471430Y-116761429D01*
X103471430Y-116975714D01*
X103400001Y-117261429D01*
X103328573Y-117404286D01*
X103185715Y-117547143D01*
X102971430Y-117618571D01*
X102614287Y-117618571D01*
X104757144Y-116618571D02*
X104757144Y-117618571D01*
X104400001Y-116047143D02*
X104042858Y-117118571D01*
X104971430Y-117118571D01*
X106185715Y-116118571D02*
X105900001Y-116118571D01*
X105757144Y-116190000D01*
X105685715Y-116261429D01*
X105542858Y-116475714D01*
X105471429Y-116761429D01*
X105471429Y-117332857D01*
X105542858Y-117475714D01*
X105614286Y-117547143D01*
X105757144Y-117618571D01*
X106042858Y-117618571D01*
X106185715Y-117547143D01*
X106257144Y-117475714D01*
X106328572Y-117332857D01*
X106328572Y-116975714D01*
X106257144Y-116832857D01*
X106185715Y-116761429D01*
X106042858Y-116690000D01*
X105757144Y-116690000D01*
X105614286Y-116761429D01*
X105542858Y-116832857D01*
X105471429Y-116975714D01*
X74567144Y-117618571D02*
X73852858Y-117618571D01*
X73852858Y-116118571D01*
X75067144Y-116832857D02*
X75567144Y-116832857D01*
X75781430Y-117618571D02*
X75067144Y-117618571D01*
X75067144Y-116118571D01*
X75781430Y-116118571D01*
X76424287Y-117618571D02*
X76424287Y-116118571D01*
X76781430Y-116118571D01*
X76995715Y-116190000D01*
X77138573Y-116332857D01*
X77210001Y-116475714D01*
X77281430Y-116761429D01*
X77281430Y-116975714D01*
X77210001Y-117261429D01*
X77138573Y-117404286D01*
X76995715Y-117547143D01*
X76781430Y-117618571D01*
X76424287Y-117618571D01*
X78567144Y-116618571D02*
X78567144Y-117618571D01*
X78210001Y-116047143D02*
X77852858Y-117118571D01*
X78781430Y-117118571D01*
X79210001Y-116118571D02*
X80210001Y-116118571D01*
X79567144Y-117618571D01*
X376987144Y-98568571D02*
X376272858Y-98568571D01*
X376272858Y-97068571D01*
X377487144Y-97782857D02*
X377987144Y-97782857D01*
X378201430Y-98568571D02*
X377487144Y-98568571D01*
X377487144Y-97068571D01*
X378201430Y-97068571D01*
X378844287Y-98568571D02*
X378844287Y-97068571D01*
X379201430Y-97068571D01*
X379415715Y-97140000D01*
X379558573Y-97282857D01*
X379630001Y-97425714D01*
X379701430Y-97711429D01*
X379701430Y-97925714D01*
X379630001Y-98211429D01*
X379558573Y-98354286D01*
X379415715Y-98497143D01*
X379201430Y-98568571D01*
X378844287Y-98568571D01*
X380201430Y-97068571D02*
X381130001Y-97068571D01*
X380630001Y-97640000D01*
X380844287Y-97640000D01*
X380987144Y-97711429D01*
X381058573Y-97782857D01*
X381130001Y-97925714D01*
X381130001Y-98282857D01*
X381058573Y-98425714D01*
X380987144Y-98497143D01*
X380844287Y-98568571D01*
X380415715Y-98568571D01*
X380272858Y-98497143D01*
X380201430Y-98425714D01*
X381701429Y-97211429D02*
X381772858Y-97140000D01*
X381915715Y-97068571D01*
X382272858Y-97068571D01*
X382415715Y-97140000D01*
X382487144Y-97211429D01*
X382558572Y-97354286D01*
X382558572Y-97497143D01*
X382487144Y-97711429D01*
X381630001Y-98568571D01*
X382558572Y-98568571D01*
X357937144Y-98568571D02*
X357222858Y-98568571D01*
X357222858Y-97068571D01*
X358437144Y-97782857D02*
X358937144Y-97782857D01*
X359151430Y-98568571D02*
X358437144Y-98568571D01*
X358437144Y-97068571D01*
X359151430Y-97068571D01*
X359794287Y-98568571D02*
X359794287Y-97068571D01*
X360151430Y-97068571D01*
X360365715Y-97140000D01*
X360508573Y-97282857D01*
X360580001Y-97425714D01*
X360651430Y-97711429D01*
X360651430Y-97925714D01*
X360580001Y-98211429D01*
X360508573Y-98354286D01*
X360365715Y-98497143D01*
X360151430Y-98568571D01*
X359794287Y-98568571D01*
X361151430Y-97068571D02*
X362080001Y-97068571D01*
X361580001Y-97640000D01*
X361794287Y-97640000D01*
X361937144Y-97711429D01*
X362008573Y-97782857D01*
X362080001Y-97925714D01*
X362080001Y-98282857D01*
X362008573Y-98425714D01*
X361937144Y-98497143D01*
X361794287Y-98568571D01*
X361365715Y-98568571D01*
X361222858Y-98497143D01*
X361151430Y-98425714D01*
X363508572Y-98568571D02*
X362651429Y-98568571D01*
X363080001Y-98568571D02*
X363080001Y-97068571D01*
X362937144Y-97282857D01*
X362794286Y-97425714D01*
X362651429Y-97497143D01*
X329357144Y-98568571D02*
X328642858Y-98568571D01*
X328642858Y-97068571D01*
X329857144Y-97782857D02*
X330357144Y-97782857D01*
X330571430Y-98568571D02*
X329857144Y-98568571D01*
X329857144Y-97068571D01*
X330571430Y-97068571D01*
X331214287Y-98568571D02*
X331214287Y-97068571D01*
X331571430Y-97068571D01*
X331785715Y-97140000D01*
X331928573Y-97282857D01*
X332000001Y-97425714D01*
X332071430Y-97711429D01*
X332071430Y-97925714D01*
X332000001Y-98211429D01*
X331928573Y-98354286D01*
X331785715Y-98497143D01*
X331571430Y-98568571D01*
X331214287Y-98568571D01*
X332571430Y-97068571D02*
X333500001Y-97068571D01*
X333000001Y-97640000D01*
X333214287Y-97640000D01*
X333357144Y-97711429D01*
X333428573Y-97782857D01*
X333500001Y-97925714D01*
X333500001Y-98282857D01*
X333428573Y-98425714D01*
X333357144Y-98497143D01*
X333214287Y-98568571D01*
X332785715Y-98568571D01*
X332642858Y-98497143D01*
X332571430Y-98425714D01*
X334428572Y-97068571D02*
X334571429Y-97068571D01*
X334714286Y-97140000D01*
X334785715Y-97211429D01*
X334857144Y-97354286D01*
X334928572Y-97640000D01*
X334928572Y-97997143D01*
X334857144Y-98282857D01*
X334785715Y-98425714D01*
X334714286Y-98497143D01*
X334571429Y-98568571D01*
X334428572Y-98568571D01*
X334285715Y-98497143D01*
X334214286Y-98425714D01*
X334142858Y-98282857D01*
X334071429Y-97997143D01*
X334071429Y-97640000D01*
X334142858Y-97354286D01*
X334214286Y-97211429D01*
X334285715Y-97140000D01*
X334428572Y-97068571D01*
X305547144Y-98568571D02*
X304832858Y-98568571D01*
X304832858Y-97068571D01*
X306047144Y-97782857D02*
X306547144Y-97782857D01*
X306761430Y-98568571D02*
X306047144Y-98568571D01*
X306047144Y-97068571D01*
X306761430Y-97068571D01*
X307404287Y-98568571D02*
X307404287Y-97068571D01*
X307761430Y-97068571D01*
X307975715Y-97140000D01*
X308118573Y-97282857D01*
X308190001Y-97425714D01*
X308261430Y-97711429D01*
X308261430Y-97925714D01*
X308190001Y-98211429D01*
X308118573Y-98354286D01*
X307975715Y-98497143D01*
X307761430Y-98568571D01*
X307404287Y-98568571D01*
X308832858Y-97211429D02*
X308904287Y-97140000D01*
X309047144Y-97068571D01*
X309404287Y-97068571D01*
X309547144Y-97140000D01*
X309618573Y-97211429D01*
X309690001Y-97354286D01*
X309690001Y-97497143D01*
X309618573Y-97711429D01*
X308761430Y-98568571D01*
X309690001Y-98568571D01*
X310404286Y-98568571D02*
X310690001Y-98568571D01*
X310832858Y-98497143D01*
X310904286Y-98425714D01*
X311047144Y-98211429D01*
X311118572Y-97925714D01*
X311118572Y-97354286D01*
X311047144Y-97211429D01*
X310975715Y-97140000D01*
X310832858Y-97068571D01*
X310547144Y-97068571D01*
X310404286Y-97140000D01*
X310332858Y-97211429D01*
X310261429Y-97354286D01*
X310261429Y-97711429D01*
X310332858Y-97854286D01*
X310404286Y-97925714D01*
X310547144Y-97997143D01*
X310832858Y-97997143D01*
X310975715Y-97925714D01*
X311047144Y-97854286D01*
X311118572Y-97711429D01*
X286497144Y-98568571D02*
X285782858Y-98568571D01*
X285782858Y-97068571D01*
X286997144Y-97782857D02*
X287497144Y-97782857D01*
X287711430Y-98568571D02*
X286997144Y-98568571D01*
X286997144Y-97068571D01*
X287711430Y-97068571D01*
X288354287Y-98568571D02*
X288354287Y-97068571D01*
X288711430Y-97068571D01*
X288925715Y-97140000D01*
X289068573Y-97282857D01*
X289140001Y-97425714D01*
X289211430Y-97711429D01*
X289211430Y-97925714D01*
X289140001Y-98211429D01*
X289068573Y-98354286D01*
X288925715Y-98497143D01*
X288711430Y-98568571D01*
X288354287Y-98568571D01*
X289782858Y-97211429D02*
X289854287Y-97140000D01*
X289997144Y-97068571D01*
X290354287Y-97068571D01*
X290497144Y-97140000D01*
X290568573Y-97211429D01*
X290640001Y-97354286D01*
X290640001Y-97497143D01*
X290568573Y-97711429D01*
X289711430Y-98568571D01*
X290640001Y-98568571D01*
X291497144Y-97711429D02*
X291354286Y-97640000D01*
X291282858Y-97568571D01*
X291211429Y-97425714D01*
X291211429Y-97354286D01*
X291282858Y-97211429D01*
X291354286Y-97140000D01*
X291497144Y-97068571D01*
X291782858Y-97068571D01*
X291925715Y-97140000D01*
X291997144Y-97211429D01*
X292068572Y-97354286D01*
X292068572Y-97425714D01*
X291997144Y-97568571D01*
X291925715Y-97640000D01*
X291782858Y-97711429D01*
X291497144Y-97711429D01*
X291354286Y-97782857D01*
X291282858Y-97854286D01*
X291211429Y-97997143D01*
X291211429Y-98282857D01*
X291282858Y-98425714D01*
X291354286Y-98497143D01*
X291497144Y-98568571D01*
X291782858Y-98568571D01*
X291925715Y-98497143D01*
X291997144Y-98425714D01*
X292068572Y-98282857D01*
X292068572Y-97997143D01*
X291997144Y-97854286D01*
X291925715Y-97782857D01*
X291782858Y-97711429D01*
X267447144Y-98568571D02*
X266732858Y-98568571D01*
X266732858Y-97068571D01*
X267947144Y-97782857D02*
X268447144Y-97782857D01*
X268661430Y-98568571D02*
X267947144Y-98568571D01*
X267947144Y-97068571D01*
X268661430Y-97068571D01*
X269304287Y-98568571D02*
X269304287Y-97068571D01*
X269661430Y-97068571D01*
X269875715Y-97140000D01*
X270018573Y-97282857D01*
X270090001Y-97425714D01*
X270161430Y-97711429D01*
X270161430Y-97925714D01*
X270090001Y-98211429D01*
X270018573Y-98354286D01*
X269875715Y-98497143D01*
X269661430Y-98568571D01*
X269304287Y-98568571D01*
X270732858Y-97211429D02*
X270804287Y-97140000D01*
X270947144Y-97068571D01*
X271304287Y-97068571D01*
X271447144Y-97140000D01*
X271518573Y-97211429D01*
X271590001Y-97354286D01*
X271590001Y-97497143D01*
X271518573Y-97711429D01*
X270661430Y-98568571D01*
X271590001Y-98568571D01*
X272090001Y-97068571D02*
X273090001Y-97068571D01*
X272447144Y-98568571D01*
X229347144Y-98568571D02*
X228632858Y-98568571D01*
X228632858Y-97068571D01*
X229847144Y-97782857D02*
X230347144Y-97782857D01*
X230561430Y-98568571D02*
X229847144Y-98568571D01*
X229847144Y-97068571D01*
X230561430Y-97068571D01*
X231204287Y-98568571D02*
X231204287Y-97068571D01*
X231561430Y-97068571D01*
X231775715Y-97140000D01*
X231918573Y-97282857D01*
X231990001Y-97425714D01*
X232061430Y-97711429D01*
X232061430Y-97925714D01*
X231990001Y-98211429D01*
X231918573Y-98354286D01*
X231775715Y-98497143D01*
X231561430Y-98568571D01*
X231204287Y-98568571D01*
X232632858Y-97211429D02*
X232704287Y-97140000D01*
X232847144Y-97068571D01*
X233204287Y-97068571D01*
X233347144Y-97140000D01*
X233418573Y-97211429D01*
X233490001Y-97354286D01*
X233490001Y-97497143D01*
X233418573Y-97711429D01*
X232561430Y-98568571D01*
X233490001Y-98568571D01*
X234847144Y-97068571D02*
X234132858Y-97068571D01*
X234061429Y-97782857D01*
X234132858Y-97711429D01*
X234275715Y-97640000D01*
X234632858Y-97640000D01*
X234775715Y-97711429D01*
X234847144Y-97782857D01*
X234918572Y-97925714D01*
X234918572Y-98282857D01*
X234847144Y-98425714D01*
X234775715Y-98497143D01*
X234632858Y-98568571D01*
X234275715Y-98568571D01*
X234132858Y-98497143D01*
X234061429Y-98425714D01*
X248397144Y-98568571D02*
X247682858Y-98568571D01*
X247682858Y-97068571D01*
X248897144Y-97782857D02*
X249397144Y-97782857D01*
X249611430Y-98568571D02*
X248897144Y-98568571D01*
X248897144Y-97068571D01*
X249611430Y-97068571D01*
X250254287Y-98568571D02*
X250254287Y-97068571D01*
X250611430Y-97068571D01*
X250825715Y-97140000D01*
X250968573Y-97282857D01*
X251040001Y-97425714D01*
X251111430Y-97711429D01*
X251111430Y-97925714D01*
X251040001Y-98211429D01*
X250968573Y-98354286D01*
X250825715Y-98497143D01*
X250611430Y-98568571D01*
X250254287Y-98568571D01*
X251682858Y-97211429D02*
X251754287Y-97140000D01*
X251897144Y-97068571D01*
X252254287Y-97068571D01*
X252397144Y-97140000D01*
X252468573Y-97211429D01*
X252540001Y-97354286D01*
X252540001Y-97497143D01*
X252468573Y-97711429D01*
X251611430Y-98568571D01*
X252540001Y-98568571D01*
X253825715Y-97068571D02*
X253540001Y-97068571D01*
X253397144Y-97140000D01*
X253325715Y-97211429D01*
X253182858Y-97425714D01*
X253111429Y-97711429D01*
X253111429Y-98282857D01*
X253182858Y-98425714D01*
X253254286Y-98497143D01*
X253397144Y-98568571D01*
X253682858Y-98568571D01*
X253825715Y-98497143D01*
X253897144Y-98425714D01*
X253968572Y-98282857D01*
X253968572Y-97925714D01*
X253897144Y-97782857D01*
X253825715Y-97711429D01*
X253682858Y-97640000D01*
X253397144Y-97640000D01*
X253254286Y-97711429D01*
X253182858Y-97782857D01*
X253111429Y-97925714D01*
X210297144Y-98568571D02*
X209582858Y-98568571D01*
X209582858Y-97068571D01*
X210797144Y-97782857D02*
X211297144Y-97782857D01*
X211511430Y-98568571D02*
X210797144Y-98568571D01*
X210797144Y-97068571D01*
X211511430Y-97068571D01*
X212154287Y-98568571D02*
X212154287Y-97068571D01*
X212511430Y-97068571D01*
X212725715Y-97140000D01*
X212868573Y-97282857D01*
X212940001Y-97425714D01*
X213011430Y-97711429D01*
X213011430Y-97925714D01*
X212940001Y-98211429D01*
X212868573Y-98354286D01*
X212725715Y-98497143D01*
X212511430Y-98568571D01*
X212154287Y-98568571D01*
X213582858Y-97211429D02*
X213654287Y-97140000D01*
X213797144Y-97068571D01*
X214154287Y-97068571D01*
X214297144Y-97140000D01*
X214368573Y-97211429D01*
X214440001Y-97354286D01*
X214440001Y-97497143D01*
X214368573Y-97711429D01*
X213511430Y-98568571D01*
X214440001Y-98568571D01*
X215725715Y-97568571D02*
X215725715Y-98568571D01*
X215368572Y-96997143D02*
X215011429Y-98068571D01*
X215940001Y-98068571D01*
X191247144Y-98568571D02*
X190532858Y-98568571D01*
X190532858Y-97068571D01*
X191747144Y-97782857D02*
X192247144Y-97782857D01*
X192461430Y-98568571D02*
X191747144Y-98568571D01*
X191747144Y-97068571D01*
X192461430Y-97068571D01*
X193104287Y-98568571D02*
X193104287Y-97068571D01*
X193461430Y-97068571D01*
X193675715Y-97140000D01*
X193818573Y-97282857D01*
X193890001Y-97425714D01*
X193961430Y-97711429D01*
X193961430Y-97925714D01*
X193890001Y-98211429D01*
X193818573Y-98354286D01*
X193675715Y-98497143D01*
X193461430Y-98568571D01*
X193104287Y-98568571D01*
X194532858Y-97211429D02*
X194604287Y-97140000D01*
X194747144Y-97068571D01*
X195104287Y-97068571D01*
X195247144Y-97140000D01*
X195318573Y-97211429D01*
X195390001Y-97354286D01*
X195390001Y-97497143D01*
X195318573Y-97711429D01*
X194461430Y-98568571D01*
X195390001Y-98568571D01*
X195890001Y-97068571D02*
X196818572Y-97068571D01*
X196318572Y-97640000D01*
X196532858Y-97640000D01*
X196675715Y-97711429D01*
X196747144Y-97782857D01*
X196818572Y-97925714D01*
X196818572Y-98282857D01*
X196747144Y-98425714D01*
X196675715Y-98497143D01*
X196532858Y-98568571D01*
X196104286Y-98568571D01*
X195961429Y-98497143D01*
X195890001Y-98425714D01*
X172197144Y-98568571D02*
X171482858Y-98568571D01*
X171482858Y-97068571D01*
X172697144Y-97782857D02*
X173197144Y-97782857D01*
X173411430Y-98568571D02*
X172697144Y-98568571D01*
X172697144Y-97068571D01*
X173411430Y-97068571D01*
X174054287Y-98568571D02*
X174054287Y-97068571D01*
X174411430Y-97068571D01*
X174625715Y-97140000D01*
X174768573Y-97282857D01*
X174840001Y-97425714D01*
X174911430Y-97711429D01*
X174911430Y-97925714D01*
X174840001Y-98211429D01*
X174768573Y-98354286D01*
X174625715Y-98497143D01*
X174411430Y-98568571D01*
X174054287Y-98568571D01*
X175482858Y-97211429D02*
X175554287Y-97140000D01*
X175697144Y-97068571D01*
X176054287Y-97068571D01*
X176197144Y-97140000D01*
X176268573Y-97211429D01*
X176340001Y-97354286D01*
X176340001Y-97497143D01*
X176268573Y-97711429D01*
X175411430Y-98568571D01*
X176340001Y-98568571D01*
X176911429Y-97211429D02*
X176982858Y-97140000D01*
X177125715Y-97068571D01*
X177482858Y-97068571D01*
X177625715Y-97140000D01*
X177697144Y-97211429D01*
X177768572Y-97354286D01*
X177768572Y-97497143D01*
X177697144Y-97711429D01*
X176840001Y-98568571D01*
X177768572Y-98568571D01*
X153147144Y-98568571D02*
X152432858Y-98568571D01*
X152432858Y-97068571D01*
X153647144Y-97782857D02*
X154147144Y-97782857D01*
X154361430Y-98568571D02*
X153647144Y-98568571D01*
X153647144Y-97068571D01*
X154361430Y-97068571D01*
X155004287Y-98568571D02*
X155004287Y-97068571D01*
X155361430Y-97068571D01*
X155575715Y-97140000D01*
X155718573Y-97282857D01*
X155790001Y-97425714D01*
X155861430Y-97711429D01*
X155861430Y-97925714D01*
X155790001Y-98211429D01*
X155718573Y-98354286D01*
X155575715Y-98497143D01*
X155361430Y-98568571D01*
X155004287Y-98568571D01*
X156432858Y-97211429D02*
X156504287Y-97140000D01*
X156647144Y-97068571D01*
X157004287Y-97068571D01*
X157147144Y-97140000D01*
X157218573Y-97211429D01*
X157290001Y-97354286D01*
X157290001Y-97497143D01*
X157218573Y-97711429D01*
X156361430Y-98568571D01*
X157290001Y-98568571D01*
X158718572Y-98568571D02*
X157861429Y-98568571D01*
X158290001Y-98568571D02*
X158290001Y-97068571D01*
X158147144Y-97282857D01*
X158004286Y-97425714D01*
X157861429Y-97497143D01*
X134097144Y-98568571D02*
X133382858Y-98568571D01*
X133382858Y-97068571D01*
X134597144Y-97782857D02*
X135097144Y-97782857D01*
X135311430Y-98568571D02*
X134597144Y-98568571D01*
X134597144Y-97068571D01*
X135311430Y-97068571D01*
X135954287Y-98568571D02*
X135954287Y-97068571D01*
X136311430Y-97068571D01*
X136525715Y-97140000D01*
X136668573Y-97282857D01*
X136740001Y-97425714D01*
X136811430Y-97711429D01*
X136811430Y-97925714D01*
X136740001Y-98211429D01*
X136668573Y-98354286D01*
X136525715Y-98497143D01*
X136311430Y-98568571D01*
X135954287Y-98568571D01*
X137382858Y-97211429D02*
X137454287Y-97140000D01*
X137597144Y-97068571D01*
X137954287Y-97068571D01*
X138097144Y-97140000D01*
X138168573Y-97211429D01*
X138240001Y-97354286D01*
X138240001Y-97497143D01*
X138168573Y-97711429D01*
X137311430Y-98568571D01*
X138240001Y-98568571D01*
X139168572Y-97068571D02*
X139311429Y-97068571D01*
X139454286Y-97140000D01*
X139525715Y-97211429D01*
X139597144Y-97354286D01*
X139668572Y-97640000D01*
X139668572Y-97997143D01*
X139597144Y-98282857D01*
X139525715Y-98425714D01*
X139454286Y-98497143D01*
X139311429Y-98568571D01*
X139168572Y-98568571D01*
X139025715Y-98497143D01*
X138954286Y-98425714D01*
X138882858Y-98282857D01*
X138811429Y-97997143D01*
X138811429Y-97640000D01*
X138882858Y-97354286D01*
X138954286Y-97211429D01*
X139025715Y-97140000D01*
X139168572Y-97068571D01*
X96007144Y-98578571D02*
X95292858Y-98578571D01*
X95292858Y-97078571D01*
X96507144Y-97792857D02*
X97007144Y-97792857D01*
X97221430Y-98578571D02*
X96507144Y-98578571D01*
X96507144Y-97078571D01*
X97221430Y-97078571D01*
X97864287Y-98578571D02*
X97864287Y-97078571D01*
X98221430Y-97078571D01*
X98435715Y-97150000D01*
X98578573Y-97292857D01*
X98650001Y-97435714D01*
X98721430Y-97721429D01*
X98721430Y-97935714D01*
X98650001Y-98221429D01*
X98578573Y-98364286D01*
X98435715Y-98507143D01*
X98221430Y-98578571D01*
X97864287Y-98578571D01*
X100150001Y-98578571D02*
X99292858Y-98578571D01*
X99721430Y-98578571D02*
X99721430Y-97078571D01*
X99578573Y-97292857D01*
X99435715Y-97435714D01*
X99292858Y-97507143D01*
X101007144Y-97721429D02*
X100864286Y-97650000D01*
X100792858Y-97578571D01*
X100721429Y-97435714D01*
X100721429Y-97364286D01*
X100792858Y-97221429D01*
X100864286Y-97150000D01*
X101007144Y-97078571D01*
X101292858Y-97078571D01*
X101435715Y-97150000D01*
X101507144Y-97221429D01*
X101578572Y-97364286D01*
X101578572Y-97435714D01*
X101507144Y-97578571D01*
X101435715Y-97650000D01*
X101292858Y-97721429D01*
X101007144Y-97721429D01*
X100864286Y-97792857D01*
X100792858Y-97864286D01*
X100721429Y-98007143D01*
X100721429Y-98292857D01*
X100792858Y-98435714D01*
X100864286Y-98507143D01*
X101007144Y-98578571D01*
X101292858Y-98578571D01*
X101435715Y-98507143D01*
X101507144Y-98435714D01*
X101578572Y-98292857D01*
X101578572Y-98007143D01*
X101507144Y-97864286D01*
X101435715Y-97792857D01*
X101292858Y-97721429D01*
X115047144Y-98568571D02*
X114332858Y-98568571D01*
X114332858Y-97068571D01*
X115547144Y-97782857D02*
X116047144Y-97782857D01*
X116261430Y-98568571D02*
X115547144Y-98568571D01*
X115547144Y-97068571D01*
X116261430Y-97068571D01*
X116904287Y-98568571D02*
X116904287Y-97068571D01*
X117261430Y-97068571D01*
X117475715Y-97140000D01*
X117618573Y-97282857D01*
X117690001Y-97425714D01*
X117761430Y-97711429D01*
X117761430Y-97925714D01*
X117690001Y-98211429D01*
X117618573Y-98354286D01*
X117475715Y-98497143D01*
X117261430Y-98568571D01*
X116904287Y-98568571D01*
X119190001Y-98568571D02*
X118332858Y-98568571D01*
X118761430Y-98568571D02*
X118761430Y-97068571D01*
X118618573Y-97282857D01*
X118475715Y-97425714D01*
X118332858Y-97497143D01*
X119904286Y-98568571D02*
X120190001Y-98568571D01*
X120332858Y-98497143D01*
X120404286Y-98425714D01*
X120547144Y-98211429D01*
X120618572Y-97925714D01*
X120618572Y-97354286D01*
X120547144Y-97211429D01*
X120475715Y-97140000D01*
X120332858Y-97068571D01*
X120047144Y-97068571D01*
X119904286Y-97140000D01*
X119832858Y-97211429D01*
X119761429Y-97354286D01*
X119761429Y-97711429D01*
X119832858Y-97854286D01*
X119904286Y-97925714D01*
X120047144Y-97997143D01*
X120332858Y-97997143D01*
X120475715Y-97925714D01*
X120547144Y-97854286D01*
X120618572Y-97711429D01*
X72187144Y-98568571D02*
X71472858Y-98568571D01*
X71472858Y-97068571D01*
X72687144Y-97782857D02*
X73187144Y-97782857D01*
X73401430Y-98568571D02*
X72687144Y-98568571D01*
X72687144Y-97068571D01*
X73401430Y-97068571D01*
X74044287Y-98568571D02*
X74044287Y-97068571D01*
X74401430Y-97068571D01*
X74615715Y-97140000D01*
X74758573Y-97282857D01*
X74830001Y-97425714D01*
X74901430Y-97711429D01*
X74901430Y-97925714D01*
X74830001Y-98211429D01*
X74758573Y-98354286D01*
X74615715Y-98497143D01*
X74401430Y-98568571D01*
X74044287Y-98568571D01*
X76330001Y-98568571D02*
X75472858Y-98568571D01*
X75901430Y-98568571D02*
X75901430Y-97068571D01*
X75758573Y-97282857D01*
X75615715Y-97425714D01*
X75472858Y-97497143D01*
X76830001Y-97068571D02*
X77830001Y-97068571D01*
X77187144Y-98568571D01*
X67417144Y-79528571D02*
X66702858Y-79528571D01*
X66702858Y-78028571D01*
X67917144Y-78742857D02*
X68417144Y-78742857D01*
X68631430Y-79528571D02*
X67917144Y-79528571D01*
X67917144Y-78028571D01*
X68631430Y-78028571D01*
X69274287Y-79528571D02*
X69274287Y-78028571D01*
X69631430Y-78028571D01*
X69845715Y-78100000D01*
X69988573Y-78242857D01*
X70060001Y-78385714D01*
X70131430Y-78671429D01*
X70131430Y-78885714D01*
X70060001Y-79171429D01*
X69988573Y-79314286D01*
X69845715Y-79457143D01*
X69631430Y-79528571D01*
X69274287Y-79528571D01*
X71560001Y-79528571D02*
X70702858Y-79528571D01*
X71131430Y-79528571D02*
X71131430Y-78028571D01*
X70988573Y-78242857D01*
X70845715Y-78385714D01*
X70702858Y-78457143D01*
X72845715Y-78028571D02*
X72560001Y-78028571D01*
X72417144Y-78100000D01*
X72345715Y-78171429D01*
X72202858Y-78385714D01*
X72131429Y-78671429D01*
X72131429Y-79242857D01*
X72202858Y-79385714D01*
X72274286Y-79457143D01*
X72417144Y-79528571D01*
X72702858Y-79528571D01*
X72845715Y-79457143D01*
X72917144Y-79385714D01*
X72988572Y-79242857D01*
X72988572Y-78885714D01*
X72917144Y-78742857D01*
X72845715Y-78671429D01*
X72702858Y-78600000D01*
X72417144Y-78600000D01*
X72274286Y-78671429D01*
X72202858Y-78742857D01*
X72131429Y-78885714D01*
X86477144Y-79528571D02*
X85762858Y-79528571D01*
X85762858Y-78028571D01*
X86977144Y-78742857D02*
X87477144Y-78742857D01*
X87691430Y-79528571D02*
X86977144Y-79528571D01*
X86977144Y-78028571D01*
X87691430Y-78028571D01*
X88334287Y-79528571D02*
X88334287Y-78028571D01*
X88691430Y-78028571D01*
X88905715Y-78100000D01*
X89048573Y-78242857D01*
X89120001Y-78385714D01*
X89191430Y-78671429D01*
X89191430Y-78885714D01*
X89120001Y-79171429D01*
X89048573Y-79314286D01*
X88905715Y-79457143D01*
X88691430Y-79528571D01*
X88334287Y-79528571D01*
X90620001Y-79528571D02*
X89762858Y-79528571D01*
X90191430Y-79528571D02*
X90191430Y-78028571D01*
X90048573Y-78242857D01*
X89905715Y-78385714D01*
X89762858Y-78457143D01*
X91977144Y-78028571D02*
X91262858Y-78028571D01*
X91191429Y-78742857D01*
X91262858Y-78671429D01*
X91405715Y-78600000D01*
X91762858Y-78600000D01*
X91905715Y-78671429D01*
X91977144Y-78742857D01*
X92048572Y-78885714D01*
X92048572Y-79242857D01*
X91977144Y-79385714D01*
X91905715Y-79457143D01*
X91762858Y-79528571D01*
X91405715Y-79528571D01*
X91262858Y-79457143D01*
X91191429Y-79385714D01*
X105527144Y-79538571D02*
X104812858Y-79538571D01*
X104812858Y-78038571D01*
X106027144Y-78752857D02*
X106527144Y-78752857D01*
X106741430Y-79538571D02*
X106027144Y-79538571D01*
X106027144Y-78038571D01*
X106741430Y-78038571D01*
X107384287Y-79538571D02*
X107384287Y-78038571D01*
X107741430Y-78038571D01*
X107955715Y-78110000D01*
X108098573Y-78252857D01*
X108170001Y-78395714D01*
X108241430Y-78681429D01*
X108241430Y-78895714D01*
X108170001Y-79181429D01*
X108098573Y-79324286D01*
X107955715Y-79467143D01*
X107741430Y-79538571D01*
X107384287Y-79538571D01*
X109670001Y-79538571D02*
X108812858Y-79538571D01*
X109241430Y-79538571D02*
X109241430Y-78038571D01*
X109098573Y-78252857D01*
X108955715Y-78395714D01*
X108812858Y-78467143D01*
X110955715Y-78538571D02*
X110955715Y-79538571D01*
X110598572Y-77967143D02*
X110241429Y-79038571D01*
X111170001Y-79038571D01*
X124577144Y-79528571D02*
X123862858Y-79528571D01*
X123862858Y-78028571D01*
X125077144Y-78742857D02*
X125577144Y-78742857D01*
X125791430Y-79528571D02*
X125077144Y-79528571D01*
X125077144Y-78028571D01*
X125791430Y-78028571D01*
X126434287Y-79528571D02*
X126434287Y-78028571D01*
X126791430Y-78028571D01*
X127005715Y-78100000D01*
X127148573Y-78242857D01*
X127220001Y-78385714D01*
X127291430Y-78671429D01*
X127291430Y-78885714D01*
X127220001Y-79171429D01*
X127148573Y-79314286D01*
X127005715Y-79457143D01*
X126791430Y-79528571D01*
X126434287Y-79528571D01*
X128720001Y-79528571D02*
X127862858Y-79528571D01*
X128291430Y-79528571D02*
X128291430Y-78028571D01*
X128148573Y-78242857D01*
X128005715Y-78385714D01*
X127862858Y-78457143D01*
X129220001Y-78028571D02*
X130148572Y-78028571D01*
X129648572Y-78600000D01*
X129862858Y-78600000D01*
X130005715Y-78671429D01*
X130077144Y-78742857D01*
X130148572Y-78885714D01*
X130148572Y-79242857D01*
X130077144Y-79385714D01*
X130005715Y-79457143D01*
X129862858Y-79528571D01*
X129434286Y-79528571D01*
X129291429Y-79457143D01*
X129220001Y-79385714D01*
X143627144Y-79528571D02*
X142912858Y-79528571D01*
X142912858Y-78028571D01*
X144127144Y-78742857D02*
X144627144Y-78742857D01*
X144841430Y-79528571D02*
X144127144Y-79528571D01*
X144127144Y-78028571D01*
X144841430Y-78028571D01*
X145484287Y-79528571D02*
X145484287Y-78028571D01*
X145841430Y-78028571D01*
X146055715Y-78100000D01*
X146198573Y-78242857D01*
X146270001Y-78385714D01*
X146341430Y-78671429D01*
X146341430Y-78885714D01*
X146270001Y-79171429D01*
X146198573Y-79314286D01*
X146055715Y-79457143D01*
X145841430Y-79528571D01*
X145484287Y-79528571D01*
X147770001Y-79528571D02*
X146912858Y-79528571D01*
X147341430Y-79528571D02*
X147341430Y-78028571D01*
X147198573Y-78242857D01*
X147055715Y-78385714D01*
X146912858Y-78457143D01*
X148341429Y-78171429D02*
X148412858Y-78100000D01*
X148555715Y-78028571D01*
X148912858Y-78028571D01*
X149055715Y-78100000D01*
X149127144Y-78171429D01*
X149198572Y-78314286D01*
X149198572Y-78457143D01*
X149127144Y-78671429D01*
X148270001Y-79528571D01*
X149198572Y-79528571D01*
X162667144Y-79528571D02*
X161952858Y-79528571D01*
X161952858Y-78028571D01*
X163167144Y-78742857D02*
X163667144Y-78742857D01*
X163881430Y-79528571D02*
X163167144Y-79528571D01*
X163167144Y-78028571D01*
X163881430Y-78028571D01*
X164524287Y-79528571D02*
X164524287Y-78028571D01*
X164881430Y-78028571D01*
X165095715Y-78100000D01*
X165238573Y-78242857D01*
X165310001Y-78385714D01*
X165381430Y-78671429D01*
X165381430Y-78885714D01*
X165310001Y-79171429D01*
X165238573Y-79314286D01*
X165095715Y-79457143D01*
X164881430Y-79528571D01*
X164524287Y-79528571D01*
X166810001Y-79528571D02*
X165952858Y-79528571D01*
X166381430Y-79528571D02*
X166381430Y-78028571D01*
X166238573Y-78242857D01*
X166095715Y-78385714D01*
X165952858Y-78457143D01*
X168238572Y-79528571D02*
X167381429Y-79528571D01*
X167810001Y-79528571D02*
X167810001Y-78028571D01*
X167667144Y-78242857D01*
X167524286Y-78385714D01*
X167381429Y-78457143D01*
X181727144Y-79528571D02*
X181012858Y-79528571D01*
X181012858Y-78028571D01*
X182227144Y-78742857D02*
X182727144Y-78742857D01*
X182941430Y-79528571D02*
X182227144Y-79528571D01*
X182227144Y-78028571D01*
X182941430Y-78028571D01*
X183584287Y-79528571D02*
X183584287Y-78028571D01*
X183941430Y-78028571D01*
X184155715Y-78100000D01*
X184298573Y-78242857D01*
X184370001Y-78385714D01*
X184441430Y-78671429D01*
X184441430Y-78885714D01*
X184370001Y-79171429D01*
X184298573Y-79314286D01*
X184155715Y-79457143D01*
X183941430Y-79528571D01*
X183584287Y-79528571D01*
X185870001Y-79528571D02*
X185012858Y-79528571D01*
X185441430Y-79528571D02*
X185441430Y-78028571D01*
X185298573Y-78242857D01*
X185155715Y-78385714D01*
X185012858Y-78457143D01*
X186798572Y-78028571D02*
X186941429Y-78028571D01*
X187084286Y-78100000D01*
X187155715Y-78171429D01*
X187227144Y-78314286D01*
X187298572Y-78600000D01*
X187298572Y-78957143D01*
X187227144Y-79242857D01*
X187155715Y-79385714D01*
X187084286Y-79457143D01*
X186941429Y-79528571D01*
X186798572Y-79528571D01*
X186655715Y-79457143D01*
X186584286Y-79385714D01*
X186512858Y-79242857D01*
X186441429Y-78957143D01*
X186441429Y-78600000D01*
X186512858Y-78314286D01*
X186584286Y-78171429D01*
X186655715Y-78100000D01*
X186798572Y-78028571D01*
X201481429Y-79528571D02*
X200767143Y-79528571D01*
X200767143Y-78028571D01*
X201981429Y-78742857D02*
X202481429Y-78742857D01*
X202695715Y-79528571D02*
X201981429Y-79528571D01*
X201981429Y-78028571D01*
X202695715Y-78028571D01*
X203338572Y-79528571D02*
X203338572Y-78028571D01*
X203695715Y-78028571D01*
X203910000Y-78100000D01*
X204052858Y-78242857D01*
X204124286Y-78385714D01*
X204195715Y-78671429D01*
X204195715Y-78885714D01*
X204124286Y-79171429D01*
X204052858Y-79314286D01*
X203910000Y-79457143D01*
X203695715Y-79528571D01*
X203338572Y-79528571D01*
X204910000Y-79528571D02*
X205195715Y-79528571D01*
X205338572Y-79457143D01*
X205410000Y-79385714D01*
X205552858Y-79171429D01*
X205624286Y-78885714D01*
X205624286Y-78314286D01*
X205552858Y-78171429D01*
X205481429Y-78100000D01*
X205338572Y-78028571D01*
X205052858Y-78028571D01*
X204910000Y-78100000D01*
X204838572Y-78171429D01*
X204767143Y-78314286D01*
X204767143Y-78671429D01*
X204838572Y-78814286D01*
X204910000Y-78885714D01*
X205052858Y-78957143D01*
X205338572Y-78957143D01*
X205481429Y-78885714D01*
X205552858Y-78814286D01*
X205624286Y-78671429D01*
X220541429Y-79528571D02*
X219827143Y-79528571D01*
X219827143Y-78028571D01*
X221041429Y-78742857D02*
X221541429Y-78742857D01*
X221755715Y-79528571D02*
X221041429Y-79528571D01*
X221041429Y-78028571D01*
X221755715Y-78028571D01*
X222398572Y-79528571D02*
X222398572Y-78028571D01*
X222755715Y-78028571D01*
X222970000Y-78100000D01*
X223112858Y-78242857D01*
X223184286Y-78385714D01*
X223255715Y-78671429D01*
X223255715Y-78885714D01*
X223184286Y-79171429D01*
X223112858Y-79314286D01*
X222970000Y-79457143D01*
X222755715Y-79528571D01*
X222398572Y-79528571D01*
X224112858Y-78671429D02*
X223970000Y-78600000D01*
X223898572Y-78528571D01*
X223827143Y-78385714D01*
X223827143Y-78314286D01*
X223898572Y-78171429D01*
X223970000Y-78100000D01*
X224112858Y-78028571D01*
X224398572Y-78028571D01*
X224541429Y-78100000D01*
X224612858Y-78171429D01*
X224684286Y-78314286D01*
X224684286Y-78385714D01*
X224612858Y-78528571D01*
X224541429Y-78600000D01*
X224398572Y-78671429D01*
X224112858Y-78671429D01*
X223970000Y-78742857D01*
X223898572Y-78814286D01*
X223827143Y-78957143D01*
X223827143Y-79242857D01*
X223898572Y-79385714D01*
X223970000Y-79457143D01*
X224112858Y-79528571D01*
X224398572Y-79528571D01*
X224541429Y-79457143D01*
X224612858Y-79385714D01*
X224684286Y-79242857D01*
X224684286Y-78957143D01*
X224612858Y-78814286D01*
X224541429Y-78742857D01*
X224398572Y-78671429D01*
X239581429Y-79528571D02*
X238867143Y-79528571D01*
X238867143Y-78028571D01*
X240081429Y-78742857D02*
X240581429Y-78742857D01*
X240795715Y-79528571D02*
X240081429Y-79528571D01*
X240081429Y-78028571D01*
X240795715Y-78028571D01*
X241438572Y-79528571D02*
X241438572Y-78028571D01*
X241795715Y-78028571D01*
X242010000Y-78100000D01*
X242152858Y-78242857D01*
X242224286Y-78385714D01*
X242295715Y-78671429D01*
X242295715Y-78885714D01*
X242224286Y-79171429D01*
X242152858Y-79314286D01*
X242010000Y-79457143D01*
X241795715Y-79528571D01*
X241438572Y-79528571D01*
X242795715Y-78028571D02*
X243795715Y-78028571D01*
X243152858Y-79528571D01*
X258641429Y-79528571D02*
X257927143Y-79528571D01*
X257927143Y-78028571D01*
X259141429Y-78742857D02*
X259641429Y-78742857D01*
X259855715Y-79528571D02*
X259141429Y-79528571D01*
X259141429Y-78028571D01*
X259855715Y-78028571D01*
X260498572Y-79528571D02*
X260498572Y-78028571D01*
X260855715Y-78028571D01*
X261070000Y-78100000D01*
X261212858Y-78242857D01*
X261284286Y-78385714D01*
X261355715Y-78671429D01*
X261355715Y-78885714D01*
X261284286Y-79171429D01*
X261212858Y-79314286D01*
X261070000Y-79457143D01*
X260855715Y-79528571D01*
X260498572Y-79528571D01*
X262641429Y-78028571D02*
X262355715Y-78028571D01*
X262212858Y-78100000D01*
X262141429Y-78171429D01*
X261998572Y-78385714D01*
X261927143Y-78671429D01*
X261927143Y-79242857D01*
X261998572Y-79385714D01*
X262070000Y-79457143D01*
X262212858Y-79528571D01*
X262498572Y-79528571D01*
X262641429Y-79457143D01*
X262712858Y-79385714D01*
X262784286Y-79242857D01*
X262784286Y-78885714D01*
X262712858Y-78742857D01*
X262641429Y-78671429D01*
X262498572Y-78600000D01*
X262212858Y-78600000D01*
X262070000Y-78671429D01*
X261998572Y-78742857D01*
X261927143Y-78885714D01*
X277691429Y-79528571D02*
X276977143Y-79528571D01*
X276977143Y-78028571D01*
X278191429Y-78742857D02*
X278691429Y-78742857D01*
X278905715Y-79528571D02*
X278191429Y-79528571D01*
X278191429Y-78028571D01*
X278905715Y-78028571D01*
X279548572Y-79528571D02*
X279548572Y-78028571D01*
X279905715Y-78028571D01*
X280120000Y-78100000D01*
X280262858Y-78242857D01*
X280334286Y-78385714D01*
X280405715Y-78671429D01*
X280405715Y-78885714D01*
X280334286Y-79171429D01*
X280262858Y-79314286D01*
X280120000Y-79457143D01*
X279905715Y-79528571D01*
X279548572Y-79528571D01*
X281762858Y-78028571D02*
X281048572Y-78028571D01*
X280977143Y-78742857D01*
X281048572Y-78671429D01*
X281191429Y-78600000D01*
X281548572Y-78600000D01*
X281691429Y-78671429D01*
X281762858Y-78742857D01*
X281834286Y-78885714D01*
X281834286Y-79242857D01*
X281762858Y-79385714D01*
X281691429Y-79457143D01*
X281548572Y-79528571D01*
X281191429Y-79528571D01*
X281048572Y-79457143D01*
X280977143Y-79385714D01*
X296731429Y-79528571D02*
X296017143Y-79528571D01*
X296017143Y-78028571D01*
X297231429Y-78742857D02*
X297731429Y-78742857D01*
X297945715Y-79528571D02*
X297231429Y-79528571D01*
X297231429Y-78028571D01*
X297945715Y-78028571D01*
X298588572Y-79528571D02*
X298588572Y-78028571D01*
X298945715Y-78028571D01*
X299160000Y-78100000D01*
X299302858Y-78242857D01*
X299374286Y-78385714D01*
X299445715Y-78671429D01*
X299445715Y-78885714D01*
X299374286Y-79171429D01*
X299302858Y-79314286D01*
X299160000Y-79457143D01*
X298945715Y-79528571D01*
X298588572Y-79528571D01*
X300731429Y-78528571D02*
X300731429Y-79528571D01*
X300374286Y-77957143D02*
X300017143Y-79028571D01*
X300945715Y-79028571D01*
X325311429Y-79528571D02*
X324597143Y-79528571D01*
X324597143Y-78028571D01*
X325811429Y-78742857D02*
X326311429Y-78742857D01*
X326525715Y-79528571D02*
X325811429Y-79528571D01*
X325811429Y-78028571D01*
X326525715Y-78028571D01*
X327168572Y-79528571D02*
X327168572Y-78028571D01*
X327525715Y-78028571D01*
X327740000Y-78100000D01*
X327882858Y-78242857D01*
X327954286Y-78385714D01*
X328025715Y-78671429D01*
X328025715Y-78885714D01*
X327954286Y-79171429D01*
X327882858Y-79314286D01*
X327740000Y-79457143D01*
X327525715Y-79528571D01*
X327168572Y-79528571D01*
X328525715Y-78028571D02*
X329454286Y-78028571D01*
X328954286Y-78600000D01*
X329168572Y-78600000D01*
X329311429Y-78671429D01*
X329382858Y-78742857D01*
X329454286Y-78885714D01*
X329454286Y-79242857D01*
X329382858Y-79385714D01*
X329311429Y-79457143D01*
X329168572Y-79528571D01*
X328740000Y-79528571D01*
X328597143Y-79457143D01*
X328525715Y-79385714D01*
X358651429Y-79528571D02*
X357937143Y-79528571D01*
X357937143Y-78028571D01*
X359151429Y-78742857D02*
X359651429Y-78742857D01*
X359865715Y-79528571D02*
X359151429Y-79528571D01*
X359151429Y-78028571D01*
X359865715Y-78028571D01*
X360508572Y-79528571D02*
X360508572Y-78028571D01*
X360865715Y-78028571D01*
X361080000Y-78100000D01*
X361222858Y-78242857D01*
X361294286Y-78385714D01*
X361365715Y-78671429D01*
X361365715Y-78885714D01*
X361294286Y-79171429D01*
X361222858Y-79314286D01*
X361080000Y-79457143D01*
X360865715Y-79528571D01*
X360508572Y-79528571D01*
X361937143Y-78171429D02*
X362008572Y-78100000D01*
X362151429Y-78028571D01*
X362508572Y-78028571D01*
X362651429Y-78100000D01*
X362722858Y-78171429D01*
X362794286Y-78314286D01*
X362794286Y-78457143D01*
X362722858Y-78671429D01*
X361865715Y-79528571D01*
X362794286Y-79528571D01*
X377701429Y-79538571D02*
X376987143Y-79538571D01*
X376987143Y-78038571D01*
X378201429Y-78752857D02*
X378701429Y-78752857D01*
X378915715Y-79538571D02*
X378201429Y-79538571D01*
X378201429Y-78038571D01*
X378915715Y-78038571D01*
X379558572Y-79538571D02*
X379558572Y-78038571D01*
X379915715Y-78038571D01*
X380130000Y-78110000D01*
X380272858Y-78252857D01*
X380344286Y-78395714D01*
X380415715Y-78681429D01*
X380415715Y-78895714D01*
X380344286Y-79181429D01*
X380272858Y-79324286D01*
X380130000Y-79467143D01*
X379915715Y-79538571D01*
X379558572Y-79538571D01*
X381844286Y-79538571D02*
X380987143Y-79538571D01*
X381415715Y-79538571D02*
X381415715Y-78038571D01*
X381272858Y-78252857D01*
X381130000Y-78395714D01*
X380987143Y-78467143D01*
D12*
X353983750Y-64327500D02*
X355761750Y-64327500D01*
X364905750Y-64327500D02*
X366683750Y-64327500D01*
X366683750Y-64327500D02*
X366683750Y-66105500D01*
X366683750Y-75249500D02*
X366683750Y-77027500D01*
X366683750Y-77027500D02*
X364905750Y-77027500D01*
X355761750Y-77027500D02*
X353983750Y-77027500D01*
X353983750Y-77027500D02*
X353983750Y-75249500D01*
X353983750Y-66105500D02*
X353983750Y-64327500D01*
X353983750Y-102427500D02*
X355761750Y-102427500D01*
X364905750Y-102427500D02*
X366683750Y-102427500D01*
X366683750Y-102427500D02*
X366683750Y-104205500D01*
X366683750Y-113349500D02*
X366683750Y-115127500D01*
X366683750Y-115127500D02*
X364905750Y-115127500D01*
X355761750Y-115127500D02*
X353983750Y-115127500D01*
X353983750Y-115127500D02*
X353983750Y-113349500D01*
X353983750Y-104205500D02*
X353983750Y-102427500D01*
X373033750Y-140527500D02*
X374811750Y-140527500D01*
X383955750Y-140527500D02*
X385733750Y-140527500D01*
X385733750Y-140527500D02*
X385733750Y-142305500D01*
X385733750Y-151449500D02*
X385733750Y-153227500D01*
X385733750Y-153227500D02*
X383955750Y-153227500D01*
X374811750Y-153227500D02*
X373033750Y-153227500D01*
X373033750Y-153227500D02*
X373033750Y-151449500D01*
X373033750Y-142305500D02*
X373033750Y-140527500D01*
X353983750Y-140527500D02*
X355761750Y-140527500D01*
X364905750Y-140527500D02*
X366683750Y-140527500D01*
X366683750Y-140527500D02*
X366683750Y-142305500D01*
X366683750Y-151449500D02*
X366683750Y-153227500D01*
X366683750Y-153227500D02*
X364905750Y-153227500D01*
X355761750Y-153227500D02*
X353983750Y-153227500D01*
X353983750Y-153227500D02*
X353983750Y-151449500D01*
X353983750Y-142305500D02*
X353983750Y-140527500D01*
X334933750Y-140527500D02*
X336711750Y-140527500D01*
X345855750Y-140527500D02*
X347633750Y-140527500D01*
X347633750Y-140527500D02*
X347633750Y-142305500D01*
X347633750Y-151449500D02*
X347633750Y-153227500D01*
X347633750Y-153227500D02*
X345855750Y-153227500D01*
X336711750Y-153227500D02*
X334933750Y-153227500D01*
X334933750Y-153227500D02*
X334933750Y-151449500D01*
X334933750Y-142305500D02*
X334933750Y-140527500D01*
X303977500Y-140527500D02*
X305755500Y-140527500D01*
X314899500Y-140527500D02*
X316677500Y-140527500D01*
X316677500Y-140527500D02*
X316677500Y-142305500D01*
X316677500Y-151449500D02*
X316677500Y-153227500D01*
X316677500Y-153227500D02*
X314899500Y-153227500D01*
X305755500Y-153227500D02*
X303977500Y-153227500D01*
X303977500Y-153227500D02*
X303977500Y-151449500D01*
X303977500Y-142305500D02*
X303977500Y-140527500D01*
X280165000Y-140527500D02*
X281943000Y-140527500D01*
X291087000Y-140527500D02*
X292865000Y-140527500D01*
X292865000Y-140527500D02*
X292865000Y-142305500D01*
X292865000Y-151449500D02*
X292865000Y-153227500D01*
X292865000Y-153227500D02*
X291087000Y-153227500D01*
X281943000Y-153227500D02*
X280165000Y-153227500D01*
X280165000Y-153227500D02*
X280165000Y-151449500D01*
X280165000Y-142305500D02*
X280165000Y-140527500D01*
X256352500Y-140527500D02*
X258130500Y-140527500D01*
X267274500Y-140527500D02*
X269052500Y-140527500D01*
X269052500Y-140527500D02*
X269052500Y-142305500D01*
X269052500Y-151449500D02*
X269052500Y-153227500D01*
X269052500Y-153227500D02*
X267274500Y-153227500D01*
X258130500Y-153227500D02*
X256352500Y-153227500D01*
X256352500Y-153227500D02*
X256352500Y-151449500D01*
X256352500Y-142305500D02*
X256352500Y-140527500D01*
X184915000Y-140527500D02*
X186693000Y-140527500D01*
X195837000Y-140527500D02*
X197615000Y-140527500D01*
X197615000Y-140527500D02*
X197615000Y-142305500D01*
X197615000Y-151449500D02*
X197615000Y-153227500D01*
X197615000Y-153227500D02*
X195837000Y-153227500D01*
X186693000Y-153227500D02*
X184915000Y-153227500D01*
X184915000Y-153227500D02*
X184915000Y-151449500D01*
X184915000Y-142305500D02*
X184915000Y-140527500D01*
X113477500Y-140527500D02*
X115255500Y-140527500D01*
X124399500Y-140527500D02*
X126177500Y-140527500D01*
X126177500Y-140527500D02*
X126177500Y-142305500D01*
X126177500Y-151449500D02*
X126177500Y-153227500D01*
X126177500Y-153227500D02*
X124399500Y-153227500D01*
X115255500Y-153227500D02*
X113477500Y-153227500D01*
X113477500Y-153227500D02*
X113477500Y-151449500D01*
X113477500Y-142305500D02*
X113477500Y-140527500D01*
X89665000Y-140527500D02*
X91443000Y-140527500D01*
X100587000Y-140527500D02*
X102365000Y-140527500D01*
X102365000Y-140527500D02*
X102365000Y-142305500D01*
X102365000Y-151449500D02*
X102365000Y-153227500D01*
X102365000Y-153227500D02*
X100587000Y-153227500D01*
X91443000Y-153227500D02*
X89665000Y-153227500D01*
X89665000Y-153227500D02*
X89665000Y-151449500D01*
X89665000Y-142305500D02*
X89665000Y-140527500D01*
X65852500Y-140527500D02*
X67630500Y-140527500D01*
X76774500Y-140527500D02*
X78552500Y-140527500D01*
X78552500Y-140527500D02*
X78552500Y-142305500D01*
X78552500Y-151449500D02*
X78552500Y-153227500D01*
X78552500Y-153227500D02*
X76774500Y-153227500D01*
X67630500Y-153227500D02*
X65852500Y-153227500D01*
X65852500Y-153227500D02*
X65852500Y-151449500D01*
X65852500Y-142305500D02*
X65852500Y-140527500D01*
X373033750Y-121477500D02*
X374811750Y-121477500D01*
X383955750Y-121477500D02*
X385733750Y-121477500D01*
X385733750Y-121477500D02*
X385733750Y-123255500D01*
X385733750Y-132399500D02*
X385733750Y-134177500D01*
X385733750Y-134177500D02*
X383955750Y-134177500D01*
X374811750Y-134177500D02*
X373033750Y-134177500D01*
X373033750Y-134177500D02*
X373033750Y-132399500D01*
X373033750Y-123255500D02*
X373033750Y-121477500D01*
X353983750Y-121477500D02*
X355761750Y-121477500D01*
X364905750Y-121477500D02*
X366683750Y-121477500D01*
X366683750Y-121477500D02*
X366683750Y-123255500D01*
X366683750Y-132399500D02*
X366683750Y-134177500D01*
X366683750Y-134177500D02*
X364905750Y-134177500D01*
X355761750Y-134177500D02*
X353983750Y-134177500D01*
X353983750Y-134177500D02*
X353983750Y-132399500D01*
X353983750Y-123255500D02*
X353983750Y-121477500D01*
X313502500Y-121477500D02*
X315280500Y-121477500D01*
X324424500Y-121477500D02*
X326202500Y-121477500D01*
X326202500Y-121477500D02*
X326202500Y-123255500D01*
X326202500Y-132399500D02*
X326202500Y-134177500D01*
X326202500Y-134177500D02*
X324424500Y-134177500D01*
X315280500Y-134177500D02*
X313502500Y-134177500D01*
X313502500Y-134177500D02*
X313502500Y-132399500D01*
X313502500Y-123255500D02*
X313502500Y-121477500D01*
X277783750Y-121477500D02*
X279561750Y-121477500D01*
X288705750Y-121477500D02*
X290483750Y-121477500D01*
X290483750Y-121477500D02*
X290483750Y-123255500D01*
X290483750Y-132399500D02*
X290483750Y-134177500D01*
X290483750Y-134177500D02*
X288705750Y-134177500D01*
X279561750Y-134177500D02*
X277783750Y-134177500D01*
X277783750Y-134177500D02*
X277783750Y-132399500D01*
X277783750Y-123255500D02*
X277783750Y-121477500D01*
X258733750Y-121477500D02*
X260511750Y-121477500D01*
X269655750Y-121477500D02*
X271433750Y-121477500D01*
X271433750Y-121477500D02*
X271433750Y-123255500D01*
X271433750Y-132399500D02*
X271433750Y-134177500D01*
X271433750Y-134177500D02*
X269655750Y-134177500D01*
X260511750Y-134177500D02*
X258733750Y-134177500D01*
X258733750Y-134177500D02*
X258733750Y-132399500D01*
X258733750Y-123255500D02*
X258733750Y-121477500D01*
X239683750Y-121477500D02*
X241461750Y-121477500D01*
X250605750Y-121477500D02*
X252383750Y-121477500D01*
X252383750Y-121477500D02*
X252383750Y-123255500D01*
X252383750Y-132399500D02*
X252383750Y-134177500D01*
X252383750Y-134177500D02*
X250605750Y-134177500D01*
X241461750Y-134177500D02*
X239683750Y-134177500D01*
X239683750Y-134177500D02*
X239683750Y-132399500D01*
X239683750Y-123255500D02*
X239683750Y-121477500D01*
X220633750Y-121477500D02*
X222411750Y-121477500D01*
X231555750Y-121477500D02*
X233333750Y-121477500D01*
X233333750Y-121477500D02*
X233333750Y-123255500D01*
X233333750Y-132399500D02*
X233333750Y-134177500D01*
X233333750Y-134177500D02*
X231555750Y-134177500D01*
X222411750Y-134177500D02*
X220633750Y-134177500D01*
X220633750Y-134177500D02*
X220633750Y-132399500D01*
X220633750Y-123255500D02*
X220633750Y-121477500D01*
X201583750Y-121477500D02*
X203361750Y-121477500D01*
X212505750Y-121477500D02*
X214283750Y-121477500D01*
X214283750Y-121477500D02*
X214283750Y-123255500D01*
X214283750Y-132399500D02*
X214283750Y-134177500D01*
X214283750Y-134177500D02*
X212505750Y-134177500D01*
X203361750Y-134177500D02*
X201583750Y-134177500D01*
X201583750Y-134177500D02*
X201583750Y-132399500D01*
X201583750Y-123255500D02*
X201583750Y-121477500D01*
X182533750Y-121477500D02*
X184311750Y-121477500D01*
X193455750Y-121477500D02*
X195233750Y-121477500D01*
X195233750Y-121477500D02*
X195233750Y-123255500D01*
X195233750Y-132399500D02*
X195233750Y-134177500D01*
X195233750Y-134177500D02*
X193455750Y-134177500D01*
X184311750Y-134177500D02*
X182533750Y-134177500D01*
X182533750Y-134177500D02*
X182533750Y-132399500D01*
X182533750Y-123255500D02*
X182533750Y-121477500D01*
X163483750Y-121477500D02*
X165261750Y-121477500D01*
X174405750Y-121477500D02*
X176183750Y-121477500D01*
X176183750Y-121477500D02*
X176183750Y-123255500D01*
X176183750Y-132399500D02*
X176183750Y-134177500D01*
X176183750Y-134177500D02*
X174405750Y-134177500D01*
X165261750Y-134177500D02*
X163483750Y-134177500D01*
X163483750Y-134177500D02*
X163483750Y-132399500D01*
X163483750Y-123255500D02*
X163483750Y-121477500D01*
X144433750Y-121477500D02*
X146211750Y-121477500D01*
X155355750Y-121477500D02*
X157133750Y-121477500D01*
X157133750Y-121477500D02*
X157133750Y-123255500D01*
X157133750Y-132399500D02*
X157133750Y-134177500D01*
X157133750Y-134177500D02*
X155355750Y-134177500D01*
X146211750Y-134177500D02*
X144433750Y-134177500D01*
X144433750Y-134177500D02*
X144433750Y-132399500D01*
X144433750Y-123255500D02*
X144433750Y-121477500D01*
X125383750Y-121477500D02*
X127161750Y-121477500D01*
X136305750Y-121477500D02*
X138083750Y-121477500D01*
X138083750Y-121477500D02*
X138083750Y-123255500D01*
X138083750Y-132399500D02*
X138083750Y-134177500D01*
X138083750Y-134177500D02*
X136305750Y-134177500D01*
X127161750Y-134177500D02*
X125383750Y-134177500D01*
X125383750Y-134177500D02*
X125383750Y-132399500D01*
X125383750Y-123255500D02*
X125383750Y-121477500D01*
X106333750Y-121477500D02*
X108111750Y-121477500D01*
X117255750Y-121477500D02*
X119033750Y-121477500D01*
X119033750Y-121477500D02*
X119033750Y-123255500D01*
X119033750Y-132399500D02*
X119033750Y-134177500D01*
X119033750Y-134177500D02*
X117255750Y-134177500D01*
X108111750Y-134177500D02*
X106333750Y-134177500D01*
X106333750Y-134177500D02*
X106333750Y-132399500D01*
X106333750Y-123255500D02*
X106333750Y-121477500D01*
X75377500Y-121477500D02*
X77155500Y-121477500D01*
X86299500Y-121477500D02*
X88077500Y-121477500D01*
X88077500Y-121477500D02*
X88077500Y-123255500D01*
X88077500Y-132399500D02*
X88077500Y-134177500D01*
X88077500Y-134177500D02*
X86299500Y-134177500D01*
X77155500Y-134177500D02*
X75377500Y-134177500D01*
X75377500Y-134177500D02*
X75377500Y-132399500D01*
X75377500Y-123255500D02*
X75377500Y-121477500D01*
X373033750Y-102427500D02*
X374811750Y-102427500D01*
X383955750Y-102427500D02*
X385733750Y-102427500D01*
X385733750Y-102427500D02*
X385733750Y-104205500D01*
X385733750Y-113349500D02*
X385733750Y-115127500D01*
X385733750Y-115127500D02*
X383955750Y-115127500D01*
X374811750Y-115127500D02*
X373033750Y-115127500D01*
X373033750Y-115127500D02*
X373033750Y-113349500D01*
X373033750Y-104205500D02*
X373033750Y-102427500D01*
X318265000Y-102427500D02*
X320043000Y-102427500D01*
X329187000Y-102427500D02*
X330965000Y-102427500D01*
X330965000Y-102427500D02*
X330965000Y-104205500D01*
X330965000Y-113349500D02*
X330965000Y-115127500D01*
X330965000Y-115127500D02*
X329187000Y-115127500D01*
X320043000Y-115127500D02*
X318265000Y-115127500D01*
X318265000Y-115127500D02*
X318265000Y-113349500D01*
X318265000Y-104205500D02*
X318265000Y-102427500D01*
X287308750Y-102427500D02*
X289086750Y-102427500D01*
X298230750Y-102427500D02*
X300008750Y-102427500D01*
X300008750Y-102427500D02*
X300008750Y-104205500D01*
X300008750Y-113349500D02*
X300008750Y-115127500D01*
X300008750Y-115127500D02*
X298230750Y-115127500D01*
X289086750Y-115127500D02*
X287308750Y-115127500D01*
X287308750Y-115127500D02*
X287308750Y-113349500D01*
X287308750Y-104205500D02*
X287308750Y-102427500D01*
X268258750Y-102427500D02*
X270036750Y-102427500D01*
X279180750Y-102427500D02*
X280958750Y-102427500D01*
X280958750Y-102427500D02*
X280958750Y-104205500D01*
X280958750Y-113349500D02*
X280958750Y-115127500D01*
X280958750Y-115127500D02*
X279180750Y-115127500D01*
X270036750Y-115127500D02*
X268258750Y-115127500D01*
X268258750Y-115127500D02*
X268258750Y-113349500D01*
X268258750Y-104205500D02*
X268258750Y-102427500D01*
X249208750Y-102427500D02*
X250986750Y-102427500D01*
X260130750Y-102427500D02*
X261908750Y-102427500D01*
X261908750Y-102427500D02*
X261908750Y-104205500D01*
X261908750Y-113349500D02*
X261908750Y-115127500D01*
X261908750Y-115127500D02*
X260130750Y-115127500D01*
X250986750Y-115127500D02*
X249208750Y-115127500D01*
X249208750Y-115127500D02*
X249208750Y-113349500D01*
X249208750Y-104205500D02*
X249208750Y-102427500D01*
X230158750Y-102427500D02*
X231936750Y-102427500D01*
X241080750Y-102427500D02*
X242858750Y-102427500D01*
X242858750Y-102427500D02*
X242858750Y-104205500D01*
X242858750Y-113349500D02*
X242858750Y-115127500D01*
X242858750Y-115127500D02*
X241080750Y-115127500D01*
X231936750Y-115127500D02*
X230158750Y-115127500D01*
X230158750Y-115127500D02*
X230158750Y-113349500D01*
X230158750Y-104205500D02*
X230158750Y-102427500D01*
X211108750Y-102427500D02*
X212886750Y-102427500D01*
X222030750Y-102427500D02*
X223808750Y-102427500D01*
X223808750Y-102427500D02*
X223808750Y-104205500D01*
X223808750Y-113349500D02*
X223808750Y-115127500D01*
X223808750Y-115127500D02*
X222030750Y-115127500D01*
X212886750Y-115127500D02*
X211108750Y-115127500D01*
X211108750Y-115127500D02*
X211108750Y-113349500D01*
X211108750Y-104205500D02*
X211108750Y-102427500D01*
X192058750Y-102427500D02*
X193836750Y-102427500D01*
X202980750Y-102427500D02*
X204758750Y-102427500D01*
X204758750Y-102427500D02*
X204758750Y-104205500D01*
X204758750Y-113349500D02*
X204758750Y-115127500D01*
X204758750Y-115127500D02*
X202980750Y-115127500D01*
X193836750Y-115127500D02*
X192058750Y-115127500D01*
X192058750Y-115127500D02*
X192058750Y-113349500D01*
X192058750Y-104205500D02*
X192058750Y-102427500D01*
X153958750Y-102427500D02*
X155736750Y-102427500D01*
X164880750Y-102427500D02*
X166658750Y-102427500D01*
X166658750Y-102427500D02*
X166658750Y-104205500D01*
X166658750Y-113349500D02*
X166658750Y-115127500D01*
X166658750Y-115127500D02*
X164880750Y-115127500D01*
X155736750Y-115127500D02*
X153958750Y-115127500D01*
X153958750Y-115127500D02*
X153958750Y-113349500D01*
X153958750Y-104205500D02*
X153958750Y-102427500D01*
X134908750Y-102427500D02*
X136686750Y-102427500D01*
X145830750Y-102427500D02*
X147608750Y-102427500D01*
X147608750Y-102427500D02*
X147608750Y-104205500D01*
X147608750Y-113349500D02*
X147608750Y-115127500D01*
X147608750Y-115127500D02*
X145830750Y-115127500D01*
X136686750Y-115127500D02*
X134908750Y-115127500D01*
X134908750Y-115127500D02*
X134908750Y-113349500D01*
X134908750Y-104205500D02*
X134908750Y-102427500D01*
X115858750Y-102427500D02*
X117636750Y-102427500D01*
X126780750Y-102427500D02*
X128558750Y-102427500D01*
X128558750Y-102427500D02*
X128558750Y-104205500D01*
X128558750Y-113349500D02*
X128558750Y-115127500D01*
X128558750Y-115127500D02*
X126780750Y-115127500D01*
X117636750Y-115127500D02*
X115858750Y-115127500D01*
X115858750Y-115127500D02*
X115858750Y-113349500D01*
X115858750Y-104205500D02*
X115858750Y-102427500D01*
X96808750Y-102427500D02*
X98586750Y-102427500D01*
X107730750Y-102427500D02*
X109508750Y-102427500D01*
X109508750Y-102427500D02*
X109508750Y-104205500D01*
X109508750Y-113349500D02*
X109508750Y-115127500D01*
X109508750Y-115127500D02*
X107730750Y-115127500D01*
X98586750Y-115127500D02*
X96808750Y-115127500D01*
X96808750Y-115127500D02*
X96808750Y-113349500D01*
X96808750Y-104205500D02*
X96808750Y-102427500D01*
X70615000Y-102427500D02*
X72393000Y-102427500D01*
X81537000Y-102427500D02*
X83315000Y-102427500D01*
X83315000Y-102427500D02*
X83315000Y-104205500D01*
X83315000Y-113349500D02*
X83315000Y-115127500D01*
X83315000Y-115127500D02*
X81537000Y-115127500D01*
X72393000Y-115127500D02*
X70615000Y-115127500D01*
X70615000Y-115127500D02*
X70615000Y-113349500D01*
X70615000Y-104205500D02*
X70615000Y-102427500D01*
X373033750Y-83377500D02*
X374811750Y-83377500D01*
X383955750Y-83377500D02*
X385733750Y-83377500D01*
X385733750Y-83377500D02*
X385733750Y-85155500D01*
X385733750Y-94299500D02*
X385733750Y-96077500D01*
X385733750Y-96077500D02*
X383955750Y-96077500D01*
X374811750Y-96077500D02*
X373033750Y-96077500D01*
X373033750Y-96077500D02*
X373033750Y-94299500D01*
X373033750Y-85155500D02*
X373033750Y-83377500D01*
X353983750Y-83377500D02*
X355761750Y-83377500D01*
X364905750Y-83377500D02*
X366683750Y-83377500D01*
X366683750Y-83377500D02*
X366683750Y-85155500D01*
X366683750Y-94299500D02*
X366683750Y-96077500D01*
X366683750Y-96077500D02*
X364905750Y-96077500D01*
X355761750Y-96077500D02*
X353983750Y-96077500D01*
X353983750Y-96077500D02*
X353983750Y-94299500D01*
X353983750Y-85155500D02*
X353983750Y-83377500D01*
X325408950Y-83373250D02*
X327186950Y-83373250D01*
X336330950Y-83373250D02*
X338108950Y-83373250D01*
X338108950Y-83373250D02*
X338108950Y-85151250D01*
X338108950Y-94295250D02*
X338108950Y-96073250D01*
X338108950Y-96073250D02*
X336330950Y-96073250D01*
X327186950Y-96073250D02*
X325408950Y-96073250D01*
X325408950Y-96073250D02*
X325408950Y-94295250D01*
X325408950Y-85151250D02*
X325408950Y-83373250D01*
X301595950Y-83373250D02*
X303373950Y-83373250D01*
X312517950Y-83373250D02*
X314295950Y-83373250D01*
X314295950Y-83373250D02*
X314295950Y-85151250D01*
X314295950Y-94295250D02*
X314295950Y-96073250D01*
X314295950Y-96073250D02*
X312517950Y-96073250D01*
X303373950Y-96073250D02*
X301595950Y-96073250D01*
X301595950Y-96073250D02*
X301595950Y-94295250D01*
X301595950Y-85151250D02*
X301595950Y-83373250D01*
X282545550Y-83373250D02*
X284323550Y-83373250D01*
X293467550Y-83373250D02*
X295245550Y-83373250D01*
X295245550Y-83373250D02*
X295245550Y-85151250D01*
X295245550Y-94295250D02*
X295245550Y-96073250D01*
X295245550Y-96073250D02*
X293467550Y-96073250D01*
X284323550Y-96073250D02*
X282545550Y-96073250D01*
X282545550Y-96073250D02*
X282545550Y-94295250D01*
X282545550Y-85151250D02*
X282545550Y-83373250D01*
X263495150Y-83373250D02*
X265273150Y-83373250D01*
X274417150Y-83373250D02*
X276195150Y-83373250D01*
X276195150Y-83373250D02*
X276195150Y-85151250D01*
X276195150Y-94295250D02*
X276195150Y-96073250D01*
X276195150Y-96073250D02*
X274417150Y-96073250D01*
X265273150Y-96073250D02*
X263495150Y-96073250D01*
X263495150Y-96073250D02*
X263495150Y-94295250D01*
X263495150Y-85151250D02*
X263495150Y-83373250D01*
X244444750Y-83373250D02*
X246222750Y-83373250D01*
X255366750Y-83373250D02*
X257144750Y-83373250D01*
X257144750Y-83373250D02*
X257144750Y-85151250D01*
X257144750Y-94295250D02*
X257144750Y-96073250D01*
X257144750Y-96073250D02*
X255366750Y-96073250D01*
X246222750Y-96073250D02*
X244444750Y-96073250D01*
X244444750Y-96073250D02*
X244444750Y-94295250D01*
X244444750Y-85151250D02*
X244444750Y-83373250D01*
X225394350Y-83373250D02*
X227172350Y-83373250D01*
X236316350Y-83373250D02*
X238094350Y-83373250D01*
X238094350Y-83373250D02*
X238094350Y-85151250D01*
X238094350Y-94295250D02*
X238094350Y-96073250D01*
X238094350Y-96073250D02*
X236316350Y-96073250D01*
X227172350Y-96073250D02*
X225394350Y-96073250D01*
X225394350Y-96073250D02*
X225394350Y-94295250D01*
X225394350Y-85151250D02*
X225394350Y-83373250D01*
X206346250Y-83377500D02*
X208124250Y-83377500D01*
X217268250Y-83377500D02*
X219046250Y-83377500D01*
X219046250Y-83377500D02*
X219046250Y-85155500D01*
X219046250Y-94299500D02*
X219046250Y-96077500D01*
X219046250Y-96077500D02*
X217268250Y-96077500D01*
X208124250Y-96077500D02*
X206346250Y-96077500D01*
X206346250Y-96077500D02*
X206346250Y-94299500D01*
X206346250Y-85155500D02*
X206346250Y-83377500D01*
X187296250Y-83377500D02*
X189074250Y-83377500D01*
X198218250Y-83377500D02*
X199996250Y-83377500D01*
X199996250Y-83377500D02*
X199996250Y-85155500D01*
X199996250Y-94299500D02*
X199996250Y-96077500D01*
X199996250Y-96077500D02*
X198218250Y-96077500D01*
X189074250Y-96077500D02*
X187296250Y-96077500D01*
X187296250Y-96077500D02*
X187296250Y-94299500D01*
X187296250Y-85155500D02*
X187296250Y-83377500D01*
X168246250Y-83377500D02*
X170024250Y-83377500D01*
X179168250Y-83377500D02*
X180946250Y-83377500D01*
X180946250Y-83377500D02*
X180946250Y-85155500D01*
X180946250Y-94299500D02*
X180946250Y-96077500D01*
X180946250Y-96077500D02*
X179168250Y-96077500D01*
X170024250Y-96077500D02*
X168246250Y-96077500D01*
X168246250Y-96077500D02*
X168246250Y-94299500D01*
X168246250Y-85155500D02*
X168246250Y-83377500D01*
X149196250Y-83377500D02*
X150974250Y-83377500D01*
X160118250Y-83377500D02*
X161896250Y-83377500D01*
X161896250Y-83377500D02*
X161896250Y-85155500D01*
X161896250Y-94299500D02*
X161896250Y-96077500D01*
X161896250Y-96077500D02*
X160118250Y-96077500D01*
X150974250Y-96077500D02*
X149196250Y-96077500D01*
X149196250Y-96077500D02*
X149196250Y-94299500D01*
X149196250Y-85155500D02*
X149196250Y-83377500D01*
X130146250Y-83377500D02*
X131924250Y-83377500D01*
X141068250Y-83377500D02*
X142846250Y-83377500D01*
X142846250Y-83377500D02*
X142846250Y-85155500D01*
X142846250Y-94299500D02*
X142846250Y-96077500D01*
X142846250Y-96077500D02*
X141068250Y-96077500D01*
X131924250Y-96077500D02*
X130146250Y-96077500D01*
X130146250Y-96077500D02*
X130146250Y-94299500D01*
X130146250Y-85155500D02*
X130146250Y-83377500D01*
X111096250Y-83377500D02*
X112874250Y-83377500D01*
X122018250Y-83377500D02*
X123796250Y-83377500D01*
X123796250Y-83377500D02*
X123796250Y-85155500D01*
X123796250Y-94299500D02*
X123796250Y-96077500D01*
X123796250Y-96077500D02*
X122018250Y-96077500D01*
X112874250Y-96077500D02*
X111096250Y-96077500D01*
X111096250Y-96077500D02*
X111096250Y-94299500D01*
X111096250Y-85155500D02*
X111096250Y-83377500D01*
X92041550Y-83373250D02*
X93819550Y-83373250D01*
X102963550Y-83373250D02*
X104741550Y-83373250D01*
X104741550Y-83373250D02*
X104741550Y-85151250D01*
X104741550Y-94295250D02*
X104741550Y-96073250D01*
X104741550Y-96073250D02*
X102963550Y-96073250D01*
X93819550Y-96073250D02*
X92041550Y-96073250D01*
X92041550Y-96073250D02*
X92041550Y-94295250D01*
X92041550Y-85151250D02*
X92041550Y-83373250D01*
X68228550Y-83373250D02*
X70006550Y-83373250D01*
X79150550Y-83373250D02*
X80928550Y-83373250D01*
X80928550Y-83373250D02*
X80928550Y-85151250D01*
X80928550Y-94295250D02*
X80928550Y-96073250D01*
X80928550Y-96073250D02*
X79150550Y-96073250D01*
X70006550Y-96073250D02*
X68228550Y-96073250D01*
X68228550Y-96073250D02*
X68228550Y-94295250D01*
X68228550Y-85151250D02*
X68228550Y-83373250D01*
X373033750Y-64327500D02*
X374811750Y-64327500D01*
X383955750Y-64327500D02*
X385733750Y-64327500D01*
X385733750Y-64327500D02*
X385733750Y-66105500D01*
X385733750Y-75249500D02*
X385733750Y-77027500D01*
X385733750Y-77027500D02*
X383955750Y-77027500D01*
X374811750Y-77027500D02*
X373033750Y-77027500D01*
X373033750Y-77027500D02*
X373033750Y-75249500D01*
X373033750Y-66105500D02*
X373033750Y-64327500D01*
X320646350Y-64322850D02*
X322424350Y-64322850D01*
X331568350Y-64322850D02*
X333346350Y-64322850D01*
X333346350Y-64322850D02*
X333346350Y-66100850D01*
X333346350Y-75244850D02*
X333346350Y-77022850D01*
X333346350Y-77022850D02*
X331568350Y-77022850D01*
X322424350Y-77022850D02*
X320646350Y-77022850D01*
X320646350Y-77022850D02*
X320646350Y-75244850D01*
X320646350Y-66100850D02*
X320646350Y-64322850D01*
X292070750Y-64322850D02*
X293848750Y-64322850D01*
X302992750Y-64322850D02*
X304770750Y-64322850D01*
X304770750Y-64322850D02*
X304770750Y-66100850D01*
X304770750Y-75244850D02*
X304770750Y-77022850D01*
X304770750Y-77022850D02*
X302992750Y-77022850D01*
X293848750Y-77022850D02*
X292070750Y-77022850D01*
X292070750Y-77022850D02*
X292070750Y-75244850D01*
X292070750Y-66100850D02*
X292070750Y-64322850D01*
X273020350Y-64322850D02*
X274798350Y-64322850D01*
X283942350Y-64322850D02*
X285720350Y-64322850D01*
X285720350Y-64322850D02*
X285720350Y-66100850D01*
X285720350Y-75244850D02*
X285720350Y-77022850D01*
X285720350Y-77022850D02*
X283942350Y-77022850D01*
X274798350Y-77022850D02*
X273020350Y-77022850D01*
X273020350Y-77022850D02*
X273020350Y-75244850D01*
X273020350Y-66100850D02*
X273020350Y-64322850D01*
X253969950Y-64322850D02*
X255747950Y-64322850D01*
X264891950Y-64322850D02*
X266669950Y-64322850D01*
X266669950Y-64322850D02*
X266669950Y-66100850D01*
X266669950Y-75244850D02*
X266669950Y-77022850D01*
X266669950Y-77022850D02*
X264891950Y-77022850D01*
X255747950Y-77022850D02*
X253969950Y-77022850D01*
X253969950Y-77022850D02*
X253969950Y-75244850D01*
X253969950Y-66100850D02*
X253969950Y-64322850D01*
X234919550Y-64322850D02*
X236697550Y-64322850D01*
X245841550Y-64322850D02*
X247619550Y-64322850D01*
X247619550Y-64322850D02*
X247619550Y-66100850D01*
X247619550Y-75244850D02*
X247619550Y-77022850D01*
X247619550Y-77022850D02*
X245841550Y-77022850D01*
X236697550Y-77022850D02*
X234919550Y-77022850D01*
X234919550Y-77022850D02*
X234919550Y-75244850D01*
X234919550Y-66100850D02*
X234919550Y-64322850D01*
X215869150Y-64322850D02*
X217647150Y-64322850D01*
X226791150Y-64322850D02*
X228569150Y-64322850D01*
X228569150Y-64322850D02*
X228569150Y-66100850D01*
X228569150Y-75244850D02*
X228569150Y-77022850D01*
X228569150Y-77022850D02*
X226791150Y-77022850D01*
X217647150Y-77022850D02*
X215869150Y-77022850D01*
X215869150Y-77022850D02*
X215869150Y-75244850D01*
X215869150Y-66100850D02*
X215869150Y-64322850D01*
X196818750Y-64322850D02*
X198596750Y-64322850D01*
X207740750Y-64322850D02*
X209518750Y-64322850D01*
X209518750Y-64322850D02*
X209518750Y-66100850D01*
X209518750Y-75244850D02*
X209518750Y-77022850D01*
X209518750Y-77022850D02*
X207740750Y-77022850D01*
X198596750Y-77022850D02*
X196818750Y-77022850D01*
X196818750Y-77022850D02*
X196818750Y-75244850D01*
X196818750Y-66100850D02*
X196818750Y-64322850D01*
X177768350Y-64322850D02*
X179546350Y-64322850D01*
X188690350Y-64322850D02*
X190468350Y-64322850D01*
X190468350Y-64322850D02*
X190468350Y-66100850D01*
X190468350Y-75244850D02*
X190468350Y-77022850D01*
X190468350Y-77022850D02*
X188690350Y-77022850D01*
X179546350Y-77022850D02*
X177768350Y-77022850D01*
X177768350Y-77022850D02*
X177768350Y-75244850D01*
X177768350Y-66100850D02*
X177768350Y-64322850D01*
X158717950Y-64322850D02*
X160495950Y-64322850D01*
X169639950Y-64322850D02*
X171417950Y-64322850D01*
X171417950Y-64322850D02*
X171417950Y-66100850D01*
X171417950Y-75244850D02*
X171417950Y-77022850D01*
X171417950Y-77022850D02*
X169639950Y-77022850D01*
X160495950Y-77022850D02*
X158717950Y-77022850D01*
X158717950Y-77022850D02*
X158717950Y-75244850D01*
X158717950Y-66100850D02*
X158717950Y-64322850D01*
X139667550Y-64322850D02*
X141445550Y-64322850D01*
X150589550Y-64322850D02*
X152367550Y-64322850D01*
X152367550Y-64322850D02*
X152367550Y-66100850D01*
X152367550Y-75244850D02*
X152367550Y-77022850D01*
X152367550Y-77022850D02*
X150589550Y-77022850D01*
X141445550Y-77022850D02*
X139667550Y-77022850D01*
X139667550Y-77022850D02*
X139667550Y-75244850D01*
X139667550Y-66100850D02*
X139667550Y-64322850D01*
X120617150Y-64322850D02*
X122395150Y-64322850D01*
X131539150Y-64322850D02*
X133317150Y-64322850D01*
X133317150Y-64322850D02*
X133317150Y-66100850D01*
X133317150Y-75244850D02*
X133317150Y-77022850D01*
X133317150Y-77022850D02*
X131539150Y-77022850D01*
X122395150Y-77022850D02*
X120617150Y-77022850D01*
X120617150Y-77022850D02*
X120617150Y-75244850D01*
X120617150Y-66100850D02*
X120617150Y-64322850D01*
X101566750Y-64322850D02*
X103344750Y-64322850D01*
X112488750Y-64322850D02*
X114266750Y-64322850D01*
X114266750Y-64322850D02*
X114266750Y-66100850D01*
X114266750Y-75244850D02*
X114266750Y-77022850D01*
X114266750Y-77022850D02*
X112488750Y-77022850D01*
X103344750Y-77022850D02*
X101566750Y-77022850D01*
X101566750Y-77022850D02*
X101566750Y-75244850D01*
X101566750Y-66100850D02*
X101566750Y-64322850D01*
X82516350Y-64322850D02*
X84294350Y-64322850D01*
X93438350Y-64322850D02*
X95216350Y-64322850D01*
X95216350Y-64322850D02*
X95216350Y-66100850D01*
X95216350Y-75244850D02*
X95216350Y-77022850D01*
X95216350Y-77022850D02*
X93438350Y-77022850D01*
X84294350Y-77022850D02*
X82516350Y-77022850D01*
X82516350Y-77022850D02*
X82516350Y-75244850D01*
X82516350Y-66100850D02*
X82516350Y-64322850D01*
X63465950Y-64322850D02*
X65243950Y-64322850D01*
X74387950Y-64322850D02*
X76165950Y-64322850D01*
X76165950Y-64322850D02*
X76165950Y-66100850D01*
X76165950Y-75244850D02*
X76165950Y-77022850D01*
X76165950Y-77022850D02*
X74387950Y-77022850D01*
X65243950Y-77022850D02*
X63465950Y-77022850D01*
X63465950Y-77022850D02*
X63465950Y-75244850D01*
X63465950Y-66100850D02*
X63465950Y-64322850D01*
D13*
X120472200Y-152122850D02*
X122572200Y-152122850D01*
X120472200Y-152122850D02*
X120472200Y-153872850D01*
X122572200Y-150372850D02*
X122572200Y-153872850D01*
X117072200Y-150372850D02*
X117072200Y-153872850D01*
X118072200Y-153872850D02*
X121572200Y-153872850D01*
X118072200Y-150372850D02*
X121572200Y-150372850D01*
X96659700Y-152122850D02*
X98759700Y-152122850D01*
X96659700Y-152122850D02*
X96659700Y-153872850D01*
X98759700Y-150372850D02*
X98759700Y-153872850D01*
X93259700Y-150372850D02*
X93259700Y-153872850D01*
X94259700Y-153872850D02*
X97759700Y-153872850D01*
X94259700Y-150372850D02*
X97759700Y-150372850D01*
X360978450Y-152122850D02*
X363078450Y-152122850D01*
X360978450Y-152122850D02*
X360978450Y-153872850D01*
X363078450Y-150372850D02*
X363078450Y-153872850D01*
X357578450Y-150372850D02*
X357578450Y-153872850D01*
X358578450Y-153872850D02*
X362078450Y-153872850D01*
X358578450Y-150372850D02*
X362078450Y-150372850D01*
X341928450Y-152122850D02*
X344028450Y-152122850D01*
X341928450Y-152122850D02*
X341928450Y-153872850D01*
X344028450Y-150372850D02*
X344028450Y-153872850D01*
X338528450Y-150372850D02*
X338528450Y-153872850D01*
X339528450Y-153872850D02*
X343028450Y-153872850D01*
X339528450Y-150372850D02*
X343028450Y-150372850D01*
X380028450Y-152122850D02*
X382128450Y-152122850D01*
X380028450Y-152122850D02*
X380028450Y-153872850D01*
X382128450Y-150372850D02*
X382128450Y-153872850D01*
X376628450Y-150372850D02*
X376628450Y-153872850D01*
X377628450Y-153872850D02*
X381128450Y-153872850D01*
X377628450Y-150372850D02*
X381128450Y-150372850D01*
X310972200Y-152122850D02*
X313072200Y-152122850D01*
X310972200Y-152122850D02*
X310972200Y-153872850D01*
X313072200Y-150372850D02*
X313072200Y-153872850D01*
X307572200Y-150372850D02*
X307572200Y-153872850D01*
X308572200Y-153872850D02*
X312072200Y-153872850D01*
X308572200Y-150372850D02*
X312072200Y-150372850D01*
X287159700Y-152122850D02*
X289259700Y-152122850D01*
X287159700Y-152122850D02*
X287159700Y-153872850D01*
X289259700Y-150372850D02*
X289259700Y-153872850D01*
X283759700Y-150372850D02*
X283759700Y-153872850D01*
X284759700Y-153872850D02*
X288259700Y-153872850D01*
X284759700Y-150372850D02*
X288259700Y-150372850D01*
X263347200Y-152122850D02*
X265447200Y-152122850D01*
X263347200Y-152122850D02*
X263347200Y-153872850D01*
X265447200Y-150372850D02*
X265447200Y-153872850D01*
X259947200Y-150372850D02*
X259947200Y-153872850D01*
X260947200Y-153872850D02*
X264447200Y-153872850D01*
X260947200Y-150372850D02*
X264447200Y-150372850D01*
X191909700Y-152122850D02*
X194009700Y-152122850D01*
X191909700Y-152122850D02*
X191909700Y-153872850D01*
X194009700Y-150372850D02*
X194009700Y-153872850D01*
X188509700Y-150372850D02*
X188509700Y-153872850D01*
X189509700Y-153872850D02*
X193009700Y-153872850D01*
X189509700Y-150372850D02*
X193009700Y-150372850D01*
X72847200Y-152122850D02*
X74947200Y-152122850D01*
X72847200Y-152122850D02*
X72847200Y-153872850D01*
X74947200Y-150372850D02*
X74947200Y-153872850D01*
X69447200Y-150372850D02*
X69447200Y-153872850D01*
X70447200Y-153872850D02*
X73947200Y-153872850D01*
X70447200Y-150372850D02*
X73947200Y-150372850D01*
X378728450Y-133072850D02*
X376628450Y-133072850D01*
X378728450Y-133072850D02*
X378728450Y-131322850D01*
X376628450Y-134822850D02*
X376628450Y-131322850D01*
X382128450Y-134822850D02*
X382128450Y-131322850D01*
X381128450Y-131322850D02*
X377628450Y-131322850D01*
X381128450Y-134822850D02*
X377628450Y-134822850D01*
X359678450Y-133072850D02*
X357578450Y-133072850D01*
X359678450Y-133072850D02*
X359678450Y-131322850D01*
X357578450Y-134822850D02*
X357578450Y-131322850D01*
X363078450Y-134822850D02*
X363078450Y-131322850D01*
X362078450Y-131322850D02*
X358578450Y-131322850D01*
X362078450Y-134822850D02*
X358578450Y-134822850D01*
X319197200Y-133072850D02*
X317097200Y-133072850D01*
X319197200Y-133072850D02*
X319197200Y-131322850D01*
X317097200Y-134822850D02*
X317097200Y-131322850D01*
X322597200Y-134822850D02*
X322597200Y-131322850D01*
X321597200Y-131322850D02*
X318097200Y-131322850D01*
X321597200Y-134822850D02*
X318097200Y-134822850D01*
X283478450Y-133072850D02*
X281378450Y-133072850D01*
X283478450Y-133072850D02*
X283478450Y-131322850D01*
X281378450Y-134822850D02*
X281378450Y-131322850D01*
X286878450Y-134822850D02*
X286878450Y-131322850D01*
X285878450Y-131322850D02*
X282378450Y-131322850D01*
X285878450Y-134822850D02*
X282378450Y-134822850D01*
X245378450Y-133072850D02*
X243278450Y-133072850D01*
X245378450Y-133072850D02*
X245378450Y-131322850D01*
X243278450Y-134822850D02*
X243278450Y-131322850D01*
X248778450Y-134822850D02*
X248778450Y-131322850D01*
X247778450Y-131322850D02*
X244278450Y-131322850D01*
X247778450Y-134822850D02*
X244278450Y-134822850D01*
X226328450Y-133072850D02*
X224228450Y-133072850D01*
X226328450Y-133072850D02*
X226328450Y-131322850D01*
X224228450Y-134822850D02*
X224228450Y-131322850D01*
X229728450Y-134822850D02*
X229728450Y-131322850D01*
X228728450Y-131322850D02*
X225228450Y-131322850D01*
X228728450Y-134822850D02*
X225228450Y-134822850D01*
X207278450Y-133072850D02*
X205178450Y-133072850D01*
X207278450Y-133072850D02*
X207278450Y-131322850D01*
X205178450Y-134822850D02*
X205178450Y-131322850D01*
X210678450Y-134822850D02*
X210678450Y-131322850D01*
X209678450Y-131322850D02*
X206178450Y-131322850D01*
X209678450Y-134822850D02*
X206178450Y-134822850D01*
X188228450Y-133072850D02*
X186128450Y-133072850D01*
X188228450Y-133072850D02*
X188228450Y-131322850D01*
X186128450Y-134822850D02*
X186128450Y-131322850D01*
X191628450Y-134822850D02*
X191628450Y-131322850D01*
X190628450Y-131322850D02*
X187128450Y-131322850D01*
X190628450Y-134822850D02*
X187128450Y-134822850D01*
X169178450Y-133072850D02*
X167078450Y-133072850D01*
X169178450Y-133072850D02*
X169178450Y-131322850D01*
X167078450Y-134822850D02*
X167078450Y-131322850D01*
X172578450Y-134822850D02*
X172578450Y-131322850D01*
X171578450Y-131322850D02*
X168078450Y-131322850D01*
X171578450Y-134822850D02*
X168078450Y-134822850D01*
X150128450Y-133072850D02*
X148028450Y-133072850D01*
X150128450Y-133072850D02*
X150128450Y-131322850D01*
X148028450Y-134822850D02*
X148028450Y-131322850D01*
X153528450Y-134822850D02*
X153528450Y-131322850D01*
X152528450Y-131322850D02*
X149028450Y-131322850D01*
X152528450Y-134822850D02*
X149028450Y-134822850D01*
X131078450Y-133072850D02*
X128978450Y-133072850D01*
X131078450Y-133072850D02*
X131078450Y-131322850D01*
X128978450Y-134822850D02*
X128978450Y-131322850D01*
X134478450Y-134822850D02*
X134478450Y-131322850D01*
X133478450Y-131322850D02*
X129978450Y-131322850D01*
X133478450Y-134822850D02*
X129978450Y-134822850D01*
X112028450Y-133072850D02*
X109928450Y-133072850D01*
X112028450Y-133072850D02*
X112028450Y-131322850D01*
X109928450Y-134822850D02*
X109928450Y-131322850D01*
X115428450Y-134822850D02*
X115428450Y-131322850D01*
X114428450Y-131322850D02*
X110928450Y-131322850D01*
X114428450Y-134822850D02*
X110928450Y-134822850D01*
X81072200Y-133072850D02*
X78972200Y-133072850D01*
X81072200Y-133072850D02*
X81072200Y-131322850D01*
X78972200Y-134822850D02*
X78972200Y-131322850D01*
X84472200Y-134822850D02*
X84472200Y-131322850D01*
X83472200Y-131322850D02*
X79972200Y-131322850D01*
X83472200Y-134822850D02*
X79972200Y-134822850D01*
X380028450Y-114022850D02*
X382128450Y-114022850D01*
X380028450Y-114022850D02*
X380028450Y-115772850D01*
X382128450Y-112272850D02*
X382128450Y-115772850D01*
X376628450Y-112272850D02*
X376628450Y-115772850D01*
X377628450Y-115772850D02*
X381128450Y-115772850D01*
X377628450Y-112272850D02*
X381128450Y-112272850D01*
X360978450Y-114022850D02*
X363078450Y-114022850D01*
X360978450Y-114022850D02*
X360978450Y-115772850D01*
X363078450Y-112272850D02*
X363078450Y-115772850D01*
X357578450Y-112272850D02*
X357578450Y-115772850D01*
X358578450Y-115772850D02*
X362078450Y-115772850D01*
X358578450Y-112272850D02*
X362078450Y-112272850D01*
X325259700Y-114022850D02*
X327359700Y-114022850D01*
X325259700Y-114022850D02*
X325259700Y-115772850D01*
X327359700Y-112272850D02*
X327359700Y-115772850D01*
X321859700Y-112272850D02*
X321859700Y-115772850D01*
X322859700Y-115772850D02*
X326359700Y-115772850D01*
X322859700Y-112272850D02*
X326359700Y-112272850D01*
X294303450Y-114022850D02*
X296403450Y-114022850D01*
X294303450Y-114022850D02*
X294303450Y-115772850D01*
X296403450Y-112272850D02*
X296403450Y-115772850D01*
X290903450Y-112272850D02*
X290903450Y-115772850D01*
X291903450Y-115772850D02*
X295403450Y-115772850D01*
X291903450Y-112272850D02*
X295403450Y-112272850D01*
X275253450Y-114022850D02*
X277353450Y-114022850D01*
X275253450Y-114022850D02*
X275253450Y-115772850D01*
X277353450Y-112272850D02*
X277353450Y-115772850D01*
X271853450Y-112272850D02*
X271853450Y-115772850D01*
X272853450Y-115772850D02*
X276353450Y-115772850D01*
X272853450Y-112272850D02*
X276353450Y-112272850D01*
X256203450Y-114022850D02*
X258303450Y-114022850D01*
X256203450Y-114022850D02*
X256203450Y-115772850D01*
X258303450Y-112272850D02*
X258303450Y-115772850D01*
X252803450Y-112272850D02*
X252803450Y-115772850D01*
X253803450Y-115772850D02*
X257303450Y-115772850D01*
X253803450Y-112272850D02*
X257303450Y-112272850D01*
X237153450Y-114022850D02*
X239253450Y-114022850D01*
X237153450Y-114022850D02*
X237153450Y-115772850D01*
X239253450Y-112272850D02*
X239253450Y-115772850D01*
X233753450Y-112272850D02*
X233753450Y-115772850D01*
X234753450Y-115772850D02*
X238253450Y-115772850D01*
X234753450Y-112272850D02*
X238253450Y-112272850D01*
X218103450Y-114022850D02*
X220203450Y-114022850D01*
X218103450Y-114022850D02*
X218103450Y-115772850D01*
X220203450Y-112272850D02*
X220203450Y-115772850D01*
X214703450Y-112272850D02*
X214703450Y-115772850D01*
X215703450Y-115772850D02*
X219203450Y-115772850D01*
X215703450Y-112272850D02*
X219203450Y-112272850D01*
X199053450Y-114022850D02*
X201153450Y-114022850D01*
X199053450Y-114022850D02*
X199053450Y-115772850D01*
X201153450Y-112272850D02*
X201153450Y-115772850D01*
X195653450Y-112272850D02*
X195653450Y-115772850D01*
X196653450Y-115772850D02*
X200153450Y-115772850D01*
X196653450Y-112272850D02*
X200153450Y-112272850D01*
X180003450Y-114022850D02*
X182103450Y-114022850D01*
X180003450Y-114022850D02*
X180003450Y-115772850D01*
X182103450Y-112272850D02*
X182103450Y-115772850D01*
X176603450Y-112272850D02*
X176603450Y-115772850D01*
X177603450Y-115772850D02*
X181103450Y-115772850D01*
X177603450Y-112272850D02*
X181103450Y-112272850D01*
X160953450Y-114022850D02*
X163053450Y-114022850D01*
X160953450Y-114022850D02*
X160953450Y-115772850D01*
X163053450Y-112272850D02*
X163053450Y-115772850D01*
X157553450Y-112272850D02*
X157553450Y-115772850D01*
X158553450Y-115772850D02*
X162053450Y-115772850D01*
X158553450Y-112272850D02*
X162053450Y-112272850D01*
X141903450Y-114022850D02*
X144003450Y-114022850D01*
X141903450Y-114022850D02*
X141903450Y-115772850D01*
X144003450Y-112272850D02*
X144003450Y-115772850D01*
X138503450Y-112272850D02*
X138503450Y-115772850D01*
X139503450Y-115772850D02*
X143003450Y-115772850D01*
X139503450Y-112272850D02*
X143003450Y-112272850D01*
X122853450Y-114022850D02*
X124953450Y-114022850D01*
X122853450Y-114022850D02*
X122853450Y-115772850D01*
X124953450Y-112272850D02*
X124953450Y-115772850D01*
X119453450Y-112272850D02*
X119453450Y-115772850D01*
X120453450Y-115772850D02*
X123953450Y-115772850D01*
X120453450Y-112272850D02*
X123953450Y-112272850D01*
X103803450Y-114022850D02*
X105903450Y-114022850D01*
X103803450Y-114022850D02*
X103803450Y-115772850D01*
X105903450Y-112272850D02*
X105903450Y-115772850D01*
X100403450Y-112272850D02*
X100403450Y-115772850D01*
X101403450Y-115772850D02*
X104903450Y-115772850D01*
X101403450Y-112272850D02*
X104903450Y-112272850D01*
X77609700Y-114022850D02*
X79709700Y-114022850D01*
X77609700Y-114022850D02*
X77609700Y-115772850D01*
X79709700Y-112272850D02*
X79709700Y-115772850D01*
X74209700Y-112272850D02*
X74209700Y-115772850D01*
X75209700Y-115772850D02*
X78709700Y-115772850D01*
X75209700Y-112272850D02*
X78709700Y-112272850D01*
X378728450Y-94972850D02*
X376628450Y-94972850D01*
X378728450Y-94972850D02*
X378728450Y-93222850D01*
X376628450Y-96722850D02*
X376628450Y-93222850D01*
X382128450Y-96722850D02*
X382128450Y-93222850D01*
X381128450Y-93222850D02*
X377628450Y-93222850D01*
X381128450Y-96722850D02*
X377628450Y-96722850D01*
X359678450Y-94972850D02*
X357578450Y-94972850D01*
X359678450Y-94972850D02*
X359678450Y-93222850D01*
X357578450Y-96722850D02*
X357578450Y-93222850D01*
X363078450Y-96722850D02*
X363078450Y-93222850D01*
X362078450Y-93222850D02*
X358578450Y-93222850D01*
X362078450Y-96722850D02*
X358578450Y-96722850D01*
X331103450Y-94972850D02*
X329003450Y-94972850D01*
X331103450Y-94972850D02*
X331103450Y-93222850D01*
X329003450Y-96722850D02*
X329003450Y-93222850D01*
X334503450Y-96722850D02*
X334503450Y-93222850D01*
X333503450Y-93222850D02*
X330003450Y-93222850D01*
X333503450Y-96722850D02*
X330003450Y-96722850D01*
X307290950Y-94972850D02*
X305190950Y-94972850D01*
X307290950Y-94972850D02*
X307290950Y-93222850D01*
X305190950Y-96722850D02*
X305190950Y-93222850D01*
X310690950Y-96722850D02*
X310690950Y-93222850D01*
X309690950Y-93222850D02*
X306190950Y-93222850D01*
X309690950Y-96722850D02*
X306190950Y-96722850D01*
X288240950Y-94972850D02*
X286140950Y-94972850D01*
X288240950Y-94972850D02*
X288240950Y-93222850D01*
X286140950Y-96722850D02*
X286140950Y-93222850D01*
X291640950Y-96722850D02*
X291640950Y-93222850D01*
X290640950Y-93222850D02*
X287140950Y-93222850D01*
X290640950Y-96722850D02*
X287140950Y-96722850D01*
X269190950Y-94972850D02*
X267090950Y-94972850D01*
X269190950Y-94972850D02*
X269190950Y-93222850D01*
X267090950Y-96722850D02*
X267090950Y-93222850D01*
X272590950Y-96722850D02*
X272590950Y-93222850D01*
X271590950Y-93222850D02*
X268090950Y-93222850D01*
X271590950Y-96722850D02*
X268090950Y-96722850D01*
X250140950Y-94972850D02*
X248040950Y-94972850D01*
X250140950Y-94972850D02*
X250140950Y-93222850D01*
X248040950Y-96722850D02*
X248040950Y-93222850D01*
X253540950Y-96722850D02*
X253540950Y-93222850D01*
X252540950Y-93222850D02*
X249040950Y-93222850D01*
X252540950Y-96722850D02*
X249040950Y-96722850D01*
X231090950Y-94972850D02*
X228990950Y-94972850D01*
X231090950Y-94972850D02*
X231090950Y-93222850D01*
X228990950Y-96722850D02*
X228990950Y-93222850D01*
X234490950Y-96722850D02*
X234490950Y-93222850D01*
X233490950Y-93222850D02*
X229990950Y-93222850D01*
X233490950Y-96722850D02*
X229990950Y-96722850D01*
X212040950Y-94972850D02*
X209940950Y-94972850D01*
X212040950Y-94972850D02*
X212040950Y-93222850D01*
X209940950Y-96722850D02*
X209940950Y-93222850D01*
X215440950Y-96722850D02*
X215440950Y-93222850D01*
X214440950Y-93222850D02*
X210940950Y-93222850D01*
X214440950Y-96722850D02*
X210940950Y-96722850D01*
X192990950Y-94972850D02*
X190890950Y-94972850D01*
X192990950Y-94972850D02*
X192990950Y-93222850D01*
X190890950Y-96722850D02*
X190890950Y-93222850D01*
X196390950Y-96722850D02*
X196390950Y-93222850D01*
X195390950Y-93222850D02*
X191890950Y-93222850D01*
X195390950Y-96722850D02*
X191890950Y-96722850D01*
X173940950Y-94972850D02*
X171840950Y-94972850D01*
X173940950Y-94972850D02*
X173940950Y-93222850D01*
X171840950Y-96722850D02*
X171840950Y-93222850D01*
X177340950Y-96722850D02*
X177340950Y-93222850D01*
X176340950Y-93222850D02*
X172840950Y-93222850D01*
X176340950Y-96722850D02*
X172840950Y-96722850D01*
X154890950Y-94972850D02*
X152790950Y-94972850D01*
X154890950Y-94972850D02*
X154890950Y-93222850D01*
X152790950Y-96722850D02*
X152790950Y-93222850D01*
X158290950Y-96722850D02*
X158290950Y-93222850D01*
X157290950Y-93222850D02*
X153790950Y-93222850D01*
X157290950Y-96722850D02*
X153790950Y-96722850D01*
X135840950Y-94972850D02*
X133740950Y-94972850D01*
X135840950Y-94972850D02*
X135840950Y-93222850D01*
X133740950Y-96722850D02*
X133740950Y-93222850D01*
X139240950Y-96722850D02*
X139240950Y-93222850D01*
X138240950Y-93222850D02*
X134740950Y-93222850D01*
X138240950Y-96722850D02*
X134740950Y-96722850D01*
X116790950Y-94972850D02*
X114690950Y-94972850D01*
X116790950Y-94972850D02*
X116790950Y-93222850D01*
X114690950Y-96722850D02*
X114690950Y-93222850D01*
X120190950Y-96722850D02*
X120190950Y-93222850D01*
X119190950Y-93222850D02*
X115690950Y-93222850D01*
X119190950Y-96722850D02*
X115690950Y-96722850D01*
X97740950Y-94972850D02*
X95640950Y-94972850D01*
X97740950Y-94972850D02*
X97740950Y-93222850D01*
X95640950Y-96722850D02*
X95640950Y-93222850D01*
X101140950Y-96722850D02*
X101140950Y-93222850D01*
X100140950Y-93222850D02*
X96640950Y-93222850D01*
X100140950Y-96722850D02*
X96640950Y-96722850D01*
X73928450Y-94972850D02*
X71828450Y-94972850D01*
X73928450Y-94972850D02*
X73928450Y-93222850D01*
X71828450Y-96722850D02*
X71828450Y-93222850D01*
X77328450Y-96722850D02*
X77328450Y-93222850D01*
X76328450Y-93222850D02*
X72828450Y-93222850D01*
X76328450Y-96722850D02*
X72828450Y-96722850D01*
X380028450Y-75922850D02*
X382128450Y-75922850D01*
X380028450Y-75922850D02*
X380028450Y-77672850D01*
X382128450Y-74172850D02*
X382128450Y-77672850D01*
X376628450Y-74172850D02*
X376628450Y-77672850D01*
X377628450Y-77672850D02*
X381128450Y-77672850D01*
X377628450Y-74172850D02*
X381128450Y-74172850D01*
X360978450Y-75922850D02*
X363078450Y-75922850D01*
X360978450Y-75922850D02*
X360978450Y-77672850D01*
X363078450Y-74172850D02*
X363078450Y-77672850D01*
X357578450Y-74172850D02*
X357578450Y-77672850D01*
X358578450Y-77672850D02*
X362078450Y-77672850D01*
X358578450Y-74172850D02*
X362078450Y-74172850D01*
X327640950Y-75922850D02*
X329740950Y-75922850D01*
X327640950Y-75922850D02*
X327640950Y-77672850D01*
X329740950Y-74172850D02*
X329740950Y-77672850D01*
X324240950Y-74172850D02*
X324240950Y-77672850D01*
X325240950Y-77672850D02*
X328740950Y-77672850D01*
X325240950Y-74172850D02*
X328740950Y-74172850D01*
X299065950Y-75922850D02*
X301165950Y-75922850D01*
X299065950Y-75922850D02*
X299065950Y-77672850D01*
X301165950Y-74172850D02*
X301165950Y-77672850D01*
X295665950Y-74172850D02*
X295665950Y-77672850D01*
X296665950Y-77672850D02*
X300165950Y-77672850D01*
X296665950Y-74172850D02*
X300165950Y-74172850D01*
X280015950Y-75922850D02*
X282115950Y-75922850D01*
X280015950Y-75922850D02*
X280015950Y-77672850D01*
X282115950Y-74172850D02*
X282115950Y-77672850D01*
X276615950Y-74172850D02*
X276615950Y-77672850D01*
X277615950Y-77672850D02*
X281115950Y-77672850D01*
X277615950Y-74172850D02*
X281115950Y-74172850D01*
X260965950Y-75922850D02*
X263065950Y-75922850D01*
X260965950Y-75922850D02*
X260965950Y-77672850D01*
X263065950Y-74172850D02*
X263065950Y-77672850D01*
X257565950Y-74172850D02*
X257565950Y-77672850D01*
X258565950Y-77672850D02*
X262065950Y-77672850D01*
X258565950Y-74172850D02*
X262065950Y-74172850D01*
X241915950Y-75922850D02*
X244015950Y-75922850D01*
X241915950Y-75922850D02*
X241915950Y-77672850D01*
X244015950Y-74172850D02*
X244015950Y-77672850D01*
X238515950Y-74172850D02*
X238515950Y-77672850D01*
X239515950Y-77672850D02*
X243015950Y-77672850D01*
X239515950Y-74172850D02*
X243015950Y-74172850D01*
X222865950Y-75922850D02*
X224965950Y-75922850D01*
X222865950Y-75922850D02*
X222865950Y-77672850D01*
X224965950Y-74172850D02*
X224965950Y-77672850D01*
X219465950Y-74172850D02*
X219465950Y-77672850D01*
X220465950Y-77672850D02*
X223965950Y-77672850D01*
X220465950Y-74172850D02*
X223965950Y-74172850D01*
X203815950Y-75922850D02*
X205915950Y-75922850D01*
X203815950Y-75922850D02*
X203815950Y-77672850D01*
X205915950Y-74172850D02*
X205915950Y-77672850D01*
X200415950Y-74172850D02*
X200415950Y-77672850D01*
X201415950Y-77672850D02*
X204915950Y-77672850D01*
X201415950Y-74172850D02*
X204915950Y-74172850D01*
X184765950Y-75922850D02*
X186865950Y-75922850D01*
X184765950Y-75922850D02*
X184765950Y-77672850D01*
X186865950Y-74172850D02*
X186865950Y-77672850D01*
X181365950Y-74172850D02*
X181365950Y-77672850D01*
X182365950Y-77672850D02*
X185865950Y-77672850D01*
X182365950Y-74172850D02*
X185865950Y-74172850D01*
X165715950Y-75922850D02*
X167815950Y-75922850D01*
X165715950Y-75922850D02*
X165715950Y-77672850D01*
X167815950Y-74172850D02*
X167815950Y-77672850D01*
X162315950Y-74172850D02*
X162315950Y-77672850D01*
X163315950Y-77672850D02*
X166815950Y-77672850D01*
X163315950Y-74172850D02*
X166815950Y-74172850D01*
X146665950Y-75922850D02*
X148765950Y-75922850D01*
X146665950Y-75922850D02*
X146665950Y-77672850D01*
X148765950Y-74172850D02*
X148765950Y-77672850D01*
X143265950Y-74172850D02*
X143265950Y-77672850D01*
X144265950Y-77672850D02*
X147765950Y-77672850D01*
X144265950Y-74172850D02*
X147765950Y-74172850D01*
X127615950Y-75922850D02*
X129715950Y-75922850D01*
X127615950Y-75922850D02*
X127615950Y-77672850D01*
X129715950Y-74172850D02*
X129715950Y-77672850D01*
X124215950Y-74172850D02*
X124215950Y-77672850D01*
X125215950Y-77672850D02*
X128715950Y-77672850D01*
X125215950Y-74172850D02*
X128715950Y-74172850D01*
X108565950Y-75922850D02*
X110665950Y-75922850D01*
X108565950Y-75922850D02*
X108565950Y-77672850D01*
X110665950Y-74172850D02*
X110665950Y-77672850D01*
X105165950Y-74172850D02*
X105165950Y-77672850D01*
X106165950Y-77672850D02*
X109665950Y-77672850D01*
X106165950Y-74172850D02*
X109665950Y-74172850D01*
X89515950Y-75922850D02*
X91615950Y-75922850D01*
X89515950Y-75922850D02*
X89515950Y-77672850D01*
X91615950Y-74172850D02*
X91615950Y-77672850D01*
X86115950Y-74172850D02*
X86115950Y-77672850D01*
X87115950Y-77672850D02*
X90615950Y-77672850D01*
X87115950Y-74172850D02*
X90615950Y-74172850D01*
X70465950Y-75922850D02*
X72565950Y-75922850D01*
X70465950Y-75922850D02*
X70465950Y-77672850D01*
X72565950Y-74172850D02*
X72565950Y-77672850D01*
X67065950Y-74172850D02*
X67065950Y-77672850D01*
X68065950Y-77672850D02*
X71565950Y-77672850D01*
X68065950Y-74172850D02*
X71565950Y-74172850D01*
X264428450Y-133072850D02*
X262328450Y-133072850D01*
X264428450Y-133072850D02*
X264428450Y-131322850D01*
X262328450Y-134822850D02*
X262328450Y-131322850D01*
X267828450Y-134822850D02*
X267828450Y-131322850D01*
X266828450Y-131322850D02*
X263328450Y-131322850D01*
X266828450Y-134822850D02*
X263328450Y-134822850D01*
D12*
X173008750Y-102427500D02*
X174786750Y-102427500D01*
X183930750Y-102427500D02*
X185708750Y-102427500D01*
X185708750Y-102427500D02*
X185708750Y-104205500D01*
X185708750Y-113349500D02*
X185708750Y-115127500D01*
X185708750Y-115127500D02*
X183930750Y-115127500D01*
X174786750Y-115127500D02*
X173008750Y-115127500D01*
X173008750Y-115127500D02*
X173008750Y-113349500D01*
X173008750Y-104205500D02*
X173008750Y-102427500D01*
%LPC*%
D14*
X362873750Y-65597500D03*
X356523750Y-68137500D03*
X362873750Y-103697500D03*
X356523750Y-106237500D03*
D15*
X355635950Y-64932850D03*
X358175950Y-64932850D03*
X360715950Y-64932850D03*
D14*
X381923750Y-141797500D03*
X375573750Y-144337500D03*
X362873750Y-141797500D03*
X356523750Y-144337500D03*
X343823750Y-141797500D03*
X337473750Y-144337500D03*
X312867500Y-141797500D03*
X306517500Y-144337500D03*
X289055000Y-141797500D03*
X282705000Y-144337500D03*
X265242500Y-141797500D03*
X258892500Y-144337500D03*
X193805000Y-141797500D03*
X187455000Y-144337500D03*
X122367500Y-141797500D03*
X116017500Y-144337500D03*
X98555000Y-141797500D03*
X92205000Y-144337500D03*
X74742500Y-141797500D03*
X68392500Y-144337500D03*
X381923750Y-122747500D03*
X375573750Y-125287500D03*
X362873750Y-122747500D03*
X356523750Y-125287500D03*
X322392500Y-122747500D03*
X316042500Y-125287500D03*
X286673750Y-122747500D03*
X280323750Y-125287500D03*
X267623750Y-122747500D03*
X261273750Y-125287500D03*
X248573750Y-122747500D03*
X242223750Y-125287500D03*
X229523750Y-122747500D03*
X223173750Y-125287500D03*
X210473750Y-122747500D03*
X204123750Y-125287500D03*
X191423750Y-122747500D03*
X185073750Y-125287500D03*
X172373750Y-122747500D03*
X166023750Y-125287500D03*
X153323750Y-122747500D03*
X146973750Y-125287500D03*
X134273750Y-122747500D03*
X127923750Y-125287500D03*
X115223750Y-122747500D03*
X108873750Y-125287500D03*
X84267500Y-122747500D03*
X77917500Y-125287500D03*
X381923750Y-103697500D03*
X375573750Y-106237500D03*
X327155000Y-103697500D03*
X320805000Y-106237500D03*
X296198750Y-103697500D03*
X289848750Y-106237500D03*
X277148750Y-103697500D03*
X270798750Y-106237500D03*
X258098750Y-103697500D03*
X251748750Y-106237500D03*
X239048750Y-103697500D03*
X232698750Y-106237500D03*
X219998750Y-103697500D03*
X213648750Y-106237500D03*
X200948750Y-103697500D03*
X194598750Y-106237500D03*
X162848750Y-103697500D03*
X156498750Y-106237500D03*
X143798750Y-103697500D03*
X137448750Y-106237500D03*
X124748750Y-103697500D03*
X118398750Y-106237500D03*
X105698750Y-103697500D03*
X99348750Y-106237500D03*
X79505000Y-103697500D03*
X73155000Y-106237500D03*
X381923750Y-84647500D03*
X375573750Y-87187500D03*
X362873750Y-84647500D03*
X356523750Y-87187500D03*
X334298950Y-84643250D03*
X327948950Y-87183250D03*
X310485950Y-84643250D03*
X304135950Y-87183250D03*
X291435550Y-84643250D03*
X285085550Y-87183250D03*
X272385150Y-84643250D03*
X266035150Y-87183250D03*
X253334750Y-84643250D03*
X246984750Y-87183250D03*
X234284350Y-84643250D03*
X227934350Y-87183250D03*
X215236250Y-84647500D03*
X208886250Y-87187500D03*
X196186250Y-84647500D03*
X189836250Y-87187500D03*
X177136250Y-84647500D03*
X170786250Y-87187500D03*
X158086250Y-84647500D03*
X151736250Y-87187500D03*
X139036250Y-84647500D03*
X132686250Y-87187500D03*
X119986250Y-84647500D03*
X113636250Y-87187500D03*
X100931550Y-84643250D03*
X94581550Y-87183250D03*
X77118550Y-84643250D03*
X70768550Y-87183250D03*
X381923750Y-65597500D03*
X375573750Y-68137500D03*
X329536350Y-65592850D03*
X323186350Y-68132850D03*
X300960750Y-65592850D03*
X294610750Y-68132850D03*
X281910350Y-65592850D03*
X275560350Y-68132850D03*
X262859950Y-65592850D03*
X256509950Y-68132850D03*
X243809550Y-65592850D03*
X237459550Y-68132850D03*
X224759150Y-65592850D03*
X218409150Y-68132850D03*
X205708750Y-65592850D03*
X199358750Y-68132850D03*
X186658350Y-65592850D03*
X180308350Y-68132850D03*
X167607950Y-65592850D03*
X161257950Y-68132850D03*
X148557550Y-65592850D03*
X142207550Y-68132850D03*
X129507150Y-65592850D03*
X123157150Y-68132850D03*
X110456750Y-65592850D03*
X104106750Y-68132850D03*
X91406350Y-65592850D03*
X85056350Y-68132850D03*
X72355950Y-65592850D03*
X66005950Y-68132850D03*
D16*
X203745950Y-148572850D03*
X201205950Y-148572850D03*
X377155950Y-139252850D03*
X346675950Y-131632850D03*
X379695950Y-139252850D03*
X206285950Y-148572850D03*
X208825950Y-148572850D03*
X213905950Y-148572850D03*
X211365950Y-148572850D03*
X374615950Y-139252850D03*
X339055950Y-131632850D03*
X344135950Y-131632850D03*
X341595950Y-131632850D03*
D17*
X118072200Y-151247850D03*
X118072200Y-152997850D03*
X121572200Y-152997850D03*
X121572200Y-151247850D03*
X94259700Y-151247850D03*
X94259700Y-152997850D03*
X97759700Y-152997850D03*
X97759700Y-151247850D03*
X358578450Y-151247850D03*
X358578450Y-152997850D03*
X362078450Y-152997850D03*
X362078450Y-151247850D03*
X339528450Y-151247850D03*
X339528450Y-152997850D03*
X343028450Y-152997850D03*
X343028450Y-151247850D03*
X377628450Y-151247850D03*
X377628450Y-152997850D03*
X381128450Y-152997850D03*
X381128450Y-151247850D03*
X308572200Y-151247850D03*
X308572200Y-152997850D03*
X312072200Y-152997850D03*
X312072200Y-151247850D03*
X284759700Y-151247850D03*
X284759700Y-152997850D03*
X288259700Y-152997850D03*
X288259700Y-151247850D03*
X260947200Y-151247850D03*
X260947200Y-152997850D03*
X264447200Y-152997850D03*
X264447200Y-151247850D03*
X189509700Y-151247850D03*
X189509700Y-152997850D03*
X193009700Y-152997850D03*
X193009700Y-151247850D03*
X70447200Y-151247850D03*
X70447200Y-152997850D03*
X73947200Y-152997850D03*
X73947200Y-151247850D03*
X381128450Y-133947850D03*
X381128450Y-132197850D03*
X377628450Y-132197850D03*
X377628450Y-133947850D03*
X362078450Y-133947850D03*
X362078450Y-132197850D03*
X358578450Y-132197850D03*
X358578450Y-133947850D03*
X321597200Y-133947850D03*
X321597200Y-132197850D03*
X318097200Y-132197850D03*
X318097200Y-133947850D03*
X285878450Y-133947850D03*
X285878450Y-132197850D03*
X282378450Y-132197850D03*
X282378450Y-133947850D03*
X247778450Y-133947850D03*
X247778450Y-132197850D03*
X244278450Y-132197850D03*
X244278450Y-133947850D03*
X228728450Y-133947850D03*
X228728450Y-132197850D03*
X225228450Y-132197850D03*
X225228450Y-133947850D03*
X209678450Y-133947850D03*
X209678450Y-132197850D03*
X206178450Y-132197850D03*
X206178450Y-133947850D03*
X190628450Y-133947850D03*
X190628450Y-132197850D03*
X187128450Y-132197850D03*
X187128450Y-133947850D03*
X171578450Y-133947850D03*
X171578450Y-132197850D03*
X168078450Y-132197850D03*
X168078450Y-133947850D03*
X152528450Y-133947850D03*
X152528450Y-132197850D03*
X149028450Y-132197850D03*
X149028450Y-133947850D03*
X133478450Y-133947850D03*
X133478450Y-132197850D03*
X129978450Y-132197850D03*
X129978450Y-133947850D03*
X114428450Y-133947850D03*
X114428450Y-132197850D03*
X110928450Y-132197850D03*
X110928450Y-133947850D03*
X83472200Y-133947850D03*
X83472200Y-132197850D03*
X79972200Y-132197850D03*
X79972200Y-133947850D03*
X377628450Y-113147850D03*
X377628450Y-114897850D03*
X381128450Y-114897850D03*
X381128450Y-113147850D03*
X358578450Y-113147850D03*
X358578450Y-114897850D03*
X362078450Y-114897850D03*
X362078450Y-113147850D03*
X322859700Y-113147850D03*
X322859700Y-114897850D03*
X326359700Y-114897850D03*
X326359700Y-113147850D03*
X291903450Y-113147850D03*
X291903450Y-114897850D03*
X295403450Y-114897850D03*
X295403450Y-113147850D03*
X272853450Y-113147850D03*
X272853450Y-114897850D03*
X276353450Y-114897850D03*
X276353450Y-113147850D03*
X253803450Y-113147850D03*
X253803450Y-114897850D03*
X257303450Y-114897850D03*
X257303450Y-113147850D03*
X234753450Y-113147850D03*
X234753450Y-114897850D03*
X238253450Y-114897850D03*
X238253450Y-113147850D03*
X215703450Y-113147850D03*
X215703450Y-114897850D03*
X219203450Y-114897850D03*
X219203450Y-113147850D03*
X196653450Y-113147850D03*
X196653450Y-114897850D03*
X200153450Y-114897850D03*
X200153450Y-113147850D03*
X177603450Y-113147850D03*
X177603450Y-114897850D03*
X181103450Y-114897850D03*
X181103450Y-113147850D03*
X158553450Y-113147850D03*
X158553450Y-114897850D03*
X162053450Y-114897850D03*
X162053450Y-113147850D03*
X139503450Y-113147850D03*
X139503450Y-114897850D03*
X143003450Y-114897850D03*
X143003450Y-113147850D03*
X120453450Y-113147850D03*
X120453450Y-114897850D03*
X123953450Y-114897850D03*
X123953450Y-113147850D03*
X101403450Y-113147850D03*
X101403450Y-114897850D03*
X104903450Y-114897850D03*
X104903450Y-113147850D03*
X75209700Y-113147850D03*
X75209700Y-114897850D03*
X78709700Y-114897850D03*
X78709700Y-113147850D03*
X381128450Y-95847850D03*
X381128450Y-94097850D03*
X377628450Y-94097850D03*
X377628450Y-95847850D03*
X362078450Y-95847850D03*
X362078450Y-94097850D03*
X358578450Y-94097850D03*
X358578450Y-95847850D03*
X333503450Y-95847850D03*
X333503450Y-94097850D03*
X330003450Y-94097850D03*
X330003450Y-95847850D03*
X309690950Y-95847850D03*
X309690950Y-94097850D03*
X306190950Y-94097850D03*
X306190950Y-95847850D03*
X290640950Y-95847850D03*
X290640950Y-94097850D03*
X287140950Y-94097850D03*
X287140950Y-95847850D03*
X271590950Y-95847850D03*
X271590950Y-94097850D03*
X268090950Y-94097850D03*
X268090950Y-95847850D03*
X252540950Y-95847850D03*
X252540950Y-94097850D03*
X249040950Y-94097850D03*
X249040950Y-95847850D03*
X233490950Y-95847850D03*
X233490950Y-94097850D03*
X229990950Y-94097850D03*
X229990950Y-95847850D03*
X214440950Y-95847850D03*
X214440950Y-94097850D03*
X210940950Y-94097850D03*
X210940950Y-95847850D03*
X195390950Y-95847850D03*
X195390950Y-94097850D03*
X191890950Y-94097850D03*
X191890950Y-95847850D03*
X176340950Y-95847850D03*
X176340950Y-94097850D03*
X172840950Y-94097850D03*
X172840950Y-95847850D03*
X157290950Y-95847850D03*
X157290950Y-94097850D03*
X153790950Y-94097850D03*
X153790950Y-95847850D03*
X138240950Y-95847850D03*
X138240950Y-94097850D03*
X134740950Y-94097850D03*
X134740950Y-95847850D03*
X119190950Y-95847850D03*
X119190950Y-94097850D03*
X115690950Y-94097850D03*
X115690950Y-95847850D03*
X100140950Y-95847850D03*
X100140950Y-94097850D03*
X96640950Y-94097850D03*
X96640950Y-95847850D03*
X76328450Y-95847850D03*
X76328450Y-94097850D03*
X72828450Y-94097850D03*
X72828450Y-95847850D03*
X377628450Y-75047850D03*
X377628450Y-76797850D03*
X381128450Y-76797850D03*
X381128450Y-75047850D03*
X358578450Y-75047850D03*
X358578450Y-76797850D03*
X362078450Y-76797850D03*
X362078450Y-75047850D03*
X325240950Y-75047850D03*
X325240950Y-76797850D03*
X328740950Y-76797850D03*
X328740950Y-75047850D03*
X296665950Y-75047850D03*
X296665950Y-76797850D03*
X300165950Y-76797850D03*
X300165950Y-75047850D03*
X277615950Y-75047850D03*
X277615950Y-76797850D03*
X281115950Y-76797850D03*
X281115950Y-75047850D03*
X258565950Y-75047850D03*
X258565950Y-76797850D03*
X262065950Y-76797850D03*
X262065950Y-75047850D03*
X239515950Y-75047850D03*
X239515950Y-76797850D03*
X243015950Y-76797850D03*
X243015950Y-75047850D03*
X220465950Y-75047850D03*
X220465950Y-76797850D03*
X223965950Y-76797850D03*
X223965950Y-75047850D03*
X201415950Y-75047850D03*
X201415950Y-76797850D03*
X204915950Y-76797850D03*
X204915950Y-75047850D03*
X182365950Y-75047850D03*
X182365950Y-76797850D03*
X185865950Y-76797850D03*
X185865950Y-75047850D03*
X163315950Y-75047850D03*
X163315950Y-76797850D03*
X166815950Y-76797850D03*
X166815950Y-75047850D03*
X144265950Y-75047850D03*
X144265950Y-76797850D03*
X147765950Y-76797850D03*
X147765950Y-75047850D03*
X125215950Y-75047850D03*
X125215950Y-76797850D03*
X128715950Y-76797850D03*
X128715950Y-75047850D03*
X106165950Y-75047850D03*
X106165950Y-76797850D03*
X109665950Y-76797850D03*
X109665950Y-75047850D03*
X87115950Y-75047850D03*
X87115950Y-76797850D03*
X90615950Y-76797850D03*
X90615950Y-75047850D03*
X68065950Y-75047850D03*
X68065950Y-76797850D03*
X71565950Y-76797850D03*
X71565950Y-75047850D03*
X266828450Y-133947850D03*
X266828450Y-132197850D03*
X263328450Y-132197850D03*
X263328450Y-133947850D03*
D18*
X217085950Y-149742850D03*
X217085950Y-147202850D03*
X217085950Y-137042850D03*
X217085950Y-129422850D03*
X217085950Y-126882850D03*
X217085950Y-124342850D03*
X217085950Y-121802850D03*
D19*
X219426950Y-151972850D03*
X221966950Y-151972850D03*
X224506950Y-151972850D03*
X227046950Y-151972850D03*
X229586950Y-151972850D03*
X232126950Y-151972850D03*
D20*
X352135950Y-71392850D03*
D21*
X350135950Y-71392850D03*
D14*
X181898750Y-103697500D03*
X175548750Y-106237500D03*
D22*
X345795950Y-65262850D03*
X350195950Y-65262850D03*
M02*
