M48
;DRILL file {KiCad 4.0.2-stable} date 7/14/2016 7:42:12 PM
;FORMAT={3:3/ absolute / metric / suppress trailing zeros}
FMAT,2
METRIC,LZ
T1C0.400
T2C0.762
T3C0.900
T4C1.000
T5C1.016
T6C1.499
T7C1.100
T8C1.702
T9C3.048
T10C3.988
%
G90
G05
M71
T1
X066516Y-075043
X067466Y-115693
X069816Y-075053
X069816Y-076793
X070196Y-094093
X070946Y-132193
X072116Y-098103
X072186Y-152993
X072206Y-151253
X073266Y-068113
X074576Y-094103
X074576Y-095843
X075466Y-134683
X075646Y-144333
X076526Y-062783
X076956Y-114893
X076966Y-113153
X078016Y-087183
X079316Y-098293
X079456Y-100053
X080406Y-106233
X081716Y-133943
X081726Y-132203
X082626Y-079293
X082626Y-098293
X082626Y-117303
X082636Y-136303
X083156Y-082663
X083166Y-120673
X085066Y-125273
X088866Y-075043
X088866Y-076803
X092196Y-152993
X092286Y-068133
X095546Y-063223
X096006Y-152993
X096016Y-151253
X098386Y-095843
X098396Y-094103
X099456Y-144333
X099816Y-153003
X101816Y-087183
X103146Y-114893
X103156Y-113153
X106576Y-106233
X107916Y-075053
X107916Y-076803
X111366Y-068133
X112676Y-133943
X112686Y-132203
X114636Y-064143
X115966Y-152993
X116126Y-125283
X116976Y-134683
X117306Y-079293
X117436Y-095843
X117446Y-094103
X117506Y-100043
X117506Y-119043
X117506Y-138053
X117516Y-081053
X119816Y-152993
X119826Y-151253
X120816Y-098303
X120866Y-087183
X122196Y-114893
X122206Y-113153
X123286Y-144333
X123626Y-153013
X124126Y-117303
X124136Y-079303
X124136Y-098293
X124136Y-136293
X124676Y-082663
X124676Y-120663
X125636Y-106233
X126966Y-075053
X126966Y-076793
X130396Y-068133
X131726Y-133943
X131736Y-132203
X133666Y-064653
X135166Y-125283
X136486Y-095843
X136496Y-094103
X139916Y-087193
X141246Y-114893
X141256Y-113153
X144676Y-106233
X146016Y-075053
X146016Y-076793
X149456Y-068133
X150776Y-133943
X150786Y-132203
X154226Y-125283
X155536Y-095843
X155546Y-094103
X157036Y-073113
X158486Y-134683
X158996Y-087183
X159026Y-081043
X159026Y-100053
X159026Y-119043
X159036Y-138043
X159156Y-096683
X160296Y-114893
X160306Y-113153
X163756Y-106233
X165066Y-075053
X165066Y-076793
X165636Y-079293
X165646Y-117303
X165646Y-136303
X165656Y-098293
X166186Y-082663
X166186Y-120663
X168506Y-068133
X169826Y-132203
X169826Y-133943
X173286Y-125293
X174226Y-074173
X174586Y-095843
X174596Y-094103
X178016Y-087183
X179346Y-114893
X179356Y-113153
X182786Y-106243
X182896Y-130483
X184116Y-075053
X184116Y-076793
X187556Y-068133
X188876Y-133943
X188886Y-132203
X191256Y-152993
X191266Y-151253
X192326Y-125293
X193636Y-095843
X193646Y-094103
X194706Y-144333
X197066Y-087183
X198396Y-114893
X198406Y-113153
X199036Y-082453
X199646Y-075053
X199976Y-096683
X199976Y-134683
X200526Y-100053
X200526Y-119053
X200526Y-138053
X200536Y-081053
X201836Y-106233
X203166Y-075053
X203166Y-076793
X206286Y-153963
X206806Y-068133
X207146Y-079303
X207146Y-098293
X207146Y-117293
X207166Y-136293
X207696Y-083383
X207696Y-120663
X207926Y-133943
X207936Y-132203
X208686Y-075048
X211366Y-154553
X211386Y-125283
X212686Y-095843
X212696Y-094103
X215636Y-131233
X216116Y-087183
X217446Y-114893
X217456Y-113153
X218646Y-134243
X218676Y-075043
X219366Y-083453
X220906Y-106233
X222216Y-075053
X222216Y-076793
X225656Y-068133
X226976Y-133943
X226986Y-132203
X230426Y-125273
X231736Y-095843
X231746Y-094103
X235176Y-087183
X236496Y-114893
X236506Y-113153
X238446Y-092233
X239936Y-106243
X241266Y-075053
X241266Y-076793
X241486Y-096683
X241486Y-134683
X242026Y-081043
X242036Y-119053
X242046Y-100043
X244696Y-068133
X245306Y-138043
X245526Y-081053
X246026Y-133943
X246036Y-132203
X247716Y-075033
X248656Y-079303
X248656Y-098303
X248656Y-117293
X248666Y-136293
X249196Y-120643
X249486Y-125283
X250786Y-095843
X250796Y-094103
X254216Y-087183
X255546Y-114893
X255556Y-113153
X256756Y-151243
X256896Y-075053
X257476Y-093143
X258996Y-106243
X260316Y-075053
X260316Y-076793
X262696Y-152993
X262706Y-151253
X263746Y-068133
X265076Y-133943
X265086Y-132203
X266136Y-144333
X266506Y-153003
X268516Y-125283
X269836Y-095843
X269846Y-094103
X273286Y-087183
X274596Y-114893
X274606Y-113153
X278256Y-106233
X279366Y-075053
X279366Y-076793
X279576Y-151248
X281276Y-101223
X282696Y-152993
X282786Y-068133
X282986Y-151253
X282996Y-096673
X283536Y-081043
X283546Y-100043
X283546Y-119053
X283546Y-138043
X284126Y-133943
X284136Y-132203
X286506Y-152993
X286516Y-151253
X286856Y-081053
X286856Y-136293
X287576Y-125283
X288176Y-075053
X288886Y-095843
X288896Y-094103
X289966Y-144333
X290156Y-079293
X290176Y-098293
X290176Y-117293
X290186Y-136303
X290326Y-153003
X290706Y-120663
X291636Y-078353
X292296Y-087183
X293646Y-114893
X293656Y-113153
X294006Y-081033
X294986Y-075053
X297086Y-106233
X298416Y-075053
X298416Y-076793
X298416Y-081103
X300326Y-102443
X301846Y-068133
X305436Y-111223
X306516Y-153003
X306796Y-151243
X307936Y-095843
X307946Y-094103
X310316Y-152993
X310326Y-151253
X311366Y-087183
X313766Y-144343
X314136Y-153003
X316566Y-112173
X319846Y-132203
X319846Y-133943
X323336Y-096683
X323866Y-081043
X323876Y-100043
X323876Y-119043
X323876Y-138043
X324476Y-134883
X324606Y-114893
X324616Y-113153
X325876Y-093153
X326556Y-131633
X326786Y-092223
X326986Y-076793
X326996Y-075053
X327176Y-081053
X327316Y-120953
X328946Y-134963
X329126Y-083673
X329176Y-082423
X329856Y-111223
X330226Y-102503
X330236Y-101203
X330496Y-079293
X330506Y-098303
X330526Y-117303
X330846Y-112173
X331746Y-095843
X331756Y-094103
X331896Y-074023
X332766Y-073113
X333576Y-063463
X334206Y-141823
X335146Y-129193
X335416Y-064663
X335426Y-062783
X335766Y-091403
X336156Y-130163
X336756Y-097013
X336966Y-061863
X337796Y-070733
X338376Y-096973
X341276Y-152993
X341286Y-151253
X341536Y-090853
X341546Y-074283
X342956Y-122793
X342996Y-064993
X343216Y-099123
X344146Y-098163
X344766Y-074263
X346256Y-085623
X346446Y-103553
X347206Y-149343
X347566Y-150543
X348206Y-065093
X348246Y-101163
X349056Y-102143
X349106Y-153963
X349736Y-090883
X349796Y-104483
X350116Y-079603
X350126Y-096543
X350586Y-114923
X351636Y-090873
X352036Y-107973
X353466Y-092593
X354516Y-093543
X355286Y-111203
X355586Y-113993
X359206Y-099143
X359436Y-066703
X359856Y-084773
X360326Y-075053
X360326Y-076793
X360326Y-095843
X360326Y-114893
X360326Y-133943
X360326Y-152993
X360336Y-094103
X360336Y-113153
X360336Y-132203
X360336Y-151253
X362616Y-136043
X362716Y-099143
X363396Y-062423
X363766Y-106233
X363766Y-144333
X363776Y-068133
X363776Y-125283
X363786Y-087183
X364136Y-114903
X365736Y-155183
X366016Y-096683
X366016Y-134693
X366426Y-100053
X366526Y-117293
X366546Y-081053
X366556Y-079303
X366556Y-119043
X366556Y-138043
X369946Y-090463
X369956Y-065603
X371616Y-082743
X373406Y-098293
X373716Y-100053
X373796Y-132203
X375566Y-114893
X377026Y-119043
X377106Y-081143
X377906Y-092463
X378706Y-100433
X379376Y-076793
X379376Y-095843
X379376Y-114893
X379376Y-133943
X379376Y-152993
X379386Y-075053
X379386Y-094103
X379386Y-113153
X379386Y-132203
X379386Y-151253
X381116Y-078513
X382816Y-106243
X382826Y-068133
X382826Y-125283
X382826Y-144333
X382836Y-087183
X382866Y-099493
X383186Y-114903
X383196Y-133943
X384336Y-099633
X385436Y-152993
X386076Y-111213
X386986Y-134423
X386996Y-096513
X387056Y-114903
T2
X350136Y-071393
X352136Y-071393
T3
X201206Y-148573
X203746Y-148573
X206286Y-148573
X208826Y-148573
X211366Y-148573
X213906Y-148573
X339056Y-131633
X341596Y-131633
X344136Y-131633
X346676Y-131633
X374616Y-139253
X377156Y-139253
X379696Y-139253
T4
X355636Y-064933
X358176Y-064933
X360716Y-064933
T5
X217086Y-121803
X217086Y-124343
X217086Y-126883
X217086Y-129423
X217086Y-137043
X217086Y-147203
X217086Y-149743
X219427Y-151973
X221967Y-151973
X224507Y-151973
X227047Y-151973
X229587Y-151973
X232127Y-151973
T6
X066006Y-068133
X068393Y-144338
X070769Y-087183
X072356Y-065593
X073155Y-106238
X074743Y-141798
X077119Y-084643
X077918Y-125288
X079505Y-103698
X084268Y-122748
X085056Y-068133
X091406Y-065593
X092205Y-144338
X094582Y-087183
X098555Y-141798
X099349Y-106238
X100932Y-084643
X104107Y-068133
X105699Y-103698
X108874Y-125288
X110457Y-065593
X113636Y-087188
X115224Y-122748
X116018Y-144338
X118399Y-106238
X119986Y-084648
X122368Y-141798
X123157Y-068133
X124749Y-103698
X127924Y-125288
X129507Y-065593
X132686Y-087188
X134274Y-122748
X137449Y-106238
X139036Y-084648
X142208Y-068133
X143799Y-103698
X146974Y-125288
X148558Y-065593
X151736Y-087188
X153324Y-122748
X156499Y-106238
X158086Y-084648
X161258Y-068133
X162849Y-103698
X166024Y-125288
X167608Y-065593
X170786Y-087188
X172374Y-122748
X175549Y-106238
X177136Y-084648
X180308Y-068133
X181899Y-103698
X185074Y-125288
X186658Y-065593
X187455Y-144338
X189836Y-087188
X191424Y-122748
X193805Y-141798
X194599Y-106238
X196186Y-084648
X199359Y-068133
X200949Y-103698
X204124Y-125288
X205709Y-065593
X208886Y-087188
X210474Y-122748
X213649Y-106238
X215236Y-084648
X218409Y-068133
X219999Y-103698
X223174Y-125288
X224759Y-065593
X227934Y-087183
X229524Y-122748
X232699Y-106238
X234284Y-084643
X23746Y-068133
X239049Y-103698
X242224Y-125288
X24381Y-065593
X246985Y-087183
X248574Y-122748
X251749Y-106238
X253335Y-084643
X25651Y-068133
X258099Y-103698
X258892Y-144338
X261274Y-125288
X26286Y-065593
X265243Y-141798
X266035Y-087183
X267624Y-122748
X270799Y-106238
X272385Y-084643
X27556Y-068133
X277149Y-103698
X280324Y-125288
X28191Y-065593
X282705Y-144338
X285086Y-087183
X286674Y-122748
X289055Y-141798
X289849Y-106238
X291436Y-084643
X294611Y-068133
X296199Y-103698
X300961Y-065593
X304136Y-087183
X306517Y-144338
X310486Y-084643
X312868Y-141798
X316042Y-125288
X320805Y-106238
X322392Y-122748
X323186Y-068133
X327155Y-103698
X327949Y-087183
X329536Y-065593
X334299Y-084643
X337474Y-144338
X343824Y-141798
X356524Y-068138
X356524Y-087188
X356524Y-106238
X356524Y-125288
X356524Y-144338
X362874Y-065597
X362874Y-084648
X362874Y-103698
X362874Y-122748
X362874Y-141798
X375574Y-068138
X375574Y-087188
X375574Y-106238
X375574Y-125288
X375574Y-144338
X381924Y-065597
X381924Y-084648
X381924Y-103698
X381924Y-122748
X381924Y-141798
T7
X345796Y-065263
X350196Y-065263
T8
X064736Y-070673
X067123Y-146878
X069499Y-089723
X071885Y-108777
X074896Y-070673
X076647Y-127828
X077283Y-146878
X079659Y-089723
X082045Y-108777
X083786Y-070673
X086808Y-127828
X090935Y-146878
X093312Y-089723
X093946Y-070673
X098079Y-108777
X101095Y-146878
X102837Y-070673
X103472Y-089723
X107604Y-127828
X108239Y-108777
X112366Y-089727
X112997Y-070673
X114748Y-146878
X117129Y-108777
X117764Y-127828
X121887Y-070673
X122526Y-089727
X124908Y-146878
X126654Y-127828
X127289Y-108777
X131416Y-089727
X132047Y-070673
X136179Y-108777
X136814Y-127828
X140938Y-070673
X141576Y-089727
X145704Y-127828
X146339Y-108777
X150466Y-089727
X151098Y-070673
X155229Y-108777
X155864Y-127828
X159988Y-070673
X160626Y-089727
X164754Y-127828
X165389Y-108777
X169516Y-089727
X170148Y-070673
X174279Y-108777
X174914Y-127828
X179038Y-070673
X179676Y-089727
X183804Y-127828
X184439Y-108777
X186185Y-146878
X188566Y-089727
X189198Y-070673
X193329Y-108777
X193964Y-127828
X196345Y-146878
X198089Y-070673
X198726Y-089727
X202854Y-127828
X203489Y-108777
X207616Y-089727
X208249Y-070673
X212379Y-108777
X213014Y-127828
X217139Y-070673
X217776Y-089727
X221904Y-127828
X222539Y-108777
X226664Y-089723
X227299Y-070673
X231429Y-108777
X232064Y-127828
X23619Y-070673
X236824Y-089723
X240954Y-127828
X241589Y-108777
X245715Y-089723
X24635Y-070673
X250479Y-108777
X251114Y-127828
X25524Y-070673
X255875Y-089723
X257623Y-146878
X260004Y-127828
X260639Y-108777
X264765Y-089723
X2654Y-070673
X267783Y-146878
X269529Y-108777
X270164Y-127828
X27429Y-070673
X274925Y-089723
X279054Y-127828
X279689Y-108777
X281435Y-146878
X283816Y-089723
X28445Y-070673
X288579Y-108777
X289214Y-127828
X291595Y-146878
X293341Y-070673
X293976Y-089723
X298739Y-108777
X302866Y-089723
X303501Y-070673
X305248Y-146878
X313026Y-089723
X314773Y-127828
X315408Y-146878
X319535Y-108777
X321916Y-070673
X324933Y-127828
X326679Y-089723
X329695Y-108777
X332076Y-070673
X336204Y-146878
X336839Y-089723
X346364Y-146878
X355254Y-070678
X355254Y-089727
X355254Y-108777
X355254Y-127828
X355254Y-146878
X365414Y-070678
X365414Y-089727
X365414Y-108777
X365414Y-127828
X365414Y-146878
X374304Y-070678
X374304Y-089727
X374304Y-108777
X374304Y-127828
X374304Y-146878
X384464Y-070678
X384464Y-089727
X384464Y-108777
X384464Y-127828
X384464Y-146878
T9
X06979Y-120843
X093666Y-120843
X141227Y-139892
X241303Y-139892
X307915Y-120843
X312677Y-101793
X315058Y-063688
X331791Y-120843
X336553Y-101793
X338934Y-063688
T10
X06979Y-136082
X069816Y-070673
X072203Y-146878
X074579Y-089723
X076965Y-108777
X081727Y-127828
X088866Y-070673
X093666Y-136082
X096015Y-146878
X098392Y-089723
X103159Y-108777
X107917Y-070673
X112684Y-127828
X117446Y-089727
X119828Y-146878
X122209Y-108777
X126967Y-070673
X131734Y-127828
X136496Y-089727
X141227Y-155132
X141259Y-108777
X146018Y-070673
X150784Y-127828
X155546Y-089727
X160309Y-108777
X165068Y-070673
X169834Y-127828
X174596Y-089727
X179359Y-108777
X184118Y-070673
X188884Y-127828
X191265Y-146878
X193646Y-089727
X198409Y-108777
X203169Y-070673
X207934Y-127828
X212696Y-089727
X217459Y-108777
X222219Y-070673
X226984Y-127828
X231744Y-089723
X236509Y-108777
X24127Y-070673
X241303Y-155132
X246034Y-127828
X250795Y-089723
X255559Y-108777
X26032Y-070673
X262702Y-146878
X265084Y-127828
X269845Y-089723
X274609Y-108777
X27937Y-070673
X284134Y-127828
X286515Y-146878
X288896Y-089723
X293659Y-108777
X298421Y-070673
X307915Y-136082
X307946Y-089723
X310327Y-146878
X312677Y-117033
X315058Y-078928
X319852Y-127828
X324615Y-108777
X326996Y-070673
X331759Y-089723
X331791Y-136082
X336553Y-117033
X338934Y-078928
X341284Y-146878
X360334Y-070678
X360334Y-089727
X360334Y-108777
X360334Y-127828
X360334Y-146878
X379384Y-070678
X379384Y-089727
X379384Y-108777
X379384Y-127828
X379384Y-146878
T0
M30
