G04 #@! TF.FileFunction,Soldermask,Top*
%FSLAX46Y46*%
G04 Gerber Fmt 4.6, Leading zero omitted, Abs format (unit mm)*
G04 Created by KiCad (PCBNEW 4.0.2-stable) date 7/15/2016 4:50:49 PM*
%MOMM*%
G01*
G04 APERTURE LIST*
%ADD10C,0.100000*%
%ADD11C,1.500000*%
%ADD12C,2.686000*%
%ADD13C,1.924000*%
%ADD14R,1.924000X1.924000*%
%ADD15C,2.279600*%
%ADD16C,2.178000*%
%ADD17R,1.700000X1.250000*%
%ADD18C,2.200000*%
%ADD19C,1.800000*%
G04 APERTURE END LIST*
D10*
D11*
X345795950Y-65262850D03*
X350195950Y-65262850D03*
D12*
X181898750Y-103697500D03*
X175548750Y-106237500D03*
D13*
X352135950Y-71392850D03*
D14*
X350135950Y-71392850D03*
D15*
X219426950Y-151972850D03*
X221966950Y-151972850D03*
X224506950Y-151972850D03*
X227046950Y-151972850D03*
X229586950Y-151972850D03*
X232126950Y-151972850D03*
D16*
X217085950Y-149742850D03*
X217085950Y-147202850D03*
X217085950Y-137042850D03*
X217085950Y-129422850D03*
X217085950Y-126882850D03*
X217085950Y-124342850D03*
X217085950Y-121802850D03*
D17*
X266828450Y-133947850D03*
X266828450Y-132197850D03*
X263328450Y-132197850D03*
X263328450Y-133947850D03*
X68065950Y-75047850D03*
X68065950Y-76797850D03*
X71565950Y-76797850D03*
X71565950Y-75047850D03*
X87115950Y-75047850D03*
X87115950Y-76797850D03*
X90615950Y-76797850D03*
X90615950Y-75047850D03*
X106165950Y-75047850D03*
X106165950Y-76797850D03*
X109665950Y-76797850D03*
X109665950Y-75047850D03*
X125215950Y-75047850D03*
X125215950Y-76797850D03*
X128715950Y-76797850D03*
X128715950Y-75047850D03*
X144265950Y-75047850D03*
X144265950Y-76797850D03*
X147765950Y-76797850D03*
X147765950Y-75047850D03*
X163315950Y-75047850D03*
X163315950Y-76797850D03*
X166815950Y-76797850D03*
X166815950Y-75047850D03*
X182365950Y-75047850D03*
X182365950Y-76797850D03*
X185865950Y-76797850D03*
X185865950Y-75047850D03*
X201415950Y-75047850D03*
X201415950Y-76797850D03*
X204915950Y-76797850D03*
X204915950Y-75047850D03*
X220465950Y-75047850D03*
X220465950Y-76797850D03*
X223965950Y-76797850D03*
X223965950Y-75047850D03*
X239515950Y-75047850D03*
X239515950Y-76797850D03*
X243015950Y-76797850D03*
X243015950Y-75047850D03*
X258565950Y-75047850D03*
X258565950Y-76797850D03*
X262065950Y-76797850D03*
X262065950Y-75047850D03*
X277615950Y-75047850D03*
X277615950Y-76797850D03*
X281115950Y-76797850D03*
X281115950Y-75047850D03*
X296665950Y-75047850D03*
X296665950Y-76797850D03*
X300165950Y-76797850D03*
X300165950Y-75047850D03*
X325240950Y-75047850D03*
X325240950Y-76797850D03*
X328740950Y-76797850D03*
X328740950Y-75047850D03*
X358578450Y-75047850D03*
X358578450Y-76797850D03*
X362078450Y-76797850D03*
X362078450Y-75047850D03*
X377628450Y-75047850D03*
X377628450Y-76797850D03*
X381128450Y-76797850D03*
X381128450Y-75047850D03*
X76328450Y-95847850D03*
X76328450Y-94097850D03*
X72828450Y-94097850D03*
X72828450Y-95847850D03*
X100140950Y-95847850D03*
X100140950Y-94097850D03*
X96640950Y-94097850D03*
X96640950Y-95847850D03*
X119190950Y-95847850D03*
X119190950Y-94097850D03*
X115690950Y-94097850D03*
X115690950Y-95847850D03*
X138240950Y-95847850D03*
X138240950Y-94097850D03*
X134740950Y-94097850D03*
X134740950Y-95847850D03*
X157290950Y-95847850D03*
X157290950Y-94097850D03*
X153790950Y-94097850D03*
X153790950Y-95847850D03*
X176340950Y-95847850D03*
X176340950Y-94097850D03*
X172840950Y-94097850D03*
X172840950Y-95847850D03*
X195390950Y-95847850D03*
X195390950Y-94097850D03*
X191890950Y-94097850D03*
X191890950Y-95847850D03*
X214440950Y-95847850D03*
X214440950Y-94097850D03*
X210940950Y-94097850D03*
X210940950Y-95847850D03*
X233490950Y-95847850D03*
X233490950Y-94097850D03*
X229990950Y-94097850D03*
X229990950Y-95847850D03*
X252540950Y-95847850D03*
X252540950Y-94097850D03*
X249040950Y-94097850D03*
X249040950Y-95847850D03*
X271590950Y-95847850D03*
X271590950Y-94097850D03*
X268090950Y-94097850D03*
X268090950Y-95847850D03*
X290640950Y-95847850D03*
X290640950Y-94097850D03*
X287140950Y-94097850D03*
X287140950Y-95847850D03*
X309690950Y-95847850D03*
X309690950Y-94097850D03*
X306190950Y-94097850D03*
X306190950Y-95847850D03*
X333503450Y-95847850D03*
X333503450Y-94097850D03*
X330003450Y-94097850D03*
X330003450Y-95847850D03*
X362078450Y-95847850D03*
X362078450Y-94097850D03*
X358578450Y-94097850D03*
X358578450Y-95847850D03*
X381128450Y-95847850D03*
X381128450Y-94097850D03*
X377628450Y-94097850D03*
X377628450Y-95847850D03*
X75209700Y-113147850D03*
X75209700Y-114897850D03*
X78709700Y-114897850D03*
X78709700Y-113147850D03*
X101403450Y-113147850D03*
X101403450Y-114897850D03*
X104903450Y-114897850D03*
X104903450Y-113147850D03*
X120453450Y-113147850D03*
X120453450Y-114897850D03*
X123953450Y-114897850D03*
X123953450Y-113147850D03*
X139503450Y-113147850D03*
X139503450Y-114897850D03*
X143003450Y-114897850D03*
X143003450Y-113147850D03*
X158553450Y-113147850D03*
X158553450Y-114897850D03*
X162053450Y-114897850D03*
X162053450Y-113147850D03*
X177603450Y-113147850D03*
X177603450Y-114897850D03*
X181103450Y-114897850D03*
X181103450Y-113147850D03*
X196653450Y-113147850D03*
X196653450Y-114897850D03*
X200153450Y-114897850D03*
X200153450Y-113147850D03*
X215703450Y-113147850D03*
X215703450Y-114897850D03*
X219203450Y-114897850D03*
X219203450Y-113147850D03*
X234753450Y-113147850D03*
X234753450Y-114897850D03*
X238253450Y-114897850D03*
X238253450Y-113147850D03*
X253803450Y-113147850D03*
X253803450Y-114897850D03*
X257303450Y-114897850D03*
X257303450Y-113147850D03*
X272853450Y-113147850D03*
X272853450Y-114897850D03*
X276353450Y-114897850D03*
X276353450Y-113147850D03*
X291903450Y-113147850D03*
X291903450Y-114897850D03*
X295403450Y-114897850D03*
X295403450Y-113147850D03*
X322859700Y-113147850D03*
X322859700Y-114897850D03*
X326359700Y-114897850D03*
X326359700Y-113147850D03*
X358578450Y-113147850D03*
X358578450Y-114897850D03*
X362078450Y-114897850D03*
X362078450Y-113147850D03*
X377628450Y-113147850D03*
X377628450Y-114897850D03*
X381128450Y-114897850D03*
X381128450Y-113147850D03*
X83472200Y-133947850D03*
X83472200Y-132197850D03*
X79972200Y-132197850D03*
X79972200Y-133947850D03*
X114428450Y-133947850D03*
X114428450Y-132197850D03*
X110928450Y-132197850D03*
X110928450Y-133947850D03*
X133478450Y-133947850D03*
X133478450Y-132197850D03*
X129978450Y-132197850D03*
X129978450Y-133947850D03*
X152528450Y-133947850D03*
X152528450Y-132197850D03*
X149028450Y-132197850D03*
X149028450Y-133947850D03*
X171578450Y-133947850D03*
X171578450Y-132197850D03*
X168078450Y-132197850D03*
X168078450Y-133947850D03*
X190628450Y-133947850D03*
X190628450Y-132197850D03*
X187128450Y-132197850D03*
X187128450Y-133947850D03*
X209678450Y-133947850D03*
X209678450Y-132197850D03*
X206178450Y-132197850D03*
X206178450Y-133947850D03*
X228728450Y-133947850D03*
X228728450Y-132197850D03*
X225228450Y-132197850D03*
X225228450Y-133947850D03*
X247778450Y-133947850D03*
X247778450Y-132197850D03*
X244278450Y-132197850D03*
X244278450Y-133947850D03*
X285878450Y-133947850D03*
X285878450Y-132197850D03*
X282378450Y-132197850D03*
X282378450Y-133947850D03*
X321597200Y-133947850D03*
X321597200Y-132197850D03*
X318097200Y-132197850D03*
X318097200Y-133947850D03*
X362078450Y-133947850D03*
X362078450Y-132197850D03*
X358578450Y-132197850D03*
X358578450Y-133947850D03*
X381128450Y-133947850D03*
X381128450Y-132197850D03*
X377628450Y-132197850D03*
X377628450Y-133947850D03*
X70447200Y-151247850D03*
X70447200Y-152997850D03*
X73947200Y-152997850D03*
X73947200Y-151247850D03*
X189509700Y-151247850D03*
X189509700Y-152997850D03*
X193009700Y-152997850D03*
X193009700Y-151247850D03*
X260947200Y-151247850D03*
X260947200Y-152997850D03*
X264447200Y-152997850D03*
X264447200Y-151247850D03*
X284759700Y-151247850D03*
X284759700Y-152997850D03*
X288259700Y-152997850D03*
X288259700Y-151247850D03*
X308572200Y-151247850D03*
X308572200Y-152997850D03*
X312072200Y-152997850D03*
X312072200Y-151247850D03*
X377628450Y-151247850D03*
X377628450Y-152997850D03*
X381128450Y-152997850D03*
X381128450Y-151247850D03*
X339528450Y-151247850D03*
X339528450Y-152997850D03*
X343028450Y-152997850D03*
X343028450Y-151247850D03*
X358578450Y-151247850D03*
X358578450Y-152997850D03*
X362078450Y-152997850D03*
X362078450Y-151247850D03*
X94259700Y-151247850D03*
X94259700Y-152997850D03*
X97759700Y-152997850D03*
X97759700Y-151247850D03*
X118072200Y-151247850D03*
X118072200Y-152997850D03*
X121572200Y-152997850D03*
X121572200Y-151247850D03*
D18*
X341595950Y-131632850D03*
X344135950Y-131632850D03*
X339055950Y-131632850D03*
X374615950Y-139252850D03*
X211365950Y-148572850D03*
X213905950Y-148572850D03*
X208825950Y-148572850D03*
X206285950Y-148572850D03*
X379695950Y-139252850D03*
X346675950Y-131632850D03*
X377155950Y-139252850D03*
X201205950Y-148572850D03*
X203745950Y-148572850D03*
D12*
X72355950Y-65592850D03*
X66005950Y-68132850D03*
X91406350Y-65592850D03*
X85056350Y-68132850D03*
X110456750Y-65592850D03*
X104106750Y-68132850D03*
X129507150Y-65592850D03*
X123157150Y-68132850D03*
X167607950Y-65592850D03*
X161257950Y-68132850D03*
X205708750Y-65592850D03*
X199358750Y-68132850D03*
X224759150Y-65592850D03*
X218409150Y-68132850D03*
X243809550Y-65592850D03*
X237459550Y-68132850D03*
X262859950Y-65592850D03*
X256509950Y-68132850D03*
X281910350Y-65592850D03*
X275560350Y-68132850D03*
X300960750Y-65592850D03*
X294610750Y-68132850D03*
X329536350Y-65592850D03*
X323186350Y-68132850D03*
X381923750Y-65597500D03*
X375573750Y-68137500D03*
X77118550Y-84643250D03*
X70768550Y-87183250D03*
X119986250Y-84647500D03*
X113636250Y-87187500D03*
X139036250Y-84647500D03*
X132686250Y-87187500D03*
X158086250Y-84647500D03*
X151736250Y-87187500D03*
X177136250Y-84647500D03*
X170786250Y-87187500D03*
X196186250Y-84647500D03*
X189836250Y-87187500D03*
X215236250Y-84647500D03*
X208886250Y-87187500D03*
X234284350Y-84643250D03*
X227934350Y-87183250D03*
X253334750Y-84643250D03*
X246984750Y-87183250D03*
X272385150Y-84643250D03*
X266035150Y-87183250D03*
X291435550Y-84643250D03*
X285085550Y-87183250D03*
X310485950Y-84643250D03*
X304135950Y-87183250D03*
X334298950Y-84643250D03*
X327948950Y-87183250D03*
X362873750Y-84647500D03*
X356523750Y-87187500D03*
X381923750Y-84647500D03*
X375573750Y-87187500D03*
X79505000Y-103697500D03*
X73155000Y-106237500D03*
X105698750Y-103697500D03*
X99348750Y-106237500D03*
X124748750Y-103697500D03*
X118398750Y-106237500D03*
X143798750Y-103697500D03*
X137448750Y-106237500D03*
X200948750Y-103697500D03*
X194598750Y-106237500D03*
X219998750Y-103697500D03*
X213648750Y-106237500D03*
X258098750Y-103697500D03*
X251748750Y-106237500D03*
X277148750Y-103697500D03*
X270798750Y-106237500D03*
X296198750Y-103697500D03*
X289848750Y-106237500D03*
X327155000Y-103697500D03*
X320805000Y-106237500D03*
X381923750Y-103697500D03*
X375573750Y-106237500D03*
X84267500Y-122747500D03*
X77917500Y-125287500D03*
X115223750Y-122747500D03*
X108873750Y-125287500D03*
X134273750Y-122747500D03*
X127923750Y-125287500D03*
X153323750Y-122747500D03*
X146973750Y-125287500D03*
X172373750Y-122747500D03*
X166023750Y-125287500D03*
X191423750Y-122747500D03*
X185073750Y-125287500D03*
X210473750Y-122747500D03*
X204123750Y-125287500D03*
X229523750Y-122747500D03*
X223173750Y-125287500D03*
X248573750Y-122747500D03*
X242223750Y-125287500D03*
X267623750Y-122747500D03*
X261273750Y-125287500D03*
X286673750Y-122747500D03*
X280323750Y-125287500D03*
X322392500Y-122747500D03*
X316042500Y-125287500D03*
X362873750Y-122747500D03*
X356523750Y-125287500D03*
X381923750Y-122747500D03*
X375573750Y-125287500D03*
X74742500Y-141797500D03*
X68392500Y-144337500D03*
X98555000Y-141797500D03*
X92205000Y-144337500D03*
X122367500Y-141797500D03*
X116017500Y-144337500D03*
X193805000Y-141797500D03*
X187455000Y-144337500D03*
X265242500Y-141797500D03*
X258892500Y-144337500D03*
X289055000Y-141797500D03*
X282705000Y-144337500D03*
X312867500Y-141797500D03*
X306517500Y-144337500D03*
X343823750Y-141797500D03*
X337473750Y-144337500D03*
X362873750Y-141797500D03*
X356523750Y-144337500D03*
X381923750Y-141797500D03*
X375573750Y-144337500D03*
D19*
X355635950Y-64932850D03*
X358175950Y-64932850D03*
X360715950Y-64932850D03*
D12*
X362873750Y-103697500D03*
X356523750Y-106237500D03*
X362873750Y-65597500D03*
X356523750Y-68137500D03*
X148557550Y-65592850D03*
X142207550Y-68132850D03*
X186658350Y-65592850D03*
X180308350Y-68132850D03*
X100931550Y-84643250D03*
X94581550Y-87183250D03*
X162848750Y-103697500D03*
X156498750Y-106237500D03*
X239048750Y-103697500D03*
X232698750Y-106237500D03*
M02*
