G04 #@! TF.FileFunction,Soldermask,Bot*
%FSLAX46Y46*%
G04 Gerber Fmt 4.6, Leading zero omitted, Abs format (unit mm)*
G04 Created by KiCad (PCBNEW 4.0.2-stable) date 7/14/2016 10:06:43 PM*
%MOMM*%
G01*
G04 APERTURE LIST*
%ADD10C,0.100000*%
%ADD11R,1.300000X1.350000*%
%ADD12R,1.797000X1.289000*%
%ADD13R,2.000000X2.400000*%
%ADD14R,0.990000X2.600000*%
%ADD15C,1.500000*%
%ADD16R,1.400000X0.690000*%
%ADD17R,1.289000X1.797000*%
%ADD18C,2.686000*%
%ADD19R,1.700000X1.250000*%
%ADD20C,1.924000*%
%ADD21R,1.924000X1.924000*%
%ADD22C,2.279600*%
%ADD23C,2.178000*%
%ADD24R,1.800000X1.600000*%
%ADD25R,1.598880X1.598880*%
%ADD26O,0.806400X2.299920*%
%ADD27O,2.299920X0.806400*%
%ADD28C,2.200000*%
%ADD29R,2.200000X1.900000*%
%ADD30R,1.900000X2.200000*%
%ADD31C,1.800000*%
G04 APERTURE END LIST*
D10*
D11*
X382928450Y-144302850D03*
X386078450Y-144302850D03*
X363878450Y-144302850D03*
X367028450Y-144302850D03*
X335128450Y-144302850D03*
X331978450Y-144302850D03*
X313878450Y-144312850D03*
X317028450Y-144312850D03*
X290078450Y-144312850D03*
X293228450Y-144312850D03*
X266248450Y-144292850D03*
X269398450Y-144292850D03*
X194818450Y-144302850D03*
X197968450Y-144302850D03*
X123398450Y-144312850D03*
X126548450Y-144312850D03*
X99568450Y-144302850D03*
X102718450Y-144302850D03*
X75758450Y-144302850D03*
X78908450Y-144302850D03*
X382938450Y-125272850D03*
X386088450Y-125272850D03*
X363888450Y-125232850D03*
X367038450Y-125232850D03*
X313688450Y-125242850D03*
X310538450Y-125242850D03*
X287688450Y-125262850D03*
X290838450Y-125262850D03*
X268628450Y-125262850D03*
X271778450Y-125262850D03*
X249588450Y-125262850D03*
X252738450Y-125262850D03*
X230538450Y-125272850D03*
X233688450Y-125272850D03*
X211508450Y-125262850D03*
X214658450Y-125262850D03*
X192428450Y-125262850D03*
X195578450Y-125262850D03*
X173398450Y-125262850D03*
X176548450Y-125262850D03*
X154328450Y-125232850D03*
X157478450Y-125232850D03*
X135278450Y-125242850D03*
X138428450Y-125242850D03*
X116228450Y-125272850D03*
X119378450Y-125272850D03*
X85308450Y-125262850D03*
X88458450Y-125262850D03*
X382928450Y-106222850D03*
X386078450Y-106222850D03*
X363878450Y-106222850D03*
X367028450Y-106222850D03*
X318458450Y-106212850D03*
X315308450Y-106212850D03*
X297198450Y-106212850D03*
X300348450Y-106212850D03*
X278168450Y-106212850D03*
X281318450Y-106212850D03*
X259098450Y-106192850D03*
X262248450Y-106192850D03*
X240048450Y-106222850D03*
X243198450Y-106222850D03*
X221018450Y-106212850D03*
X224168450Y-106212850D03*
X201948450Y-106212850D03*
X205098450Y-106212850D03*
X182898450Y-106212850D03*
X186048450Y-106212850D03*
X163868450Y-106212850D03*
X167018450Y-106212850D03*
X144788450Y-106212850D03*
X147938450Y-106212850D03*
X125748450Y-106212850D03*
X128898450Y-106212850D03*
X106688450Y-106212850D03*
X109838450Y-106212850D03*
X80518450Y-106222850D03*
X83668450Y-106222850D03*
X382948450Y-87182850D03*
X386098450Y-87182850D03*
X363888450Y-87172850D03*
X367038450Y-87172850D03*
X325598450Y-87152850D03*
X322448450Y-87152850D03*
X311478450Y-87132850D03*
X314628450Y-87132850D03*
X292418450Y-87152850D03*
X295568450Y-87152850D03*
X273398450Y-87152850D03*
X276548450Y-87152850D03*
X254328450Y-87142850D03*
X257478450Y-87142850D03*
X235288450Y-87152850D03*
X238438450Y-87152850D03*
X216228450Y-87132850D03*
X219378450Y-87132850D03*
X197178450Y-87172850D03*
X200328450Y-87172850D03*
X178128450Y-87172850D03*
X181278450Y-87172850D03*
X159108450Y-87162850D03*
X162258450Y-87162850D03*
X140028450Y-87162850D03*
X143178450Y-87162850D03*
X120978450Y-87162850D03*
X124128450Y-87162850D03*
X101928450Y-87152850D03*
X105078450Y-87152850D03*
X78128450Y-87162850D03*
X81278450Y-87162850D03*
X382938450Y-68112850D03*
X386088450Y-68112850D03*
X363888450Y-68107850D03*
X367038450Y-68107850D03*
X320838450Y-68082850D03*
X317688450Y-68082850D03*
X301963450Y-68107850D03*
X305113450Y-68107850D03*
X282913450Y-68107850D03*
X286063450Y-68107850D03*
X263858450Y-68092850D03*
X267008450Y-68092850D03*
X244813450Y-68107850D03*
X247963450Y-68107850D03*
X225763450Y-68107850D03*
X228913450Y-68107850D03*
X206713450Y-68107850D03*
X209863450Y-68107850D03*
X187663450Y-68107850D03*
X190813450Y-68107850D03*
X168613450Y-68107850D03*
X171763450Y-68107850D03*
X149563450Y-68107850D03*
X152713450Y-68107850D03*
X130508450Y-68102850D03*
X133658450Y-68102850D03*
X111468450Y-68092850D03*
X114618450Y-68092850D03*
X92408450Y-68112850D03*
X95558450Y-68112850D03*
X73373450Y-68132850D03*
X76523450Y-68132850D03*
D12*
X341675950Y-68785350D03*
X341675950Y-66880350D03*
D13*
X352345950Y-62262850D03*
X343645950Y-62262850D03*
X343645950Y-67762850D03*
X352345950Y-67762850D03*
D14*
X347995950Y-67962850D03*
X347195850Y-67962850D03*
X346395750Y-67962850D03*
X348795950Y-67962850D03*
X349595950Y-67962850D03*
D15*
X345795950Y-65262850D03*
X350195950Y-65262850D03*
D16*
X344765950Y-70372850D03*
X344765950Y-70872850D03*
X339865950Y-71372850D03*
X344765950Y-71872850D03*
X344765950Y-72372850D03*
X339865950Y-72372850D03*
X339865950Y-71872850D03*
X344765950Y-71372850D03*
X339865950Y-70872850D03*
X339865950Y-70372850D03*
D17*
X207683450Y-81052850D03*
X209588450Y-81052850D03*
D18*
X181898750Y-103697500D03*
X175548750Y-106237500D03*
D17*
X350618450Y-77362850D03*
X348713450Y-77362850D03*
D19*
X371615950Y-136297850D03*
X371615950Y-138047850D03*
X368115950Y-138047850D03*
X368115950Y-136297850D03*
X328935950Y-136297850D03*
X328935950Y-138047850D03*
X325435950Y-138047850D03*
X325435950Y-136297850D03*
X288605950Y-136297850D03*
X288605950Y-138047850D03*
X285105950Y-138047850D03*
X285105950Y-136297850D03*
X247095950Y-136297850D03*
X247095950Y-138047850D03*
X243595950Y-138047850D03*
X243595950Y-136297850D03*
X205585950Y-136297850D03*
X205585950Y-138047850D03*
X202085950Y-138047850D03*
X202085950Y-136297850D03*
X164085950Y-136297850D03*
X164085950Y-138047850D03*
X160585950Y-138047850D03*
X160585950Y-136297850D03*
X122565950Y-136297850D03*
X122565950Y-138047850D03*
X119065950Y-138047850D03*
X119065950Y-136297850D03*
X81065950Y-136297850D03*
X81065950Y-138047850D03*
X77565950Y-138047850D03*
X77565950Y-136297850D03*
D12*
X342215950Y-75720350D03*
X342215950Y-77625350D03*
X346715950Y-75720350D03*
X346715950Y-77625350D03*
X344465950Y-75720350D03*
X344465950Y-77625350D03*
X339935950Y-75915350D03*
X339935950Y-74010350D03*
X337685950Y-75915350D03*
X337685950Y-74010350D03*
X381135950Y-80200350D03*
X381135950Y-82105350D03*
D17*
X373723450Y-79252850D03*
X375628450Y-79252850D03*
D12*
X357445950Y-101175350D03*
X357445950Y-99270350D03*
X348385950Y-112690350D03*
X348385950Y-114595350D03*
X344275950Y-111070350D03*
X344275950Y-112975350D03*
X352425950Y-109390350D03*
X352425950Y-111295350D03*
D17*
X341188450Y-95162850D03*
X339283450Y-95162850D03*
X212953450Y-136912850D03*
X214858450Y-136912850D03*
D20*
X352135950Y-71392850D03*
D21*
X350135950Y-71392850D03*
D22*
X219426950Y-151972850D03*
X221966950Y-151972850D03*
X224506950Y-151972850D03*
X227046950Y-151972850D03*
X229586950Y-151972850D03*
X232126950Y-151972850D03*
D23*
X217085950Y-149742850D03*
X217085950Y-147202850D03*
X217085950Y-137042850D03*
X217085950Y-129422850D03*
X217085950Y-126882850D03*
X217085950Y-124342850D03*
X217085950Y-121802850D03*
D24*
X348390050Y-109525650D03*
X346090050Y-109525650D03*
X348390050Y-111225650D03*
X346090050Y-111225650D03*
D19*
X119072950Y-81047850D03*
X119072950Y-79297850D03*
X122572950Y-79297850D03*
X122572950Y-81047850D03*
X202086950Y-81047850D03*
X202086950Y-79297850D03*
X205586950Y-79297850D03*
X205586950Y-81047850D03*
X243593950Y-81047850D03*
X243593950Y-79297850D03*
X247093950Y-79297850D03*
X247093950Y-81047850D03*
X325427950Y-81047850D03*
X325427950Y-79297850D03*
X328927950Y-79297850D03*
X328927950Y-81047850D03*
X368115950Y-81047850D03*
X368115950Y-79297850D03*
X371615950Y-79297850D03*
X371615950Y-81047850D03*
X81065950Y-98297850D03*
X81065950Y-100047850D03*
X77565950Y-100047850D03*
X77565950Y-98297850D03*
X122565950Y-98297850D03*
X122565950Y-100047850D03*
X119065950Y-100047850D03*
X119065950Y-98297850D03*
X164085950Y-98297850D03*
X164085950Y-100047850D03*
X160585950Y-100047850D03*
X160585950Y-98297850D03*
X205585950Y-98297850D03*
X205585950Y-100047850D03*
X202085950Y-100047850D03*
X202085950Y-98297850D03*
X288605950Y-98297850D03*
X288605950Y-100047850D03*
X285105950Y-100047850D03*
X285105950Y-98297850D03*
X328935950Y-98297850D03*
X328935950Y-100047850D03*
X325435950Y-100047850D03*
X325435950Y-98297850D03*
X371615950Y-98297850D03*
X371615950Y-100047850D03*
X368115950Y-100047850D03*
X368115950Y-98297850D03*
X77565950Y-119047850D03*
X77565950Y-117297850D03*
X81065950Y-117297850D03*
X81065950Y-119047850D03*
X119065950Y-119047850D03*
X119065950Y-117297850D03*
X122565950Y-117297850D03*
X122565950Y-119047850D03*
X160585950Y-119047850D03*
X160585950Y-117297850D03*
X164085950Y-117297850D03*
X164085950Y-119047850D03*
X77565950Y-81047850D03*
X77565950Y-79297850D03*
X81065950Y-79297850D03*
X81065950Y-81047850D03*
X160579950Y-81047850D03*
X160579950Y-79297850D03*
X164079950Y-79297850D03*
X164079950Y-81047850D03*
X285100950Y-81047850D03*
X285100950Y-79297850D03*
X288600950Y-79297850D03*
X288600950Y-81047850D03*
X247095950Y-98297850D03*
X247095950Y-100047850D03*
X243595950Y-100047850D03*
X243595950Y-98297850D03*
X202085950Y-119047850D03*
X202085950Y-117297850D03*
X205585950Y-117297850D03*
X205585950Y-119047850D03*
X243595950Y-119047850D03*
X243595950Y-117297850D03*
X247095950Y-117297850D03*
X247095950Y-119047850D03*
X285105950Y-119047850D03*
X285105950Y-117297850D03*
X288605950Y-117297850D03*
X288605950Y-119047850D03*
X325435950Y-119047850D03*
X325435950Y-117297850D03*
X328935950Y-117297850D03*
X328935950Y-119047850D03*
X368115950Y-119047850D03*
X368115950Y-117297850D03*
X371615950Y-117297850D03*
X371615950Y-119047850D03*
D12*
X355135950Y-96875350D03*
X355135950Y-94970350D03*
X339675950Y-68785350D03*
X339675950Y-66880350D03*
X337655950Y-68785350D03*
X337655950Y-66880350D03*
D17*
X361278450Y-116932850D03*
X359373450Y-116932850D03*
X380318450Y-116942850D03*
X378413450Y-116942850D03*
X380328450Y-135982850D03*
X378423450Y-135982850D03*
X96928439Y-155042858D03*
X95023439Y-155042858D03*
X120768450Y-155032850D03*
X118863450Y-155032850D03*
X263638450Y-155032850D03*
X261733450Y-155032850D03*
X287458450Y-155042850D03*
X285553450Y-155042850D03*
X311278450Y-155032850D03*
X309373450Y-155032850D03*
X351628450Y-92512850D03*
X349723450Y-92512850D03*
D12*
X339345950Y-105860350D03*
X339345950Y-107765350D03*
X350195950Y-109390350D03*
X350195950Y-111295350D03*
D17*
X340973450Y-92752850D03*
X342878450Y-92752850D03*
D25*
X346264970Y-83172850D03*
X344166930Y-83172850D03*
X346264970Y-79672850D03*
X344166930Y-79672850D03*
X346264970Y-81372850D03*
X344166930Y-81372850D03*
D26*
X347260050Y-94900650D03*
X348060150Y-94900650D03*
X348860250Y-94900650D03*
X349660350Y-94900650D03*
X350460450Y-94900650D03*
X351260550Y-94900650D03*
X346459950Y-94900650D03*
X345659850Y-94900650D03*
X344859750Y-94900650D03*
X344059650Y-94900650D03*
X343259550Y-94900650D03*
X347260050Y-106330650D03*
X348060150Y-106330650D03*
X348860250Y-106330650D03*
X349660350Y-106330650D03*
X350460450Y-106330650D03*
X351260550Y-106330650D03*
X346459950Y-106330650D03*
X345659850Y-106330650D03*
X344859750Y-106330650D03*
X344059650Y-106330650D03*
X343259550Y-106330650D03*
D27*
X352975050Y-100615650D03*
X341545050Y-100615650D03*
X352975050Y-101415750D03*
X341545050Y-101415750D03*
X341545050Y-102215850D03*
X352975050Y-102215850D03*
X352975050Y-103015950D03*
X341545050Y-103015950D03*
X341545050Y-103816050D03*
X352975050Y-103816050D03*
X352975050Y-104616150D03*
X341545050Y-104616150D03*
X341545050Y-99815550D03*
X352975050Y-99815550D03*
X352975050Y-99015450D03*
X341545050Y-99015450D03*
X341545050Y-98215350D03*
X352975050Y-98215350D03*
X352975050Y-97415250D03*
X341545050Y-97415250D03*
X341545050Y-96615150D03*
X352975050Y-96615150D03*
D28*
X341595950Y-131632850D03*
X344135950Y-131632850D03*
X339055950Y-131632850D03*
X374615950Y-139252850D03*
X211365950Y-148572850D03*
X213905950Y-148572850D03*
X208825950Y-148572850D03*
X206285950Y-148572850D03*
X379695950Y-139252850D03*
X346675950Y-131632850D03*
X377155950Y-139252850D03*
X201205950Y-148572850D03*
X203745950Y-148572850D03*
D29*
X351055950Y-124322850D03*
X342855950Y-128822850D03*
X342855950Y-124322850D03*
X351055950Y-128822850D03*
D30*
X177085950Y-131382850D03*
X181585950Y-139582850D03*
X177085950Y-139582850D03*
X181585950Y-131382850D03*
D12*
X350865939Y-87075358D03*
X350865939Y-85170358D03*
X353115939Y-87075358D03*
X353115939Y-85170358D03*
D18*
X72355950Y-65592850D03*
X66005950Y-68132850D03*
X91406350Y-65592850D03*
X85056350Y-68132850D03*
X110456750Y-65592850D03*
X104106750Y-68132850D03*
X129507150Y-65592850D03*
X123157150Y-68132850D03*
X167607950Y-65592850D03*
X161257950Y-68132850D03*
X205708750Y-65592850D03*
X199358750Y-68132850D03*
X224759150Y-65592850D03*
X218409150Y-68132850D03*
X243809550Y-65592850D03*
X237459550Y-68132850D03*
X262859950Y-65592850D03*
X256509950Y-68132850D03*
X281910350Y-65592850D03*
X275560350Y-68132850D03*
X300960750Y-65592850D03*
X294610750Y-68132850D03*
X329536350Y-65592850D03*
X323186350Y-68132850D03*
X381923750Y-65597500D03*
X375573750Y-68137500D03*
X77118550Y-84643250D03*
X70768550Y-87183250D03*
X119986250Y-84647500D03*
X113636250Y-87187500D03*
X139036250Y-84647500D03*
X132686250Y-87187500D03*
X158086250Y-84647500D03*
X151736250Y-87187500D03*
X177136250Y-84647500D03*
X170786250Y-87187500D03*
X196186250Y-84647500D03*
X189836250Y-87187500D03*
X215236250Y-84647500D03*
X208886250Y-87187500D03*
X234284350Y-84643250D03*
X227934350Y-87183250D03*
X253334750Y-84643250D03*
X246984750Y-87183250D03*
X272385150Y-84643250D03*
X266035150Y-87183250D03*
X291435550Y-84643250D03*
X285085550Y-87183250D03*
X310485950Y-84643250D03*
X304135950Y-87183250D03*
X334298950Y-84643250D03*
X327948950Y-87183250D03*
X362873750Y-84647500D03*
X356523750Y-87187500D03*
X381923750Y-84647500D03*
X375573750Y-87187500D03*
X79505000Y-103697500D03*
X73155000Y-106237500D03*
X105698750Y-103697500D03*
X99348750Y-106237500D03*
X124748750Y-103697500D03*
X118398750Y-106237500D03*
X143798750Y-103697500D03*
X137448750Y-106237500D03*
X200948750Y-103697500D03*
X194598750Y-106237500D03*
X219998750Y-103697500D03*
X213648750Y-106237500D03*
X258098750Y-103697500D03*
X251748750Y-106237500D03*
X277148750Y-103697500D03*
X270798750Y-106237500D03*
X296198750Y-103697500D03*
X289848750Y-106237500D03*
X327155000Y-103697500D03*
X320805000Y-106237500D03*
X381923750Y-103697500D03*
X375573750Y-106237500D03*
X84267500Y-122747500D03*
X77917500Y-125287500D03*
X115223750Y-122747500D03*
X108873750Y-125287500D03*
X134273750Y-122747500D03*
X127923750Y-125287500D03*
X153323750Y-122747500D03*
X146973750Y-125287500D03*
X172373750Y-122747500D03*
X166023750Y-125287500D03*
X191423750Y-122747500D03*
X185073750Y-125287500D03*
X210473750Y-122747500D03*
X204123750Y-125287500D03*
X229523750Y-122747500D03*
X223173750Y-125287500D03*
X248573750Y-122747500D03*
X242223750Y-125287500D03*
X267623750Y-122747500D03*
X261273750Y-125287500D03*
X286673750Y-122747500D03*
X280323750Y-125287500D03*
X322392500Y-122747500D03*
X316042500Y-125287500D03*
X362873750Y-122747500D03*
X356523750Y-125287500D03*
X381923750Y-122747500D03*
X375573750Y-125287500D03*
X74742500Y-141797500D03*
X68392500Y-144337500D03*
X98555000Y-141797500D03*
X92205000Y-144337500D03*
X122367500Y-141797500D03*
X116017500Y-144337500D03*
X193805000Y-141797500D03*
X187455000Y-144337500D03*
X265242500Y-141797500D03*
X258892500Y-144337500D03*
X289055000Y-141797500D03*
X282705000Y-144337500D03*
X312867500Y-141797500D03*
X306517500Y-144337500D03*
X343823750Y-141797500D03*
X337473750Y-144337500D03*
X362873750Y-141797500D03*
X356523750Y-144337500D03*
X381923750Y-141797500D03*
X375573750Y-144337500D03*
D12*
X68015950Y-74960350D03*
X68015950Y-76865350D03*
X87065950Y-75020350D03*
X87065950Y-76925350D03*
X106115950Y-74970350D03*
X106115950Y-76875350D03*
X125165950Y-74970350D03*
X125165950Y-76875350D03*
X144215950Y-74970350D03*
X144215950Y-76875350D03*
X163265950Y-74970350D03*
X163265950Y-76875350D03*
X182315950Y-74970350D03*
X182315950Y-76875350D03*
X201365950Y-74970350D03*
X201365950Y-76875350D03*
X220415950Y-74970350D03*
X220415950Y-76875350D03*
X239465950Y-74970350D03*
X239465950Y-76875350D03*
X258515950Y-74970350D03*
X258515950Y-76875350D03*
X277565950Y-74970350D03*
X277565950Y-76875350D03*
X296615950Y-74970350D03*
X296615950Y-76875350D03*
X325190950Y-74970350D03*
X325190950Y-76875350D03*
X358515950Y-74970350D03*
X358515950Y-76875350D03*
X377565950Y-74970350D03*
X377565950Y-76875350D03*
X76365950Y-95925350D03*
X76365950Y-94020350D03*
X100190950Y-95925350D03*
X100190950Y-94020350D03*
X119240950Y-95925350D03*
X119240950Y-94020350D03*
X138290950Y-95925350D03*
X138290950Y-94020350D03*
X157340950Y-95925350D03*
X157340950Y-94020350D03*
X176390950Y-95925350D03*
X176390950Y-94020350D03*
X195440950Y-95925350D03*
X195440950Y-94020350D03*
X214490950Y-95925350D03*
X214490950Y-94020350D03*
X233540950Y-95925350D03*
X233540950Y-94020350D03*
X252590950Y-95925350D03*
X252590950Y-94020350D03*
X271640950Y-95925350D03*
X271640950Y-94020350D03*
X290690950Y-95925350D03*
X290690950Y-94020350D03*
X309740950Y-95925350D03*
X309740950Y-94020350D03*
X333565950Y-95925350D03*
X333565950Y-94020350D03*
X362140950Y-95925350D03*
X362140950Y-94020350D03*
X381190950Y-95925350D03*
X381190950Y-94020350D03*
X75165950Y-113070350D03*
X75165950Y-114975350D03*
X101365950Y-113070350D03*
X101365950Y-114975350D03*
X120415950Y-113070350D03*
X120415950Y-114975350D03*
X139440950Y-113070350D03*
X139440950Y-114975350D03*
X158490950Y-113070350D03*
X158490950Y-114975350D03*
X177540950Y-113070350D03*
X177540950Y-114975350D03*
X196590950Y-113070350D03*
X196590950Y-114975350D03*
X215640950Y-113070350D03*
X215640950Y-114975350D03*
X234690950Y-113070350D03*
X234690950Y-114975350D03*
X253765950Y-113070350D03*
X253765950Y-114975350D03*
X272790950Y-113020350D03*
X272790950Y-114925350D03*
X291840950Y-113070350D03*
X291840950Y-114975350D03*
X322815950Y-113070350D03*
X322815950Y-114975350D03*
X358540950Y-113070350D03*
X358540950Y-114975350D03*
X377565950Y-113070350D03*
X377565950Y-114975350D03*
X83515950Y-134025350D03*
X83515950Y-132120350D03*
X114465950Y-134025350D03*
X114465950Y-132120350D03*
X133515950Y-134025350D03*
X133515950Y-132120350D03*
X152565950Y-134025350D03*
X152565950Y-132120350D03*
X171615950Y-134025350D03*
X171615950Y-132120350D03*
X190665950Y-134025350D03*
X190665950Y-132120350D03*
X209715950Y-134025350D03*
X209715950Y-132120350D03*
X228765950Y-134025350D03*
X228765950Y-132120350D03*
X247815950Y-134025350D03*
X247815950Y-132120350D03*
X266865950Y-134025350D03*
X266865950Y-132120350D03*
X285915950Y-134025350D03*
X285915950Y-132120350D03*
X321640950Y-134025350D03*
X321640950Y-132120350D03*
X362115950Y-134025350D03*
X362115950Y-132120350D03*
X381190950Y-134025350D03*
X381190950Y-132120350D03*
X70390950Y-151170350D03*
X70390950Y-153075350D03*
X94190950Y-151170350D03*
X94190950Y-153075350D03*
X118015950Y-151170350D03*
X118015950Y-153075350D03*
X189465950Y-151220350D03*
X189465950Y-153125350D03*
X260890950Y-151170350D03*
X260890950Y-153075350D03*
X284715950Y-151170350D03*
X284715950Y-153075350D03*
X308515950Y-151170350D03*
X308515950Y-153075350D03*
X339465950Y-151170350D03*
X339465950Y-153075350D03*
X358515950Y-151170350D03*
X358515950Y-153075350D03*
X377565950Y-151170350D03*
X377565950Y-153075350D03*
D17*
X83163450Y-81052850D03*
X85068450Y-81052850D03*
X124673450Y-81052850D03*
X126578450Y-81052850D03*
X166183450Y-81052850D03*
X168088450Y-81052850D03*
X249193450Y-81052850D03*
X251098450Y-81052850D03*
X290703450Y-81052850D03*
X292608450Y-81052850D03*
D12*
X331565950Y-81050350D03*
X331565950Y-82955350D03*
D17*
X373723450Y-81052850D03*
X375628450Y-81052850D03*
X75458450Y-98232850D03*
X73553450Y-98232850D03*
X116968450Y-98302850D03*
X115063450Y-98302850D03*
X158488450Y-98292850D03*
X156583450Y-98292850D03*
X199978450Y-98292850D03*
X198073450Y-98292850D03*
X241488450Y-98292850D03*
X239583450Y-98292850D03*
X282998450Y-98292850D03*
X281093450Y-98292850D03*
X323338450Y-98292850D03*
X321433450Y-98292850D03*
X366008450Y-98292850D03*
X364103450Y-98292850D03*
X83163450Y-119052850D03*
X85068450Y-119052850D03*
X124673450Y-119052850D03*
X126578450Y-119052850D03*
X166183450Y-119052850D03*
X168088450Y-119052850D03*
X207693450Y-119052850D03*
X209598450Y-119052850D03*
X249193450Y-119032850D03*
X251098450Y-119032850D03*
X290703450Y-119052850D03*
X292608450Y-119052850D03*
D12*
X328915950Y-120950350D03*
X328915950Y-122855350D03*
D17*
X373723450Y-119052850D03*
X375628450Y-119052850D03*
X75468450Y-136292850D03*
X73563450Y-136292850D03*
X116968450Y-136292850D03*
X115063450Y-136292850D03*
X158488450Y-136292850D03*
X156583450Y-136292850D03*
X199978450Y-136292850D03*
X198073450Y-136292850D03*
X241488450Y-136292850D03*
X239583450Y-136292850D03*
X282998450Y-136292850D03*
X281093450Y-136292850D03*
X323328450Y-136292850D03*
X321423450Y-136292850D03*
X366018450Y-136292850D03*
X364113450Y-136292850D03*
D31*
X355635950Y-64932850D03*
X358175950Y-64932850D03*
X360715950Y-64932850D03*
D18*
X362873750Y-103697500D03*
X356523750Y-106237500D03*
X362873750Y-65597500D03*
X356523750Y-68137500D03*
X148557550Y-65592850D03*
X142207550Y-68132850D03*
X186658350Y-65592850D03*
X180308350Y-68132850D03*
X100931550Y-84643250D03*
X94581550Y-87183250D03*
X162848750Y-103697500D03*
X156498750Y-106237500D03*
X239048750Y-103697500D03*
X232698750Y-106237500D03*
M02*
