M48
;DRILL file {KiCad 4.0.2-stable} date Mon 02 May 2016 10:51:55 AM CEST
;FORMAT={-:-/ absolute / inch / decimal}
FMAT,2
INCH,TZ
T1C0.035
T2C0.067
T3C0.120
T4C0.157
T5C0.157
%
G90
G05
M72
T1
X0.6299Y-0.1524
X0.8031Y-0.1524
T2
X0.1601Y-0.3622
X0.2539Y-3.3622
X0.2539Y-1.8622
X0.2539Y-2.6122
X0.3476Y-1.1122
X0.3476Y-3.3609
X0.4414Y-1.8622
X0.5601Y-0.3622
X0.6289Y-2.6122
X0.6539Y-3.3622
X0.6539Y-1.8622
X0.6539Y-2.6122
X0.7476Y-1.1122
X0.7476Y-3.3609
X0.8414Y-1.8622
X0.9101Y-0.3622
X1.0289Y-2.6122
X1.0976Y-2.6122
X1.1914Y-3.3622
X1.2851Y-1.1122
X1.2876Y-3.3609
X1.3101Y-0.3622
X1.4726Y-1.8622
X1.4726Y-3.3609
X1.4976Y-2.6122
X1.5914Y-3.3622
X1.6601Y-0.3622
X1.6851Y-1.1122
X1.6876Y-3.3609
X1.8476Y-2.6122
X1.8726Y-1.8622
X1.8726Y-3.3609
X2.0351Y-1.1122
X2.0601Y-0.3622
X2.1289Y-3.3622
X2.2226Y-1.8622
X2.2226Y-3.3609
X2.2476Y-2.6122
X2.4101Y-0.3622
X2.4351Y-1.1122
X2.5289Y-3.3622
X2.5976Y-2.6122
X2.6226Y-1.8622
X2.6226Y-3.3609
X2.7851Y-1.1122
X2.8101Y-0.3622
X2.9726Y-1.8622
X2.9976Y-2.6122
X3.1601Y-0.3622
X3.1851Y-1.1122
X3.3476Y-2.6122
X3.3726Y-1.8622
X3.5351Y-1.1122
X3.5601Y-0.3622
X3.7226Y-1.8622
X3.7476Y-2.6122
X3.9101Y-0.3622
X3.9351Y-1.1122
X4.0976Y-2.6122
X4.1226Y-1.8622
X4.2851Y-1.1122
X4.3101Y-0.3622
X4.4726Y-1.8622
X4.4976Y-2.6122
X4.6601Y-0.3622
X4.6601Y-3.3622
X4.6851Y-1.1122
X4.8476Y-2.6122
X4.8726Y-1.8622
X4.9414Y-3.3622
X5.0351Y-1.1122
X5.0601Y-0.3622
X5.0601Y-3.3622
X5.2226Y-1.8622
X5.2476Y-2.6122
X5.3414Y-3.3622
X5.4101Y-0.3622
X5.4101Y-3.3622
X5.4351Y-1.1122
X5.5976Y-2.6122
X5.6226Y-1.8622
X5.7851Y-1.1122
X5.8101Y-0.3622
X5.8101Y-3.3622
X5.9726Y-1.8622
X5.9976Y-2.6122
X6.1601Y-0.3622
X6.1851Y-1.1122
X6.3476Y-2.6122
X6.3726Y-1.8622
X6.5351Y-1.1122
X6.5601Y-0.3622
X6.7226Y-1.8622
X6.7476Y-2.6122
X6.9101Y-0.3622
X6.9351Y-1.1122
X7.0976Y-2.6122
X7.1226Y-1.8622
X7.2851Y-1.1122
X7.3101Y-0.3622
X7.4726Y-1.8622
X7.4976Y-2.6122
X7.6601Y-0.3622
X7.6851Y-1.1122
X7.7539Y-3.3622
X7.8476Y-2.6122
X7.8476Y-3.3622
X7.8726Y-1.8622
X8.0351Y-1.1122
X8.0601Y-0.3622
X8.1539Y-3.3622
X8.2226Y-1.8622
X8.2476Y-2.6122
X8.2476Y-3.3622
X8.4101Y-0.3622
X8.4351Y-1.1122
X8.5976Y-2.6122
X8.5976Y-3.3622
X8.6226Y-1.8622
X8.6914Y-3.3622
X8.7851Y-1.1122
X8.7851Y-3.3622
X8.8101Y-0.3622
X8.9726Y-1.8622
X8.9976Y-2.6122
X8.9976Y-3.3622
X9.0914Y-3.3622
X9.1601Y-0.3622
X9.1851Y-1.1122
X9.1851Y-3.3622
X9.3476Y-2.6122
X9.3726Y-1.8622
X9.5351Y-1.1122
X9.5351Y-3.3622
X9.5601Y-0.3622
X9.6289Y-2.6122
X9.6289Y-3.3622
X9.7226Y-1.8622
X9.7476Y-2.6122
X9.9101Y-0.3622
X9.9351Y-1.1122
X9.9351Y-3.3622
X10.0039Y-2.6122
X10.0289Y-2.6122
X10.0289Y-3.3622
X10.1226Y-1.8622
X10.1914Y-1.8622
X10.2851Y-0.3622
X10.3101Y-0.3622
X10.3789Y-2.6122
X10.4039Y-2.6122
X10.4726Y-1.1122
X10.4726Y-3.3622
X10.5664Y-1.8622
X10.5664Y-3.3622
X10.5914Y-1.8622
X10.6601Y-0.3622
X10.6601Y-2.6122
X10.6851Y-0.3622
X10.7664Y-1.2872
X10.7664Y-1.6872
X10.7789Y-2.6122
X10.8726Y-1.1122
X10.8726Y-3.3622
X10.9664Y-1.8622
X10.9664Y-3.3622
X11.0601Y-0.3622
X11.0601Y-2.6122
T3
X0.3601Y-2.3372
X1.2976Y-2.3372
X2.6101Y-3.6372
X3.1726Y-3.6372
X3.3601Y-3.6372
X7.1101Y-3.6372
X7.8601Y-3.6372
X9.7351Y-2.3372
X9.9226Y-1.5872
X10.0164Y-0.0872
X10.4914Y-1.0184
X10.4914Y-1.9559
X10.6726Y-2.3372
X10.8601Y-1.5872
X10.9539Y-0.0872
T4
X0.3601Y-0.3622
X0.4539Y-3.3622
X0.4539Y-1.8622
X0.4539Y-2.6122
X0.5476Y-1.1122
X0.5476Y-3.3609
X0.6414Y-1.8622
X0.8289Y-2.6122
X1.1101Y-0.3622
X1.2976Y-2.6122
X1.3914Y-3.3622
X1.4851Y-1.1122
X1.4876Y-3.3609
X1.6726Y-1.8622
X1.6726Y-3.3609
X1.8601Y-0.3622
X2.0476Y-2.6122
X2.2351Y-1.1122
X2.3289Y-3.3622
X2.4226Y-1.8622
X2.4226Y-3.3609
X2.6101Y-0.3622
X2.7976Y-2.6122
X2.9851Y-1.1122
X3.1726Y-1.8622
X3.3601Y-0.3622
X3.5476Y-2.6122
X3.7351Y-1.1122
X3.9226Y-1.8622
X4.1101Y-0.3622
X4.2976Y-2.6122
X4.4851Y-1.1122
X4.6726Y-1.8622
X4.8601Y-0.3622
X4.8601Y-3.3622
X5.0476Y-2.6122
X5.1414Y-3.3622
X5.2351Y-1.1122
X5.4226Y-1.8622
X5.6101Y-0.3622
X5.6101Y-3.3622
X5.7976Y-2.6122
X5.9851Y-1.1122
X6.1726Y-1.8622
X6.3601Y-0.3622
X6.5476Y-2.6122
X6.7351Y-1.1122
X6.9226Y-1.8622
X7.1101Y-0.3622
X7.2976Y-2.6122
X7.4851Y-1.1122
X7.6726Y-1.8622
X7.8601Y-0.3622
X7.9539Y-3.3622
X8.0476Y-2.6122
X8.0476Y-3.3622
X8.2351Y-1.1122
X8.4226Y-1.8622
X8.6101Y-0.3622
X8.7976Y-2.6122
X8.7976Y-3.3622
X8.8914Y-3.3622
X8.9851Y-1.1122
X8.9851Y-3.3622
X9.1726Y-1.8622
X9.3601Y-0.3622
X9.5476Y-2.6122
X9.7351Y-1.1122
X9.7351Y-3.3622
X9.8289Y-2.6122
X9.8289Y-3.3622
X9.9226Y-1.8622
X10.1101Y-0.3622
X10.2039Y-2.6122
X10.3914Y-1.8622
X10.4851Y-0.3622
X10.5789Y-2.6122
X10.6726Y-1.1122
X10.6726Y-3.3622
X10.7664Y-1.4872
X10.7664Y-1.8622
X10.7664Y-3.3622
X10.8601Y-0.3622
X10.8601Y-2.6122
T5
X0.3601Y-2.9372
X1.2976Y-2.9372
X2.6101Y-3.0372
X3.1726Y-3.0372
X3.3601Y-3.0372
X7.1101Y-3.0372
X7.8601Y-3.0372
X9.7351Y-2.9372
X9.9226Y-2.1872
X10.0164Y-0.6872
X10.6726Y-2.9372
X10.8601Y-2.1872
X10.9539Y-0.6872
X11.0914Y-1.0184
X11.0914Y-1.9559
T0
M30
