G04 #@! TF.FileFunction,Other,Fab,Top*
%FSLAX46Y46*%
G04 Gerber Fmt 4.6, Leading zero omitted, Abs format (unit mm)*
G04 Created by KiCad (PCBNEW 4.0.2-stable) date Mon 02 May 2016 10:51:51 AM CEST*
%MOMM*%
G01*
G04 APERTURE LIST*
%ADD10C,0.150000*%
%ADD11C,0.500000*%
%ADD12C,2.000000*%
G04 APERTURE END LIST*
D10*
D11*
X-1245714Y-105369524D02*
X-1245714Y-101369524D01*
X-1245714Y-102893333D02*
X-960000Y-102702857D01*
X-388571Y-102702857D01*
X-102857Y-102893333D01*
X40000Y-103083810D01*
X182857Y-103464762D01*
X182857Y-104607619D01*
X40000Y-104988571D01*
X-102857Y-105179048D01*
X-388571Y-105369524D01*
X-960000Y-105369524D01*
X-1245714Y-105179048D01*
X1897143Y-105369524D02*
X1611429Y-105179048D01*
X1468572Y-104988571D01*
X1325715Y-104607619D01*
X1325715Y-103464762D01*
X1468572Y-103083810D01*
X1611429Y-102893333D01*
X1897143Y-102702857D01*
X2325715Y-102702857D01*
X2611429Y-102893333D01*
X2754286Y-103083810D01*
X2897143Y-103464762D01*
X2897143Y-104607619D01*
X2754286Y-104988571D01*
X2611429Y-105179048D01*
X2325715Y-105369524D01*
X1897143Y-105369524D01*
X3754286Y-102702857D02*
X4897143Y-102702857D01*
X4182858Y-101369524D02*
X4182858Y-104798095D01*
X4325715Y-105179048D01*
X4611429Y-105369524D01*
X4897143Y-105369524D01*
X5468572Y-102702857D02*
X6611429Y-102702857D01*
X5897144Y-101369524D02*
X5897144Y-104798095D01*
X6040001Y-105179048D01*
X6325715Y-105369524D01*
X6611429Y-105369524D01*
X8040001Y-105369524D02*
X7754287Y-105179048D01*
X7611430Y-104988571D01*
X7468573Y-104607619D01*
X7468573Y-103464762D01*
X7611430Y-103083810D01*
X7754287Y-102893333D01*
X8040001Y-102702857D01*
X8468573Y-102702857D01*
X8754287Y-102893333D01*
X8897144Y-103083810D01*
X9040001Y-103464762D01*
X9040001Y-104607619D01*
X8897144Y-104988571D01*
X8754287Y-105179048D01*
X8468573Y-105369524D01*
X8040001Y-105369524D01*
X10325716Y-105369524D02*
X10325716Y-102702857D01*
X10325716Y-103083810D02*
X10468573Y-102893333D01*
X10754287Y-102702857D01*
X11182859Y-102702857D01*
X11468573Y-102893333D01*
X11611430Y-103274286D01*
X11611430Y-105369524D01*
X11611430Y-103274286D02*
X11754287Y-102893333D01*
X12040001Y-102702857D01*
X12468573Y-102702857D01*
X12754287Y-102893333D01*
X12897144Y-103274286D01*
X12897144Y-105369524D01*
X16611430Y-105369524D02*
X16611430Y-102702857D01*
X16611430Y-103464762D02*
X16754287Y-103083810D01*
X16897144Y-102893333D01*
X17182858Y-102702857D01*
X17468573Y-102702857D01*
X18897144Y-105369524D02*
X18611430Y-105179048D01*
X18468573Y-104988571D01*
X18325716Y-104607619D01*
X18325716Y-103464762D01*
X18468573Y-103083810D01*
X18611430Y-102893333D01*
X18897144Y-102702857D01*
X19325716Y-102702857D01*
X19611430Y-102893333D01*
X19754287Y-103083810D01*
X19897144Y-103464762D01*
X19897144Y-104607619D01*
X19754287Y-104988571D01*
X19611430Y-105179048D01*
X19325716Y-105369524D01*
X18897144Y-105369524D01*
X22468573Y-102702857D02*
X22468573Y-105369524D01*
X21182859Y-102702857D02*
X21182859Y-104798095D01*
X21325716Y-105179048D01*
X21611430Y-105369524D01*
X22040002Y-105369524D01*
X22325716Y-105179048D01*
X22468573Y-104988571D01*
X23468573Y-102702857D02*
X24611430Y-102702857D01*
X23897145Y-101369524D02*
X23897145Y-104798095D01*
X24040002Y-105179048D01*
X24325716Y-105369524D01*
X24611430Y-105369524D01*
X25611431Y-105369524D02*
X25611431Y-102702857D01*
X25611431Y-101369524D02*
X25468574Y-101560000D01*
X25611431Y-101750476D01*
X25754288Y-101560000D01*
X25611431Y-101369524D01*
X25611431Y-101750476D01*
X27040002Y-102702857D02*
X27040002Y-105369524D01*
X27040002Y-103083810D02*
X27182859Y-102893333D01*
X27468573Y-102702857D01*
X27897145Y-102702857D01*
X28182859Y-102893333D01*
X28325716Y-103274286D01*
X28325716Y-105369524D01*
X31040002Y-102702857D02*
X31040002Y-105940952D01*
X30897145Y-106321905D01*
X30754288Y-106512381D01*
X30468573Y-106702857D01*
X30040002Y-106702857D01*
X29754288Y-106512381D01*
X31040002Y-105179048D02*
X30754288Y-105369524D01*
X30182859Y-105369524D01*
X29897145Y-105179048D01*
X29754288Y-104988571D01*
X29611431Y-104607619D01*
X29611431Y-103464762D01*
X29754288Y-103083810D01*
X29897145Y-102893333D01*
X30182859Y-102702857D01*
X30754288Y-102702857D01*
X31040002Y-102893333D01*
X34754288Y-102702857D02*
X34754288Y-106702857D01*
X34754288Y-102893333D02*
X35040002Y-102702857D01*
X35611431Y-102702857D01*
X35897145Y-102893333D01*
X36040002Y-103083810D01*
X36182859Y-103464762D01*
X36182859Y-104607619D01*
X36040002Y-104988571D01*
X35897145Y-105179048D01*
X35611431Y-105369524D01*
X35040002Y-105369524D01*
X34754288Y-105179048D01*
X38754288Y-105369524D02*
X38754288Y-103274286D01*
X38611431Y-102893333D01*
X38325717Y-102702857D01*
X37754288Y-102702857D01*
X37468574Y-102893333D01*
X38754288Y-105179048D02*
X38468574Y-105369524D01*
X37754288Y-105369524D01*
X37468574Y-105179048D01*
X37325717Y-104798095D01*
X37325717Y-104417143D01*
X37468574Y-104036190D01*
X37754288Y-103845714D01*
X38468574Y-103845714D01*
X38754288Y-103655238D01*
X39754288Y-102702857D02*
X40897145Y-102702857D01*
X40182860Y-101369524D02*
X40182860Y-104798095D01*
X40325717Y-105179048D01*
X40611431Y-105369524D01*
X40897145Y-105369524D01*
X41897146Y-105369524D02*
X41897146Y-101369524D01*
X43182860Y-105369524D02*
X43182860Y-103274286D01*
X43040003Y-102893333D01*
X42754289Y-102702857D01*
X42325717Y-102702857D01*
X42040003Y-102893333D01*
X41897146Y-103083810D01*
X48897146Y-101369524D02*
X46611431Y-105369524D01*
X47468574Y-105369524D02*
X47182860Y-105179048D01*
X46897146Y-104798095D01*
X46754289Y-104036190D01*
X46754289Y-102702857D01*
X46897146Y-101940952D01*
X47182860Y-101560000D01*
X47468574Y-101369524D01*
X48040003Y-101369524D01*
X48325717Y-101560000D01*
X48611431Y-101940952D01*
X48754289Y-102702857D01*
X48754289Y-104036190D01*
X48611431Y-104798095D01*
X48325717Y-105179048D01*
X48040003Y-105369524D01*
X47468574Y-105369524D01*
X52182860Y-101750476D02*
X52325717Y-101560000D01*
X52611431Y-101369524D01*
X53325717Y-101369524D01*
X53611431Y-101560000D01*
X53754288Y-101750476D01*
X53897145Y-102131429D01*
X53897145Y-102512381D01*
X53754288Y-103083810D01*
X52040002Y-105369524D01*
X53897145Y-105369524D01*
X55182860Y-105369524D02*
X55182860Y-102702857D01*
X55182860Y-103083810D02*
X55325717Y-102893333D01*
X55611431Y-102702857D01*
X56040003Y-102702857D01*
X56325717Y-102893333D01*
X56468574Y-103274286D01*
X56468574Y-105369524D01*
X56468574Y-103274286D02*
X56611431Y-102893333D01*
X56897145Y-102702857D01*
X57325717Y-102702857D01*
X57611431Y-102893333D01*
X57754288Y-103274286D01*
X57754288Y-105369524D01*
X59182860Y-105369524D02*
X59182860Y-102702857D01*
X59182860Y-103083810D02*
X59325717Y-102893333D01*
X59611431Y-102702857D01*
X60040003Y-102702857D01*
X60325717Y-102893333D01*
X60468574Y-103274286D01*
X60468574Y-105369524D01*
X60468574Y-103274286D02*
X60611431Y-102893333D01*
X60897145Y-102702857D01*
X61325717Y-102702857D01*
X61611431Y-102893333D01*
X61754288Y-103274286D01*
X61754288Y-105369524D01*
X-1934286Y9837143D02*
X-791429Y9837143D01*
X-1505714Y11170476D02*
X-1505714Y7741905D01*
X-1362857Y7360952D01*
X-1077143Y7170476D01*
X-791429Y7170476D01*
X637143Y7170476D02*
X351429Y7360952D01*
X208572Y7551429D01*
X65715Y7932381D01*
X65715Y9075238D01*
X208572Y9456190D01*
X351429Y9646667D01*
X637143Y9837143D01*
X1065715Y9837143D01*
X1351429Y9646667D01*
X1494286Y9456190D01*
X1637143Y9075238D01*
X1637143Y7932381D01*
X1494286Y7551429D01*
X1351429Y7360952D01*
X1065715Y7170476D01*
X637143Y7170476D01*
X2922858Y9837143D02*
X2922858Y5837143D01*
X2922858Y9646667D02*
X3208572Y9837143D01*
X3780001Y9837143D01*
X4065715Y9646667D01*
X4208572Y9456190D01*
X4351429Y9075238D01*
X4351429Y7932381D01*
X4208572Y7551429D01*
X4065715Y7360952D01*
X3780001Y7170476D01*
X3208572Y7170476D01*
X2922858Y7360952D01*
X7922858Y7170476D02*
X7922858Y9837143D01*
X7922858Y9075238D02*
X8065715Y9456190D01*
X8208572Y9646667D01*
X8494286Y9837143D01*
X8780001Y9837143D01*
X10208572Y7170476D02*
X9922858Y7360952D01*
X9780001Y7551429D01*
X9637144Y7932381D01*
X9637144Y9075238D01*
X9780001Y9456190D01*
X9922858Y9646667D01*
X10208572Y9837143D01*
X10637144Y9837143D01*
X10922858Y9646667D01*
X11065715Y9456190D01*
X11208572Y9075238D01*
X11208572Y7932381D01*
X11065715Y7551429D01*
X10922858Y7360952D01*
X10637144Y7170476D01*
X10208572Y7170476D01*
X13780001Y9837143D02*
X13780001Y7170476D01*
X12494287Y9837143D02*
X12494287Y7741905D01*
X12637144Y7360952D01*
X12922858Y7170476D01*
X13351430Y7170476D01*
X13637144Y7360952D01*
X13780001Y7551429D01*
X14780001Y9837143D02*
X15922858Y9837143D01*
X15208573Y11170476D02*
X15208573Y7741905D01*
X15351430Y7360952D01*
X15637144Y7170476D01*
X15922858Y7170476D01*
X16922859Y7170476D02*
X16922859Y9837143D01*
X16922859Y11170476D02*
X16780002Y10980000D01*
X16922859Y10789524D01*
X17065716Y10980000D01*
X16922859Y11170476D01*
X16922859Y10789524D01*
X18351430Y9837143D02*
X18351430Y7170476D01*
X18351430Y9456190D02*
X18494287Y9646667D01*
X18780001Y9837143D01*
X19208573Y9837143D01*
X19494287Y9646667D01*
X19637144Y9265714D01*
X19637144Y7170476D01*
X22351430Y9837143D02*
X22351430Y6599048D01*
X22208573Y6218095D01*
X22065716Y6027619D01*
X21780001Y5837143D01*
X21351430Y5837143D01*
X21065716Y6027619D01*
X22351430Y7360952D02*
X22065716Y7170476D01*
X21494287Y7170476D01*
X21208573Y7360952D01*
X21065716Y7551429D01*
X20922859Y7932381D01*
X20922859Y9075238D01*
X21065716Y9456190D01*
X21208573Y9646667D01*
X21494287Y9837143D01*
X22065716Y9837143D01*
X22351430Y9646667D01*
X26065716Y9837143D02*
X26065716Y5837143D01*
X26065716Y9646667D02*
X26351430Y9837143D01*
X26922859Y9837143D01*
X27208573Y9646667D01*
X27351430Y9456190D01*
X27494287Y9075238D01*
X27494287Y7932381D01*
X27351430Y7551429D01*
X27208573Y7360952D01*
X26922859Y7170476D01*
X26351430Y7170476D01*
X26065716Y7360952D01*
X30065716Y7170476D02*
X30065716Y9265714D01*
X29922859Y9646667D01*
X29637145Y9837143D01*
X29065716Y9837143D01*
X28780002Y9646667D01*
X30065716Y7360952D02*
X29780002Y7170476D01*
X29065716Y7170476D01*
X28780002Y7360952D01*
X28637145Y7741905D01*
X28637145Y8122857D01*
X28780002Y8503810D01*
X29065716Y8694286D01*
X29780002Y8694286D01*
X30065716Y8884762D01*
X31065716Y9837143D02*
X32208573Y9837143D01*
X31494288Y11170476D02*
X31494288Y7741905D01*
X31637145Y7360952D01*
X31922859Y7170476D01*
X32208573Y7170476D01*
X33208574Y7170476D02*
X33208574Y11170476D01*
X34494288Y7170476D02*
X34494288Y9265714D01*
X34351431Y9646667D01*
X34065717Y9837143D01*
X33637145Y9837143D01*
X33351431Y9646667D01*
X33208574Y9456190D01*
X40208574Y11170476D02*
X37922859Y7170476D01*
X38780002Y7170476D02*
X38494288Y7360952D01*
X38208574Y7741905D01*
X38065717Y8503810D01*
X38065717Y9837143D01*
X38208574Y10599048D01*
X38494288Y10980000D01*
X38780002Y11170476D01*
X39351431Y11170476D01*
X39637145Y10980000D01*
X39922859Y10599048D01*
X40065717Y9837143D01*
X40065717Y8503810D01*
X39922859Y7741905D01*
X39637145Y7360952D01*
X39351431Y7170476D01*
X38780002Y7170476D01*
X43494288Y10789524D02*
X43637145Y10980000D01*
X43922859Y11170476D01*
X44637145Y11170476D01*
X44922859Y10980000D01*
X45065716Y10789524D01*
X45208573Y10408571D01*
X45208573Y10027619D01*
X45065716Y9456190D01*
X43351430Y7170476D01*
X45208573Y7170476D01*
X46494288Y7170476D02*
X46494288Y9837143D01*
X46494288Y9456190D02*
X46637145Y9646667D01*
X46922859Y9837143D01*
X47351431Y9837143D01*
X47637145Y9646667D01*
X47780002Y9265714D01*
X47780002Y7170476D01*
X47780002Y9265714D02*
X47922859Y9646667D01*
X48208573Y9837143D01*
X48637145Y9837143D01*
X48922859Y9646667D01*
X49065716Y9265714D01*
X49065716Y7170476D01*
X50494288Y7170476D02*
X50494288Y9837143D01*
X50494288Y9456190D02*
X50637145Y9646667D01*
X50922859Y9837143D01*
X51351431Y9837143D01*
X51637145Y9646667D01*
X51780002Y9265714D01*
X51780002Y7170476D01*
X51780002Y9265714D02*
X51922859Y9646667D01*
X52208573Y9837143D01*
X52637145Y9837143D01*
X52922859Y9646667D01*
X53065716Y9265714D01*
X53065716Y7170476D01*
D12*
X-1000000Y-92600000D02*
G75*
G03X2000000Y-95600000I3000000J0D01*
G01*
X283000000Y-95600000D02*
X2000000Y-95600000D01*
X283000000Y-95600000D02*
G75*
G03X286000000Y-92600000I0J3000000D01*
G01*
X286000000Y-2000000D02*
G75*
G03X283000000Y1000000I-3000000J0D01*
G01*
X2000000Y1000000D02*
G75*
G03X-1000000Y-2000000I0J-3000000D01*
G01*
X283000000Y1000000D02*
X2000000Y1000000D01*
M02*
