G04 #@! TF.FileFunction,Soldermask,Top*
%FSLAX46Y46*%
G04 Gerber Fmt 4.6, Leading zero omitted, Abs format (unit mm)*
G04 Created by KiCad (PCBNEW 4.0.2-stable) date Mon 02 May 2016 10:51:51 AM CEST*
%MOMM*%
G01*
G04 APERTURE LIST*
%ADD10C,0.150000*%
%ADD11C,2.203200*%
%ADD12C,1.803400*%
%ADD13C,2.003200*%
%ADD14C,3.251200*%
%ADD15C,4.183400*%
%ADD16C,4.183380*%
%ADD17C,2.702560*%
%ADD18C,1.902460*%
%ADD19C,1.103200*%
%ADD20O,10.203180X5.204460*%
%ADD21C,7.203440*%
%ADD22C,7.204500*%
%ADD23C,1.803200*%
G04 APERTURE END LIST*
D10*
D11*
X272037500Y-71428750D03*
X279657500Y-71428750D03*
X253463750Y-71428750D03*
X238700000Y-71428750D03*
X246090000Y-71428750D03*
X232032500Y-90478750D03*
X219650000Y-90478750D03*
X134401250Y-90478750D03*
X119637500Y-90478750D03*
X127027500Y-90478750D03*
X46295000Y-90478750D03*
X31531250Y-90478750D03*
D12*
X57883750Y-90478750D03*
X60343750Y-90478750D03*
X34071250Y-90478750D03*
X36531250Y-90478750D03*
X62805000Y-90478750D03*
X38992500Y-90478750D03*
X10258750Y-90478750D03*
X12718750Y-90478750D03*
X15180000Y-90478750D03*
X200758750Y-90478750D03*
X203218750Y-90478750D03*
X205680000Y-90478750D03*
D11*
X224621250Y-90478750D03*
X227061250Y-90478750D03*
X222190000Y-90478750D03*
X229492500Y-90478750D03*
D12*
X248463750Y-90478750D03*
X250923750Y-90478750D03*
X246002500Y-90478750D03*
X272276250Y-90478750D03*
X274736250Y-90478750D03*
X269815000Y-90478750D03*
X20102520Y-52380020D03*
X41215000Y-90478750D03*
X43755000Y-90478750D03*
D13*
X94936000Y-6500000D03*
X94936000Y-9040000D03*
X94936000Y-11580000D03*
X94936000Y-3960000D03*
X113986000Y-14120000D03*
X113986000Y-11580000D03*
X113986000Y-3960000D03*
X94936000Y-14120000D03*
X133036000Y-6500000D03*
X133036000Y-14120000D03*
X133036000Y-11580000D03*
X133036000Y-9040000D03*
X152086000Y-3960000D03*
X152086000Y-9040000D03*
X152086000Y-6500000D03*
X152086000Y-11580000D03*
X133036000Y-3960000D03*
X76140000Y-89050000D03*
X76140000Y-91590000D03*
X283150000Y-42060000D03*
X283150000Y-39520000D03*
X283150000Y-36980000D03*
X283150000Y-34440000D03*
X283150000Y-31900000D03*
X71060000Y-91590000D03*
X71060000Y-89050000D03*
X73600000Y-91590000D03*
X73600000Y-89050000D03*
X162500000Y-91590000D03*
X157420000Y-91590000D03*
X152340000Y-91590000D03*
X159960000Y-91590000D03*
X154880000Y-91590000D03*
X165040000Y-91590000D03*
X113986000Y-6500000D03*
X113986000Y-9040000D03*
X171136000Y-14120000D03*
X171136000Y-3960000D03*
X171136000Y-9040000D03*
X171136000Y-11580000D03*
X171136000Y-6500000D03*
X152086000Y-14120000D03*
D12*
X272196250Y-52378750D03*
X274736250Y-52378750D03*
X268386250Y-36503750D03*
X268386250Y-39043750D03*
X265052500Y-14278750D03*
X267592500Y-14278750D03*
X10258750Y-71428750D03*
X12798750Y-71428750D03*
X10260020Y-52380020D03*
X12800020Y-52380020D03*
X15022520Y-52380020D03*
X17562520Y-52380020D03*
X41215000Y-52378750D03*
X43755000Y-52378750D03*
X60265000Y-52378750D03*
X62805000Y-52378750D03*
X79315000Y-52378750D03*
X81855000Y-52378750D03*
X55502500Y-33328750D03*
X58042500Y-33328750D03*
X274577500Y-71428750D03*
X277117500Y-71428750D03*
X248383750Y-71428750D03*
X250923750Y-71428750D03*
X241240000Y-71428750D03*
X243780000Y-71428750D03*
X257908750Y-71428750D03*
X260448750Y-71428750D03*
X212665000Y-52378750D03*
X215205000Y-52378750D03*
X50740000Y-71428750D03*
X53280000Y-71428750D03*
X31690000Y-71428750D03*
X34230000Y-71428750D03*
X19783750Y-71428750D03*
X22323750Y-71428750D03*
X145990000Y-71428750D03*
X148530000Y-71428750D03*
X126940000Y-71428750D03*
X129480000Y-71428750D03*
X107890000Y-71428750D03*
X110430000Y-71428750D03*
X88840000Y-71428750D03*
X91380000Y-71428750D03*
X231715000Y-52378750D03*
X234255000Y-52378750D03*
X69790000Y-71428750D03*
X72330000Y-71428750D03*
X193615000Y-52378750D03*
X196155000Y-52378750D03*
X174565000Y-52378750D03*
X177105000Y-52378750D03*
X262671250Y-52378750D03*
X265211250Y-52378750D03*
X250765000Y-52378750D03*
X253305000Y-52378750D03*
X165040000Y-71428750D03*
X167580000Y-71428750D03*
X184090000Y-71428750D03*
X186630000Y-71428750D03*
X203140000Y-71428750D03*
X205680000Y-71428750D03*
X222190000Y-71428750D03*
X224730000Y-71428750D03*
X277117500Y-4118750D03*
X274577500Y-4118750D03*
X129321250Y-90478750D03*
X131861250Y-90478750D03*
X236477500Y-14278750D03*
X239017500Y-14278750D03*
X112652500Y-33328750D03*
X115192500Y-33328750D03*
X93602500Y-33328750D03*
X96142500Y-33328750D03*
X217427500Y-14278750D03*
X219967500Y-14278750D03*
X198377500Y-14278750D03*
X200917500Y-14278750D03*
X179327500Y-14278750D03*
X181867500Y-14278750D03*
X160277500Y-14278750D03*
X162817500Y-14278750D03*
X255527500Y-14278750D03*
X258067500Y-14278750D03*
X131702500Y-33328750D03*
X134242500Y-33328750D03*
X65027500Y-14278750D03*
X67567500Y-14278750D03*
X45977500Y-14278750D03*
X48517500Y-14278750D03*
X29467500Y-4118750D03*
X26927500Y-4118750D03*
X141227500Y-14278750D03*
X143767500Y-14278750D03*
X122177500Y-14278750D03*
X124717500Y-14278750D03*
X103127500Y-14278750D03*
X105667500Y-14278750D03*
X84077500Y-14278750D03*
X86617500Y-14278750D03*
X150752500Y-33328750D03*
X153292500Y-33328750D03*
X12640000Y-33328750D03*
X15180000Y-33328750D03*
X36452500Y-33328750D03*
X38992500Y-33328750D03*
X74552500Y-33328750D03*
X77092500Y-33328750D03*
X246002500Y-33328750D03*
X248542500Y-33328750D03*
X272355000Y-23168750D03*
X269815000Y-23168750D03*
X169802500Y-33328750D03*
X172342500Y-33328750D03*
X188852500Y-33328750D03*
X191392500Y-33328750D03*
X207902500Y-33328750D03*
X210442500Y-33328750D03*
X226952500Y-33328750D03*
X229492500Y-33328750D03*
X98365000Y-52378750D03*
X100905000Y-52378750D03*
X117415000Y-52378750D03*
X119955000Y-52378750D03*
X136465000Y-52378750D03*
X139005000Y-52378750D03*
X155515000Y-52378750D03*
X158055000Y-52378750D03*
X141227500Y-90478750D03*
X143767500Y-90478750D03*
X122177500Y-90478750D03*
X124717500Y-90478750D03*
X267433750Y-71428750D03*
X269973750Y-71428750D03*
D14*
X278230020Y-2215020D03*
D15*
X278230020Y-17455020D03*
D14*
X9147500Y-59365020D03*
D15*
X9147500Y-74605020D03*
D14*
X32960000Y-59365020D03*
D15*
X32960000Y-74605020D03*
D14*
X247272500Y-59365020D03*
D15*
X247272500Y-74605020D03*
D14*
X275847500Y-40313750D03*
D15*
X275847500Y-55553750D03*
D14*
X252035000Y-40315020D03*
D15*
X252035000Y-55555020D03*
D14*
X266482520Y-25867500D03*
D15*
X281722520Y-25867500D03*
D14*
X266482520Y-49680000D03*
D15*
X281722520Y-49680000D03*
D14*
X254417520Y-2215020D03*
D15*
X254417520Y-17455020D03*
D14*
X180597500Y-92385020D03*
D15*
X180597500Y-77145020D03*
D14*
X80585000Y-92385020D03*
D15*
X80585000Y-77145020D03*
D14*
X66297500Y-92385020D03*
D15*
X66297500Y-77145020D03*
D14*
X85347500Y-92385020D03*
D15*
X85347500Y-77145020D03*
D14*
X199647500Y-92385020D03*
D15*
X199647500Y-77145020D03*
D14*
X271085000Y-59363750D03*
D15*
X271085000Y-74603750D03*
D16*
X16292520Y-47300020D03*
D17*
X18832520Y-42220020D03*
X12482520Y-44760020D03*
D18*
X11212520Y-47300020D03*
X21372520Y-47300020D03*
D16*
X199647500Y-9200020D03*
D17*
X202187500Y-4120020D03*
X195837500Y-6660020D03*
D18*
X194567500Y-9200020D03*
X204727500Y-9200020D03*
D16*
X94872500Y-28250020D03*
D17*
X97412500Y-23170020D03*
X91062500Y-25710020D03*
D18*
X89792500Y-28250020D03*
X99952500Y-28250020D03*
D16*
X113922500Y-28250020D03*
D17*
X116462500Y-23170020D03*
X110112500Y-25710020D03*
D18*
X108842500Y-28250020D03*
X119002500Y-28250020D03*
D16*
X152022500Y-28250020D03*
D17*
X154562500Y-23170020D03*
X148212500Y-25710020D03*
D18*
X146942500Y-28250020D03*
X157102500Y-28250020D03*
D16*
X171072500Y-28250020D03*
D17*
X173612500Y-23170020D03*
X167262500Y-25710020D03*
D18*
X165992500Y-28250020D03*
X176152500Y-28250020D03*
D16*
X190122500Y-28250020D03*
D17*
X192662500Y-23170020D03*
X186312500Y-25710020D03*
D18*
X185042500Y-28250020D03*
X195202500Y-28250020D03*
D16*
X209172500Y-28250020D03*
D17*
X211712500Y-23170020D03*
X205362500Y-25710020D03*
D18*
X204092500Y-28250020D03*
X214252500Y-28250020D03*
D16*
X228222500Y-28250020D03*
D17*
X230762500Y-23170020D03*
X224412500Y-25710020D03*
D18*
X223142500Y-28250020D03*
X233302500Y-28250020D03*
D16*
X271085000Y-28248750D03*
D17*
X268545000Y-33328750D03*
X274895000Y-30788750D03*
D18*
X276165000Y-28248750D03*
X266005000Y-28248750D03*
D16*
X42485000Y-47300020D03*
D17*
X45025000Y-42220020D03*
X38675000Y-44760020D03*
D18*
X37405000Y-47300020D03*
X47565000Y-47300020D03*
D16*
X61535000Y-47300020D03*
D17*
X64075000Y-42220020D03*
X57725000Y-44760020D03*
D18*
X56455000Y-47300020D03*
X66615000Y-47300020D03*
D16*
X80585000Y-47300020D03*
D17*
X83125000Y-42220020D03*
X76775000Y-44760020D03*
D18*
X75505000Y-47300020D03*
X85665000Y-47300020D03*
D16*
X99635000Y-47300020D03*
D17*
X102175000Y-42220020D03*
X95825000Y-44760020D03*
D18*
X94555000Y-47300020D03*
X104715000Y-47300020D03*
D16*
X118685000Y-47300020D03*
D17*
X121225000Y-42220020D03*
X114875000Y-44760020D03*
D18*
X113605000Y-47300020D03*
X123765000Y-47300020D03*
D16*
X137735000Y-47300020D03*
D17*
X140275000Y-42220020D03*
X133925000Y-44760020D03*
D18*
X132655000Y-47300020D03*
X142815000Y-47300020D03*
D16*
X156785000Y-47300020D03*
D17*
X159325000Y-42220020D03*
X152975000Y-44760020D03*
D18*
X151705000Y-47300020D03*
X161865000Y-47300020D03*
D16*
X47247500Y-9200020D03*
D17*
X49787500Y-4120020D03*
X43437500Y-6660020D03*
D18*
X42167500Y-9200020D03*
X52327500Y-9200020D03*
D16*
X66297500Y-9200020D03*
D17*
X68837500Y-4120020D03*
X62487500Y-6660020D03*
D18*
X61217500Y-9200020D03*
X71377500Y-9200020D03*
D16*
X104397500Y-9200020D03*
D17*
X106937500Y-4120020D03*
X100587500Y-6660020D03*
D18*
X99317500Y-9200020D03*
X109477500Y-9200020D03*
D16*
X123447500Y-9200020D03*
D17*
X125987500Y-4120020D03*
X119637500Y-6660020D03*
D18*
X118367500Y-9200020D03*
X128527500Y-9200020D03*
D16*
X142497500Y-9200020D03*
D17*
X145037500Y-4120020D03*
X138687500Y-6660020D03*
D18*
X137417500Y-9200020D03*
X147577500Y-9200020D03*
D16*
X161547500Y-9200020D03*
D17*
X164087500Y-4120020D03*
X157737500Y-6660020D03*
D18*
X156467500Y-9200020D03*
X166627500Y-9200020D03*
D16*
X218697500Y-9200020D03*
D17*
X221237500Y-4120020D03*
X214887500Y-6660020D03*
D18*
X213617500Y-9200020D03*
X223777500Y-9200020D03*
D16*
X237747500Y-9200020D03*
D17*
X240287500Y-4120020D03*
X233937500Y-6660020D03*
D18*
X232667500Y-9200020D03*
X242827500Y-9200020D03*
D16*
X266322500Y-9200020D03*
D17*
X268862500Y-4120020D03*
X262512500Y-6660020D03*
D18*
X261242500Y-9200020D03*
X271402500Y-9200020D03*
D16*
X13910000Y-28250020D03*
D17*
X16450000Y-23170020D03*
X10100000Y-25710020D03*
D18*
X8830000Y-28250020D03*
X18990000Y-28250020D03*
D16*
X37722500Y-28250020D03*
D17*
X40262500Y-23170020D03*
X33912500Y-25710020D03*
D18*
X32642500Y-28250020D03*
X42802500Y-28250020D03*
D16*
X56772500Y-28250020D03*
D17*
X59312500Y-23170020D03*
X52962500Y-25710020D03*
D18*
X51692500Y-28250020D03*
X61852500Y-28250020D03*
D16*
X75822500Y-28250020D03*
D17*
X78362500Y-23170020D03*
X72012500Y-25710020D03*
D18*
X70742500Y-28250020D03*
X80902500Y-28250020D03*
D16*
X259180020Y-66350020D03*
D17*
X261720020Y-61270020D03*
X255370020Y-63810020D03*
D18*
X254100020Y-66350020D03*
X264260020Y-66350020D03*
D16*
X11528750Y-85398750D03*
D17*
X14068750Y-80318750D03*
X7718750Y-82858750D03*
D18*
X6448750Y-85398750D03*
X16608750Y-85398750D03*
D16*
X59153750Y-85398750D03*
D17*
X61693750Y-80318750D03*
X55343750Y-82858750D03*
D18*
X54073750Y-85398750D03*
X64233750Y-85398750D03*
D16*
X130591250Y-85398750D03*
D17*
X133131250Y-80318750D03*
X126781250Y-82858750D03*
D18*
X125511250Y-85398750D03*
X135671250Y-85398750D03*
D16*
X202028750Y-85398750D03*
D17*
X204568750Y-80318750D03*
X198218750Y-82858750D03*
D18*
X196948750Y-85398750D03*
X207108750Y-85398750D03*
D16*
X225841250Y-85398750D03*
D17*
X228381250Y-80318750D03*
X222031250Y-82858750D03*
D18*
X220761250Y-85398750D03*
X230921250Y-85398750D03*
D16*
X249653750Y-85398750D03*
D17*
X252193750Y-80318750D03*
X245843750Y-82858750D03*
D18*
X244573750Y-85398750D03*
X254733750Y-85398750D03*
D16*
X273466250Y-85398750D03*
D17*
X276006250Y-80318750D03*
X269656250Y-82858750D03*
D18*
X268386250Y-85398750D03*
X278546250Y-85398750D03*
D16*
X175835000Y-47300020D03*
D17*
X178375000Y-42220020D03*
X172025000Y-44760020D03*
D18*
X170755000Y-47300020D03*
X180915000Y-47300020D03*
D16*
X194885000Y-47300020D03*
D17*
X197425000Y-42220020D03*
X191075000Y-44760020D03*
D18*
X189805000Y-47300020D03*
X199965000Y-47300020D03*
D16*
X232985000Y-47300020D03*
D17*
X235525000Y-42220020D03*
X229175000Y-44760020D03*
D18*
X227905000Y-47300020D03*
X238065000Y-47300020D03*
D16*
X263941250Y-47298750D03*
D17*
X266481250Y-42218750D03*
X260131250Y-44758750D03*
D18*
X258861250Y-47298750D03*
X269021250Y-47298750D03*
D16*
X21053750Y-66348750D03*
D17*
X23593750Y-61268750D03*
X17243750Y-63808750D03*
D18*
X15973750Y-66348750D03*
X26133750Y-66348750D03*
D16*
X52010000Y-66350020D03*
D17*
X54550000Y-61270020D03*
X48200000Y-63810020D03*
D18*
X46930000Y-66350020D03*
X57090000Y-66350020D03*
D16*
X71060000Y-66350020D03*
D17*
X73600000Y-61270020D03*
X67250000Y-63810020D03*
D18*
X65980000Y-66350020D03*
X76140000Y-66350020D03*
D16*
X109160000Y-66350020D03*
D17*
X111700000Y-61270020D03*
X105350000Y-63810020D03*
D18*
X104080000Y-66350020D03*
X114240000Y-66350020D03*
D16*
X128210000Y-66350020D03*
D17*
X130750000Y-61270020D03*
X124400000Y-63810020D03*
D18*
X123130000Y-66350020D03*
X133290000Y-66350020D03*
D16*
X147260000Y-66350020D03*
D17*
X149800000Y-61270020D03*
X143450000Y-63810020D03*
D18*
X142180000Y-66350020D03*
X152340000Y-66350020D03*
D16*
X166310000Y-66350020D03*
D17*
X168850000Y-61270020D03*
X162500000Y-63810020D03*
D18*
X161230000Y-66350020D03*
X171390000Y-66350020D03*
D16*
X185360000Y-66350020D03*
D17*
X187900000Y-61270020D03*
X181550000Y-63810020D03*
D18*
X180280000Y-66350020D03*
X190440000Y-66350020D03*
D16*
X204410000Y-66350020D03*
D17*
X206950000Y-61270020D03*
X200600000Y-63810020D03*
D18*
X199330000Y-66350020D03*
X209490000Y-66350020D03*
D16*
X223460000Y-66350020D03*
D17*
X226000000Y-61270020D03*
X219650000Y-63810020D03*
D18*
X218380000Y-66350020D03*
X228540000Y-66350020D03*
D16*
X35341250Y-85398750D03*
D17*
X37881250Y-80318750D03*
X31531250Y-82858750D03*
D18*
X30261250Y-85398750D03*
X40421250Y-85398750D03*
D16*
X90110000Y-66350020D03*
D17*
X92650000Y-61270020D03*
X86300000Y-63810020D03*
D18*
X85030000Y-66350020D03*
X95190000Y-66350020D03*
D16*
X85347500Y-9200020D03*
D17*
X87887500Y-4120020D03*
X81537500Y-6660020D03*
D18*
X80267500Y-9200020D03*
X90427500Y-9200020D03*
D16*
X180597500Y-9200020D03*
D17*
X183137500Y-4120020D03*
X176787500Y-6660020D03*
D18*
X175517500Y-9200020D03*
X185677500Y-9200020D03*
D16*
X247272500Y-28250020D03*
D17*
X249812500Y-23170020D03*
X243462500Y-25710020D03*
D18*
X242192500Y-28250020D03*
X252352500Y-28250020D03*
D16*
X132972500Y-28250020D03*
D17*
X135512500Y-23170020D03*
X129162500Y-25710020D03*
D18*
X127892500Y-28250020D03*
X138052500Y-28250020D03*
D16*
X213935000Y-47300020D03*
D17*
X216475000Y-42220020D03*
X210125000Y-44760020D03*
D18*
X208855000Y-47300020D03*
X219015000Y-47300020D03*
D12*
X10417500Y-4118750D03*
X7877500Y-4118750D03*
D16*
X273466250Y-47298750D03*
D17*
X276006250Y-42218750D03*
X269656250Y-44758750D03*
D18*
X268386250Y-47298750D03*
X278546250Y-47298750D03*
D16*
X223460000Y-85398750D03*
D17*
X226000000Y-80318750D03*
X219650000Y-82858750D03*
D18*
X218380000Y-85398750D03*
X228540000Y-85398750D03*
D16*
X32960000Y-66350020D03*
D17*
X35500000Y-61270020D03*
X29150000Y-63810020D03*
D18*
X27880000Y-66350020D03*
X38040000Y-66350020D03*
D16*
X275847500Y-66348750D03*
D17*
X278387500Y-61268750D03*
X272037500Y-63808750D03*
D18*
X270767500Y-66348750D03*
X280927500Y-66348750D03*
D16*
X13910000Y-85367000D03*
D17*
X16450000Y-80287000D03*
X10100000Y-82827000D03*
D18*
X8830000Y-85367000D03*
X18990000Y-85367000D03*
D16*
X42485000Y-85367000D03*
D17*
X45025000Y-80287000D03*
X38675000Y-82827000D03*
D18*
X37405000Y-85367000D03*
X47565000Y-85367000D03*
D16*
X37786000Y-85367000D03*
D17*
X40326000Y-80287000D03*
X33976000Y-82827000D03*
D18*
X32706000Y-85367000D03*
X42866000Y-85367000D03*
D16*
X204410000Y-85398750D03*
D17*
X206950000Y-80318750D03*
X200600000Y-82858750D03*
D18*
X199330000Y-85398750D03*
X209490000Y-85398750D03*
D16*
X228222500Y-85398750D03*
D17*
X230762500Y-80318750D03*
X224412500Y-82858750D03*
D18*
X223142500Y-85398750D03*
X233302500Y-85398750D03*
D16*
X61535000Y-85367000D03*
D17*
X64075000Y-80287000D03*
X57725000Y-82827000D03*
D18*
X56455000Y-85367000D03*
X66615000Y-85367000D03*
D16*
X247272500Y-85398750D03*
D17*
X249812500Y-80318750D03*
X243462500Y-82858750D03*
D18*
X242192500Y-85398750D03*
X252352500Y-85398750D03*
D16*
X271085000Y-85398750D03*
D17*
X273625000Y-80318750D03*
X267275000Y-82858750D03*
D18*
X266005000Y-85398750D03*
X276165000Y-85398750D03*
D16*
X142497500Y-85400020D03*
D17*
X145037500Y-80320020D03*
X138687500Y-82860020D03*
D18*
X137417500Y-85400020D03*
X147577500Y-85400020D03*
D16*
X123447500Y-85398750D03*
D17*
X125987500Y-80318750D03*
X119637500Y-82858750D03*
D18*
X118367500Y-85398750D03*
X128527500Y-85398750D03*
D16*
X11530020Y-66350020D03*
D17*
X14070020Y-61270020D03*
X7720020Y-63810020D03*
D18*
X6450020Y-66350020D03*
X16610020Y-66350020D03*
D16*
X268703750Y-66348750D03*
D17*
X271243750Y-61268750D03*
X264893750Y-63808750D03*
D18*
X263623750Y-66348750D03*
X273783750Y-66348750D03*
D16*
X11530020Y-47300020D03*
D17*
X14070020Y-42220020D03*
X7720020Y-44760020D03*
D18*
X6450020Y-47300020D03*
X16610020Y-47300020D03*
D16*
X256797500Y-9198750D03*
D17*
X259337500Y-4118750D03*
X252987500Y-6658750D03*
D18*
X251717500Y-9198750D03*
X261877500Y-9198750D03*
D16*
X275847500Y-9198750D03*
D17*
X273307500Y-14278750D03*
X279657500Y-11738750D03*
D18*
X280927500Y-9198750D03*
X270767500Y-9198750D03*
D16*
X28197500Y-9198750D03*
D17*
X25657500Y-14278750D03*
X32007500Y-11738750D03*
D18*
X33277500Y-9198750D03*
X23117500Y-9198750D03*
D16*
X9147500Y-9198750D03*
D17*
X6607500Y-14278750D03*
X12957500Y-11738750D03*
D18*
X14227500Y-9198750D03*
X4067500Y-9198750D03*
D16*
X273466250Y-37773750D03*
D17*
X278546250Y-40313750D03*
X276006250Y-33963750D03*
D18*
X273466250Y-32693750D03*
X273466250Y-42853750D03*
D16*
X249653750Y-66348750D03*
D17*
X252193750Y-61268750D03*
X245843750Y-63808750D03*
D18*
X244573750Y-66348750D03*
X254733750Y-66348750D03*
D16*
X242510000Y-66348750D03*
D17*
X245050000Y-61268750D03*
X238700000Y-63808750D03*
D18*
X237430000Y-66348750D03*
X247590000Y-66348750D03*
D16*
X252035000Y-47300020D03*
D17*
X254575000Y-42220020D03*
X248225000Y-44760020D03*
D18*
X246955000Y-47300020D03*
X257115000Y-47300020D03*
D19*
X16000000Y-3870000D03*
X20400000Y-3870000D03*
D20*
X283541200Y-56501200D03*
X1458900Y-56501200D03*
D21*
X260049900Y-27900800D03*
X190499400Y-85200700D03*
X128200000Y-47000000D03*
D22*
X25199300Y-27900800D03*
D23*
X42485000Y-61618000D03*
X42485000Y-69238000D03*
X70552000Y-42187000D03*
X70552000Y-49807000D03*
X85157000Y-33297000D03*
X85157000Y-25677000D03*
X66361000Y-33297000D03*
X66361000Y-25677000D03*
X242510000Y-51458000D03*
X242510000Y-43838000D03*
X232985000Y-68095000D03*
X232985000Y-60475000D03*
X3496000Y-34313000D03*
X3496000Y-26693000D03*
X238065000Y-82065000D03*
X238065000Y-89685000D03*
X261560000Y-82065000D03*
X261560000Y-89685000D03*
X213935000Y-82065000D03*
X213935000Y-89685000D03*
X33976000Y-42187000D03*
X33976000Y-49807000D03*
M02*
