M48
;DRILL file {KiCad 4.0.2-stable} date Mon 02 May 2016 10:51:55 AM CEST
;FORMAT={-:-/ absolute / inch / decimal}
FMAT,2
INCH,TZ
T1C0.016
T2C0.032
T3C0.035
T4C0.039
T5C0.039
T6C0.059
T7C0.098
T8C0.098
%
G90
G05
M72
T1
X0.4776Y-0.7159
X0.8276Y-0.3959
X1.0176Y-3.1359
X1.0376Y-1.5909
X1.0526Y-2.9309
X1.1526Y-1.5909
X1.1726Y-0.6828
X1.2176Y-0.8709
X1.2226Y-1.8609
X1.3476Y-0.6259
X1.4676Y-2.3059
X1.4826Y-0.6828
X1.6876Y-1.1909
X1.7576Y-1.3159
X1.8126Y-2.9709
X1.8726Y-0.9909
X1.8776Y-1.2959
X1.9126Y-2.1759
X1.9426Y-1.4609
X1.9726Y-1.9959
X2.0276Y-0.7009
X2.0326Y-3.0009
X2.0326Y-3.1559
X2.0937Y-1.8209
X2.0976Y-3.0009
X2.1176Y-1.1909
X2.1726Y-0.7009
X2.1776Y-2.1159
X2.1776Y-3.1659
X2.2676Y-2.5009
X2.2845Y-2.1328
X2.3272Y-2.2663
X2.4376Y-2.3759
X2.4847Y-2.6038
X2.5376Y-2.5009
X2.6376Y-2.7259
X2.7676Y-2.2659
X2.8126Y-3.2259
X2.8426Y-3.0259
X2.8926Y-3.0259
X2.9226Y-2.7659
X2.9826Y-3.0259
X3.0276Y-2.4059
X3.0276Y-2.5009
X3.0626Y-2.5909
X3.0626Y-2.6459
X3.0826Y-2.5009
X3.1076Y-0.7609
X3.1126Y-2.5459
X3.2858Y-3.387
X3.2926Y-3.3109
X3.3526Y-3.2659
X3.3876Y-2.7209
X3.3926Y-1.4659
X3.3976Y-3.3709
X3.4526Y-1.4659
X3.4726Y-1.1759
X3.5126Y-1.5059
X3.5176Y-2.1459
X3.5276Y-0.8459
X3.5476Y-3.2159
X3.5476Y-3.2709
X3.5576Y-0.5909
X3.5676Y-2.0959
X3.5826Y-1.5459
X3.6426Y-3.0059
X3.6726Y-3.5209
X3.7426Y-0.7309
X3.7676Y-2.7009
X3.7776Y-3.3259
X3.7876Y-3.6409
X3.7976Y-2.4809
X3.8276Y-3.3259
X3.8676Y-3.2359
X3.8676Y-3.4409
X3.8695Y-2.9478
X3.9026Y-3.6159
X3.9045Y-3.4778
X3.9076Y-1.2359
X3.9076Y-3.3259
X3.9126Y-2.4759
X3.9476Y-3.0059
X3.9876Y-2.8459
X4.0001Y-3.0059
X4.0376Y-3.3559
X4.0426Y-2.7909
X4.0426Y-2.8459
X4.0426Y-3.3009
X4.0426Y-3.4109
X4.0776Y-3.0059
X4.1026Y-2.7909
X4.1226Y-3.5509
X4.1626Y-2.7909
X4.1826Y-1.0159
X4.1976Y-3.4209
X4.2426Y-0.5159
X4.2426Y-2.9459
X4.2926Y-3.0059
X4.2976Y-1.7259
X4.3976Y-3.0059
X4.4001Y-2.6784
X4.4126Y-3.3759
X4.4276Y-3.2159
X4.4426Y-2.5509
X4.4526Y-3.0509
X4.4801Y-3.5609
X4.4926Y-0.7209
X4.5226Y-2.3159
X4.5776Y-3.4659
X4.6576Y-2.6509
X4.6876Y-2.2259
X4.7076Y-1.2359
X4.7076Y-2.8459
X4.7376Y-3.4209
X4.7526Y-2.6909
X4.7901Y-3.0759
X4.8326Y-3.0759
X5.2126Y-2.6809
X5.3976Y-1.2359
X5.4176Y-3.4809
X5.4201Y-2.7334
X5.5376Y-3.4709
X5.6526Y-2.8759
X5.8326Y-0.7409
X5.9476Y-0.7409
X6.1826Y-1.2359
X6.2326Y-2.3159
X6.2476Y-2.6809
X6.3376Y-0.9209
X6.5376Y-0.5359
X6.5376Y-0.7409
X6.8926Y-1.2359
X6.9476Y-1.4309
X6.9626Y-2.6959
X7.0226Y-1.4309
X7.0426Y-3.4009
X7.0776Y-1.4709
X7.1376Y-1.4709
X7.1626Y-3.4859
X7.2677Y-3.5539
X7.2726Y-3.4209
X7.3826Y-0.5459
X7.5126Y-0.7709
X7.5226Y-2.6909
X7.6826Y-1.2359
X7.6945Y-2.7328
X8.2976Y-3.5609
X8.3426Y-2.3059
X8.4226Y-2.8209
X8.4476Y-1.2359
X8.5176Y-0.6659
X9.1326Y-2.9009
X9.1626Y-2.1859
X9.2676Y-0.6959
X9.3676Y-1.2359
X9.7076Y-0.3109
X9.7676Y-0.4509
X9.8626Y-1.3509
X9.8826Y-0.1859
X9.8876Y-1.2359
X10.0626Y-1.5159
X10.0776Y-2.0809
X10.1026Y-3.4509
X10.2076Y-1.4409
X10.2426Y-0.7459
X10.3426Y-0.6259
X10.3426Y-1.4059
X10.3426Y-2.4959
X10.3626Y-2.7659
X10.4176Y-1.7359
X10.4226Y-3.0609
X10.4476Y-0.8409
X10.4676Y-2.1559
X10.5176Y-2.9859
X10.5526Y-2.1309
X10.6126Y-2.0809
X10.7026Y-0.1809
X10.7026Y-1.6159
X10.8101Y-2.9884
T2
X0.1376Y-1.0509
X0.1376Y-1.3509
X0.3101Y-0.1622
X0.4039Y-2.8122
X0.4039Y-3.5622
X0.4039Y-2.0622
X0.4101Y-0.1622
X0.4976Y-1.3122
X0.5007Y-3.5622
X0.5039Y-2.8122
X0.5039Y-2.0622
X0.5914Y-2.0622
X0.5976Y-1.3122
X0.5976Y-3.5622
X0.6914Y-2.0622
X0.7789Y-2.8122
X0.7914Y-2.0622
X0.8789Y-2.8122
X1.0601Y-0.1622
X1.1601Y-0.1622
X1.2476Y-2.8122
X1.3376Y-1.6609
X1.3376Y-1.9609
X1.3414Y-3.5622
X1.3476Y-2.8122
X1.4351Y-1.3122
X1.4382Y-3.5622
X1.5351Y-1.3122
X1.5351Y-3.5622
X1.6226Y-2.0622
X1.6226Y-3.5622
X1.6726Y-2.4259
X1.6726Y-2.7259
X1.7226Y-2.0622
X1.7226Y-3.5622
X1.8101Y-0.5622
X1.9101Y-0.5622
X1.9976Y-2.8122
X2.0976Y-2.8122
X2.1851Y-1.3122
X2.2789Y-3.5622
X2.2851Y-1.3122
X2.3726Y-2.0622
X2.3757Y-3.5622
X2.4726Y-2.0622
X2.4726Y-3.5622
X2.5601Y-0.5622
X2.6126Y-1.0109
X2.6126Y-1.3109
X2.6601Y-0.5622
X2.7476Y-2.8122
X2.7776Y-1.6609
X2.7776Y-1.9609
X2.8476Y-2.8122
X2.9351Y-1.3122
X3.0351Y-1.3122
X3.1226Y-2.0622
X3.2226Y-2.0622
X3.3101Y-0.5622
X3.3526Y-1.0109
X3.3526Y-1.3109
X3.4101Y-0.5622
X3.4976Y-2.8122
X3.5976Y-2.8122
X3.6851Y-1.3122
X3.7851Y-1.3122
X3.8726Y-2.0622
X3.9726Y-2.0622
X4.0601Y-0.5622
X4.1601Y-0.5622
X4.2476Y-2.8122
X4.3476Y-2.8122
X4.4351Y-1.3122
X4.5351Y-1.3122
X4.6226Y-2.0622
X4.7226Y-2.0622
X4.8101Y-0.5622
X4.8101Y-3.5622
X4.9101Y-0.5622
X4.9101Y-3.5622
X4.9976Y-2.8122
X5.0914Y-3.5622
X5.0976Y-2.8122
X5.1851Y-1.3122
X5.1914Y-3.5622
X5.2851Y-1.3122
X5.3726Y-2.0622
X5.4726Y-2.0622
X5.5601Y-0.5622
X5.5601Y-3.5622
X5.6601Y-0.5622
X5.6601Y-3.5622
X5.7476Y-2.8122
X5.8476Y-2.8122
X5.9351Y-1.3122
X6.0351Y-1.3122
X6.1226Y-2.0622
X6.2226Y-2.0622
X6.3101Y-0.5622
X6.4101Y-0.5622
X6.4976Y-2.8122
X6.5976Y-2.8122
X6.6851Y-1.3122
X6.7851Y-1.3122
X6.8726Y-2.0622
X6.9726Y-2.0622
X7.0601Y-0.5622
X7.1601Y-0.5622
X7.2476Y-2.8122
X7.3476Y-2.8122
X7.4351Y-1.3122
X7.5351Y-1.3122
X7.6226Y-2.0622
X7.7226Y-2.0622
X7.8101Y-0.5622
X7.9039Y-3.5622
X7.9101Y-0.5622
X7.9976Y-2.8122
X8.0007Y-3.5622
X8.0976Y-2.8122
X8.0976Y-3.5622
X8.1851Y-1.3122
X8.2851Y-1.3122
X8.3726Y-2.0622
X8.4226Y-3.2309
X8.4226Y-3.5309
X8.4726Y-2.0622
X8.5601Y-0.5622
X8.6601Y-0.5622
X8.7476Y-2.8122
X8.8476Y-2.8122
X8.9351Y-1.3122
X9.0351Y-1.3122
X9.1226Y-2.0622
X9.1726Y-2.3809
X9.1726Y-2.6809
X9.2226Y-2.0622
X9.3101Y-0.5622
X9.3726Y-3.2309
X9.3726Y-3.5309
X9.4101Y-0.5622
X9.4976Y-2.8122
X9.5476Y-1.7259
X9.5476Y-2.0259
X9.5976Y-2.8122
X9.6851Y-1.3122
X9.6851Y-3.5622
X9.7789Y-2.8122
X9.782Y-3.5622
X9.7851Y-1.3122
X9.8726Y-2.0622
X9.8789Y-2.8122
X9.8789Y-3.5622
X9.9726Y-2.0622
X10.0601Y-0.5622
X10.1539Y-2.8122
X10.1601Y-0.5622
X10.2539Y-2.8122
X10.2976Y-3.2309
X10.2976Y-3.5309
X10.3414Y-2.0622
X10.4351Y-0.5622
X10.4414Y-2.0622
X10.5289Y-2.8122
X10.5351Y-0.5622
X10.5664Y-1.4372
X10.5664Y-1.5372
X10.6226Y-0.9122
X10.6226Y-3.5622
X10.6289Y-2.8122
X10.7164Y-2.0622
X10.7195Y-3.5622
X10.7226Y-0.9122
X10.8101Y-0.1622
X10.8101Y-2.8122
X10.8164Y-2.0622
X10.8164Y-3.5622
X10.9101Y-0.1622
X10.9101Y-2.8122
T3
X2.7976Y-3.5059
X2.7976Y-3.6059
X2.8976Y-3.5059
X2.8976Y-3.6059
X2.9976Y-3.5059
X2.9976Y-3.6059
X3.7376Y-0.1559
X3.7376Y-0.2559
X3.7376Y-0.3559
X3.7376Y-0.4559
X3.7376Y-0.5559
X4.4876Y-0.1559
X4.4876Y-0.2559
X4.4876Y-0.3559
X4.4876Y-0.4559
X4.4876Y-0.5559
X5.2376Y-0.1559
X5.2376Y-0.2559
X5.2376Y-0.3559
X5.2376Y-0.4559
X5.2376Y-0.5559
X5.9876Y-0.1559
X5.9876Y-0.2559
X5.9876Y-0.3559
X5.9876Y-0.4559
X5.9876Y-0.5559
X5.9976Y-3.6059
X6.0976Y-3.6059
X6.1976Y-3.6059
X6.2976Y-3.6059
X6.3976Y-3.6059
X6.4976Y-3.6059
X6.7376Y-0.1559
X6.7376Y-0.2559
X6.7376Y-0.3559
X6.7376Y-0.4559
X6.7376Y-0.5559
X11.1476Y-1.2559
X11.1476Y-1.3559
X11.1476Y-1.4559
X11.1476Y-1.5559
X11.1476Y-1.6559
T4
X1.2414Y-3.5622
X1.8226Y-3.5622
X4.7101Y-3.5622
X5.0011Y-3.5622
X5.2914Y-3.5622
X8.6476Y-3.5622
X8.7476Y-3.5622
X8.8434Y-3.5622
X8.9394Y-3.5622
X9.0351Y-3.5622
X9.1351Y-3.5622
X9.3976Y-2.8122
X9.9789Y-2.8122
X10.7101Y-2.8122
X11.0101Y-2.8122
T5
X9.6886Y-2.8122
T6
X0.2601Y-0.5622
X0.3039Y-3.2622
X0.3039Y-1.7622
X0.3039Y-2.5122
X0.3976Y-1.0122
X0.3976Y-3.2609
X0.4914Y-1.7622
X0.5101Y-0.4622
X0.5539Y-3.1622
X0.5539Y-1.6622
X0.5539Y-2.4122
X0.6476Y-0.9122
X0.6476Y-3.1609
X0.6789Y-2.5122
X0.7414Y-1.6622
X0.9289Y-2.4122
X1.0101Y-0.5622
X1.1476Y-2.5122
X1.2414Y-3.2622
X1.2601Y-0.4622
X1.3351Y-1.0122
X1.3376Y-3.2609
X1.3976Y-2.4122
X1.4914Y-3.1622
X1.5226Y-1.7622
X1.5226Y-3.2609
X1.5851Y-0.9122
X1.5876Y-3.1609
X1.7101Y-0.2622
X1.7726Y-1.6622
X1.7726Y-3.1609
X1.8976Y-2.5122
X1.9601Y-0.1622
X2.0851Y-1.0122
X2.1476Y-2.4122
X2.1789Y-3.2622
X2.2726Y-1.7622
X2.2726Y-3.2609
X2.3351Y-0.9122
X2.4289Y-3.1622
X2.4601Y-0.2622
X2.5226Y-1.6622
X2.5226Y-3.1609
X2.6476Y-2.5122
X2.7101Y-0.1622
X2.8351Y-1.0122
X2.8976Y-2.4122
X3.0226Y-1.7622
X3.0851Y-0.9122
X3.2101Y-0.2622
X3.2726Y-1.6622
X3.3976Y-2.5122
X3.4601Y-0.1622
X3.5851Y-1.0122
X3.6476Y-2.4122
X3.7726Y-1.7622
X3.8351Y-0.9122
X3.9601Y-0.2622
X4.0226Y-1.6622
X4.1476Y-2.5122
X4.2101Y-0.1622
X4.3351Y-1.0122
X4.3976Y-2.4122
X4.5226Y-1.7622
X4.5851Y-0.9122
X4.7101Y-0.2622
X4.7101Y-3.2622
X4.7726Y-1.6622
X4.8976Y-2.5122
X4.9601Y-0.1622
X4.9601Y-3.1622
X4.9914Y-3.2622
X5.0851Y-1.0122
X5.1476Y-2.4122
X5.2414Y-3.1622
X5.2726Y-1.7622
X5.3351Y-0.9122
X5.4601Y-0.2622
X5.4601Y-3.2622
X5.5226Y-1.6622
X5.6476Y-2.5122
X5.7101Y-0.1622
X5.7101Y-3.1622
X5.8351Y-1.0122
X5.8976Y-2.4122
X6.0226Y-1.7622
X6.0851Y-0.9122
X6.2101Y-0.2622
X6.2726Y-1.6622
X6.3976Y-2.5122
X6.4601Y-0.1622
X6.5851Y-1.0122
X6.6476Y-2.4122
X6.7726Y-1.7622
X6.8351Y-0.9122
X6.9601Y-0.2622
X7.0226Y-1.6622
X7.1476Y-2.5122
X7.2101Y-0.1622
X7.3351Y-1.0122
X7.3976Y-2.4122
X7.5226Y-1.7622
X7.5851Y-0.9122
X7.7101Y-0.2622
X7.7726Y-1.6622
X7.8039Y-3.2622
X7.8976Y-2.5122
X7.8976Y-3.2622
X7.9601Y-0.1622
X8.0539Y-3.1622
X8.0851Y-1.0122
X8.1476Y-2.4122
X8.1476Y-3.1622
X8.2726Y-1.7622
X8.3351Y-0.9122
X8.4601Y-0.2622
X8.5226Y-1.6622
X8.6476Y-2.5122
X8.6476Y-3.2622
X8.7101Y-0.1622
X8.7414Y-3.2622
X8.8351Y-1.0122
X8.8351Y-3.2622
X8.8976Y-2.4122
X8.8976Y-3.1622
X8.9914Y-3.1622
X9.0226Y-1.7622
X9.0851Y-0.9122
X9.0851Y-3.1622
X9.2101Y-0.2622
X9.2726Y-1.6622
X9.3976Y-2.5122
X9.4601Y-0.1622
X9.5851Y-1.0122
X9.5851Y-3.2622
X9.6476Y-2.4122
X9.6789Y-2.5122
X9.6789Y-3.2622
X9.7726Y-1.7622
X9.8351Y-0.9122
X9.8351Y-3.1622
X9.9289Y-2.4122
X9.9289Y-3.1622
X9.9601Y-0.2622
X10.0226Y-1.6622
X10.0539Y-2.5122
X10.2101Y-0.1622
X10.2414Y-1.7622
X10.3039Y-2.4122
X10.3351Y-0.2622
X10.4289Y-2.5122
X10.4914Y-1.6622
X10.5226Y-3.2622
X10.5726Y-1.3122
X10.5851Y-0.1622
X10.6164Y-1.7622
X10.6164Y-3.2622
X10.6789Y-2.4122
X10.7101Y-2.5122
X10.7601Y-0.5622
X10.7726Y-3.1622
X10.8226Y-1.2122
X10.8664Y-1.3372
X10.8664Y-1.6622
X10.8664Y-3.1622
X10.9601Y-2.4122
X10.9664Y-1.5872
X11.0101Y-0.4622
T8
X0.9921Y-1.0985
T7
X-0.0312Y-2.2245G85X0.146Y-2.2245
G05
X4.998Y-1.8504G85X5.0965Y-1.8504
G05
X7.4507Y-3.3544G85X7.5492Y-3.3544
G05
X10.1889Y-1.0985G85X10.2874Y-1.0985
G05
X11.0744Y-2.2245G85X11.2516Y-2.2245
G05
T0
M30
