G04 #@! TF.FileFunction,Other,Comment*
%FSLAX46Y46*%
G04 Gerber Fmt 4.6, Leading zero omitted, Abs format (unit mm)*
G04 Created by KiCad (PCBNEW 4.0.2-stable) date Mon 02 May 2016 10:51:51 AM CEST*
%MOMM*%
G01*
G04 APERTURE LIST*
%ADD10C,0.150000*%
%ADD11C,0.304800*%
G04 APERTURE END LIST*
D10*
D11*
X-33624838Y-44363715D02*
X-33721600Y-44291144D01*
X-33818362Y-44146001D01*
X-33818362Y-43783144D01*
X-33721600Y-43638001D01*
X-33624838Y-43565430D01*
X-33431314Y-43492858D01*
X-33237790Y-43492858D01*
X-32947505Y-43565430D01*
X-31786362Y-44436287D01*
X-31786362Y-43492858D01*
X-33818362Y-42549429D02*
X-33818362Y-42404286D01*
X-33721600Y-42259143D01*
X-33624838Y-42186572D01*
X-33431314Y-42114001D01*
X-33044267Y-42041429D01*
X-32560457Y-42041429D01*
X-32173410Y-42114001D01*
X-31979886Y-42186572D01*
X-31883124Y-42259143D01*
X-31786362Y-42404286D01*
X-31786362Y-42549429D01*
X-31883124Y-42694572D01*
X-31979886Y-42767143D01*
X-32173410Y-42839715D01*
X-32560457Y-42912286D01*
X-33044267Y-42912286D01*
X-33431314Y-42839715D01*
X-33624838Y-42767143D01*
X-33721600Y-42694572D01*
X-33818362Y-42549429D01*
X-31979886Y-41388286D02*
X-31883124Y-41315714D01*
X-31786362Y-41388286D01*
X-31883124Y-41460857D01*
X-31979886Y-41388286D01*
X-31786362Y-41388286D01*
X-33818362Y-40807715D02*
X-33818362Y-39864286D01*
X-33044267Y-40372286D01*
X-33044267Y-40154572D01*
X-32947505Y-40009429D01*
X-32850743Y-39936858D01*
X-32657219Y-39864286D01*
X-32173410Y-39864286D01*
X-31979886Y-39936858D01*
X-31883124Y-40009429D01*
X-31786362Y-40154572D01*
X-31786362Y-40590000D01*
X-31883124Y-40735143D01*
X-31979886Y-40807715D01*
X-33818362Y-38920857D02*
X-33818362Y-38775714D01*
X-33721600Y-38630571D01*
X-33624838Y-38558000D01*
X-33431314Y-38485429D01*
X-33044267Y-38412857D01*
X-32560457Y-38412857D01*
X-32173410Y-38485429D01*
X-31979886Y-38558000D01*
X-31883124Y-38630571D01*
X-31786362Y-38775714D01*
X-31786362Y-38920857D01*
X-31883124Y-39066000D01*
X-31979886Y-39138571D01*
X-32173410Y-39211143D01*
X-32560457Y-39283714D01*
X-33044267Y-39283714D01*
X-33431314Y-39211143D01*
X-33624838Y-39138571D01*
X-33721600Y-39066000D01*
X-33818362Y-38920857D01*
X-33818362Y-37469428D02*
X-33818362Y-37324285D01*
X-33721600Y-37179142D01*
X-33624838Y-37106571D01*
X-33431314Y-37034000D01*
X-33044267Y-36961428D01*
X-32560457Y-36961428D01*
X-32173410Y-37034000D01*
X-31979886Y-37106571D01*
X-31883124Y-37179142D01*
X-31786362Y-37324285D01*
X-31786362Y-37469428D01*
X-31883124Y-37614571D01*
X-31979886Y-37687142D01*
X-32173410Y-37759714D01*
X-32560457Y-37832285D01*
X-33044267Y-37832285D01*
X-33431314Y-37759714D01*
X-33624838Y-37687142D01*
X-33721600Y-37614571D01*
X-33818362Y-37469428D01*
X-31786362Y-35147142D02*
X-33141029Y-35147142D01*
X-32947505Y-35147142D02*
X-33044267Y-35074570D01*
X-33141029Y-34929428D01*
X-33141029Y-34711713D01*
X-33044267Y-34566570D01*
X-32850743Y-34493999D01*
X-31786362Y-34493999D01*
X-32850743Y-34493999D02*
X-33044267Y-34421428D01*
X-33141029Y-34276285D01*
X-33141029Y-34058570D01*
X-33044267Y-33913428D01*
X-32850743Y-33840856D01*
X-31786362Y-33840856D01*
X-31786362Y-33115142D02*
X-33141029Y-33115142D01*
X-32947505Y-33115142D02*
X-33044267Y-33042570D01*
X-33141029Y-32897428D01*
X-33141029Y-32679713D01*
X-33044267Y-32534570D01*
X-32850743Y-32461999D01*
X-31786362Y-32461999D01*
X-32850743Y-32461999D02*
X-33044267Y-32389428D01*
X-33141029Y-32244285D01*
X-33141029Y-32026570D01*
X-33044267Y-31881428D01*
X-32850743Y-31808856D01*
X-31786362Y-31808856D01*
X-31080000Y-48200000D02*
X-31080000Y-27900000D01*
X25200000Y-48200000D02*
X-34331200Y-48200000D01*
X25200000Y-27900000D02*
X-34331200Y-27900000D01*
X-31080000Y-27900000D02*
X-30493580Y-29026503D01*
X-31080000Y-27900000D02*
X-31666420Y-29026503D01*
X-31080000Y-48200000D02*
X-30493580Y-47073497D01*
X-31080000Y-48200000D02*
X-31666420Y-47073497D01*
X25200000Y-48200000D02*
X29150000Y-48200000D01*
X29150000Y-27900000D02*
X29150000Y-48200000D01*
X30009428Y25162762D02*
X30952857Y25162762D01*
X30444857Y24388667D01*
X30662571Y24388667D01*
X30807714Y24291905D01*
X30880285Y24195143D01*
X30952857Y24001619D01*
X30952857Y23517810D01*
X30880285Y23324286D01*
X30807714Y23227524D01*
X30662571Y23130762D01*
X30227143Y23130762D01*
X30082000Y23227524D01*
X30009428Y23324286D01*
X31606000Y23324286D02*
X31678572Y23227524D01*
X31606000Y23130762D01*
X31533429Y23227524D01*
X31606000Y23324286D01*
X31606000Y23130762D01*
X32404286Y23130762D02*
X32694571Y23130762D01*
X32839714Y23227524D01*
X32912286Y23324286D01*
X33057428Y23614571D01*
X33130000Y24001619D01*
X33130000Y24775714D01*
X33057428Y24969238D01*
X32984857Y25066000D01*
X32839714Y25162762D01*
X32549428Y25162762D01*
X32404286Y25066000D01*
X32331714Y24969238D01*
X32259143Y24775714D01*
X32259143Y24291905D01*
X32331714Y24098381D01*
X32404286Y24001619D01*
X32549428Y23904857D01*
X32839714Y23904857D01*
X32984857Y24001619D01*
X33057428Y24098381D01*
X33130000Y24291905D01*
X34508857Y25162762D02*
X33783143Y25162762D01*
X33710572Y24195143D01*
X33783143Y24291905D01*
X33928286Y24388667D01*
X34291143Y24388667D01*
X34436286Y24291905D01*
X34508857Y24195143D01*
X34581429Y24001619D01*
X34581429Y23517810D01*
X34508857Y23324286D01*
X34436286Y23227524D01*
X34291143Y23130762D01*
X33928286Y23130762D01*
X33783143Y23227524D01*
X33710572Y23324286D01*
X35524858Y25162762D02*
X35670001Y25162762D01*
X35815144Y25066000D01*
X35887715Y24969238D01*
X35960286Y24775714D01*
X36032858Y24388667D01*
X36032858Y23904857D01*
X35960286Y23517810D01*
X35887715Y23324286D01*
X35815144Y23227524D01*
X35670001Y23130762D01*
X35524858Y23130762D01*
X35379715Y23227524D01*
X35307144Y23324286D01*
X35234572Y23517810D01*
X35162001Y23904857D01*
X35162001Y24388667D01*
X35234572Y24775714D01*
X35307144Y24969238D01*
X35379715Y25066000D01*
X35524858Y25162762D01*
X37847144Y23130762D02*
X37847144Y24485429D01*
X37847144Y24291905D02*
X37919716Y24388667D01*
X38064858Y24485429D01*
X38282573Y24485429D01*
X38427716Y24388667D01*
X38500287Y24195143D01*
X38500287Y23130762D01*
X38500287Y24195143D02*
X38572858Y24388667D01*
X38718001Y24485429D01*
X38935716Y24485429D01*
X39080858Y24388667D01*
X39153430Y24195143D01*
X39153430Y23130762D01*
X39879144Y23130762D02*
X39879144Y24485429D01*
X39879144Y24291905D02*
X39951716Y24388667D01*
X40096858Y24485429D01*
X40314573Y24485429D01*
X40459716Y24388667D01*
X40532287Y24195143D01*
X40532287Y23130762D01*
X40532287Y24195143D02*
X40604858Y24388667D01*
X40750001Y24485429D01*
X40967716Y24485429D01*
X41112858Y24388667D01*
X41185430Y24195143D01*
X41185430Y23130762D01*
X29150000Y24049999D02*
X25200000Y24049999D01*
X29150000Y-27900000D02*
X29150000Y27301199D01*
X25200000Y-27900000D02*
X25200000Y27301199D01*
X25200000Y24049999D02*
X26326503Y24636419D01*
X25200000Y24049999D02*
X26326503Y23463579D01*
X29150000Y24049999D02*
X28023497Y24636419D01*
X29150000Y24049999D02*
X28023497Y23463579D01*
X338774838Y-53468572D02*
X338774838Y-53178287D01*
X338678076Y-53033144D01*
X338581314Y-52960572D01*
X338291029Y-52815430D01*
X337903981Y-52742858D01*
X337129886Y-52742858D01*
X336936362Y-52815430D01*
X336839600Y-52888001D01*
X336742838Y-53033144D01*
X336742838Y-53323430D01*
X336839600Y-53468572D01*
X336936362Y-53541144D01*
X337129886Y-53613715D01*
X337613695Y-53613715D01*
X337807219Y-53541144D01*
X337903981Y-53468572D01*
X338000743Y-53323430D01*
X338000743Y-53033144D01*
X337903981Y-52888001D01*
X337807219Y-52815430D01*
X337613695Y-52742858D01*
X337420171Y-51436572D02*
X338774838Y-51436572D01*
X336646076Y-51799429D02*
X338097505Y-52162286D01*
X338097505Y-51218858D01*
X338581314Y-50638286D02*
X338678076Y-50565714D01*
X338774838Y-50638286D01*
X338678076Y-50710857D01*
X338581314Y-50638286D01*
X338774838Y-50638286D01*
X336742838Y-49259429D02*
X336742838Y-49549715D01*
X336839600Y-49694858D01*
X336936362Y-49767429D01*
X337226648Y-49912572D01*
X337613695Y-49985143D01*
X338387790Y-49985143D01*
X338581314Y-49912572D01*
X338678076Y-49840000D01*
X338774838Y-49694858D01*
X338774838Y-49404572D01*
X338678076Y-49259429D01*
X338581314Y-49186858D01*
X338387790Y-49114286D01*
X337903981Y-49114286D01*
X337710457Y-49186858D01*
X337613695Y-49259429D01*
X337516933Y-49404572D01*
X337516933Y-49694858D01*
X337613695Y-49840000D01*
X337710457Y-49912572D01*
X337903981Y-49985143D01*
X336742838Y-48170857D02*
X336742838Y-48025714D01*
X336839600Y-47880571D01*
X336936362Y-47808000D01*
X337129886Y-47735429D01*
X337516933Y-47662857D01*
X338000743Y-47662857D01*
X338387790Y-47735429D01*
X338581314Y-47808000D01*
X338678076Y-47880571D01*
X338774838Y-48025714D01*
X338774838Y-48170857D01*
X338678076Y-48316000D01*
X338581314Y-48388571D01*
X338387790Y-48461143D01*
X338000743Y-48533714D01*
X337516933Y-48533714D01*
X337129886Y-48461143D01*
X336936362Y-48388571D01*
X336839600Y-48316000D01*
X336742838Y-48170857D01*
X336742838Y-46719428D02*
X336742838Y-46574285D01*
X336839600Y-46429142D01*
X336936362Y-46356571D01*
X337129886Y-46284000D01*
X337516933Y-46211428D01*
X338000743Y-46211428D01*
X338387790Y-46284000D01*
X338581314Y-46356571D01*
X338678076Y-46429142D01*
X338774838Y-46574285D01*
X338774838Y-46719428D01*
X338678076Y-46864571D01*
X338581314Y-46937142D01*
X338387790Y-47009714D01*
X338000743Y-47082285D01*
X337516933Y-47082285D01*
X337129886Y-47009714D01*
X336936362Y-46937142D01*
X336839600Y-46864571D01*
X336742838Y-46719428D01*
X338774838Y-44397142D02*
X337420171Y-44397142D01*
X337613695Y-44397142D02*
X337516933Y-44324570D01*
X337420171Y-44179428D01*
X337420171Y-43961713D01*
X337516933Y-43816570D01*
X337710457Y-43743999D01*
X338774838Y-43743999D01*
X337710457Y-43743999D02*
X337516933Y-43671428D01*
X337420171Y-43526285D01*
X337420171Y-43308570D01*
X337516933Y-43163428D01*
X337710457Y-43090856D01*
X338774838Y-43090856D01*
X338774838Y-42365142D02*
X337420171Y-42365142D01*
X337613695Y-42365142D02*
X337516933Y-42292570D01*
X337420171Y-42147428D01*
X337420171Y-41929713D01*
X337516933Y-41784570D01*
X337710457Y-41711999D01*
X338774838Y-41711999D01*
X337710457Y-41711999D02*
X337516933Y-41639428D01*
X337420171Y-41494285D01*
X337420171Y-41276570D01*
X337516933Y-41131428D01*
X337710457Y-41058856D01*
X338774838Y-41058856D01*
X336230000Y-94600000D02*
X336230000Y0D01*
X282810000Y-94600000D02*
X339481200Y-94600000D01*
X282810000Y0D02*
X339481200Y0D01*
X336230000Y0D02*
X336816420Y-1126503D01*
X336230000Y0D02*
X335643580Y-1126503D01*
X336230000Y-94600000D02*
X336816420Y-93473497D01*
X336230000Y-94600000D02*
X335643580Y-93473497D01*
X135460569Y-159466369D02*
X135533140Y-159369607D01*
X135678283Y-159272845D01*
X136041140Y-159272845D01*
X136186283Y-159369607D01*
X136258854Y-159466369D01*
X136331426Y-159659893D01*
X136331426Y-159853417D01*
X136258854Y-160143702D01*
X135387997Y-161304845D01*
X136331426Y-161304845D01*
X137202283Y-160143702D02*
X137057141Y-160046940D01*
X136984569Y-159950178D01*
X136911998Y-159756655D01*
X136911998Y-159659893D01*
X136984569Y-159466369D01*
X137057141Y-159369607D01*
X137202283Y-159272845D01*
X137492569Y-159272845D01*
X137637712Y-159369607D01*
X137710283Y-159466369D01*
X137782855Y-159659893D01*
X137782855Y-159756655D01*
X137710283Y-159950178D01*
X137637712Y-160046940D01*
X137492569Y-160143702D01*
X137202283Y-160143702D01*
X137057141Y-160240464D01*
X136984569Y-160337226D01*
X136911998Y-160530750D01*
X136911998Y-160917797D01*
X136984569Y-161111321D01*
X137057141Y-161208083D01*
X137202283Y-161304845D01*
X137492569Y-161304845D01*
X137637712Y-161208083D01*
X137710283Y-161111321D01*
X137782855Y-160917797D01*
X137782855Y-160530750D01*
X137710283Y-160337226D01*
X137637712Y-160240464D01*
X137492569Y-160143702D01*
X139161712Y-159272845D02*
X138435998Y-159272845D01*
X138363427Y-160240464D01*
X138435998Y-160143702D01*
X138581141Y-160046940D01*
X138943998Y-160046940D01*
X139089141Y-160143702D01*
X139161712Y-160240464D01*
X139234284Y-160433988D01*
X139234284Y-160917797D01*
X139161712Y-161111321D01*
X139089141Y-161208083D01*
X138943998Y-161304845D01*
X138581141Y-161304845D01*
X138435998Y-161208083D01*
X138363427Y-161111321D01*
X139887427Y-161111321D02*
X139959999Y-161208083D01*
X139887427Y-161304845D01*
X139814856Y-161208083D01*
X139887427Y-161111321D01*
X139887427Y-161304845D01*
X140903427Y-159272845D02*
X141048570Y-159272845D01*
X141193713Y-159369607D01*
X141266284Y-159466369D01*
X141338855Y-159659893D01*
X141411427Y-160046940D01*
X141411427Y-160530750D01*
X141338855Y-160917797D01*
X141266284Y-161111321D01*
X141193713Y-161208083D01*
X141048570Y-161304845D01*
X140903427Y-161304845D01*
X140758284Y-161208083D01*
X140685713Y-161111321D01*
X140613141Y-160917797D01*
X140540570Y-160530750D01*
X140540570Y-160046940D01*
X140613141Y-159659893D01*
X140685713Y-159466369D01*
X140758284Y-159369607D01*
X140903427Y-159272845D01*
X142354856Y-159272845D02*
X142499999Y-159272845D01*
X142645142Y-159369607D01*
X142717713Y-159466369D01*
X142790284Y-159659893D01*
X142862856Y-160046940D01*
X142862856Y-160530750D01*
X142790284Y-160917797D01*
X142717713Y-161111321D01*
X142645142Y-161208083D01*
X142499999Y-161304845D01*
X142354856Y-161304845D01*
X142209713Y-161208083D01*
X142137142Y-161111321D01*
X142064570Y-160917797D01*
X141991999Y-160530750D01*
X141991999Y-160046940D01*
X142064570Y-159659893D01*
X142137142Y-159466369D01*
X142209713Y-159369607D01*
X142354856Y-159272845D01*
X143806285Y-159272845D02*
X143951428Y-159272845D01*
X144096571Y-159369607D01*
X144169142Y-159466369D01*
X144241713Y-159659893D01*
X144314285Y-160046940D01*
X144314285Y-160530750D01*
X144241713Y-160917797D01*
X144169142Y-161111321D01*
X144096571Y-161208083D01*
X143951428Y-161304845D01*
X143806285Y-161304845D01*
X143661142Y-161208083D01*
X143588571Y-161111321D01*
X143515999Y-160917797D01*
X143443428Y-160530750D01*
X143443428Y-160046940D01*
X143515999Y-159659893D01*
X143588571Y-159466369D01*
X143661142Y-159369607D01*
X143806285Y-159272845D01*
X146128571Y-161304845D02*
X146128571Y-159950178D01*
X146128571Y-160143702D02*
X146201143Y-160046940D01*
X146346285Y-159950178D01*
X146564000Y-159950178D01*
X146709143Y-160046940D01*
X146781714Y-160240464D01*
X146781714Y-161304845D01*
X146781714Y-160240464D02*
X146854285Y-160046940D01*
X146999428Y-159950178D01*
X147217143Y-159950178D01*
X147362285Y-160046940D01*
X147434857Y-160240464D01*
X147434857Y-161304845D01*
X148160571Y-161304845D02*
X148160571Y-159950178D01*
X148160571Y-160143702D02*
X148233143Y-160046940D01*
X148378285Y-159950178D01*
X148596000Y-159950178D01*
X148741143Y-160046940D01*
X148813714Y-160240464D01*
X148813714Y-161304845D01*
X148813714Y-160240464D02*
X148886285Y-160046940D01*
X149031428Y-159950178D01*
X149249143Y-159950178D01*
X149394285Y-160046940D01*
X149466857Y-160240464D01*
X149466857Y-161304845D01*
X-2Y-158760007D02*
X284999998Y-158760007D01*
X0Y-92520000D02*
X-2Y-162011207D01*
X285000000Y-92520000D02*
X284999998Y-162011207D01*
X284999998Y-158760007D02*
X283873495Y-159346427D01*
X284999998Y-158760007D02*
X283873495Y-158173587D01*
X-2Y-158760007D02*
X1126501Y-159346427D01*
X-2Y-158760007D02*
X1126501Y-158173587D01*
X13359428Y19292762D02*
X14375428Y19292762D01*
X13722285Y17260762D01*
X14956000Y17454286D02*
X15028572Y17357524D01*
X14956000Y17260762D01*
X14883429Y17357524D01*
X14956000Y17454286D01*
X14956000Y17260762D01*
X15972000Y19292762D02*
X16117143Y19292762D01*
X16262286Y19196000D01*
X16334857Y19099238D01*
X16407428Y18905714D01*
X16480000Y18518667D01*
X16480000Y18034857D01*
X16407428Y17647810D01*
X16334857Y17454286D01*
X16262286Y17357524D01*
X16117143Y17260762D01*
X15972000Y17260762D01*
X15826857Y17357524D01*
X15754286Y17454286D01*
X15681714Y17647810D01*
X15609143Y18034857D01*
X15609143Y18518667D01*
X15681714Y18905714D01*
X15754286Y19099238D01*
X15826857Y19196000D01*
X15972000Y19292762D01*
X17423429Y19292762D02*
X17568572Y19292762D01*
X17713715Y19196000D01*
X17786286Y19099238D01*
X17858857Y18905714D01*
X17931429Y18518667D01*
X17931429Y18034857D01*
X17858857Y17647810D01*
X17786286Y17454286D01*
X17713715Y17357524D01*
X17568572Y17260762D01*
X17423429Y17260762D01*
X17278286Y17357524D01*
X17205715Y17454286D01*
X17133143Y17647810D01*
X17060572Y18034857D01*
X17060572Y18518667D01*
X17133143Y18905714D01*
X17205715Y19099238D01*
X17278286Y19196000D01*
X17423429Y19292762D01*
X18874858Y19292762D02*
X19020001Y19292762D01*
X19165144Y19196000D01*
X19237715Y19099238D01*
X19310286Y18905714D01*
X19382858Y18518667D01*
X19382858Y18034857D01*
X19310286Y17647810D01*
X19237715Y17454286D01*
X19165144Y17357524D01*
X19020001Y17260762D01*
X18874858Y17260762D01*
X18729715Y17357524D01*
X18657144Y17454286D01*
X18584572Y17647810D01*
X18512001Y18034857D01*
X18512001Y18518667D01*
X18584572Y18905714D01*
X18657144Y19099238D01*
X18729715Y19196000D01*
X18874858Y19292762D01*
X21197144Y17260762D02*
X21197144Y18615429D01*
X21197144Y18421905D02*
X21269716Y18518667D01*
X21414858Y18615429D01*
X21632573Y18615429D01*
X21777716Y18518667D01*
X21850287Y18325143D01*
X21850287Y17260762D01*
X21850287Y18325143D02*
X21922858Y18518667D01*
X22068001Y18615429D01*
X22285716Y18615429D01*
X22430858Y18518667D01*
X22503430Y18325143D01*
X22503430Y17260762D01*
X23229144Y17260762D02*
X23229144Y18615429D01*
X23229144Y18421905D02*
X23301716Y18518667D01*
X23446858Y18615429D01*
X23664573Y18615429D01*
X23809716Y18518667D01*
X23882287Y18325143D01*
X23882287Y17260762D01*
X23882287Y18325143D02*
X23954858Y18518667D01*
X24100001Y18615429D01*
X24317716Y18615429D01*
X24462858Y18518667D01*
X24535430Y18325143D01*
X24535430Y17260762D01*
X25200000Y13499999D02*
X18200000Y13499999D01*
X25200000Y0D02*
X25200000Y16751199D01*
X18200000Y0D02*
X18200000Y16751199D01*
X18200000Y13499999D02*
X19326503Y14086419D01*
X18200000Y13499999D02*
X19326503Y12913579D01*
X25200000Y13499999D02*
X24073497Y14086419D01*
X25200000Y13499999D02*
X24073497Y12913579D01*
X6286285Y26594837D02*
X6358856Y26691599D01*
X6503999Y26788361D01*
X6866856Y26788361D01*
X7011999Y26691599D01*
X7084570Y26594837D01*
X7157142Y26401313D01*
X7157142Y26207789D01*
X7084570Y25917504D01*
X6213713Y24756361D01*
X7157142Y24756361D01*
X8535999Y26788361D02*
X7810285Y26788361D01*
X7737714Y25820742D01*
X7810285Y25917504D01*
X7955428Y26014266D01*
X8318285Y26014266D01*
X8463428Y25917504D01*
X8535999Y25820742D01*
X8608571Y25627218D01*
X8608571Y25143409D01*
X8535999Y24949885D01*
X8463428Y24853123D01*
X8318285Y24756361D01*
X7955428Y24756361D01*
X7810285Y24853123D01*
X7737714Y24949885D01*
X9261714Y24949885D02*
X9334286Y24853123D01*
X9261714Y24756361D01*
X9189143Y24853123D01*
X9261714Y24949885D01*
X9261714Y24756361D01*
X9914857Y26594837D02*
X9987428Y26691599D01*
X10132571Y26788361D01*
X10495428Y26788361D01*
X10640571Y26691599D01*
X10713142Y26594837D01*
X10785714Y26401313D01*
X10785714Y26207789D01*
X10713142Y25917504D01*
X9842285Y24756361D01*
X10785714Y24756361D01*
X11729143Y26788361D02*
X11874286Y26788361D01*
X12019429Y26691599D01*
X12092000Y26594837D01*
X12164571Y26401313D01*
X12237143Y26014266D01*
X12237143Y25530456D01*
X12164571Y25143409D01*
X12092000Y24949885D01*
X12019429Y24853123D01*
X11874286Y24756361D01*
X11729143Y24756361D01*
X11584000Y24853123D01*
X11511429Y24949885D01*
X11438857Y25143409D01*
X11366286Y25530456D01*
X11366286Y26014266D01*
X11438857Y26401313D01*
X11511429Y26594837D01*
X11584000Y26691599D01*
X11729143Y26788361D01*
X13180572Y26788361D02*
X13325715Y26788361D01*
X13470858Y26691599D01*
X13543429Y26594837D01*
X13616000Y26401313D01*
X13688572Y26014266D01*
X13688572Y25530456D01*
X13616000Y25143409D01*
X13543429Y24949885D01*
X13470858Y24853123D01*
X13325715Y24756361D01*
X13180572Y24756361D01*
X13035429Y24853123D01*
X12962858Y24949885D01*
X12890286Y25143409D01*
X12817715Y25530456D01*
X12817715Y26014266D01*
X12890286Y26401313D01*
X12962858Y26594837D01*
X13035429Y26691599D01*
X13180572Y26788361D01*
X15502858Y24756361D02*
X15502858Y26111028D01*
X15502858Y25917504D02*
X15575430Y26014266D01*
X15720572Y26111028D01*
X15938287Y26111028D01*
X16083430Y26014266D01*
X16156001Y25820742D01*
X16156001Y24756361D01*
X16156001Y25820742D02*
X16228572Y26014266D01*
X16373715Y26111028D01*
X16591430Y26111028D01*
X16736572Y26014266D01*
X16809144Y25820742D01*
X16809144Y24756361D01*
X17534858Y24756361D02*
X17534858Y26111028D01*
X17534858Y25917504D02*
X17607430Y26014266D01*
X17752572Y26111028D01*
X17970287Y26111028D01*
X18115430Y26014266D01*
X18188001Y25820742D01*
X18188001Y24756361D01*
X18188001Y25820742D02*
X18260572Y26014266D01*
X18405715Y26111028D01*
X18623430Y26111028D01*
X18768572Y26014266D01*
X18841144Y25820742D01*
X18841144Y24756361D01*
X25200000Y24049999D02*
X0Y24049999D01*
X25200000Y-27900000D02*
X25200000Y27301199D01*
X0Y-27900000D02*
X0Y27301199D01*
X0Y24049999D02*
X1126503Y24636419D01*
X0Y24049999D02*
X1126503Y23463579D01*
X25200000Y24049999D02*
X24073497Y24636419D01*
X25200000Y24049999D02*
X24073497Y23463579D01*
X57931429Y46926361D02*
X57060572Y46926361D01*
X57496000Y46926361D02*
X57496000Y48958361D01*
X57350857Y48668075D01*
X57205715Y48474551D01*
X57060572Y48377789D01*
X58512001Y48764837D02*
X58584572Y48861599D01*
X58729715Y48958361D01*
X59092572Y48958361D01*
X59237715Y48861599D01*
X59310286Y48764837D01*
X59382858Y48571313D01*
X59382858Y48377789D01*
X59310286Y48087504D01*
X58439429Y46926361D01*
X59382858Y46926361D01*
X60253715Y48087504D02*
X60108573Y48184266D01*
X60036001Y48281028D01*
X59963430Y48474551D01*
X59963430Y48571313D01*
X60036001Y48764837D01*
X60108573Y48861599D01*
X60253715Y48958361D01*
X60544001Y48958361D01*
X60689144Y48861599D01*
X60761715Y48764837D01*
X60834287Y48571313D01*
X60834287Y48474551D01*
X60761715Y48281028D01*
X60689144Y48184266D01*
X60544001Y48087504D01*
X60253715Y48087504D01*
X60108573Y47990742D01*
X60036001Y47893980D01*
X59963430Y47700456D01*
X59963430Y47313409D01*
X60036001Y47119885D01*
X60108573Y47023123D01*
X60253715Y46926361D01*
X60544001Y46926361D01*
X60689144Y47023123D01*
X60761715Y47119885D01*
X60834287Y47313409D01*
X60834287Y47700456D01*
X60761715Y47893980D01*
X60689144Y47990742D01*
X60544001Y48087504D01*
X61487430Y47119885D02*
X61560002Y47023123D01*
X61487430Y46926361D01*
X61414859Y47023123D01*
X61487430Y47119885D01*
X61487430Y46926361D01*
X62140573Y48764837D02*
X62213144Y48861599D01*
X62358287Y48958361D01*
X62721144Y48958361D01*
X62866287Y48861599D01*
X62938858Y48764837D01*
X63011430Y48571313D01*
X63011430Y48377789D01*
X62938858Y48087504D01*
X62068001Y46926361D01*
X63011430Y46926361D01*
X63954859Y48958361D02*
X64100002Y48958361D01*
X64245145Y48861599D01*
X64317716Y48764837D01*
X64390287Y48571313D01*
X64462859Y48184266D01*
X64462859Y47700456D01*
X64390287Y47313409D01*
X64317716Y47119885D01*
X64245145Y47023123D01*
X64100002Y46926361D01*
X63954859Y46926361D01*
X63809716Y47023123D01*
X63737145Y47119885D01*
X63664573Y47313409D01*
X63592002Y47700456D01*
X63592002Y48184266D01*
X63664573Y48571313D01*
X63737145Y48764837D01*
X63809716Y48861599D01*
X63954859Y48958361D01*
X65406288Y48958361D02*
X65551431Y48958361D01*
X65696574Y48861599D01*
X65769145Y48764837D01*
X65841716Y48571313D01*
X65914288Y48184266D01*
X65914288Y47700456D01*
X65841716Y47313409D01*
X65769145Y47119885D01*
X65696574Y47023123D01*
X65551431Y46926361D01*
X65406288Y46926361D01*
X65261145Y47023123D01*
X65188574Y47119885D01*
X65116002Y47313409D01*
X65043431Y47700456D01*
X65043431Y48184266D01*
X65116002Y48571313D01*
X65188574Y48764837D01*
X65261145Y48861599D01*
X65406288Y48958361D01*
X67728574Y46926361D02*
X67728574Y48281028D01*
X67728574Y48087504D02*
X67801146Y48184266D01*
X67946288Y48281028D01*
X68164003Y48281028D01*
X68309146Y48184266D01*
X68381717Y47990742D01*
X68381717Y46926361D01*
X68381717Y47990742D02*
X68454288Y48184266D01*
X68599431Y48281028D01*
X68817146Y48281028D01*
X68962288Y48184266D01*
X69034860Y47990742D01*
X69034860Y46926361D01*
X69760574Y46926361D02*
X69760574Y48281028D01*
X69760574Y48087504D02*
X69833146Y48184266D01*
X69978288Y48281028D01*
X70196003Y48281028D01*
X70341146Y48184266D01*
X70413717Y47990742D01*
X70413717Y46926361D01*
X70413717Y47990742D02*
X70486288Y48184266D01*
X70631431Y48281028D01*
X70849146Y48281028D01*
X70994288Y48184266D01*
X71066860Y47990742D01*
X71066860Y46926361D01*
X128200001Y46219999D02*
X1Y46219999D01*
X128200000Y-47000000D02*
X128200001Y49471199D01*
X0Y-47000000D02*
X1Y49471199D01*
X1Y46219999D02*
X1126504Y46806419D01*
X1Y46219999D02*
X1126504Y45633579D01*
X128200001Y46219999D02*
X127073498Y46806419D01*
X128200001Y46219999D02*
X127073498Y45633579D01*
X314060171Y-29088001D02*
X315414838Y-29088001D01*
X313286076Y-29450858D02*
X314737505Y-29813715D01*
X314737505Y-28870287D01*
X313382838Y-28434858D02*
X313382838Y-27418858D01*
X315414838Y-28072001D01*
X315221314Y-26838286D02*
X315318076Y-26765714D01*
X315414838Y-26838286D01*
X315318076Y-26910857D01*
X315221314Y-26838286D01*
X315414838Y-26838286D01*
X313382838Y-25822286D02*
X313382838Y-25677143D01*
X313479600Y-25532000D01*
X313576362Y-25459429D01*
X313769886Y-25386858D01*
X314156933Y-25314286D01*
X314640743Y-25314286D01*
X315027790Y-25386858D01*
X315221314Y-25459429D01*
X315318076Y-25532000D01*
X315414838Y-25677143D01*
X315414838Y-25822286D01*
X315318076Y-25967429D01*
X315221314Y-26040000D01*
X315027790Y-26112572D01*
X314640743Y-26185143D01*
X314156933Y-26185143D01*
X313769886Y-26112572D01*
X313576362Y-26040000D01*
X313479600Y-25967429D01*
X313382838Y-25822286D01*
X313382838Y-24370857D02*
X313382838Y-24225714D01*
X313479600Y-24080571D01*
X313576362Y-24008000D01*
X313769886Y-23935429D01*
X314156933Y-23862857D01*
X314640743Y-23862857D01*
X315027790Y-23935429D01*
X315221314Y-24008000D01*
X315318076Y-24080571D01*
X315414838Y-24225714D01*
X315414838Y-24370857D01*
X315318076Y-24516000D01*
X315221314Y-24588571D01*
X315027790Y-24661143D01*
X314640743Y-24733714D01*
X314156933Y-24733714D01*
X313769886Y-24661143D01*
X313576362Y-24588571D01*
X313479600Y-24516000D01*
X313382838Y-24370857D01*
X313382838Y-22919428D02*
X313382838Y-22774285D01*
X313479600Y-22629142D01*
X313576362Y-22556571D01*
X313769886Y-22484000D01*
X314156933Y-22411428D01*
X314640743Y-22411428D01*
X315027790Y-22484000D01*
X315221314Y-22556571D01*
X315318076Y-22629142D01*
X315414838Y-22774285D01*
X315414838Y-22919428D01*
X315318076Y-23064571D01*
X315221314Y-23137142D01*
X315027790Y-23209714D01*
X314640743Y-23282285D01*
X314156933Y-23282285D01*
X313769886Y-23209714D01*
X313576362Y-23137142D01*
X313479600Y-23064571D01*
X313382838Y-22919428D01*
X315414838Y-20597142D02*
X314060171Y-20597142D01*
X314253695Y-20597142D02*
X314156933Y-20524570D01*
X314060171Y-20379428D01*
X314060171Y-20161713D01*
X314156933Y-20016570D01*
X314350457Y-19943999D01*
X315414838Y-19943999D01*
X314350457Y-19943999D02*
X314156933Y-19871428D01*
X314060171Y-19726285D01*
X314060171Y-19508570D01*
X314156933Y-19363428D01*
X314350457Y-19290856D01*
X315414838Y-19290856D01*
X315414838Y-18565142D02*
X314060171Y-18565142D01*
X314253695Y-18565142D02*
X314156933Y-18492570D01*
X314060171Y-18347428D01*
X314060171Y-18129713D01*
X314156933Y-17984570D01*
X314350457Y-17911999D01*
X315414838Y-17911999D01*
X314350457Y-17911999D02*
X314156933Y-17839428D01*
X314060171Y-17694285D01*
X314060171Y-17476570D01*
X314156933Y-17331428D01*
X314350457Y-17258856D01*
X315414838Y-17258856D01*
X312870000Y-47000000D02*
X312870000Y0D01*
X128220000Y-47000000D02*
X316121200Y-47000000D01*
X128220000Y0D02*
X316121200Y0D01*
X312870000Y0D02*
X313456420Y-1126503D01*
X312870000Y0D02*
X312283580Y-1126503D01*
X312870000Y-47000000D02*
X313456420Y-45873497D01*
X312870000Y-47000000D02*
X312283580Y-45873497D01*
X89081428Y-135414837D02*
X88210571Y-135414837D01*
X88645999Y-135414837D02*
X88645999Y-133382837D01*
X88500856Y-133673123D01*
X88355714Y-133866647D01*
X88210571Y-133963409D01*
X89807143Y-135414837D02*
X90097428Y-135414837D01*
X90242571Y-135318075D01*
X90315143Y-135221313D01*
X90460285Y-134931028D01*
X90532857Y-134543980D01*
X90532857Y-133769885D01*
X90460285Y-133576361D01*
X90387714Y-133479599D01*
X90242571Y-133382837D01*
X89952285Y-133382837D01*
X89807143Y-133479599D01*
X89734571Y-133576361D01*
X89662000Y-133769885D01*
X89662000Y-134253694D01*
X89734571Y-134447218D01*
X89807143Y-134543980D01*
X89952285Y-134640742D01*
X90242571Y-134640742D01*
X90387714Y-134543980D01*
X90460285Y-134447218D01*
X90532857Y-134253694D01*
X91476286Y-133382837D02*
X91621429Y-133382837D01*
X91766572Y-133479599D01*
X91839143Y-133576361D01*
X91911714Y-133769885D01*
X91984286Y-134156932D01*
X91984286Y-134640742D01*
X91911714Y-135027789D01*
X91839143Y-135221313D01*
X91766572Y-135318075D01*
X91621429Y-135414837D01*
X91476286Y-135414837D01*
X91331143Y-135318075D01*
X91258572Y-135221313D01*
X91186000Y-135027789D01*
X91113429Y-134640742D01*
X91113429Y-134156932D01*
X91186000Y-133769885D01*
X91258572Y-133576361D01*
X91331143Y-133479599D01*
X91476286Y-133382837D01*
X92637429Y-135221313D02*
X92710001Y-135318075D01*
X92637429Y-135414837D01*
X92564858Y-135318075D01*
X92637429Y-135221313D01*
X92637429Y-135414837D01*
X94088857Y-133382837D02*
X93363143Y-133382837D01*
X93290572Y-134350456D01*
X93363143Y-134253694D01*
X93508286Y-134156932D01*
X93871143Y-134156932D01*
X94016286Y-134253694D01*
X94088857Y-134350456D01*
X94161429Y-134543980D01*
X94161429Y-135027789D01*
X94088857Y-135221313D01*
X94016286Y-135318075D01*
X93871143Y-135414837D01*
X93508286Y-135414837D01*
X93363143Y-135318075D01*
X93290572Y-135221313D01*
X95104858Y-133382837D02*
X95250001Y-133382837D01*
X95395144Y-133479599D01*
X95467715Y-133576361D01*
X95540286Y-133769885D01*
X95612858Y-134156932D01*
X95612858Y-134640742D01*
X95540286Y-135027789D01*
X95467715Y-135221313D01*
X95395144Y-135318075D01*
X95250001Y-135414837D01*
X95104858Y-135414837D01*
X94959715Y-135318075D01*
X94887144Y-135221313D01*
X94814572Y-135027789D01*
X94742001Y-134640742D01*
X94742001Y-134156932D01*
X94814572Y-133769885D01*
X94887144Y-133576361D01*
X94959715Y-133479599D01*
X95104858Y-133382837D01*
X96556287Y-133382837D02*
X96701430Y-133382837D01*
X96846573Y-133479599D01*
X96919144Y-133576361D01*
X96991715Y-133769885D01*
X97064287Y-134156932D01*
X97064287Y-134640742D01*
X96991715Y-135027789D01*
X96919144Y-135221313D01*
X96846573Y-135318075D01*
X96701430Y-135414837D01*
X96556287Y-135414837D01*
X96411144Y-135318075D01*
X96338573Y-135221313D01*
X96266001Y-135027789D01*
X96193430Y-134640742D01*
X96193430Y-134156932D01*
X96266001Y-133769885D01*
X96338573Y-133576361D01*
X96411144Y-133479599D01*
X96556287Y-133382837D01*
X98878573Y-135414837D02*
X98878573Y-134060170D01*
X98878573Y-134253694D02*
X98951145Y-134156932D01*
X99096287Y-134060170D01*
X99314002Y-134060170D01*
X99459145Y-134156932D01*
X99531716Y-134350456D01*
X99531716Y-135414837D01*
X99531716Y-134350456D02*
X99604287Y-134156932D01*
X99749430Y-134060170D01*
X99967145Y-134060170D01*
X100112287Y-134156932D01*
X100184859Y-134350456D01*
X100184859Y-135414837D01*
X100910573Y-135414837D02*
X100910573Y-134060170D01*
X100910573Y-134253694D02*
X100983145Y-134156932D01*
X101128287Y-134060170D01*
X101346002Y-134060170D01*
X101491145Y-134156932D01*
X101563716Y-134350456D01*
X101563716Y-135414837D01*
X101563716Y-134350456D02*
X101636287Y-134156932D01*
X101781430Y-134060170D01*
X101999145Y-134060170D01*
X102144287Y-134156932D01*
X102216859Y-134350456D01*
X102216859Y-135414837D01*
X190500000Y-132869999D02*
X0Y-132869999D01*
X190500000Y-85200000D02*
X190500000Y-136121199D01*
X0Y-85200000D02*
X0Y-136121199D01*
X0Y-132869999D02*
X1126503Y-132283579D01*
X0Y-132869999D02*
X1126503Y-133456419D01*
X190500000Y-132869999D02*
X189373497Y-132283579D01*
X190500000Y-132869999D02*
X189373497Y-133456419D01*
X-44368362Y-33765430D02*
X-44368362Y-34491144D01*
X-43400743Y-34563715D01*
X-43497505Y-34491144D01*
X-43594267Y-34346001D01*
X-43594267Y-33983144D01*
X-43497505Y-33838001D01*
X-43400743Y-33765430D01*
X-43207219Y-33692858D01*
X-42723410Y-33692858D01*
X-42529886Y-33765430D01*
X-42433124Y-33838001D01*
X-42336362Y-33983144D01*
X-42336362Y-34346001D01*
X-42433124Y-34491144D01*
X-42529886Y-34563715D01*
X-44368362Y-32386572D02*
X-44368362Y-32676858D01*
X-44271600Y-32822001D01*
X-44174838Y-32894572D01*
X-43884552Y-33039715D01*
X-43497505Y-33112286D01*
X-42723410Y-33112286D01*
X-42529886Y-33039715D01*
X-42433124Y-32967143D01*
X-42336362Y-32822001D01*
X-42336362Y-32531715D01*
X-42433124Y-32386572D01*
X-42529886Y-32314001D01*
X-42723410Y-32241429D01*
X-43207219Y-32241429D01*
X-43400743Y-32314001D01*
X-43497505Y-32386572D01*
X-43594267Y-32531715D01*
X-43594267Y-32822001D01*
X-43497505Y-32967143D01*
X-43400743Y-33039715D01*
X-43207219Y-33112286D01*
X-42529886Y-31588286D02*
X-42433124Y-31515714D01*
X-42336362Y-31588286D01*
X-42433124Y-31660857D01*
X-42529886Y-31588286D01*
X-42336362Y-31588286D01*
X-44368362Y-30136858D02*
X-44368362Y-30862572D01*
X-43400743Y-30935143D01*
X-43497505Y-30862572D01*
X-43594267Y-30717429D01*
X-43594267Y-30354572D01*
X-43497505Y-30209429D01*
X-43400743Y-30136858D01*
X-43207219Y-30064286D01*
X-42723410Y-30064286D01*
X-42529886Y-30136858D01*
X-42433124Y-30209429D01*
X-42336362Y-30354572D01*
X-42336362Y-30717429D01*
X-42433124Y-30862572D01*
X-42529886Y-30935143D01*
X-44368362Y-29120857D02*
X-44368362Y-28975714D01*
X-44271600Y-28830571D01*
X-44174838Y-28758000D01*
X-43981314Y-28685429D01*
X-43594267Y-28612857D01*
X-43110457Y-28612857D01*
X-42723410Y-28685429D01*
X-42529886Y-28758000D01*
X-42433124Y-28830571D01*
X-42336362Y-28975714D01*
X-42336362Y-29120857D01*
X-42433124Y-29266000D01*
X-42529886Y-29338571D01*
X-42723410Y-29411143D01*
X-43110457Y-29483714D01*
X-43594267Y-29483714D01*
X-43981314Y-29411143D01*
X-44174838Y-29338571D01*
X-44271600Y-29266000D01*
X-44368362Y-29120857D01*
X-44368362Y-27669428D02*
X-44368362Y-27524285D01*
X-44271600Y-27379142D01*
X-44174838Y-27306571D01*
X-43981314Y-27234000D01*
X-43594267Y-27161428D01*
X-43110457Y-27161428D01*
X-42723410Y-27234000D01*
X-42529886Y-27306571D01*
X-42433124Y-27379142D01*
X-42336362Y-27524285D01*
X-42336362Y-27669428D01*
X-42433124Y-27814571D01*
X-42529886Y-27887142D01*
X-42723410Y-27959714D01*
X-43110457Y-28032285D01*
X-43594267Y-28032285D01*
X-43981314Y-27959714D01*
X-44174838Y-27887142D01*
X-44271600Y-27814571D01*
X-44368362Y-27669428D01*
X-42336362Y-25347142D02*
X-43691029Y-25347142D01*
X-43497505Y-25347142D02*
X-43594267Y-25274570D01*
X-43691029Y-25129428D01*
X-43691029Y-24911713D01*
X-43594267Y-24766570D01*
X-43400743Y-24693999D01*
X-42336362Y-24693999D01*
X-43400743Y-24693999D02*
X-43594267Y-24621428D01*
X-43691029Y-24476285D01*
X-43691029Y-24258570D01*
X-43594267Y-24113428D01*
X-43400743Y-24040856D01*
X-42336362Y-24040856D01*
X-42336362Y-23315142D02*
X-43691029Y-23315142D01*
X-43497505Y-23315142D02*
X-43594267Y-23242570D01*
X-43691029Y-23097428D01*
X-43691029Y-22879713D01*
X-43594267Y-22734570D01*
X-43400743Y-22661999D01*
X-42336362Y-22661999D01*
X-43400743Y-22661999D02*
X-43594267Y-22589428D01*
X-43691029Y-22444285D01*
X-43691029Y-22226570D01*
X-43594267Y-22081428D01*
X-43400743Y-22008856D01*
X-42336362Y-22008856D01*
X-41630000Y-56500000D02*
X-41630000Y0D01*
X1460000Y-56500000D02*
X-44881200Y-56500000D01*
X1460000Y0D02*
X-44881200Y0D01*
X-41630000Y0D02*
X-41043580Y-1126503D01*
X-41630000Y0D02*
X-42216420Y-1126503D01*
X-41630000Y-56500000D02*
X-41043580Y-55373497D01*
X-41630000Y-56500000D02*
X-42216420Y-55373497D01*
X266211287Y24584837D02*
X266283858Y24681599D01*
X266429001Y24778361D01*
X266791858Y24778361D01*
X266937001Y24681599D01*
X267009572Y24584837D01*
X267082144Y24391313D01*
X267082144Y24197789D01*
X267009572Y23907504D01*
X266138715Y22746361D01*
X267082144Y22746361D01*
X268388430Y24101028D02*
X268388430Y22746361D01*
X268025573Y24875123D02*
X267662716Y23423694D01*
X268606144Y23423694D01*
X269186716Y22939885D02*
X269259288Y22843123D01*
X269186716Y22746361D01*
X269114145Y22843123D01*
X269186716Y22939885D01*
X269186716Y22746361D01*
X269985002Y22746361D02*
X270275287Y22746361D01*
X270420430Y22843123D01*
X270493002Y22939885D01*
X270638144Y23230170D01*
X270710716Y23617218D01*
X270710716Y24391313D01*
X270638144Y24584837D01*
X270565573Y24681599D01*
X270420430Y24778361D01*
X270130144Y24778361D01*
X269985002Y24681599D01*
X269912430Y24584837D01*
X269839859Y24391313D01*
X269839859Y23907504D01*
X269912430Y23713980D01*
X269985002Y23617218D01*
X270130144Y23520456D01*
X270420430Y23520456D01*
X270565573Y23617218D01*
X270638144Y23713980D01*
X270710716Y23907504D01*
X272089573Y24778361D02*
X271363859Y24778361D01*
X271291288Y23810742D01*
X271363859Y23907504D01*
X271509002Y24004266D01*
X271871859Y24004266D01*
X272017002Y23907504D01*
X272089573Y23810742D01*
X272162145Y23617218D01*
X272162145Y23133409D01*
X272089573Y22939885D01*
X272017002Y22843123D01*
X271871859Y22746361D01*
X271509002Y22746361D01*
X271363859Y22843123D01*
X271291288Y22939885D01*
X273105574Y24778361D02*
X273250717Y24778361D01*
X273395860Y24681599D01*
X273468431Y24584837D01*
X273541002Y24391313D01*
X273613574Y24004266D01*
X273613574Y23520456D01*
X273541002Y23133409D01*
X273468431Y22939885D01*
X273395860Y22843123D01*
X273250717Y22746361D01*
X273105574Y22746361D01*
X272960431Y22843123D01*
X272887860Y22939885D01*
X272815288Y23133409D01*
X272742717Y23520456D01*
X272742717Y24004266D01*
X272815288Y24391313D01*
X272887860Y24584837D01*
X272960431Y24681599D01*
X273105574Y24778361D01*
X275427860Y22746361D02*
X275427860Y24101028D01*
X275427860Y23907504D02*
X275500432Y24004266D01*
X275645574Y24101028D01*
X275863289Y24101028D01*
X276008432Y24004266D01*
X276081003Y23810742D01*
X276081003Y22746361D01*
X276081003Y23810742D02*
X276153574Y24004266D01*
X276298717Y24101028D01*
X276516432Y24101028D01*
X276661574Y24004266D01*
X276734146Y23810742D01*
X276734146Y22746361D01*
X277459860Y22746361D02*
X277459860Y24101028D01*
X277459860Y23907504D02*
X277532432Y24004266D01*
X277677574Y24101028D01*
X277895289Y24101028D01*
X278040432Y24004266D01*
X278113003Y23810742D01*
X278113003Y22746361D01*
X278113003Y23810742D02*
X278185574Y24004266D01*
X278330717Y24101028D01*
X278548432Y24101028D01*
X278693574Y24004266D01*
X278766146Y23810742D01*
X278766146Y22746361D01*
X260050002Y22039999D02*
X285000002Y22039999D01*
X260050000Y-27900000D02*
X260050002Y25291199D01*
X285000000Y-27900000D02*
X285000002Y25291199D01*
X285000002Y22039999D02*
X283873499Y21453579D01*
X285000002Y22039999D02*
X283873499Y22626419D01*
X260050002Y22039999D02*
X261176505Y21453579D01*
X260050002Y22039999D02*
X261176505Y22626419D01*
X305676362Y-20263715D02*
X305579600Y-20191144D01*
X305482838Y-20046001D01*
X305482838Y-19683144D01*
X305579600Y-19538001D01*
X305676362Y-19465430D01*
X305869886Y-19392858D01*
X306063410Y-19392858D01*
X306353695Y-19465430D01*
X307514838Y-20336287D01*
X307514838Y-19392858D01*
X305482838Y-18884858D02*
X305482838Y-17868858D01*
X307514838Y-18522001D01*
X307321314Y-17288286D02*
X307418076Y-17215714D01*
X307514838Y-17288286D01*
X307418076Y-17360857D01*
X307321314Y-17288286D01*
X307514838Y-17288286D01*
X307514838Y-16490000D02*
X307514838Y-16199715D01*
X307418076Y-16054572D01*
X307321314Y-15982000D01*
X307031029Y-15836858D01*
X306643981Y-15764286D01*
X305869886Y-15764286D01*
X305676362Y-15836858D01*
X305579600Y-15909429D01*
X305482838Y-16054572D01*
X305482838Y-16344858D01*
X305579600Y-16490000D01*
X305676362Y-16562572D01*
X305869886Y-16635143D01*
X306353695Y-16635143D01*
X306547219Y-16562572D01*
X306643981Y-16490000D01*
X306740743Y-16344858D01*
X306740743Y-16054572D01*
X306643981Y-15909429D01*
X306547219Y-15836858D01*
X306353695Y-15764286D01*
X305482838Y-14820857D02*
X305482838Y-14675714D01*
X305579600Y-14530571D01*
X305676362Y-14458000D01*
X305869886Y-14385429D01*
X306256933Y-14312857D01*
X306740743Y-14312857D01*
X307127790Y-14385429D01*
X307321314Y-14458000D01*
X307418076Y-14530571D01*
X307514838Y-14675714D01*
X307514838Y-14820857D01*
X307418076Y-14966000D01*
X307321314Y-15038571D01*
X307127790Y-15111143D01*
X306740743Y-15183714D01*
X306256933Y-15183714D01*
X305869886Y-15111143D01*
X305676362Y-15038571D01*
X305579600Y-14966000D01*
X305482838Y-14820857D01*
X305482838Y-13369428D02*
X305482838Y-13224285D01*
X305579600Y-13079142D01*
X305676362Y-13006571D01*
X305869886Y-12934000D01*
X306256933Y-12861428D01*
X306740743Y-12861428D01*
X307127790Y-12934000D01*
X307321314Y-13006571D01*
X307418076Y-13079142D01*
X307514838Y-13224285D01*
X307514838Y-13369428D01*
X307418076Y-13514571D01*
X307321314Y-13587142D01*
X307127790Y-13659714D01*
X306740743Y-13732285D01*
X306256933Y-13732285D01*
X305869886Y-13659714D01*
X305676362Y-13587142D01*
X305579600Y-13514571D01*
X305482838Y-13369428D01*
X307514838Y-11047142D02*
X306160171Y-11047142D01*
X306353695Y-11047142D02*
X306256933Y-10974570D01*
X306160171Y-10829428D01*
X306160171Y-10611713D01*
X306256933Y-10466570D01*
X306450457Y-10393999D01*
X307514838Y-10393999D01*
X306450457Y-10393999D02*
X306256933Y-10321428D01*
X306160171Y-10176285D01*
X306160171Y-9958570D01*
X306256933Y-9813428D01*
X306450457Y-9740856D01*
X307514838Y-9740856D01*
X307514838Y-9015142D02*
X306160171Y-9015142D01*
X306353695Y-9015142D02*
X306256933Y-8942570D01*
X306160171Y-8797428D01*
X306160171Y-8579713D01*
X306256933Y-8434570D01*
X306450457Y-8361999D01*
X307514838Y-8361999D01*
X306450457Y-8361999D02*
X306256933Y-8289428D01*
X306160171Y-8144285D01*
X306160171Y-7926570D01*
X306256933Y-7781428D01*
X306450457Y-7708856D01*
X307514838Y-7708856D01*
X304970000Y-27900000D02*
X304970000Y0D01*
X260050000Y-27900000D02*
X308221200Y-27900000D01*
X260050000Y0D02*
X308221200Y0D01*
X304970000Y0D02*
X305556420Y-1126503D01*
X304970000Y0D02*
X304383580Y-1126503D01*
X304970000Y-27900000D02*
X305556420Y-26773497D01*
X304970000Y-27900000D02*
X304383580Y-26773497D01*
X322663695Y-48623430D02*
X322566933Y-48768572D01*
X322470171Y-48841144D01*
X322276648Y-48913715D01*
X322179886Y-48913715D01*
X321986362Y-48841144D01*
X321889600Y-48768572D01*
X321792838Y-48623430D01*
X321792838Y-48333144D01*
X321889600Y-48188001D01*
X321986362Y-48115430D01*
X322179886Y-48042858D01*
X322276648Y-48042858D01*
X322470171Y-48115430D01*
X322566933Y-48188001D01*
X322663695Y-48333144D01*
X322663695Y-48623430D01*
X322760457Y-48768572D01*
X322857219Y-48841144D01*
X323050743Y-48913715D01*
X323437790Y-48913715D01*
X323631314Y-48841144D01*
X323728076Y-48768572D01*
X323824838Y-48623430D01*
X323824838Y-48333144D01*
X323728076Y-48188001D01*
X323631314Y-48115430D01*
X323437790Y-48042858D01*
X323050743Y-48042858D01*
X322857219Y-48115430D01*
X322760457Y-48188001D01*
X322663695Y-48333144D01*
X321792838Y-46664001D02*
X321792838Y-47389715D01*
X322760457Y-47462286D01*
X322663695Y-47389715D01*
X322566933Y-47244572D01*
X322566933Y-46881715D01*
X322663695Y-46736572D01*
X322760457Y-46664001D01*
X322953981Y-46591429D01*
X323437790Y-46591429D01*
X323631314Y-46664001D01*
X323728076Y-46736572D01*
X323824838Y-46881715D01*
X323824838Y-47244572D01*
X323728076Y-47389715D01*
X323631314Y-47462286D01*
X323631314Y-45938286D02*
X323728076Y-45865714D01*
X323824838Y-45938286D01*
X323728076Y-46010857D01*
X323631314Y-45938286D01*
X323824838Y-45938286D01*
X321986362Y-45285143D02*
X321889600Y-45212572D01*
X321792838Y-45067429D01*
X321792838Y-44704572D01*
X321889600Y-44559429D01*
X321986362Y-44486858D01*
X322179886Y-44414286D01*
X322373410Y-44414286D01*
X322663695Y-44486858D01*
X323824838Y-45357715D01*
X323824838Y-44414286D01*
X321792838Y-43470857D02*
X321792838Y-43325714D01*
X321889600Y-43180571D01*
X321986362Y-43108000D01*
X322179886Y-43035429D01*
X322566933Y-42962857D01*
X323050743Y-42962857D01*
X323437790Y-43035429D01*
X323631314Y-43108000D01*
X323728076Y-43180571D01*
X323824838Y-43325714D01*
X323824838Y-43470857D01*
X323728076Y-43616000D01*
X323631314Y-43688571D01*
X323437790Y-43761143D01*
X323050743Y-43833714D01*
X322566933Y-43833714D01*
X322179886Y-43761143D01*
X321986362Y-43688571D01*
X321889600Y-43616000D01*
X321792838Y-43470857D01*
X321792838Y-42019428D02*
X321792838Y-41874285D01*
X321889600Y-41729142D01*
X321986362Y-41656571D01*
X322179886Y-41584000D01*
X322566933Y-41511428D01*
X323050743Y-41511428D01*
X323437790Y-41584000D01*
X323631314Y-41656571D01*
X323728076Y-41729142D01*
X323824838Y-41874285D01*
X323824838Y-42019428D01*
X323728076Y-42164571D01*
X323631314Y-42237142D01*
X323437790Y-42309714D01*
X323050743Y-42382285D01*
X322566933Y-42382285D01*
X322179886Y-42309714D01*
X321986362Y-42237142D01*
X321889600Y-42164571D01*
X321792838Y-42019428D01*
X323824838Y-39697142D02*
X322470171Y-39697142D01*
X322663695Y-39697142D02*
X322566933Y-39624570D01*
X322470171Y-39479428D01*
X322470171Y-39261713D01*
X322566933Y-39116570D01*
X322760457Y-39043999D01*
X323824838Y-39043999D01*
X322760457Y-39043999D02*
X322566933Y-38971428D01*
X322470171Y-38826285D01*
X322470171Y-38608570D01*
X322566933Y-38463428D01*
X322760457Y-38390856D01*
X323824838Y-38390856D01*
X323824838Y-37665142D02*
X322470171Y-37665142D01*
X322663695Y-37665142D02*
X322566933Y-37592570D01*
X322470171Y-37447428D01*
X322470171Y-37229713D01*
X322566933Y-37084570D01*
X322760457Y-37011999D01*
X323824838Y-37011999D01*
X322760457Y-37011999D02*
X322566933Y-36939428D01*
X322470171Y-36794285D01*
X322470171Y-36576570D01*
X322566933Y-36431428D01*
X322760457Y-36358856D01*
X323824838Y-36358856D01*
X321280000Y-85200000D02*
X321280000Y0D01*
X190500000Y-85200000D02*
X324531200Y-85200000D01*
X190500000Y0D02*
X324531200Y0D01*
X321280000Y0D02*
X321866420Y-1126503D01*
X321280000Y0D02*
X320693580Y-1126503D01*
X321280000Y-85200000D02*
X321866420Y-84073497D01*
X321280000Y-85200000D02*
X320693580Y-84073497D01*
X-33624838Y-20263715D02*
X-33721600Y-20191144D01*
X-33818362Y-20046001D01*
X-33818362Y-19683144D01*
X-33721600Y-19538001D01*
X-33624838Y-19465430D01*
X-33431314Y-19392858D01*
X-33237790Y-19392858D01*
X-32947505Y-19465430D01*
X-31786362Y-20336287D01*
X-31786362Y-19392858D01*
X-33818362Y-18884858D02*
X-33818362Y-17868858D01*
X-31786362Y-18522001D01*
X-31979886Y-17288286D02*
X-31883124Y-17215714D01*
X-31786362Y-17288286D01*
X-31883124Y-17360857D01*
X-31979886Y-17288286D01*
X-31786362Y-17288286D01*
X-31786362Y-16490000D02*
X-31786362Y-16199715D01*
X-31883124Y-16054572D01*
X-31979886Y-15982000D01*
X-32270171Y-15836858D01*
X-32657219Y-15764286D01*
X-33431314Y-15764286D01*
X-33624838Y-15836858D01*
X-33721600Y-15909429D01*
X-33818362Y-16054572D01*
X-33818362Y-16344858D01*
X-33721600Y-16490000D01*
X-33624838Y-16562572D01*
X-33431314Y-16635143D01*
X-32947505Y-16635143D01*
X-32753981Y-16562572D01*
X-32657219Y-16490000D01*
X-32560457Y-16344858D01*
X-32560457Y-16054572D01*
X-32657219Y-15909429D01*
X-32753981Y-15836858D01*
X-32947505Y-15764286D01*
X-33818362Y-14820857D02*
X-33818362Y-14675714D01*
X-33721600Y-14530571D01*
X-33624838Y-14458000D01*
X-33431314Y-14385429D01*
X-33044267Y-14312857D01*
X-32560457Y-14312857D01*
X-32173410Y-14385429D01*
X-31979886Y-14458000D01*
X-31883124Y-14530571D01*
X-31786362Y-14675714D01*
X-31786362Y-14820857D01*
X-31883124Y-14966000D01*
X-31979886Y-15038571D01*
X-32173410Y-15111143D01*
X-32560457Y-15183714D01*
X-33044267Y-15183714D01*
X-33431314Y-15111143D01*
X-33624838Y-15038571D01*
X-33721600Y-14966000D01*
X-33818362Y-14820857D01*
X-33818362Y-13369428D02*
X-33818362Y-13224285D01*
X-33721600Y-13079142D01*
X-33624838Y-13006571D01*
X-33431314Y-12934000D01*
X-33044267Y-12861428D01*
X-32560457Y-12861428D01*
X-32173410Y-12934000D01*
X-31979886Y-13006571D01*
X-31883124Y-13079142D01*
X-31786362Y-13224285D01*
X-31786362Y-13369428D01*
X-31883124Y-13514571D01*
X-31979886Y-13587142D01*
X-32173410Y-13659714D01*
X-32560457Y-13732285D01*
X-33044267Y-13732285D01*
X-33431314Y-13659714D01*
X-33624838Y-13587142D01*
X-33721600Y-13514571D01*
X-33818362Y-13369428D01*
X-31786362Y-11047142D02*
X-33141029Y-11047142D01*
X-32947505Y-11047142D02*
X-33044267Y-10974570D01*
X-33141029Y-10829428D01*
X-33141029Y-10611713D01*
X-33044267Y-10466570D01*
X-32850743Y-10393999D01*
X-31786362Y-10393999D01*
X-32850743Y-10393999D02*
X-33044267Y-10321428D01*
X-33141029Y-10176285D01*
X-33141029Y-9958570D01*
X-33044267Y-9813428D01*
X-32850743Y-9740856D01*
X-31786362Y-9740856D01*
X-31786362Y-9015142D02*
X-33141029Y-9015142D01*
X-32947505Y-9015142D02*
X-33044267Y-8942570D01*
X-33141029Y-8797428D01*
X-33141029Y-8579713D01*
X-33044267Y-8434570D01*
X-32850743Y-8361999D01*
X-31786362Y-8361999D01*
X-32850743Y-8361999D02*
X-33044267Y-8289428D01*
X-33141029Y-8144285D01*
X-33141029Y-7926570D01*
X-33044267Y-7781428D01*
X-32850743Y-7708856D01*
X-31786362Y-7708856D01*
X-31080000Y-27900000D02*
X-31080000Y0D01*
X25220000Y-27900000D02*
X-34331200Y-27900000D01*
X25220000Y0D02*
X-34331200Y0D01*
X-31080000Y0D02*
X-30493580Y-1126503D01*
X-31080000Y0D02*
X-31666420Y-1126503D01*
X-31080000Y-27900000D02*
X-30493580Y-26773497D01*
X-31080000Y-27900000D02*
X-31666420Y-26773497D01*
M02*
