G04 #@! TF.FileFunction,Paste,Bot*
%FSLAX46Y46*%
G04 Gerber Fmt 4.6, Leading zero omitted, Abs format (unit mm)*
G04 Created by KiCad (PCBNEW 4.0.2-stable) date Mon 02 May 2016 10:51:51 AM CEST*
%MOMM*%
G01*
G04 APERTURE LIST*
%ADD10C,0.150000*%
%ADD11R,0.849000X1.357000*%
%ADD12R,1.357000X0.849000*%
%ADD13R,1.110620X1.359540*%
%ADD14R,2.009780X3.960500*%
%ADD15R,2.009780X3.460120*%
%ADD16O,0.460400X2.460000*%
%ADD17O,1.859920X0.366400*%
%ADD18O,0.366400X1.859920*%
%ADD19R,0.960000X3.060000*%
G04 APERTURE END LIST*
D10*
D11*
X174628500Y-13739000D03*
X176533500Y-13739000D03*
X164722500Y-32789000D03*
X166627500Y-32789000D03*
X169294500Y-51712000D03*
X171199500Y-51712000D03*
X88522500Y-32789000D03*
X90427500Y-32789000D03*
X150117500Y-51712000D03*
X152022500Y-51712000D03*
X145672500Y-32789000D03*
X147577500Y-32789000D03*
X155197500Y-13739000D03*
X157102500Y-13739000D03*
X136147500Y-13739000D03*
X138052500Y-13739000D03*
X126749500Y-32789000D03*
X128654500Y-32789000D03*
X131448500Y-51712000D03*
X133353500Y-51712000D03*
X93475500Y-51712000D03*
X95380500Y-51712000D03*
X3305500Y-22375000D03*
X5210500Y-22375000D03*
X117478500Y-13739000D03*
X119383500Y-13739000D03*
X78870500Y-13739000D03*
X80775500Y-13739000D03*
X66424500Y-60221000D03*
X68329500Y-60221000D03*
X73917500Y-51712000D03*
X75822500Y-51712000D03*
X69472500Y-32789000D03*
X71377500Y-32789000D03*
X59439500Y-13866000D03*
X61344500Y-13866000D03*
X104397500Y-60348000D03*
X106302500Y-60348000D03*
X112144500Y-51712000D03*
X114049500Y-51712000D03*
X107572500Y-32789000D03*
X109477500Y-32789000D03*
X99063500Y-11834000D03*
X100968500Y-11834000D03*
X45342500Y-70762000D03*
X47247500Y-70762000D03*
X27181500Y-70762000D03*
X29086500Y-70762000D03*
X55756500Y-51712000D03*
X57661500Y-51712000D03*
X50422500Y-32789000D03*
X52327500Y-32789000D03*
X36198500Y-51712000D03*
X38103500Y-51712000D03*
X31245500Y-32789000D03*
X33150500Y-32789000D03*
X4956500Y-70762000D03*
X6861500Y-70762000D03*
X7496500Y-32789000D03*
X9401500Y-32789000D03*
X40643500Y-13739000D03*
X42548500Y-13739000D03*
X36833500Y-13739000D03*
X38738500Y-13739000D03*
X5083500Y-51712000D03*
X6988500Y-51712000D03*
X128400500Y-79017000D03*
X130305500Y-79017000D03*
X66932500Y-82192000D03*
X68837500Y-82192000D03*
X31880500Y-79017000D03*
X33785500Y-79017000D03*
X5083500Y-79017000D03*
X6988500Y-79017000D03*
X140719500Y-70762000D03*
X142624500Y-70762000D03*
X121923500Y-70762000D03*
X123828500Y-70762000D03*
X85347500Y-60221000D03*
X87252500Y-60221000D03*
X211966500Y-13739000D03*
X213871500Y-13739000D03*
X231016500Y-13739000D03*
X232921500Y-13739000D03*
X260607500Y-12088000D03*
X262512500Y-12088000D03*
X221872500Y-32789000D03*
X223777500Y-32789000D03*
X240795500Y-32789000D03*
X242700500Y-32789000D03*
X275466500Y-21994000D03*
X277371500Y-21994000D03*
X207140500Y-51712000D03*
X209045500Y-51712000D03*
X225936500Y-51585000D03*
X227841500Y-51585000D03*
X244478500Y-40536000D03*
X246383500Y-40536000D03*
X258321500Y-40536000D03*
X260226500Y-40536000D03*
X193261940Y-79070340D03*
X195166940Y-79070340D03*
X216284500Y-79271000D03*
X218189500Y-79271000D03*
X234826500Y-79271000D03*
X236731500Y-79271000D03*
X279657500Y-78382000D03*
X281562500Y-78382000D03*
X256035500Y-59459000D03*
X257940500Y-59459000D03*
X236350500Y-60221000D03*
X238255500Y-60221000D03*
X216538500Y-70762000D03*
X218443500Y-70762000D03*
X197996500Y-70762000D03*
X199901500Y-70762000D03*
X179073500Y-70762000D03*
X180978500Y-70762000D03*
X159515500Y-70762000D03*
X161420500Y-70762000D03*
X202949500Y-32789000D03*
X204854500Y-32789000D03*
X192789500Y-13739000D03*
X194694500Y-13739000D03*
X183645500Y-32789000D03*
X185550500Y-32789000D03*
X188090500Y-51712000D03*
X189995500Y-51712000D03*
X269116500Y-12088000D03*
X271021500Y-12088000D03*
X105667500Y-78382000D03*
X107572500Y-78382000D03*
X110239500Y-82319000D03*
X108334500Y-82319000D03*
X110239500Y-89685000D03*
X108334500Y-89685000D03*
X91824500Y-78445500D03*
X89919500Y-78445500D03*
X90808500Y-88542000D03*
X88903500Y-88542000D03*
X112398500Y-87907000D03*
X114303500Y-87907000D03*
X112398500Y-83462000D03*
X114303500Y-83462000D03*
X11052500Y-22375000D03*
X9147500Y-22375000D03*
X80902500Y-86510000D03*
X78997500Y-86510000D03*
X112398500Y-79271000D03*
X110493500Y-79271000D03*
D12*
X19752000Y-13802500D03*
X19752000Y-11897500D03*
X17593000Y-13802500D03*
X17593000Y-11897500D03*
D13*
X108486900Y-84902180D03*
X108486900Y-87101820D03*
X110087100Y-84902180D03*
X110087100Y-87101820D03*
D14*
X23125060Y-1968980D03*
X13274940Y-1968980D03*
D15*
X13274940Y-6220940D03*
X23125060Y-6220940D03*
D16*
X18200000Y-6220900D03*
X17399900Y-6220900D03*
X16599800Y-6220900D03*
X19000100Y-6220900D03*
X19800200Y-6220900D03*
D17*
X93279920Y-84290040D03*
X93279920Y-83489940D03*
X93279920Y-82689840D03*
X93279920Y-81889740D03*
X93279920Y-81089640D03*
X93279920Y-80289540D03*
X93279920Y-85090140D03*
X93279920Y-85890240D03*
X93279920Y-86690340D03*
X93279920Y-87490440D03*
X93279920Y-88290540D03*
X104709920Y-84290040D03*
X104709920Y-83489940D03*
X104709920Y-82689840D03*
X104709920Y-81889740D03*
X104709920Y-81089640D03*
X104709920Y-80289540D03*
X104709920Y-85090140D03*
X104709920Y-85890240D03*
X104709920Y-86690340D03*
X104709920Y-87490440D03*
X104709920Y-88290540D03*
D18*
X98994920Y-78575040D03*
X98994920Y-90005040D03*
X99795020Y-78575040D03*
X99795020Y-90005040D03*
X100595120Y-90005040D03*
X100595120Y-78575040D03*
X101395220Y-78575040D03*
X101395220Y-90005040D03*
X102195320Y-90005040D03*
X102195320Y-78575040D03*
X102995420Y-78575040D03*
X102995420Y-90005040D03*
X98194820Y-90005040D03*
X98194820Y-78575040D03*
X97394720Y-78575040D03*
X97394720Y-90005040D03*
X96594620Y-90005040D03*
X96594620Y-78575040D03*
X95794520Y-78575040D03*
X95794520Y-90005040D03*
X94994420Y-90005040D03*
X94994420Y-78575040D03*
D19*
X27149500Y-43748000D03*
X31150000Y-52648000D03*
X27152000Y-52648000D03*
X31150000Y-43748000D03*
M02*
